<svg width="146" height="105" viewBox="0 0 146 105" fill="none" xmlns="http://www.w3.org/2000/svg">
<path d="M11.55 90.6L10.77 91.2258L10.7744 91.2313L11.55 90.6ZM11.55 14.4L10.7744 13.7687L10.77 13.7742L11.55 14.4ZM72.9 14.4L72.12 15.0258L72.1244 15.0313L72.9 14.4ZM72.9 90.6L72.1244 89.9687L72.12 89.9742L72.9 90.6ZM51.3 80.4L51.9562 81.1546L51.9653 81.1467L51.9743 81.1385L51.3 80.4ZM56.25 70.5L55.2774 70.2674L55.2756 70.2752L55.2738 70.2831L56.25 70.5ZM56.25 34.65L55.2728 34.8624L55.2756 34.875L55.2786 34.8875L56.25 34.65ZM51.3 24.75L50.6257 25.4885L50.6347 25.4966L50.6438 25.5046L51.3 24.75ZM33.3 24.75L33.9562 25.5046L33.9585 25.5026L33.3 24.75ZM28.2 34.65L27.2274 34.4174L27.2256 34.4252L27.2238 34.4331L28.2 34.65ZM28.2 70.5L27.2228 70.7124L27.2256 70.725L27.2286 70.7374L28.2 70.5ZM33.3 80.4L32.6257 81.1385L32.6424 81.1537L32.6598 81.1682L33.3 80.4ZM42.3 102.5C29.0287 102.5 19.0944 98.2847 12.3256 89.9687L10.7744 91.2313C18.0056 100.115 28.5713 104.5 42.3 104.5V102.5ZM12.33 89.9742C5.63008 81.6236 2.2 69.1859 2.2 52.5H0.2C0.2 69.4141 3.66992 82.3764 10.77 91.2258L12.33 89.9742ZM2.2 52.5C2.2 35.8141 5.63008 23.3764 12.33 15.0258L10.77 13.7742C3.66992 22.6236 0.2 35.5859 0.2 52.5H2.2ZM12.3256 15.0313C19.0944 6.71529 29.0287 2.5 42.3 2.5V0.499996C28.5713 0.499996 18.0056 4.8847 10.7744 13.7687L12.3256 15.0313ZM42.3 2.5C55.5718 2.5 65.4523 6.7153 72.12 15.0258L73.68 13.7742C66.5477 4.88469 56.0282 0.499996 42.3 0.499996V2.5ZM72.1244 15.0313C78.921 23.3814 82.4 35.8167 82.4 52.5H84.4C84.4 35.5833 80.879 22.6186 73.6756 13.7687L72.1244 15.0313ZM82.4 52.5C82.4 69.1833 78.921 81.6186 72.1244 89.9687L73.6756 91.2313C80.879 82.3814 84.4 69.4167 84.4 52.5H82.4ZM72.12 89.9742C65.4523 98.2847 55.5718 102.5 42.3 102.5V104.5C56.0282 104.5 66.5477 100.115 73.68 91.2258L72.12 89.9742ZM42.3 84.4C46.1873 84.4 49.4373 83.345 51.9562 81.1546L50.6438 79.6454C48.5627 81.455 45.8127 82.4 42.3 82.4V84.4ZM51.9743 81.1385C54.4831 78.8478 56.2019 75.3263 57.2262 70.7169L55.2738 70.2831C54.2981 74.6737 52.7169 77.7522 50.6257 79.6615L51.9743 81.1385ZM57.2226 70.7326C58.348 66.0262 58.9 59.9397 58.9 52.5H56.9C56.9 59.8603 56.352 65.7738 55.2774 70.2674L57.2226 70.7326ZM58.9 52.5C58.9 45.0615 58.3482 39.0222 57.2214 34.4125L55.2786 34.8875C56.3518 39.2778 56.9 45.1385 56.9 52.5H58.9ZM57.2272 34.4376C56.2048 29.7346 54.4859 26.1951 51.9562 23.9954L50.6438 25.5046C52.7141 27.3049 54.2952 30.3654 55.2728 34.8624L57.2272 34.4376ZM51.9743 24.0115C49.4563 21.7125 46.1998 20.6 42.3 20.6V22.6C45.8002 22.6 48.5437 23.5875 50.6257 25.4885L51.9743 24.0115ZM42.3 20.6C38.4911 20.6 35.2474 21.7172 32.6415 23.9974L33.9585 25.5026C36.1526 23.5828 38.9089 22.6 42.3 22.6V20.6ZM32.6438 23.9954C30.1214 26.1888 28.351 29.719 27.2274 34.4174L29.1726 34.8826C30.249 30.381 31.8786 27.3112 33.9562 25.5046L32.6438 23.9954ZM27.2238 34.4331C26.2014 39.0338 25.7 45.0652 25.7 52.5H27.7C27.7 45.1348 28.1986 39.2662 29.1762 34.8669L27.2238 34.4331ZM25.7 52.5C25.7 59.9358 26.2016 66.0148 27.2228 70.7124L29.1772 70.2876C28.1984 65.7852 27.7 59.8642 27.7 52.5H25.7ZM27.2286 70.7374C28.3541 75.3417 30.1239 78.8542 32.6257 81.1385L33.9743 79.6615C31.8761 77.7458 30.2459 74.6583 29.1714 70.2625L27.2286 70.7374ZM32.6598 81.1682C35.2664 83.3404 38.5037 84.4 42.3 84.4V82.4C38.8963 82.4 36.1336 81.4596 33.9402 79.6318L32.6598 81.1682ZM119.183 102H118.183V103H119.183V102ZM119.183 37.05L118.184 37.0143L118.183 37.0321V37.05H119.183ZM119.333 28.5H120.333V26.2394L118.661 27.7601L119.333 28.5ZM108.383 36.45L108.865 37.3262L108.873 37.3216L108.882 37.3169L108.383 36.45ZM95.7832 40.95L94.7895 41.062L94.9093 42.1253L95.9621 41.9339L95.7832 40.95ZM93.3832 19.65L93.3065 18.6529L92.2735 18.7324L92.3895 19.762L93.3832 19.65ZM101.633 17.7L101.289 16.7611L101.279 16.765L101.633 17.7ZM110.483 13.65L110 12.7744H110L110.483 13.65ZM118.283 8.55L118.9 9.3375L118.91 9.32936L118.92 9.32096L118.283 8.55ZM123.533 3V2H122.998L122.701 2.4453L123.533 3ZM144.083 3H145.083V2H144.083V3ZM144.083 102V103H145.083V102H144.083ZM120.183 102V45H118.183V102H120.183ZM120.183 45C120.183 44.9949 120.183 44.9898 120.183 44.9848C120.183 44.9797 120.183 44.9746 120.183 44.9695C120.183 44.9644 120.183 44.9594 120.183 44.9543C120.183 44.9492 120.183 44.9441 120.183 44.939C120.183 44.934 120.183 44.9289 120.183 44.9238C120.183 44.9187 120.183 44.9137 120.183 44.9086C120.183 44.9035 120.183 44.8984 120.183 44.8933C120.183 44.8882 120.183 44.8832 120.183 44.8781C120.183 44.873 120.183 44.8679 120.183 44.8628C120.183 44.8578 120.183 44.8527 120.183 44.8476C120.183 44.8425 120.183 44.8374 120.183 44.8324C120.183 44.8273 120.183 44.8222 120.183 44.8171C120.183 44.812 120.183 44.8069 120.183 44.8018C120.183 44.7968 120.183 44.7917 120.183 44.7866C120.183 44.7815 120.183 44.7764 120.183 44.7714C120.183 44.7663 120.183 44.7612 120.183 44.7561C120.183 44.751 120.183 44.7459 120.183 44.7408C120.183 44.7358 120.183 44.7307 120.183 44.7256C120.183 44.7205 120.183 44.7154 120.183 44.7103C120.183 44.7053 120.183 44.7002 120.183 44.6951C120.183 44.69 120.183 44.6849 120.183 44.6798C120.183 44.6747 120.183 44.6696 120.183 44.6646C120.183 44.6595 120.183 44.6544 120.183 44.6493C120.183 44.6442 120.183 44.6391 120.183 44.634C120.183 44.629 120.183 44.6239 120.183 44.6188C120.183 44.6137 120.183 44.6086 120.183 44.6035C120.183 44.5984 120.183 44.5933 120.183 44.5882C120.183 44.5832 120.183 44.5781 120.183 44.573C120.183 44.5679 120.183 44.5628 120.183 44.5577C120.183 44.5526 120.183 44.5475 120.183 44.5424C120.183 44.5374 120.183 44.5323 120.183 44.5272C120.183 44.5221 120.183 44.517 120.183 44.5119C120.183 44.5068 120.183 44.5017 120.183 44.4966C120.183 44.4915 120.183 44.4865 120.183 44.4814C120.183 44.4763 120.183 44.4712 120.183 44.4661C120.183 44.461 120.183 44.4559 120.183 44.4508C120.183 44.4457 120.183 44.4406 120.183 44.4355C120.183 44.4305 120.183 44.4254 120.183 44.4203C120.183 44.4152 120.183 44.4101 120.183 44.405C120.183 44.3999 120.183 44.3948 120.183 44.3897C120.183 44.3846 120.183 44.3795 120.183 44.3744C120.183 44.3693 120.183 44.3642 120.183 44.3591C120.183 44.354 120.183 44.349 120.183 44.3439C120.183 44.3388 120.183 44.3337 120.183 44.3286C120.183 44.3235 120.183 44.3184 120.183 44.3133C120.183 44.3082 120.183 44.3031 120.183 44.298C120.183 44.2929 120.183 44.2878 120.183 44.2827C120.183 44.2776 120.183 44.2725 120.183 44.2674C120.183 44.2623 120.183 44.2572 120.183 44.2521C120.183 44.247 120.183 44.2419 120.183 44.2368C120.183 44.2318 120.183 44.2267 120.183 44.2216C120.183 44.2165 120.183 44.2114 120.183 44.2063C120.183 44.2012 120.183 44.1961 120.183 44.191C120.183 44.1859 120.183 44.1808 120.183 44.1757C120.183 44.1706 120.183 44.1655 120.183 44.1604C120.183 44.1553 120.183 44.1502 120.183 44.1451C120.183 44.14 120.183 44.1349 120.183 44.1298C120.183 44.1247 120.183 44.1196 120.183 44.1145C120.183 44.1094 120.183 44.1043 120.183 44.0992C120.183 44.0941 120.183 44.089 120.183 44.0839C120.183 44.0788 120.183 44.0737 120.183 44.0686C120.183 44.0635 120.183 44.0584 120.183 44.0533C120.183 44.0482 120.183 44.0431 120.183 44.038C120.183 44.0329 120.183 44.0278 120.183 44.0227C120.183 44.0175 120.183 44.0125 120.183 44.0073C120.183 44.0022 120.183 43.9971 120.183 43.992C120.183 43.9869 120.183 43.9818 120.183 43.9767C120.183 43.9716 120.183 43.9665 120.183 43.9614C120.183 43.9563 120.183 43.9512 120.183 43.9461C120.183 43.941 120.183 43.9359 120.183 43.9308C120.183 43.9257 120.183 43.9206 120.183 43.9155C120.183 43.9104 120.183 43.9053 120.183 43.9002C120.183 43.8951 120.183 43.8899 120.183 43.8848C120.183 43.8797 120.183 43.8746 120.183 43.8695C120.183 43.8644 120.183 43.8593 120.183 43.8542C120.183 43.8491 120.183 43.844 120.183 43.8389C120.183 43.8338 120.183 43.8287 120.183 43.8236C120.183 43.8185 120.183 43.8133 120.183 43.8082C120.183 43.8031 120.183 43.798 120.183 43.7929C120.183 43.7878 120.183 43.7827 120.183 43.7776C120.183 43.7725 120.183 43.7674 120.183 43.7623C120.183 43.7571 120.183 43.752 120.183 43.7469C120.183 43.7418 120.183 43.7367 120.183 43.7316C120.183 43.7265 120.183 43.7214 120.183 43.7163C120.183 43.7112 120.183 43.7061 120.183 43.7009C120.183 43.6958 120.183 43.6907 120.183 43.6856C120.183 43.6805 120.183 43.6754 120.183 43.6703C120.183 43.6652 120.183 43.66 120.183 43.6549C120.183 43.6498 120.183 43.6447 120.183 43.6396C120.183 43.6345 120.183 43.6294 120.183 43.6243C120.183 43.6192 120.183 43.614 120.183 43.6089C120.183 43.6038 120.183 43.5987 120.183 43.5936C120.183 43.5885 120.183 43.5834 120.183 43.5782C120.183 43.5731 120.183 43.568 120.183 43.5629C120.183 43.5578 120.183 43.5527 120.183 43.5476C120.183 43.5424 120.183 43.5373 120.183 43.5322C120.183 43.5271 120.183 43.522 120.183 43.5169C120.183 43.5118 120.183 43.5066 120.183 43.5015C120.183 43.4964 120.183 43.4913 120.183 43.4862C120.183 43.4811 120.183 43.476 120.183 43.4708C120.183 43.4657 120.183 43.4606 120.183 43.4555C120.183 43.4504 120.183 43.4453 120.183 43.4401C120.183 43.435 120.183 43.4299 120.183 43.4248C120.183 43.4197 120.183 43.4146 120.183 43.4094C120.183 43.4043 120.183 43.3992 120.183 43.3941C120.183 43.389 120.183 43.3838 120.183 43.3787C120.183 43.3736 120.183 43.3685 120.183 43.3634C120.183 43.3582 120.183 43.3531 120.183 43.348C120.183 43.3429 120.183 43.3378 120.183 43.3326C120.183 43.3275 120.183 43.3224 120.183 43.3173C120.183 43.3122 120.183 43.3071 120.183 43.3019C120.183 43.2968 120.183 43.2917 120.183 43.2866C120.183 43.2814 120.183 43.2763 120.183 43.2712C120.183 43.2661 120.183 43.261 120.183 43.2558C120.183 43.2507 120.183 43.2456 120.183 43.2405C120.183 43.2354 120.183 43.2302 120.183 43.2251C120.183 43.22 120.183 43.2149 120.183 43.2097C120.183 43.2046 120.183 43.1995 120.183 43.1944C120.183 43.1892 120.183 43.1841 120.183 43.179C120.183 43.1739 120.183 43.1688 120.183 43.1636C120.183 43.1585 120.183 43.1534 120.183 43.1483C120.183 43.1431 120.183 43.138 120.183 43.1329C120.183 43.1278 120.183 43.1226 120.183 43.1175C120.183 43.1124 120.183 43.1073 120.183 43.1021C120.183 43.097 120.183 43.0919 120.183 43.0868C120.183 43.0816 120.183 43.0765 120.183 43.0714C120.183 43.0663 120.183 43.0611 120.183 43.056C120.183 43.0509 120.183 43.0457 120.183 43.0406C120.183 43.0355 120.183 43.0304 120.183 43.0252C120.183 43.0201 120.183 43.015 120.183 43.0099C120.183 43.0047 120.183 42.9996 120.183 42.9945C120.183 42.9893 120.183 42.9842 120.183 42.9791C120.183 42.974 120.183 42.9688 120.183 42.9637C120.183 42.9586 120.183 42.9534 120.183 42.9483C120.183 42.9432 120.183 42.9381 120.183 42.9329C120.183 42.9278 120.183 42.9227 120.183 42.9175C120.183 42.9124 120.183 42.9073 120.183 42.9021C120.183 42.897 120.183 42.8919 120.183 42.8868C120.183 42.8816 120.183 42.8765 120.183 42.8714C120.183 42.8662 120.183 42.8611 120.183 42.856C120.183 42.8508 120.183 42.8457 120.183 42.8406C120.183 42.8354 120.183 42.8303 120.183 42.8252C120.183 42.82 120.183 42.8149 120.183 42.8098C120.183 42.8046 120.183 42.7995 120.183 42.7944C120.183 42.7892 120.183 42.7841 120.183 42.779C120.183 42.7738 120.183 42.7687 120.183 42.7636C120.183 42.7584 120.183 42.7533 120.183 42.7482C120.183 42.743 120.183 42.7379 120.183 42.7328C120.183 42.7276 120.183 42.7225 120.183 42.7174C120.183 42.7122 120.183 42.7071 120.183 42.702C120.183 42.6968 120.183 42.6917 120.183 42.6866C120.183 42.6814 120.183 42.6763 120.183 42.6712C120.183 42.666 120.183 42.6609 120.183 42.6557C120.183 42.6506 120.183 42.6455 120.183 42.6403C120.183 42.6352 120.183 42.6301 120.183 42.6249C120.183 42.6198 120.183 42.6146 120.183 42.6095C120.183 42.6044 120.183 42.5992 120.183 42.5941C120.183 42.589 120.183 42.5838 120.183 42.5787C120.183 42.5735 120.183 42.5684 120.183 42.5633C120.183 42.5581 120.183 42.553 120.183 42.5479C120.183 42.5427 120.183 42.5376 120.183 42.5324C120.183 42.5273 120.183 42.5221 120.183 42.517C120.183 42.5119 120.183 42.5067 120.183 42.5016C120.183 42.4965 120.183 42.4913 120.183 42.4862C120.183 42.481 120.183 42.4759 120.183 42.4707C120.183 42.4656 120.183 42.4605 120.183 42.4553C120.183 42.4502 120.183 42.445 120.183 42.4399C120.183 42.4348 120.183 42.4296 120.183 42.4245C120.183 42.4193 120.183 42.4142 120.183 42.409C120.183 42.4039 120.183 42.3988 120.183 42.3936C120.183 42.3885 120.183 42.3833 120.183 42.3782C120.183 42.373 120.183 42.3679 120.183 42.3628C120.183 42.3576 120.183 42.3525 120.183 42.3473C120.183 42.3422 120.183 42.337 120.183 42.3319C120.183 42.3267 120.183 42.3216 120.183 42.3165C120.183 42.3113 120.183 42.3062 120.183 42.301C120.183 42.2959 120.183 42.2907 120.183 42.2856C120.183 42.2804 120.183 42.2753 120.183 42.2701C120.183 42.265 120.183 42.2599 120.183 42.2547C120.183 42.2496 120.183 42.2444 120.183 42.2393C120.183 42.2341 120.183 42.229 120.183 42.2238C120.183 42.2187 120.183 42.2135 120.183 42.2084C120.183 42.2032 120.183 42.1981 120.183 42.1929C120.183 42.1878 120.183 42.1826 120.183 42.1775C120.183 42.1723 120.183 42.1672 120.183 42.1621C120.183 42.1569 120.183 42.1518 120.183 42.1466C120.183 42.1415 120.183 42.1363 120.183 42.1312C120.183 42.126 120.183 42.1209 120.183 42.1157C120.183 42.1106 120.183 42.1054 120.183 42.1003C120.183 42.0951 120.183 42.09 120.183 42.0848C120.183 42.0797 120.183 42.0745 120.183 42.0694C120.183 42.0642 120.183 42.0591 120.183 42.0539C120.183 42.0488 120.183 42.0436 120.183 42.0384C120.183 42.0333 120.183 42.0281 120.183 42.023C120.183 42.0178 120.183 42.0127 120.183 42.0075C120.183 42.0024 120.183 41.9972 120.183 41.9921C120.183 41.9869 120.183 41.9818 120.183 41.9766C120.183 41.9715 120.183 41.9663 120.183 41.9612C120.183 41.956 120.183 41.9509 120.183 41.9457C120.183 41.9405 120.183 41.9354 120.183 41.9302C120.183 41.9251 120.183 41.9199 120.183 41.9148C120.183 41.9096 120.183 41.9045 120.183 41.8993C120.183 41.8941 120.183 41.889 120.183 41.8838C120.183 41.8787 120.183 41.8735 120.183 41.8684C120.183 41.8632 120.183 41.8581 120.183 41.8529C120.183 41.8477 120.183 41.8426 120.183 41.8374C120.183 41.8323 120.183 41.8271 120.183 41.822C120.183 41.8168 120.183 41.8116 120.183 41.8065C120.183 41.8013 120.183 41.7962 120.183 41.791C120.183 41.7859 120.183 41.7807 120.183 41.7755C120.183 41.7704 120.183 41.7652 120.183 41.7601C120.183 41.7549 120.183 41.7497 120.183 41.7446C120.183 41.7394 120.183 41.7343 120.183 41.7291C120.183 41.724 120.183 41.7188 120.183 41.7136C120.183 41.7085 120.183 41.7033 120.183 41.6982C120.183 41.693 120.183 41.6878 120.183 41.6827C120.183 41.6775 120.183 41.6724 120.183 41.6672C120.183 41.662 120.183 41.6569 120.183 41.6517C120.183 41.6465 120.183 41.6414 120.183 41.6362C120.183 41.6311 120.183 41.6259 120.183 41.6207C120.183 41.6156 120.183 41.6104 120.183 41.6053C120.183 41.6001 120.183 41.5949 120.183 41.5898C120.183 41.5846 120.183 41.5794 120.183 41.5743C120.183 41.5691 120.183 41.5639 120.183 41.5588C120.183 41.5536 120.183 41.5485 120.183 41.5433C120.183 41.5381 120.183 41.533 120.183 41.5278C120.183 41.5226 120.183 41.5175 120.183 41.5123C120.183 41.5071 120.183 41.502 120.183 41.4968C120.183 41.4916 120.183 41.4865 120.183 41.4813C120.183 41.4762 120.183 41.471 120.183 41.4658C120.183 41.4607 120.183 41.4555 120.183 41.4503C120.183 41.4452 120.183 41.44 120.183 41.4348C120.183 41.4297 120.183 41.4245 120.183 41.4193C120.183 41.4142 120.183 41.409 120.183 41.4038C120.183 41.3987 120.183 41.3935 120.183 41.3883C120.183 41.3831 120.183 41.378 120.183 41.3728C120.183 41.3676 120.183 41.3625 120.183 41.3573C120.183 41.3521 120.183 41.347 120.183 41.3418C120.183 41.3366 120.183 41.3315 120.183 41.3263C120.183 41.3211 120.183 41.316 120.183 41.3108C120.183 41.3056 120.183 41.3004 120.183 41.2953C120.183 41.2901 120.183 41.2849 120.183 41.2798C120.183 41.2746 120.183 41.2694 120.183 41.2643C120.183 41.2591 120.183 41.2539 120.183 41.2487C120.183 41.2436 120.183 41.2384 120.183 41.2332C120.183 41.2281 120.183 41.2229 120.183 41.2177C120.183 41.2125 120.183 41.2074 120.183 41.2022C120.183 41.197 120.183 41.1918 120.183 41.1867C120.183 41.1815 120.183 41.1763 120.183 41.1712C120.183 41.166 120.183 41.1608 120.183 41.1556C120.183 41.1505 120.183 41.1453 120.183 41.1401C120.183 41.1349 120.183 41.1298 120.183 41.1246C120.183 41.1194 120.183 41.1143 120.183 41.1091C120.183 41.1039 120.183 41.0987 120.183 41.0936C120.183 41.0884 120.183 41.0832 120.183 41.078C120.183 41.0728 120.183 41.0677 120.183 41.0625C120.183 41.0573 120.183 41.0521 120.183 41.047C120.183 41.0418 120.183 41.0366 120.183 41.0314C120.183 41.0263 120.183 41.0211 120.183 41.0159C120.183 41.0107 120.183 41.0056 120.183 41.0004C120.183 40.9952 120.183 40.99 120.183 40.9848C120.183 40.9797 120.183 40.9745 120.183 40.9693C120.183 40.9641 120.183 40.959 120.183 40.9538C120.183 40.9486 120.183 40.9434 120.183 40.9382C120.183 40.9331 120.183 40.9279 120.183 40.9227C120.183 40.9175 120.183 40.9123 120.183 40.9072C120.183 40.902 120.183 40.8968 120.183 40.8916C120.183 40.8864 120.183 40.8813 120.183 40.8761C120.183 40.8709 120.183 40.8657 120.183 40.8605C120.183 40.8554 120.183 40.8502 120.183 40.845C120.183 40.8398 120.183 40.8346 120.183 40.8295C120.183 40.8243 120.183 40.8191 120.183 40.8139C120.183 40.8087 120.183 40.8036 120.183 40.7984C120.183 40.7932 120.183 40.788 120.183 40.7828C120.183 40.7776 120.183 40.7725 120.183 40.7673C120.183 40.7621 120.183 40.7569 120.183 40.7517C120.183 40.7465 120.183 40.7414 120.183 40.7362C120.183 40.731 120.183 40.7258 120.183 40.7206C120.183 40.7154 120.183 40.7103 120.183 40.7051C120.183 40.6999 120.183 40.6947 120.183 40.6895C120.183 40.6843 120.183 40.6791 120.183 40.674C120.183 40.6688 120.183 40.6636 120.183 40.6584C120.183 40.6532 120.183 40.648 120.183 40.6428C120.183 40.6377 120.183 40.6325 120.183 40.6273C120.183 40.6221 120.183 40.6169 120.183 40.6117C120.183 40.6065 120.183 40.6013 120.183 40.5962C120.183 40.591 120.183 40.5858 120.183 40.5806C120.183 40.5754 120.183 40.5702 120.183 40.565C120.183 40.5598 120.183 40.5547 120.183 40.5495C120.183 40.5443 120.183 40.5391 120.183 40.5339C120.183 40.5287 120.183 40.5235 120.183 40.5183C120.183 40.5132 120.183 40.508 120.183 40.5028C120.183 40.4976 120.183 40.4924 120.183 40.4872C120.183 40.482 120.183 40.4768 120.183 40.4716C120.183 40.4664 120.183 40.4613 120.183 40.4561C120.183 40.4509 120.183 40.4457 120.183 40.4405C120.183 40.4353 120.183 40.4301 120.183 40.4249C120.183 40.4197 120.183 40.4145 120.183 40.4093C120.183 40.4041 120.183 40.399 120.183 40.3938C120.183 40.3886 120.183 40.3834 120.183 40.3782C120.183 40.373 120.183 40.3678 120.183 40.3626C120.183 40.3574 120.183 40.3522 120.183 40.347C120.183 40.3418 120.183 40.3366 120.183 40.3314C120.183 40.3263 120.183 40.3211 120.183 40.3159C120.183 40.3107 120.183 40.3055 120.183 40.3003C120.183 40.2951 120.183 40.2899 120.183 40.2847C120.183 40.2795 120.183 40.2743 120.183 40.2691C120.183 40.2639 120.183 40.2587 120.183 40.2535C120.183 40.2483 120.183 40.2431 120.183 40.2379C120.183 40.2327 120.183 40.2275 120.183 40.2224C120.183 40.2172 120.183 40.212 120.183 40.2068C120.183 40.2016 120.183 40.1964 120.183 40.1912C120.183 40.186 120.183 40.1808 120.183 40.1756C120.183 40.1704 120.183 40.1652 120.183 40.16C120.183 40.1548 120.183 40.1496 120.183 40.1444C120.183 40.1392 120.183 40.134 120.183 40.1288C120.183 40.1236 120.183 40.1184 120.183 40.1132C120.183 40.108 120.183 40.1028 120.183 40.0976C120.183 40.0924 120.183 40.0872 120.183 40.082C120.183 40.0768 120.183 40.0716 120.183 40.0664C120.183 40.0612 120.183 40.056 120.183 40.0508C120.183 40.0456 120.183 40.0404 120.183 40.0352C120.183 40.03 120.183 40.0248 120.183 40.0196C120.183 40.0144 120.183 40.0092 120.183 40.004C120.183 39.9988 120.183 39.9936 120.183 39.9884C120.183 39.9832 120.183 39.978 120.183 39.9728C120.183 39.9676 120.183 39.9624 120.183 39.9572C120.183 39.952 120.183 39.9468 120.183 39.9416C120.183 39.9364 120.183 39.9312 120.183 39.9259C120.183 39.9207 120.183 39.9155 120.183 39.9103C120.183 39.9051 120.183 39.8999 120.183 39.8947C120.183 39.8895 120.183 39.8843 120.183 39.8791C120.183 39.8739 120.183 39.8687 120.183 39.8635C120.183 39.8583 120.183 39.8531 120.183 39.8479C120.183 39.8427 120.183 39.8375 120.183 39.8323C120.183 39.8271 120.183 39.8219 120.183 39.8167C120.183 39.8114 120.183 39.8062 120.183 39.801C120.183 39.7958 120.183 39.7906 120.183 39.7854C120.183 39.7802 120.183 39.775 120.183 39.7698C120.183 39.7646 120.183 39.7594 120.183 39.7542C120.183 39.749 120.183 39.7437 120.183 39.7385C120.183 39.7333 120.183 39.7281 120.183 39.7229C120.183 39.7177 120.183 39.7125 120.183 39.7073C120.183 39.7021 120.183 39.6969 120.183 39.6917C120.183 39.6864 120.183 39.6812 120.183 39.676C120.183 39.6708 120.183 39.6656 120.183 39.6604C120.183 39.6552 120.183 39.65 120.183 39.6448C120.183 39.6396 120.183 39.6343 120.183 39.6291C120.183 39.6239 120.183 39.6187 120.183 39.6135C120.183 39.6083 120.183 39.6031 120.183 39.5979C120.183 39.5927 120.183 39.5874 120.183 39.5822C120.183 39.577 120.183 39.5718 120.183 39.5666C120.183 39.5614 120.183 39.5562 120.183 39.551C120.183 39.5457 120.183 39.5405 120.183 39.5353C120.183 39.5301 120.183 39.5249 120.183 39.5197C120.183 39.5145 120.183 39.5093 120.183 39.504C120.183 39.4988 120.183 39.4936 120.183 39.4884C120.183 39.4832 120.183 39.478 120.183 39.4728C120.183 39.4675 120.183 39.4623 120.183 39.4571C120.183 39.4519 120.183 39.4467 120.183 39.4415C120.183 39.4362 120.183 39.431 120.183 39.4258C120.183 39.4206 120.183 39.4154 120.183 39.4102C120.183 39.405 120.183 39.3997 120.183 39.3945C120.183 39.3893 120.183 39.3841 120.183 39.3789C120.183 39.3736 120.183 39.3684 120.183 39.3632C120.183 39.358 120.183 39.3528 120.183 39.3476C120.183 39.3423 120.183 39.3371 120.183 39.3319C120.183 39.3267 120.183 39.3215 120.183 39.3163C120.183 39.311 120.183 39.3058 120.183 39.3006C120.183 39.2954 120.183 39.2902 120.183 39.2849C120.183 39.2797 120.183 39.2745 120.183 39.2693C120.183 39.2641 120.183 39.2588 120.183 39.2536C120.183 39.2484 120.183 39.2432 120.183 39.238C120.183 39.2327 120.183 39.2275 120.183 39.2223C120.183 39.2171 120.183 39.2119 120.183 39.2066C120.183 39.2014 120.183 39.1962 120.183 39.191C120.183 39.1858 120.183 39.1805 120.183 39.1753C120.183 39.1701 120.183 39.1649 120.183 39.1596C120.183 39.1544 120.183 39.1492 120.183 39.144C120.183 39.1388 120.183 39.1335 120.183 39.1283C120.183 39.1231 120.183 39.1179 120.183 39.1126C120.183 39.1074 120.183 39.1022 120.183 39.097C120.183 39.0917 120.183 39.0865 120.183 39.0813C120.183 39.0761 120.183 39.0708 120.183 39.0656C120.183 39.0604 120.183 39.0552 120.183 39.0499C120.183 39.0447 120.183 39.0395 120.183 39.0343C120.183 39.029 120.183 39.0238 120.183 39.0186C120.183 39.0134 120.183 39.0081 120.183 39.0029C120.183 38.9977 120.183 38.9925 120.183 38.9872C120.183 38.982 120.183 38.9768 120.183 38.9716C120.183 38.9663 120.183 38.9611 120.183 38.9559C120.183 38.9506 120.183 38.9454 120.183 38.9402C120.183 38.935 120.183 38.9297 120.183 38.9245C120.183 38.9193 120.183 38.9141 120.183 38.9088C120.183 38.9036 120.183 38.8984 120.183 38.8931C120.183 38.8879 120.183 38.8827 120.183 38.8775C120.183 38.8722 120.183 38.867 120.183 38.8618C120.183 38.8565 120.183 38.8513 120.183 38.8461C120.183 38.8408 120.183 38.8356 120.183 38.8304C120.183 38.8252 120.183 38.8199 120.183 38.8147C120.183 38.8095 120.183 38.8042 120.183 38.799C120.183 38.7938 120.183 38.7885 120.183 38.7833C120.183 38.7781 120.183 38.7728 120.183 38.7676C120.183 38.7624 120.183 38.7571 120.183 38.7519C120.183 38.7467 120.183 38.7414 120.183 38.7362C120.183 38.731 120.183 38.7258 120.183 38.7205C120.183 38.7153 120.183 38.7101 120.183 38.7048C120.183 38.6996 120.183 38.6944 120.183 38.6891C120.183 38.6839 120.183 38.6786 120.183 38.6734C120.183 38.6682 120.183 38.6629 120.183 38.6577C120.183 38.6525 120.183 38.6472 120.183 38.642C120.183 38.6368 120.183 38.6315 120.183 38.6263C120.183 38.6211 120.183 38.6158 120.183 38.6106C120.183 38.6054 120.183 38.6001 120.183 38.5949C120.183 38.5897 120.183 38.5844 120.183 38.5792C120.183 38.5739 120.183 38.5687 120.183 38.5635C120.183 38.5582 120.183 38.553 120.183 38.5478C120.183 38.5425 120.183 38.5373 120.183 38.5321C120.183 38.5268 120.183 38.5216 120.183 38.5163C120.183 38.5111 120.183 38.5059 120.183 38.5006C120.183 38.4954 120.183 38.4901 120.183 38.4849C120.183 38.4797 120.183 38.4744 120.183 38.4692C120.183 38.464 120.183 38.4587 120.183 38.4535C120.183 38.4482 120.183 38.443 120.183 38.4378C120.183 38.4325 120.183 38.4273 120.183 38.422C120.183 38.4168 120.183 38.4116 120.183 38.4063C120.183 38.4011 120.183 38.3958 120.183 38.3906C120.183 38.3853 120.183 38.3801 120.183 38.3749C120.183 38.3696 120.183 38.3644 120.183 38.3591C120.183 38.3539 120.183 38.3487 120.183 38.3434C120.183 38.3382 120.183 38.3329 120.183 38.3277C120.183 38.3224 120.183 38.3172 120.183 38.312C120.183 38.3067 120.183 38.3015 120.183 38.2962C120.183 38.291 120.183 38.2857 120.183 38.2805C120.183 38.2753 120.183 38.27 120.183 38.2648C120.183 38.2595 120.183 38.2543 120.183 38.249C120.183 38.2438 120.183 38.2385 120.183 38.2333C120.183 38.2281 120.183 38.2228 120.183 38.2176C120.183 38.2123 120.183 38.2071 120.183 38.2018C120.183 38.1966 120.183 38.1913 120.183 38.1861C120.183 38.1808 120.183 38.1756 120.183 38.1704C120.183 38.1651 120.183 38.1599 120.183 38.1546C120.183 38.1494 120.183 38.1441 120.183 38.1389C120.183 38.1336 120.183 38.1284 120.183 38.1231C120.183 38.1179 120.183 38.1126 120.183 38.1074C120.183 38.1021 120.183 38.0969 120.183 38.0916C120.183 38.0864 120.183 38.0811 120.183 38.0759C120.183 38.0706 120.183 38.0654 120.183 38.0602C120.183 38.0549 120.183 38.0497 120.183 38.0444C120.183 38.0392 120.183 38.0339 120.183 38.0287C120.183 38.0234 120.183 38.0182 120.183 38.0129C120.183 38.0077 120.183 38.0024 120.183 37.9972C120.183 37.9919 120.183 37.9867 120.183 37.9814C120.183 37.9762 120.183 37.9709 120.183 37.9657C120.183 37.9604 120.183 37.9551 120.183 37.9499C120.183 37.9446 120.183 37.9394 120.183 37.9341C120.183 37.9289 120.183 37.9236 120.183 37.9184C120.183 37.9131 120.183 37.9079 120.183 37.9026C120.183 37.8974 120.183 37.8921 120.183 37.8869C120.183 37.8816 120.183 37.8764 120.183 37.8711C120.183 37.8659 120.183 37.8606 120.183 37.8553C120.183 37.8501 120.183 37.8448 120.183 37.8396C120.183 37.8343 120.183 37.8291 120.183 37.8238C120.183 37.8186 120.183 37.8133 120.183 37.8081C120.183 37.8028 120.183 37.7975 120.183 37.7923C120.183 37.787 120.183 37.7818 120.183 37.7765C120.183 37.7713 120.183 37.766 120.183 37.7607C120.183 37.7555 120.183 37.7502 120.183 37.745C120.183 37.7397 120.183 37.7345 120.183 37.7292C120.183 37.724 120.183 37.7187 120.183 37.7134C120.183 37.7082 120.183 37.7029 120.183 37.6977C120.183 37.6924 120.183 37.6871 120.183 37.6819C120.183 37.6766 120.183 37.6714 120.183 37.6661C120.183 37.6609 120.183 37.6556 120.183 37.6503C120.183 37.6451 120.183 37.6398 120.183 37.6346C120.183 37.6293 120.183 37.624 120.183 37.6188C120.183 37.6135 120.183 37.6083 120.183 37.603C120.183 37.5977 120.183 37.5925 120.183 37.5872C120.183 37.582 120.183 37.5767 120.183 37.5714C120.183 37.5662 120.183 37.5609 120.183 37.5557C120.183 37.5504 120.183 37.5451 120.183 37.5399C120.183 37.5346 120.183 37.5294 120.183 37.5241C120.183 37.5188 120.183 37.5136 120.183 37.5083C120.183 37.503 120.183 37.4978 120.183 37.4925C120.183 37.4873 120.183 37.482 120.183 37.4767C120.183 37.4715 120.183 37.4662 120.183 37.4609C120.183 37.4557 120.183 37.4504 120.183 37.4451C120.183 37.4399 120.183 37.4346 120.183 37.4294C120.183 37.4241 120.183 37.4188 120.183 37.4136C120.183 37.4083 120.183 37.403 120.183 37.3978C120.183 37.3925 120.183 37.3872 120.183 37.382C120.183 37.3767 120.183 37.3714 120.183 37.3662C120.183 37.3609 120.183 37.3556 120.183 37.3504C120.183 37.3451 120.183 37.3398 120.183 37.3346C120.183 37.3293 120.183 37.324 120.183 37.3188C120.183 37.3135 120.183 37.3082 120.183 37.303C120.183 37.2977 120.183 37.2924 120.183 37.2872C120.183 37.2819 120.183 37.2766 120.183 37.2714C120.183 37.2661 120.183 37.2608 120.183 37.2556C120.183 37.2503 120.183 37.245 120.183 37.2398C120.183 37.2345 120.183 37.2292 120.183 37.224C120.183 37.2187 120.183 37.2134 120.183 37.2081C120.183 37.2029 120.183 37.1976 120.183 37.1923C120.183 37.1871 120.183 37.1818 120.183 37.1765C120.183 37.1712 120.183 37.166 120.183 37.1607C120.183 37.1554 120.183 37.1502 120.183 37.1449C120.183 37.1396 120.183 37.1344 120.183 37.1291C120.183 37.1238 120.183 37.1185 120.183 37.1133C120.183 37.108 120.183 37.1027 120.183 37.0975C120.183 37.0922 120.183 37.0869 120.183 37.0816C120.183 37.0764 120.183 37.0711 120.183 37.0658C120.183 37.0605 120.183 37.0553 120.183 37.05H118.183C118.183 37.0553 118.183 37.0605 118.183 37.0658C118.183 37.0711 118.183 37.0764 118.183 37.0816C118.183 37.0869 118.183 37.0922 118.183 37.0975C118.183 37.1027 118.183 37.108 118.183 37.1133C118.183 37.1185 118.183 37.1238 118.183 37.1291C118.183 37.1344 118.183 37.1396 118.183 37.1449C118.183 37.1502 118.183 37.1554 118.183 37.1607C118.183 37.166 118.183 37.1712 118.183 37.1765C118.183 37.1818 118.183 37.1871 118.183 37.1923C118.183 37.1976 118.183 37.2029 118.183 37.2081C118.183 37.2134 118.183 37.2187 118.183 37.224C118.183 37.2292 118.183 37.2345 118.183 37.2398C118.183 37.245 118.183 37.2503 118.183 37.2556C118.183 37.2608 118.183 37.2661 118.183 37.2714C118.183 37.2766 118.183 37.2819 118.183 37.2872C118.183 37.2924 118.183 37.2977 118.183 37.303C118.183 37.3082 118.183 37.3135 118.183 37.3188C118.183 37.324 118.183 37.3293 118.183 37.3346C118.183 37.3398 118.183 37.3451 118.183 37.3504C118.183 37.3556 118.183 37.3609 118.183 37.3662C118.183 37.3714 118.183 37.3767 118.183 37.382C118.183 37.3872 118.183 37.3925 118.183 37.3978C118.183 37.403 118.183 37.4083 118.183 37.4136C118.183 37.4188 118.183 37.4241 118.183 37.4294C118.183 37.4346 118.183 37.4399 118.183 37.4451C118.183 37.4504 118.183 37.4557 118.183 37.4609C118.183 37.4662 118.183 37.4715 118.183 37.4767C118.183 37.482 118.183 37.4873 118.183 37.4925C118.183 37.4978 118.183 37.503 118.183 37.5083C118.183 37.5136 118.183 37.5188 118.183 37.5241C118.183 37.5294 118.183 37.5346 118.183 37.5399C118.183 37.5451 118.183 37.5504 118.183 37.5557C118.183 37.5609 118.183 37.5662 118.183 37.5714C118.183 37.5767 118.183 37.582 118.183 37.5872C118.183 37.5925 118.183 37.5977 118.183 37.603C118.183 37.6083 118.183 37.6135 118.183 37.6188C118.183 37.624 118.183 37.6293 118.183 37.6346C118.183 37.6398 118.183 37.6451 118.183 37.6503C118.183 37.6556 118.183 37.6609 118.183 37.6661C118.183 37.6714 118.183 37.6766 118.183 37.6819C118.183 37.6871 118.183 37.6924 118.183 37.6977C118.183 37.7029 118.183 37.7082 118.183 37.7134C118.183 37.7187 118.183 37.724 118.183 37.7292C118.183 37.7345 118.183 37.7397 118.183 37.745C118.183 37.7502 118.183 37.7555 118.183 37.7607C118.183 37.766 118.183 37.7713 118.183 37.7765C118.183 37.7818 118.183 37.787 118.183 37.7923C118.183 37.7975 118.183 37.8028 118.183 37.8081C118.183 37.8133 118.183 37.8186 118.183 37.8238C118.183 37.8291 118.183 37.8343 118.183 37.8396C118.183 37.8448 118.183 37.8501 118.183 37.8553C118.183 37.8606 118.183 37.8659 118.183 37.8711C118.183 37.8764 118.183 37.8816 118.183 37.8869C118.183 37.8921 118.183 37.8974 118.183 37.9026C118.183 37.9079 118.183 37.9131 118.183 37.9184C118.183 37.9236 118.183 37.9289 118.183 37.9341C118.183 37.9394 118.183 37.9446 118.183 37.9499C118.183 37.9551 118.183 37.9604 118.183 37.9657C118.183 37.9709 118.183 37.9762 118.183 37.9814C118.183 37.9867 118.183 37.9919 118.183 37.9972C118.183 38.0024 118.183 38.0077 118.183 38.0129C118.183 38.0182 118.183 38.0234 118.183 38.0287C118.183 38.0339 118.183 38.0392 118.183 38.0444C118.183 38.0497 118.183 38.0549 118.183 38.0602C118.183 38.0654 118.183 38.0706 118.183 38.0759C118.183 38.0811 118.183 38.0864 118.183 38.0916C118.183 38.0969 118.183 38.1021 118.183 38.1074C118.183 38.1126 118.183 38.1179 118.183 38.1231C118.183 38.1284 118.183 38.1336 118.183 38.1389C118.183 38.1441 118.183 38.1494 118.183 38.1546C118.183 38.1599 118.183 38.1651 118.183 38.1704C118.183 38.1756 118.183 38.1808 118.183 38.1861C118.183 38.1913 118.183 38.1966 118.183 38.2018C118.183 38.2071 118.183 38.2123 118.183 38.2176C118.183 38.2228 118.183 38.2281 118.183 38.2333C118.183 38.2385 118.183 38.2438 118.183 38.249C118.183 38.2543 118.183 38.2595 118.183 38.2648C118.183 38.27 118.183 38.2753 118.183 38.2805C118.183 38.2857 118.183 38.291 118.183 38.2962C118.183 38.3015 118.183 38.3067 118.183 38.312C118.183 38.3172 118.183 38.3224 118.183 38.3277C118.183 38.3329 118.183 38.3382 118.183 38.3434C118.183 38.3487 118.183 38.3539 118.183 38.3591C118.183 38.3644 118.183 38.3696 118.183 38.3749C118.183 38.3801 118.183 38.3853 118.183 38.3906C118.183 38.3958 118.183 38.4011 118.183 38.4063C118.183 38.4116 118.183 38.4168 118.183 38.422C118.183 38.4273 118.183 38.4325 118.183 38.4378C118.183 38.443 118.183 38.4482 118.183 38.4535C118.183 38.4587 118.183 38.464 118.183 38.4692C118.183 38.4744 118.183 38.4797 118.183 38.4849C118.183 38.4901 118.183 38.4954 118.183 38.5006C118.183 38.5059 118.183 38.5111 118.183 38.5163C118.183 38.5216 118.183 38.5268 118.183 38.5321C118.183 38.5373 118.183 38.5425 118.183 38.5478C118.183 38.553 118.183 38.5582 118.183 38.5635C118.183 38.5687 118.183 38.5739 118.183 38.5792C118.183 38.5844 118.183 38.5897 118.183 38.5949C118.183 38.6001 118.183 38.6054 118.183 38.6106C118.183 38.6158 118.183 38.6211 118.183 38.6263C118.183 38.6315 118.183 38.6368 118.183 38.642C118.183 38.6472 118.183 38.6525 118.183 38.6577C118.183 38.6629 118.183 38.6682 118.183 38.6734C118.183 38.6786 118.183 38.6839 118.183 38.6891C118.183 38.6944 118.183 38.6996 118.183 38.7048C118.183 38.7101 118.183 38.7153 118.183 38.7205C118.183 38.7258 118.183 38.731 118.183 38.7362C118.183 38.7414 118.183 38.7467 118.183 38.7519C118.183 38.7571 118.183 38.7624 118.183 38.7676C118.183 38.7728 118.183 38.7781 118.183 38.7833C118.183 38.7885 118.183 38.7938 118.183 38.799C118.183 38.8042 118.183 38.8095 118.183 38.8147C118.183 38.8199 118.183 38.8252 118.183 38.8304C118.183 38.8356 118.183 38.8408 118.183 38.8461C118.183 38.8513 118.183 38.8565 118.183 38.8618C118.183 38.867 118.183 38.8722 118.183 38.8775C118.183 38.8827 118.183 38.8879 118.183 38.8931C118.183 38.8984 118.183 38.9036 118.183 38.9088C118.183 38.9141 118.183 38.9193 118.183 38.9245C118.183 38.9297 118.183 38.935 118.183 38.9402C118.183 38.9454 118.183 38.9506 118.183 38.9559C118.183 38.9611 118.183 38.9663 118.183 38.9716C118.183 38.9768 118.183 38.982 118.183 38.9872C118.183 38.9925 118.183 38.9977 118.183 39.0029C118.183 39.0081 118.183 39.0134 118.183 39.0186C118.183 39.0238 118.183 39.029 118.183 39.0343C118.183 39.0395 118.183 39.0447 118.183 39.0499C118.183 39.0552 118.183 39.0604 118.183 39.0656C118.183 39.0708 118.183 39.0761 118.183 39.0813C118.183 39.0865 118.183 39.0917 118.183 39.097C118.183 39.1022 118.183 39.1074 118.183 39.1126C118.183 39.1179 118.183 39.1231 118.183 39.1283C118.183 39.1335 118.183 39.1388 118.183 39.144C118.183 39.1492 118.183 39.1544 118.183 39.1596C118.183 39.1649 118.183 39.1701 118.183 39.1753C118.183 39.1805 118.183 39.1858 118.183 39.191C118.183 39.1962 118.183 39.2014 118.183 39.2066C118.183 39.2119 118.183 39.2171 118.183 39.2223C118.183 39.2275 118.183 39.2327 118.183 39.238C118.183 39.2432 118.183 39.2484 118.183 39.2536C118.183 39.2588 118.183 39.2641 118.183 39.2693C118.183 39.2745 118.183 39.2797 118.183 39.2849C118.183 39.2902 118.183 39.2954 118.183 39.3006C118.183 39.3058 118.183 39.311 118.183 39.3163C118.183 39.3215 118.183 39.3267 118.183 39.3319C118.183 39.3371 118.183 39.3423 118.183 39.3476C118.183 39.3528 118.183 39.358 118.183 39.3632C118.183 39.3684 118.183 39.3736 118.183 39.3789C118.183 39.3841 118.183 39.3893 118.183 39.3945C118.183 39.3997 118.183 39.405 118.183 39.4102C118.183 39.4154 118.183 39.4206 118.183 39.4258C118.183 39.431 118.183 39.4362 118.183 39.4415C118.183 39.4467 118.183 39.4519 118.183 39.4571C118.183 39.4623 118.183 39.4675 118.183 39.4728C118.183 39.478 118.183 39.4832 118.183 39.4884C118.183 39.4936 118.183 39.4988 118.183 39.504C118.183 39.5093 118.183 39.5145 118.183 39.5197C118.183 39.5249 118.183 39.5301 118.183 39.5353C118.183 39.5405 118.183 39.5457 118.183 39.551C118.183 39.5562 118.183 39.5614 118.183 39.5666C118.183 39.5718 118.183 39.577 118.183 39.5822C118.183 39.5874 118.183 39.5927 118.183 39.5979C118.183 39.6031 118.183 39.6083 118.183 39.6135C118.183 39.6187 118.183 39.6239 118.183 39.6291C118.183 39.6343 118.183 39.6396 118.183 39.6448C118.183 39.65 118.183 39.6552 118.183 39.6604C118.183 39.6656 118.183 39.6708 118.183 39.676C118.183 39.6812 118.183 39.6864 118.183 39.6917C118.183 39.6969 118.183 39.7021 118.183 39.7073C118.183 39.7125 118.183 39.7177 118.183 39.7229C118.183 39.7281 118.183 39.7333 118.183 39.7385C118.183 39.7437 118.183 39.749 118.183 39.7542C118.183 39.7594 118.183 39.7646 118.183 39.7698C118.183 39.775 118.183 39.7802 118.183 39.7854C118.183 39.7906 118.183 39.7958 118.183 39.801C118.183 39.8062 118.183 39.8114 118.183 39.8167C118.183 39.8219 118.183 39.8271 118.183 39.8323C118.183 39.8375 118.183 39.8427 118.183 39.8479C118.183 39.8531 118.183 39.8583 118.183 39.8635C118.183 39.8687 118.183 39.8739 118.183 39.8791C118.183 39.8843 118.183 39.8895 118.183 39.8947C118.183 39.8999 118.183 39.9051 118.183 39.9103C118.183 39.9155 118.183 39.9207 118.183 39.9259C118.183 39.9312 118.183 39.9364 118.183 39.9416C118.183 39.9468 118.183 39.952 118.183 39.9572C118.183 39.9624 118.183 39.9676 118.183 39.9728C118.183 39.978 118.183 39.9832 118.183 39.9884C118.183 39.9936 118.183 39.9988 118.183 40.004C118.183 40.0092 118.183 40.0144 118.183 40.0196C118.183 40.0248 118.183 40.03 118.183 40.0352C118.183 40.0404 118.183 40.0456 118.183 40.0508C118.183 40.056 118.183 40.0612 118.183 40.0664C118.183 40.0716 118.183 40.0768 118.183 40.082C118.183 40.0872 118.183 40.0924 118.183 40.0976C118.183 40.1028 118.183 40.108 118.183 40.1132C118.183 40.1184 118.183 40.1236 118.183 40.1288C118.183 40.134 118.183 40.1392 118.183 40.1444C118.183 40.1496 118.183 40.1548 118.183 40.16C118.183 40.1652 118.183 40.1704 118.183 40.1756C118.183 40.1808 118.183 40.186 118.183 40.1912C118.183 40.1964 118.183 40.2016 118.183 40.2068C118.183 40.212 118.183 40.2172 118.183 40.2224C118.183 40.2275 118.183 40.2327 118.183 40.2379C118.183 40.2431 118.183 40.2483 118.183 40.2535C118.183 40.2587 118.183 40.2639 118.183 40.2691C118.183 40.2743 118.183 40.2795 118.183 40.2847C118.183 40.2899 118.183 40.2951 118.183 40.3003C118.183 40.3055 118.183 40.3107 118.183 40.3159C118.183 40.3211 118.183 40.3263 118.183 40.3314C118.183 40.3366 118.183 40.3418 118.183 40.347C118.183 40.3522 118.183 40.3574 118.183 40.3626C118.183 40.3678 118.183 40.373 118.183 40.3782C118.183 40.3834 118.183 40.3886 118.183 40.3938C118.183 40.399 118.183 40.4041 118.183 40.4093C118.183 40.4145 118.183 40.4197 118.183 40.4249C118.183 40.4301 118.183 40.4353 118.183 40.4405C118.183 40.4457 118.183 40.4509 118.183 40.4561C118.183 40.4613 118.183 40.4664 118.183 40.4716C118.183 40.4768 118.183 40.482 118.183 40.4872C118.183 40.4924 118.183 40.4976 118.183 40.5028C118.183 40.508 118.183 40.5132 118.183 40.5183C118.183 40.5235 118.183 40.5287 118.183 40.5339C118.183 40.5391 118.183 40.5443 118.183 40.5495C118.183 40.5547 118.183 40.5598 118.183 40.565C118.183 40.5702 118.183 40.5754 118.183 40.5806C118.183 40.5858 118.183 40.591 118.183 40.5962C118.183 40.6013 118.183 40.6065 118.183 40.6117C118.183 40.6169 118.183 40.6221 118.183 40.6273C118.183 40.6325 118.183 40.6377 118.183 40.6428C118.183 40.648 118.183 40.6532 118.183 40.6584C118.183 40.6636 118.183 40.6688 118.183 40.674C118.183 40.6791 118.183 40.6843 118.183 40.6895C118.183 40.6947 118.183 40.6999 118.183 40.7051C118.183 40.7103 118.183 40.7154 118.183 40.7206C118.183 40.7258 118.183 40.731 118.183 40.7362C118.183 40.7414 118.183 40.7465 118.183 40.7517C118.183 40.7569 118.183 40.7621 118.183 40.7673C118.183 40.7725 118.183 40.7776 118.183 40.7828C118.183 40.788 118.183 40.7932 118.183 40.7984C118.183 40.8036 118.183 40.8087 118.183 40.8139C118.183 40.8191 118.183 40.8243 118.183 40.8295C118.183 40.8346 118.183 40.8398 118.183 40.845C118.183 40.8502 118.183 40.8554 118.183 40.8605C118.183 40.8657 118.183 40.8709 118.183 40.8761C118.183 40.8813 118.183 40.8864 118.183 40.8916C118.183 40.8968 118.183 40.902 118.183 40.9072C118.183 40.9123 118.183 40.9175 118.183 40.9227C118.183 40.9279 118.183 40.9331 118.183 40.9382C118.183 40.9434 118.183 40.9486 118.183 40.9538C118.183 40.959 118.183 40.9641 118.183 40.9693C118.183 40.9745 118.183 40.9797 118.183 40.9848C118.183 40.99 118.183 40.9952 118.183 41.0004C118.183 41.0056 118.183 41.0107 118.183 41.0159C118.183 41.0211 118.183 41.0263 118.183 41.0314C118.183 41.0366 118.183 41.0418 118.183 41.047C118.183 41.0521 118.183 41.0573 118.183 41.0625C118.183 41.0677 118.183 41.0728 118.183 41.078C118.183 41.0832 118.183 41.0884 118.183 41.0936C118.183 41.0987 118.183 41.1039 118.183 41.1091C118.183 41.1143 118.183 41.1194 118.183 41.1246C118.183 41.1298 118.183 41.1349 118.183 41.1401C118.183 41.1453 118.183 41.1505 118.183 41.1556C118.183 41.1608 118.183 41.166 118.183 41.1712C118.183 41.1763 118.183 41.1815 118.183 41.1867C118.183 41.1918 118.183 41.197 118.183 41.2022C118.183 41.2074 118.183 41.2125 118.183 41.2177C118.183 41.2229 118.183 41.2281 118.183 41.2332C118.183 41.2384 118.183 41.2436 118.183 41.2487C118.183 41.2539 118.183 41.2591 118.183 41.2643C118.183 41.2694 118.183 41.2746 118.183 41.2798C118.183 41.2849 118.183 41.2901 118.183 41.2953C118.183 41.3004 118.183 41.3056 118.183 41.3108C118.183 41.316 118.183 41.3211 118.183 41.3263C118.183 41.3315 118.183 41.3366 118.183 41.3418C118.183 41.347 118.183 41.3521 118.183 41.3573C118.183 41.3625 118.183 41.3676 118.183 41.3728C118.183 41.378 118.183 41.3831 118.183 41.3883C118.183 41.3935 118.183 41.3987 118.183 41.4038C118.183 41.409 118.183 41.4142 118.183 41.4193C118.183 41.4245 118.183 41.4297 118.183 41.4348C118.183 41.44 118.183 41.4452 118.183 41.4503C118.183 41.4555 118.183 41.4607 118.183 41.4658C118.183 41.471 118.183 41.4762 118.183 41.4813C118.183 41.4865 118.183 41.4916 118.183 41.4968C118.183 41.502 118.183 41.5071 118.183 41.5123C118.183 41.5175 118.183 41.5226 118.183 41.5278C118.183 41.533 118.183 41.5381 118.183 41.5433C118.183 41.5485 118.183 41.5536 118.183 41.5588C118.183 41.5639 118.183 41.5691 118.183 41.5743C118.183 41.5794 118.183 41.5846 118.183 41.5898C118.183 41.5949 118.183 41.6001 118.183 41.6053C118.183 41.6104 118.183 41.6156 118.183 41.6207C118.183 41.6259 118.183 41.6311 118.183 41.6362C118.183 41.6414 118.183 41.6465 118.183 41.6517C118.183 41.6569 118.183 41.662 118.183 41.6672C118.183 41.6724 118.183 41.6775 118.183 41.6827C118.183 41.6878 118.183 41.693 118.183 41.6982C118.183 41.7033 118.183 41.7085 118.183 41.7136C118.183 41.7188 118.183 41.724 118.183 41.7291C118.183 41.7343 118.183 41.7394 118.183 41.7446C118.183 41.7497 118.183 41.7549 118.183 41.7601C118.183 41.7652 118.183 41.7704 118.183 41.7755C118.183 41.7807 118.183 41.7859 118.183 41.791C118.183 41.7962 118.183 41.8013 118.183 41.8065C118.183 41.8116 118.183 41.8168 118.183 41.822C118.183 41.8271 118.183 41.8323 118.183 41.8374C118.183 41.8426 118.183 41.8477 118.183 41.8529C118.183 41.8581 118.183 41.8632 118.183 41.8684C118.183 41.8735 118.183 41.8787 118.183 41.8838C118.183 41.889 118.183 41.8941 118.183 41.8993C118.183 41.9045 118.183 41.9096 118.183 41.9148C118.183 41.9199 118.183 41.9251 118.183 41.9302C118.183 41.9354 118.183 41.9405 118.183 41.9457C118.183 41.9509 118.183 41.956 118.183 41.9612C118.183 41.9663 118.183 41.9715 118.183 41.9766C118.183 41.9818 118.183 41.9869 118.183 41.9921C118.183 41.9972 118.183 42.0024 118.183 42.0075C118.183 42.0127 118.183 42.0178 118.183 42.023C118.183 42.0281 118.183 42.0333 118.183 42.0384C118.183 42.0436 118.183 42.0488 118.183 42.0539C118.183 42.0591 118.183 42.0642 118.183 42.0694C118.183 42.0745 118.183 42.0797 118.183 42.0848C118.183 42.09 118.183 42.0951 118.183 42.1003C118.183 42.1054 118.183 42.1106 118.183 42.1157C118.183 42.1209 118.183 42.126 118.183 42.1312C118.183 42.1363 118.183 42.1415 118.183 42.1466C118.183 42.1518 118.183 42.1569 118.183 42.1621C118.183 42.1672 118.183 42.1723 118.183 42.1775C118.183 42.1826 118.183 42.1878 118.183 42.1929C118.183 42.1981 118.183 42.2032 118.183 42.2084C118.183 42.2135 118.183 42.2187 118.183 42.2238C118.183 42.229 118.183 42.2341 118.183 42.2393C118.183 42.2444 118.183 42.2496 118.183 42.2547C118.183 42.2599 118.183 42.265 118.183 42.2701C118.183 42.2753 118.183 42.2804 118.183 42.2856C118.183 42.2907 118.183 42.2959 118.183 42.301C118.183 42.3062 118.183 42.3113 118.183 42.3165C118.183 42.3216 118.183 42.3267 118.183 42.3319C118.183 42.337 118.183 42.3422 118.183 42.3473C118.183 42.3525 118.183 42.3576 118.183 42.3628C118.183 42.3679 118.183 42.373 118.183 42.3782C118.183 42.3833 118.183 42.3885 118.183 42.3936C118.183 42.3988 118.183 42.4039 118.183 42.409C118.183 42.4142 118.183 42.4193 118.183 42.4245C118.183 42.4296 118.183 42.4348 118.183 42.4399C118.183 42.445 118.183 42.4502 118.183 42.4553C118.183 42.4605 118.183 42.4656 118.183 42.4707C118.183 42.4759 118.183 42.481 118.183 42.4862C118.183 42.4913 118.183 42.4965 118.183 42.5016C118.183 42.5067 118.183 42.5119 118.183 42.517C118.183 42.5221 118.183 42.5273 118.183 42.5324C118.183 42.5376 118.183 42.5427 118.183 42.5479C118.183 42.553 118.183 42.5581 118.183 42.5633C118.183 42.5684 118.183 42.5735 118.183 42.5787C118.183 42.5838 118.183 42.589 118.183 42.5941C118.183 42.5992 118.183 42.6044 118.183 42.6095C118.183 42.6146 118.183 42.6198 118.183 42.6249C118.183 42.6301 118.183 42.6352 118.183 42.6403C118.183 42.6455 118.183 42.6506 118.183 42.6557C118.183 42.6609 118.183 42.666 118.183 42.6712C118.183 42.6763 118.183 42.6814 118.183 42.6866C118.183 42.6917 118.183 42.6968 118.183 42.702C118.183 42.7071 118.183 42.7122 118.183 42.7174C118.183 42.7225 118.183 42.7276 118.183 42.7328C118.183 42.7379 118.183 42.743 118.183 42.7482C118.183 42.7533 118.183 42.7584 118.183 42.7636C118.183 42.7687 118.183 42.7738 118.183 42.779C118.183 42.7841 118.183 42.7892 118.183 42.7944C118.183 42.7995 118.183 42.8046 118.183 42.8098C118.183 42.8149 118.183 42.82 118.183 42.8252C118.183 42.8303 118.183 42.8354 118.183 42.8406C118.183 42.8457 118.183 42.8508 118.183 42.856C118.183 42.8611 118.183 42.8662 118.183 42.8714C118.183 42.8765 118.183 42.8816 118.183 42.8868C118.183 42.8919 118.183 42.897 118.183 42.9021C118.183 42.9073 118.183 42.9124 118.183 42.9175C118.183 42.9227 118.183 42.9278 118.183 42.9329C118.183 42.9381 118.183 42.9432 118.183 42.9483C118.183 42.9534 118.183 42.9586 118.183 42.9637C118.183 42.9688 118.183 42.974 118.183 42.9791C118.183 42.9842 118.183 42.9893 118.183 42.9945C118.183 42.9996 118.183 43.0047 118.183 43.0099C118.183 43.015 118.183 43.0201 118.183 43.0252C118.183 43.0304 118.183 43.0355 118.183 43.0406C118.183 43.0457 118.183 43.0509 118.183 43.056C118.183 43.0611 118.183 43.0663 118.183 43.0714C118.183 43.0765 118.183 43.0816 118.183 43.0868C118.183 43.0919 118.183 43.097 118.183 43.1021C118.183 43.1073 118.183 43.1124 118.183 43.1175C118.183 43.1226 118.183 43.1278 118.183 43.1329C118.183 43.138 118.183 43.1431 118.183 43.1483C118.183 43.1534 118.183 43.1585 118.183 43.1636C118.183 43.1688 118.183 43.1739 118.183 43.179C118.183 43.1841 118.183 43.1892 118.183 43.1944C118.183 43.1995 118.183 43.2046 118.183 43.2097C118.183 43.2149 118.183 43.22 118.183 43.2251C118.183 43.2302 118.183 43.2354 118.183 43.2405C118.183 43.2456 118.183 43.2507 118.183 43.2558C118.183 43.261 118.183 43.2661 118.183 43.2712C118.183 43.2763 118.183 43.2814 118.183 43.2866C118.183 43.2917 118.183 43.2968 118.183 43.3019C118.183 43.3071 118.183 43.3122 118.183 43.3173C118.183 43.3224 118.183 43.3275 118.183 43.3326C118.183 43.3378 118.183 43.3429 118.183 43.348C118.183 43.3531 118.183 43.3582 118.183 43.3634C118.183 43.3685 118.183 43.3736 118.183 43.3787C118.183 43.3838 118.183 43.389 118.183 43.3941C118.183 43.3992 118.183 43.4043 118.183 43.4094C118.183 43.4146 118.183 43.4197 118.183 43.4248C118.183 43.4299 118.183 43.435 118.183 43.4401C118.183 43.4453 118.183 43.4504 118.183 43.4555C118.183 43.4606 118.183 43.4657 118.183 43.4708C118.183 43.476 118.183 43.4811 118.183 43.4862C118.183 43.4913 118.183 43.4964 118.183 43.5015C118.183 43.5066 118.183 43.5118 118.183 43.5169C118.183 43.522 118.183 43.5271 118.183 43.5322C118.183 43.5373 118.183 43.5424 118.183 43.5476C118.183 43.5527 118.183 43.5578 118.183 43.5629C118.183 43.568 118.183 43.5731 118.183 43.5782C118.183 43.5834 118.183 43.5885 118.183 43.5936C118.183 43.5987 118.183 43.6038 118.183 43.6089C118.183 43.614 118.183 43.6192 118.183 43.6243C118.183 43.6294 118.183 43.6345 118.183 43.6396C118.183 43.6447 118.183 43.6498 118.183 43.6549C118.183 43.66 118.183 43.6652 118.183 43.6703C118.183 43.6754 118.183 43.6805 118.183 43.6856C118.183 43.6907 118.183 43.6958 118.183 43.7009C118.183 43.7061 118.183 43.7112 118.183 43.7163C118.183 43.7214 118.183 43.7265 118.183 43.7316C118.183 43.7367 118.183 43.7418 118.183 43.7469C118.183 43.752 118.183 43.7571 118.183 43.7623C118.183 43.7674 118.183 43.7725 118.183 43.7776C118.183 43.7827 118.183 43.7878 118.183 43.7929C118.183 43.798 118.183 43.8031 118.183 43.8082C118.183 43.8133 118.183 43.8185 118.183 43.8236C118.183 43.8287 118.183 43.8338 118.183 43.8389C118.183 43.844 118.183 43.8491 118.183 43.8542C118.183 43.8593 118.183 43.8644 118.183 43.8695C118.183 43.8746 118.183 43.8797 118.183 43.8848C118.183 43.8899 118.183 43.8951 118.183 43.9002C118.183 43.9053 118.183 43.9104 118.183 43.9155C118.183 43.9206 118.183 43.9257 118.183 43.9308C118.183 43.9359 118.183 43.941 118.183 43.9461C118.183 43.9512 118.183 43.9563 118.183 43.9614C118.183 43.9665 118.183 43.9716 118.183 43.9767C118.183 43.9818 118.183 43.9869 118.183 43.992C118.183 43.9971 118.183 44.0022 118.183 44.0073C118.183 44.0125 118.183 44.0175 118.183 44.0227C118.183 44.0278 118.183 44.0329 118.183 44.038C118.183 44.0431 118.183 44.0482 118.183 44.0533C118.183 44.0584 118.183 44.0635 118.183 44.0686C118.183 44.0737 118.183 44.0788 118.183 44.0839C118.183 44.089 118.183 44.0941 118.183 44.0992C118.183 44.1043 118.183 44.1094 118.183 44.1145C118.183 44.1196 118.183 44.1247 118.183 44.1298C118.183 44.1349 118.183 44.14 118.183 44.1451C118.183 44.1502 118.183 44.1553 118.183 44.1604C118.183 44.1655 118.183 44.1706 118.183 44.1757C118.183 44.1808 118.183 44.1859 118.183 44.191C118.183 44.1961 118.183 44.2012 118.183 44.2063C118.183 44.2114 118.183 44.2165 118.183 44.2216C118.183 44.2267 118.183 44.2318 118.183 44.2368C118.183 44.2419 118.183 44.247 118.183 44.2521C118.183 44.2572 118.183 44.2623 118.183 44.2674C118.183 44.2725 118.183 44.2776 118.183 44.2827C118.183 44.2878 118.183 44.2929 118.183 44.298C118.183 44.3031 118.183 44.3082 118.183 44.3133C118.183 44.3184 118.183 44.3235 118.183 44.3286C118.183 44.3337 118.183 44.3388 118.183 44.3439C118.183 44.349 118.183 44.354 118.183 44.3591C118.183 44.3642 118.183 44.3693 118.183 44.3744C118.183 44.3795 118.183 44.3846 118.183 44.3897C118.183 44.3948 118.183 44.3999 118.183 44.405C118.183 44.4101 118.183 44.4152 118.183 44.4203C118.183 44.4254 118.183 44.4305 118.183 44.4355C118.183 44.4406 118.183 44.4457 118.183 44.4508C118.183 44.4559 118.183 44.461 118.183 44.4661C118.183 44.4712 118.183 44.4763 118.183 44.4814C118.183 44.4865 118.183 44.4915 118.183 44.4966C118.183 44.5017 118.183 44.5068 118.183 44.5119C118.183 44.517 118.183 44.5221 118.183 44.5272C118.183 44.5323 118.183 44.5374 118.183 44.5424C118.183 44.5475 118.183 44.5526 118.183 44.5577C118.183 44.5628 118.183 44.5679 118.183 44.573C118.183 44.5781 118.183 44.5832 118.183 44.5882C118.183 44.5933 118.183 44.5984 118.183 44.6035C118.183 44.6086 118.183 44.6137 118.183 44.6188C118.183 44.6239 118.183 44.629 118.183 44.634C118.183 44.6391 118.183 44.6442 118.183 44.6493C118.183 44.6544 118.183 44.6595 118.183 44.6646C118.183 44.6696 118.183 44.6747 118.183 44.6798C118.183 44.6849 118.183 44.69 118.183 44.6951C118.183 44.7002 118.183 44.7053 118.183 44.7103C118.183 44.7154 118.183 44.7205 118.183 44.7256C118.183 44.7307 118.183 44.7358 118.183 44.7408C118.183 44.7459 118.183 44.751 118.183 44.7561C118.183 44.7612 118.183 44.7663 118.183 44.7714C118.183 44.7764 118.183 44.7815 118.183 44.7866C118.183 44.7917 118.183 44.7968 118.183 44.8018C118.183 44.8069 118.183 44.812 118.183 44.8171C118.183 44.8222 118.183 44.8273 118.183 44.8324C118.183 44.8374 118.183 44.8425 118.183 44.8476C118.183 44.8527 118.183 44.8578 118.183 44.8628C118.183 44.8679 118.183 44.873 118.183 44.8781C118.183 44.8832 118.183 44.8882 118.183 44.8933C118.183 44.8984 118.183 44.9035 118.183 44.9086C118.183 44.9137 118.183 44.9187 118.183 44.9238C118.183 44.9289 118.183 44.934 118.183 44.939C118.183 44.9441 118.183 44.9492 118.183 44.9543C118.183 44.9594 118.183 44.9644 118.183 44.9695C118.183 44.9746 118.183 44.9797 118.183 44.9848C118.183 44.9898 118.183 44.9949 118.183 45H120.183ZM120.183 37.0857C120.283 34.2734 120.333 31.4115 120.333 28.5H118.333C118.333 31.3885 118.283 34.2266 118.184 37.0143L120.183 37.0857ZM118.661 27.7601C115.416 30.7099 111.824 33.3178 107.885 35.5831L108.882 37.3169C112.942 34.9822 116.651 32.2901 120.006 29.2399L118.661 27.7601ZM107.901 35.5738C103.994 37.7229 99.8959 39.1858 95.6043 39.9661L95.9621 41.9339C100.47 41.1142 104.773 39.5771 108.865 37.3262L107.901 35.5738ZM96.7769 40.838L94.3769 19.538L92.3895 19.762L94.7895 41.062L96.7769 40.838ZM93.4599 20.647C96.171 20.4385 99.015 19.7626 101.988 18.635L101.279 16.765C98.4514 17.8374 95.7954 18.4615 93.3065 18.6529L93.4599 20.647ZM101.977 18.6389C105.027 17.5207 108.023 16.1493 110.966 14.5256L110 12.7744C107.143 14.3507 104.239 15.6793 101.289 16.7611L101.977 18.6389ZM110.966 14.5256C113.907 12.9032 116.552 11.1744 118.9 9.3375L117.667 7.76249C115.414 9.52561 112.86 11.1968 110 12.7744L110.966 14.5256ZM118.92 9.32096C121.269 7.38052 123.095 5.46012 124.365 3.5547L122.701 2.4453C121.571 4.13987 119.897 5.91948 117.646 7.77903L118.92 9.32096ZM123.533 4H144.083V2H123.533V4ZM143.083 3V102H145.083V3H143.083ZM144.083 101H119.183V103H144.083V101Z" fill="#FCD835"/>
</svg>
