<svg width="175" height="105" viewBox="0 0 175 105" fill="none" xmlns="http://www.w3.org/2000/svg">
<path d="M54.15 76.2L53.2631 75.7381L53.2593 75.7454L53.2556 75.7528L54.15 76.2ZM54.15 28.8L53.2556 29.2472L53.2593 29.2546L53.2631 29.2619L54.15 28.8ZM30.3 28.8L29.4131 28.3381L29.4093 28.3454L29.4056 28.3528L30.3 28.8ZM30.3 76.2L29.4056 76.6472L29.4093 76.6546L29.4131 76.6619L30.3 76.2ZM42.3 102.5C28.8182 102.5 18.8665 98.3283 12.2536 90.1225C5.60749 81.8755 2.2 69.3919 2.2 52.5H0.2C0.2 69.6081 3.64251 82.6245 10.6964 91.3775C17.7835 100.172 28.3818 104.5 42.3 104.5V102.5ZM2.2 52.5C2.2 35.6081 5.60749 23.1245 12.2536 14.8775C18.8665 6.6717 28.8182 2.5 42.3 2.5V0.499996C28.3818 0.499996 17.7835 4.8283 10.6964 13.6225C3.64251 22.3755 0.2 35.3919 0.2 52.5H2.2ZM42.3 2.5C55.7818 2.5 65.7335 6.6717 72.3464 14.8775C78.9925 23.1245 82.4 35.6081 82.4 52.5H84.4C84.4 35.3919 80.9575 22.3755 73.9036 13.6225C66.8165 4.8283 56.2182 0.499996 42.3 0.499996V2.5ZM82.4 52.5C82.4 69.3919 78.9925 81.8755 72.3464 90.1225C65.7335 98.3283 55.7818 102.5 42.3 102.5V104.5C56.2182 104.5 66.8165 100.172 73.9036 91.3775C80.9575 82.6245 84.4 69.6081 84.4 52.5H82.4ZM42.3 84.4C45.1981 84.4 47.7478 83.7664 49.9068 82.4546C52.0672 81.1419 53.774 79.188 55.0444 76.6472L53.2556 75.7528C52.126 78.012 50.6578 79.6581 48.8682 80.7454C47.0772 81.8336 44.9019 82.4 42.3 82.4V84.4ZM55.0369 76.6619C57.6549 71.6353 58.9 63.5274 58.9 52.5H56.9C56.9 63.4726 55.6451 71.1646 53.2631 75.7381L55.0369 76.6619ZM58.9 52.5C58.9 41.4726 57.6549 33.3646 55.0369 28.3381L53.2631 29.2619C55.6451 33.8353 56.9 41.5274 56.9 52.5H58.9ZM55.0444 28.3528C53.774 25.812 52.0672 23.8581 49.9068 22.5454C47.7478 21.2336 45.1981 20.6 42.3 20.6V22.6C44.9019 22.6 47.0772 23.1664 48.8682 24.2546C50.6578 25.3419 52.126 26.988 53.2556 29.2472L55.0444 28.3528ZM42.3 20.6C39.4015 20.6 36.8418 21.2337 34.6605 22.5425C32.4783 23.8518 30.7345 25.801 29.4131 28.3381L31.1869 29.2619C32.3655 26.999 33.8717 25.3482 35.6895 24.2575C37.5082 23.1663 39.6985 22.6 42.3 22.6V20.6ZM29.4056 28.3528C26.8951 33.3738 25.7 41.4748 25.7 52.5H27.7C27.7 41.5252 28.9049 33.8262 31.1944 29.2472L29.4056 28.3528ZM25.7 52.5C25.7 63.5252 26.8951 71.6262 29.4056 76.6472L31.1944 75.7528C28.9049 71.1738 27.7 63.4748 27.7 52.5H25.7ZM29.4131 76.6619C30.7345 79.199 32.4783 81.1482 34.6605 82.4575C36.8418 83.7663 39.4015 84.4 42.3 84.4V82.4C39.6985 82.4 37.5082 81.8337 35.6895 80.7425C33.8717 79.6518 32.3655 78.001 31.1869 75.7381L29.4131 76.6619ZM99.5332 85.5L99.0046 84.6511L98.5332 84.9447V85.5H99.5332ZM135.683 57.9L134.949 57.2206L134.949 57.221L135.683 57.9ZM143.483 25.5L142.747 26.177L142.754 26.1845L142.761 26.1919L143.483 25.5ZM122.483 27L121.691 26.3892L121.689 26.3925L122.483 27ZM118.433 42L118.14 42.9562L119.413 43.3457L119.433 42.0152L118.433 42ZM96.3832 35.25L95.3834 35.2313L95.3693 35.9854L96.0905 36.2062L96.3832 35.25ZM107.333 10.35L106.699 9.5765L106.694 9.58089L107.333 10.35ZM156.083 6.14999L155.599 7.02497L155.611 7.03147L156.083 6.14999ZM168.533 17.85L169.405 17.3597L168.533 17.85ZM162.083 58.95L161.339 58.2821L161.334 58.2874L162.083 58.95ZM130.583 82.8L130.085 81.9329L129.583 82.2212V82.8H130.583ZM130.583 82.95H129.583V84.0124L130.644 83.9482L130.583 82.95ZM173.783 82.35H174.783V81.35H173.783V82.35ZM173.783 102V103H174.783V102H173.783ZM99.5332 102H98.5332V103H99.5332V102ZM100.062 86.3489C116.787 75.933 128.927 66.6772 136.417 58.579L134.949 57.221C127.64 65.1228 115.679 74.267 99.0046 84.6511L100.062 86.3489ZM136.417 58.5794C143.997 50.3933 147.933 42.5602 147.933 35.1H145.933C145.933 41.8398 142.37 49.2067 134.949 57.2206L136.417 58.5794ZM147.933 35.1C147.933 30.8978 146.719 27.4309 144.205 24.8081L142.761 26.1919C144.848 28.3691 145.933 31.3022 145.933 35.1H147.933ZM144.219 24.8229C141.682 22.0653 138.084 20.75 133.583 20.75V22.75C137.683 22.75 140.684 23.9347 142.747 26.177L144.219 24.8229ZM133.583 20.75C128.596 20.75 124.594 22.6263 121.691 26.3892L123.275 27.6108C125.772 24.3737 129.17 22.75 133.583 22.75V20.75ZM121.689 26.3925C118.905 30.0328 117.535 35.2796 117.433 41.9848L119.433 42.0152C119.531 35.5204 120.861 30.7672 123.278 27.6075L121.689 26.3925ZM118.726 41.0438L96.6759 34.2938L96.0905 36.2062L118.14 42.9562L118.726 41.0438ZM97.383 35.2687C97.5786 24.808 101.133 16.8028 107.972 11.1191L106.694 9.58089C99.3338 15.6972 95.5879 24.2919 95.3834 35.2313L97.383 35.2687ZM107.967 11.1235C114.951 5.40069 124.011 2.5 135.233 2.5V0.499996C123.656 0.499996 114.116 3.49931 106.699 9.57652L107.967 11.1235ZM135.233 2.5C143.413 2.5 150.185 4.02776 155.599 7.02488L156.568 5.2751C150.782 2.07224 143.654 0.499996 135.233 0.499996V2.5ZM155.611 7.03147C161.07 9.95578 165.068 13.7302 167.662 18.3403L169.405 17.3597C166.598 12.3698 162.297 8.34421 156.555 5.26851L155.611 7.03147ZM167.662 18.3403C170.278 22.9908 171.583 27.972 171.583 33.3H173.583C173.583 27.628 172.189 22.3092 169.405 17.3597L167.662 18.3403ZM171.583 33.3C171.583 42.3218 168.197 50.6406 161.339 58.2821L162.827 59.6179C169.97 51.6594 173.583 42.8782 173.583 33.3H171.583ZM161.334 58.2874C154.535 65.9737 144.138 73.8602 130.085 81.9329L131.081 83.6671C145.229 75.5398 155.832 67.5263 162.832 59.6126L161.334 58.2874ZM129.583 82.8V82.95H131.583V82.8H129.583ZM130.644 83.9482C137.223 83.5494 143.853 83.35 150.533 83.35V81.35C143.813 81.35 137.143 81.5506 130.523 81.9518L130.644 83.9482ZM150.533 83.35H173.783V81.35H150.533V83.35ZM172.783 82.35V102H174.783V82.35H172.783ZM173.783 101H99.5332V103H173.783V101ZM100.533 102V85.5H98.5332V102H100.533Z" fill="#FCD835"/>
</svg>
