<svg width="173" height="105" viewBox="0 0 173 105" fill="none" xmlns="http://www.w3.org/2000/svg">
<path d="M54.15 76.2L53.2631 75.7381L53.2593 75.7454L53.2556 75.7528L54.15 76.2ZM54.15 28.8L53.2556 29.2472L53.2593 29.2546L53.2631 29.2619L54.15 28.8ZM30.3 28.8L29.4131 28.3381L29.4093 28.3454L29.4056 28.3528L30.3 28.8ZM30.3 76.2L29.4056 76.6472L29.4093 76.6546L29.4131 76.6619L30.3 76.2ZM42.3 102.5C28.8182 102.5 18.8665 98.3283 12.2536 90.1225C5.60749 81.8755 2.2 69.3919 2.2 52.5H0.2C0.2 69.6081 3.64251 82.6245 10.6964 91.3775C17.7835 100.172 28.3818 104.5 42.3 104.5V102.5ZM2.2 52.5C2.2 35.6081 5.60749 23.1245 12.2536 14.8775C18.8665 6.6717 28.8182 2.5 42.3 2.5V0.499996C28.3818 0.499996 17.7835 4.8283 10.6964 13.6225C3.64251 22.3755 0.2 35.3919 0.2 52.5H2.2ZM42.3 2.5C55.7818 2.5 65.7335 6.6717 72.3464 14.8775C78.9925 23.1245 82.4 35.6081 82.4 52.5H84.4C84.4 35.3919 80.9575 22.3755 73.9036 13.6225C66.8165 4.8283 56.2182 0.499996 42.3 0.499996V2.5ZM82.4 52.5C82.4 69.3919 78.9925 81.8755 72.3464 90.1225C65.7335 98.3283 55.7818 102.5 42.3 102.5V104.5C56.2182 104.5 66.8165 100.172 73.9036 91.3775C80.9575 82.6245 84.4 69.6081 84.4 52.5H82.4ZM42.3 84.4C45.1981 84.4 47.7478 83.7664 49.9068 82.4546C52.0672 81.1419 53.774 79.188 55.0444 76.6472L53.2556 75.7528C52.126 78.012 50.6578 79.6581 48.8682 80.7454C47.0772 81.8336 44.9019 82.4 42.3 82.4V84.4ZM55.0369 76.6619C57.6549 71.6353 58.9 63.5274 58.9 52.5H56.9C56.9 63.4726 55.6451 71.1646 53.2631 75.7381L55.0369 76.6619ZM58.9 52.5C58.9 41.4726 57.6549 33.3646 55.0369 28.3381L53.2631 29.2619C55.6451 33.8353 56.9 41.5274 56.9 52.5H58.9ZM55.0444 28.3528C53.774 25.812 52.0672 23.8581 49.9068 22.5454C47.7478 21.2336 45.1981 20.6 42.3 20.6V22.6C44.9019 22.6 47.0772 23.1664 48.8682 24.2546C50.6578 25.3419 52.126 26.988 53.2556 29.2472L55.0444 28.3528ZM42.3 20.6C39.4015 20.6 36.8418 21.2337 34.6605 22.5425C32.4783 23.8518 30.7345 25.801 29.4131 28.3381L31.1869 29.2619C32.3655 26.999 33.8717 25.3482 35.6895 24.2575C37.5082 23.1663 39.6985 22.6 42.3 22.6V20.6ZM29.4056 28.3528C26.8951 33.3738 25.7 41.4748 25.7 52.5H27.7C27.7 41.5252 28.9049 33.8262 31.1944 29.2472L29.4056 28.3528ZM25.7 52.5C25.7 63.5252 26.8951 71.6262 29.4056 76.6472L31.1944 75.7528C28.9049 71.1738 27.7 63.4748 27.7 52.5H25.7ZM29.4131 76.6619C30.7345 79.199 32.4783 81.1482 34.6605 82.4575C36.8418 83.7663 39.4015 84.4 42.3 84.4V82.4C39.6985 82.4 37.5082 81.8337 35.6895 80.7425C33.8717 79.6518 32.3655 78.001 31.1869 75.7381L29.4131 76.6619ZM160.161 9L159.534 9.77841L160.161 9ZM166.161 42.15L165.315 41.6178L165.311 41.6245L166.161 42.15ZM158.511 49.65L158.041 48.7676L158.034 48.771L158.028 48.7744L158.511 49.65ZM150.861 52.05V51.05H149.861V52.05H150.861ZM150.861 52.5H149.861V53.5H150.861V52.5ZM159.711 54.75L159.276 55.6502L159.293 55.6585L159.311 55.6662L159.711 54.75ZM167.961 61.95L167.133 62.5104L167.141 62.5218L167.961 61.95ZM166.461 89.85L165.668 89.2412L166.461 89.85ZM152.811 99.9L152.429 98.976L152.811 99.9ZM107.511 97.65L106.985 98.5003L106.991 98.5039L107.511 97.65ZM94.0113 78.9L93.6167 77.9812L92.7867 78.3377L93.0572 79.1995L94.0113 78.9ZM117.411 68.85L118.407 68.7543L118.276 67.3905L117.017 67.9312L117.411 68.85ZM121.911 80.1L121.234 80.8359L121.241 80.8425L121.249 80.849L121.911 80.1ZM142.761 80.55L143.402 81.3182L143.405 81.3157L142.761 80.55ZM142.911 63.45L142.317 64.2542L142.325 64.2602L142.333 64.266L142.911 63.45ZM126.261 60.9H125.261V61.9H126.261V60.9ZM126.261 44.55V43.55H125.261V44.55H126.261ZM141.111 41.7L141.765 42.4568L141.775 42.4485L141.784 42.4399L141.111 41.7ZM141.261 24.45L140.554 25.1571L140.572 25.1748L140.59 25.1915L141.261 24.45ZM118.911 34.8L118.591 35.7474L119.794 36.1535L119.907 34.8895L118.911 34.8ZM96.2613 27.15L95.2775 26.9711L95.1229 27.821L95.9413 28.0974L96.2613 27.15ZM108.711 7.8L109.233 8.65297L109.237 8.65079L108.711 7.8ZM134.211 2.5C145.172 2.5 153.57 4.96901 159.534 9.77841L160.789 8.22159C154.353 3.03099 145.451 0.499996 134.211 0.499996V2.5ZM159.534 9.77841C165.481 14.5744 168.461 21.0291 168.461 29.25H170.461C170.461 20.4709 167.242 13.4256 160.789 8.22158L159.534 9.77841ZM168.461 29.25C168.461 34.2057 167.393 38.3108 165.315 41.6178L167.008 42.6822C169.329 38.9892 170.461 34.4943 170.461 29.25H168.461ZM165.311 41.6245C163.287 44.9006 160.859 47.2645 158.041 48.7676L158.982 50.5323C162.163 48.8355 164.836 46.1994 167.012 42.6755L165.311 41.6245ZM158.028 48.7744C155.207 50.3308 152.828 51.05 150.861 51.05V53.05C153.295 53.05 156.015 52.1692 158.994 50.5256L158.028 48.7744ZM149.861 52.05V52.5H151.861V52.05H149.861ZM150.861 53.5C153.48 53.5 156.281 54.2011 159.276 55.6502L160.147 53.8498C156.942 52.2989 153.843 51.5 150.861 51.5V53.5ZM159.311 55.6662C162.309 56.9779 164.92 59.2391 167.133 62.5103L168.79 61.3897C166.403 57.8609 163.514 55.3221 160.112 53.8338L159.311 55.6662ZM167.141 62.5218C169.29 65.6053 170.411 69.7357 170.411 75H172.411C172.411 69.4643 171.233 64.8947 168.782 61.3782L167.141 62.5218ZM170.411 75C170.411 80.3877 168.829 85.122 165.668 89.2412L167.255 90.4588C170.693 85.978 172.411 80.8123 172.411 75H170.411ZM165.668 89.2412C162.491 93.3811 158.093 96.6324 152.429 98.976L153.194 100.824C159.13 98.3676 163.832 94.9189 167.255 90.4588L165.668 89.2412ZM152.429 98.976C146.77 101.318 140.303 102.5 133.011 102.5V104.5C140.519 104.5 147.253 103.282 153.194 100.824L152.429 98.976ZM133.011 102.5C122.523 102.5 114.223 100.569 108.032 96.7961L106.991 98.5039C113.6 102.531 122.3 104.5 133.011 104.5V102.5ZM108.038 96.7997C101.984 93.0519 97.6098 87.0232 94.9654 78.6005L93.0572 79.1995C95.8129 87.9768 100.439 94.4481 106.985 98.5003L108.038 96.7997ZM94.406 79.8188L117.806 69.7688L117.017 67.9312L93.6167 77.9812L94.406 79.8188ZM116.416 68.9457C116.927 74.264 118.477 78.2992 121.234 80.8359L122.588 79.3641C120.346 77.3008 118.895 73.836 118.407 68.7543L116.416 68.9457ZM121.249 80.849C124.084 83.3572 127.948 84.55 132.711 84.55V82.55C128.275 82.55 124.939 81.4428 122.574 79.351L121.249 80.849ZM132.711 84.55C137.158 84.55 140.764 83.5158 143.402 81.3182L142.121 79.7818C139.958 81.5842 136.865 82.55 132.711 82.55V84.55ZM143.405 81.3157C146.162 78.999 147.511 75.8013 147.511 71.85H145.511C145.511 75.2987 144.36 77.901 142.118 79.7843L143.405 81.3157ZM147.511 71.85C147.511 67.7418 146.236 64.5798 143.489 62.634L142.333 64.266C144.386 65.7202 145.511 68.1582 145.511 71.85H147.511ZM143.506 62.6458C140.944 60.7524 136.978 59.9 131.811 59.9V61.9C136.845 61.9 140.279 62.7476 142.317 64.2542L143.506 62.6458ZM131.811 59.9H126.261V61.9H131.811V59.9ZM127.261 60.9V44.55H125.261V60.9H127.261ZM126.261 45.55H130.611V43.55H126.261V45.55ZM130.611 45.55C135.506 45.55 139.297 44.5879 141.765 42.4568L140.458 40.9432C138.525 42.6121 135.317 43.55 130.611 43.55V45.55ZM141.784 42.4399C144.257 40.1914 145.411 36.88 145.411 32.7H143.411C143.411 36.52 142.365 39.2086 140.439 40.9601L141.784 42.4399ZM145.411 32.7C145.411 28.8992 144.296 25.8467 141.932 23.7085L140.59 25.1915C142.427 26.8532 143.411 29.3008 143.411 32.7H145.411ZM141.968 23.7429C139.728 21.5028 136.592 20.45 132.711 20.45V22.45C136.231 22.45 138.794 23.3972 140.554 25.1571L141.968 23.7429ZM132.711 20.45C128.336 20.45 124.805 21.6125 122.266 24.0688C119.736 26.5163 118.328 30.1156 117.915 34.7105L119.907 34.8895C120.294 30.5844 121.587 27.5087 123.657 25.5062C125.718 23.5125 128.687 22.45 132.711 22.45V20.45ZM119.231 33.8526L96.5813 26.2026L95.9413 28.0974L118.591 35.7474L119.231 33.8526ZM97.2452 27.3289C98.8021 18.766 102.811 12.5829 109.233 8.65297L108.189 6.94703C101.211 11.2171 96.9206 17.9339 95.2775 26.9711L97.2452 27.3289ZM109.237 8.65079C115.841 4.57189 124.146 2.5 134.211 2.5V0.499996C123.876 0.499996 115.182 2.6281 108.186 6.9492L109.237 8.65079Z" fill="#FCD835"/>
</svg>
