<svg width="185" height="105" viewBox="0 0 185 105" fill="none" xmlns="http://www.w3.org/2000/svg">
<path d="M11.55 90.6L10.77 91.2258L10.7744 91.2313L11.55 90.6ZM11.55 14.4L10.7744 13.7687L10.77 13.7742L11.55 14.4ZM72.9 14.4L72.12 15.0258L72.1244 15.0313L72.9 14.4ZM72.9 90.6L72.1244 89.9687L72.12 89.9742L72.9 90.6ZM51.3 80.4L51.9562 81.1546L51.9653 81.1467L51.9743 81.1385L51.3 80.4ZM56.25 70.5L55.2774 70.2674L55.2756 70.2752L55.2738 70.2831L56.25 70.5ZM56.25 34.65L55.2728 34.8624L55.2756 34.875L55.2786 34.8875L56.25 34.65ZM51.3 24.75L50.6257 25.4885L50.6347 25.4966L50.6438 25.5046L51.3 24.75ZM33.3 24.75L33.9562 25.5046L33.9585 25.5026L33.3 24.75ZM28.2 34.65L27.2274 34.4174L27.2256 34.4252L27.2238 34.4331L28.2 34.65ZM28.2 70.5L27.2228 70.7124L27.2256 70.725L27.2286 70.7374L28.2 70.5ZM33.3 80.4L32.6257 81.1385L32.6424 81.1537L32.6598 81.1682L33.3 80.4ZM42.3 102.5C29.0287 102.5 19.0944 98.2847 12.3256 89.9687L10.7744 91.2313C18.0056 100.115 28.5713 104.5 42.3 104.5V102.5ZM12.33 89.9742C5.63008 81.6236 2.2 69.1859 2.2 52.5H0.2C0.2 69.4141 3.66992 82.3764 10.77 91.2258L12.33 89.9742ZM2.2 52.5C2.2 35.8141 5.63008 23.3764 12.33 15.0258L10.77 13.7742C3.66992 22.6236 0.2 35.5859 0.2 52.5H2.2ZM12.3256 15.0313C19.0944 6.71529 29.0287 2.5 42.3 2.5V0.499996C28.5713 0.499996 18.0056 4.8847 10.7744 13.7687L12.3256 15.0313ZM42.3 2.5C55.5718 2.5 65.4523 6.7153 72.12 15.0258L73.68 13.7742C66.5477 4.88469 56.0282 0.499996 42.3 0.499996V2.5ZM72.1244 15.0313C78.921 23.3814 82.4 35.8167 82.4 52.5H84.4C84.4 35.5833 80.879 22.6186 73.6756 13.7687L72.1244 15.0313ZM82.4 52.5C82.4 69.1833 78.921 81.6186 72.1244 89.9687L73.6756 91.2313C80.879 82.3814 84.4 69.4167 84.4 52.5H82.4ZM72.12 89.9742C65.4523 98.2847 55.5718 102.5 42.3 102.5V104.5C56.0282 104.5 66.5477 100.115 73.68 91.2258L72.12 89.9742ZM42.3 84.4C46.1873 84.4 49.4373 83.345 51.9562 81.1546L50.6438 79.6454C48.5627 81.455 45.8127 82.4 42.3 82.4V84.4ZM51.9743 81.1385C54.4831 78.8478 56.2019 75.3263 57.2262 70.7169L55.2738 70.2831C54.2981 74.6737 52.7169 77.7522 50.6257 79.6615L51.9743 81.1385ZM57.2226 70.7326C58.348 66.0262 58.9 59.9397 58.9 52.5H56.9C56.9 59.8603 56.352 65.7738 55.2774 70.2674L57.2226 70.7326ZM58.9 52.5C58.9 45.0615 58.3482 39.0222 57.2214 34.4125L55.2786 34.8875C56.3518 39.2778 56.9 45.1385 56.9 52.5H58.9ZM57.2272 34.4376C56.2048 29.7346 54.4859 26.1951 51.9562 23.9954L50.6438 25.5046C52.7141 27.3049 54.2952 30.3654 55.2728 34.8624L57.2272 34.4376ZM51.9743 24.0115C49.4563 21.7125 46.1998 20.6 42.3 20.6V22.6C45.8002 22.6 48.5437 23.5875 50.6257 25.4885L51.9743 24.0115ZM42.3 20.6C38.4911 20.6 35.2474 21.7172 32.6415 23.9974L33.9585 25.5026C36.1526 23.5828 38.9089 22.6 42.3 22.6V20.6ZM32.6438 23.9954C30.1214 26.1888 28.351 29.719 27.2274 34.4174L29.1726 34.8826C30.249 30.381 31.8786 27.3112 33.9562 25.5046L32.6438 23.9954ZM27.2238 34.4331C26.2014 39.0338 25.7 45.0652 25.7 52.5H27.7C27.7 45.1348 28.1986 39.2662 29.1762 34.8669L27.2238 34.4331ZM25.7 52.5C25.7 59.9358 26.2016 66.0148 27.2228 70.7124L29.1772 70.2876C28.1984 65.7852 27.7 59.8642 27.7 52.5H25.7ZM27.2286 70.7374C28.3541 75.3417 30.1239 78.8542 32.6257 81.1385L33.9743 79.6615C31.8761 77.7458 30.2459 74.6583 29.1714 70.2625L27.2286 70.7374ZM32.6598 81.1682C35.2664 83.3404 38.5037 84.4 42.3 84.4V82.4C38.8963 82.4 36.1336 81.4596 33.9402 79.6318L32.6598 81.1682ZM145.283 102H144.283V103H145.283V102ZM145.283 80.25H146.283V79.25H145.283V80.25ZM96.9832 80.25H95.9832V81.25H96.9832V80.25ZM96.9832 64.05L96.1116 63.5597L95.9832 63.788V64.05H96.9832ZM100.433 58.2L99.5956 57.6537L99.5871 57.6668L99.579 57.68L100.433 58.2ZM105.683 50.25L104.857 49.6862L104.851 49.6953L105.683 50.25ZM137.933 3V2H137.405L137.107 2.43625L137.933 3ZM168.083 3H169.083V2H168.083V3ZM168.083 62.55H167.083V63.55H168.083V62.55ZM183.233 62.55H184.233V61.55H183.233V62.55ZM183.233 80.25V81.25H184.233V80.25H183.233ZM168.083 80.25V79.25H167.083V80.25H168.083ZM168.083 102V103H169.083V102H168.083ZM117.683 62.55L116.883 61.95L115.683 63.55H117.683V62.55ZM145.583 62.55V63.55H146.583V62.55H145.583ZM145.733 26.4L146.732 26.4476L146.732 26.4454L145.733 26.4ZM146.033 19.8L147.032 19.8454L147.08 18.8H146.033V19.8ZM145.733 19.8V18.8H145.102L144.83 19.3701L145.733 19.8ZM142.133 26.4L141.279 25.88L141.272 25.8913L142.133 26.4ZM138.383 32.4L139.209 32.9647L139.215 32.9547L138.383 32.4ZM120.833 58.05L120.008 57.4853L119.996 57.5024L119.985 57.52L120.833 58.05ZM119.333 60.3L118.519 59.7188L119.333 60.3ZM146.283 102V80.25H144.283V102H146.283ZM145.283 79.25H96.9832V81.25H145.283V79.25ZM97.9832 80.25V64.05H95.9832V80.25H97.9832ZM97.8548 64.5403C98.7472 62.9537 99.8909 61.0142 101.287 58.7199L99.579 57.68C98.1755 59.9858 97.0192 61.9463 96.1116 63.5597L97.8548 64.5403ZM101.271 58.7463C102.769 56.4498 104.517 53.8027 106.515 50.8047L104.851 49.6953C102.85 52.6973 101.098 55.3502 99.5956 57.6537L101.271 58.7463ZM106.509 50.8137L138.759 3.56374L137.107 2.43625L104.857 49.6862L106.509 50.8137ZM137.933 4H168.083V2H137.933V4ZM167.083 3V62.55H169.083V3H167.083ZM168.083 63.55H183.233V61.55H168.083V63.55ZM182.233 62.55V80.25H184.233V62.55H182.233ZM183.233 79.25H168.083V81.25H183.233V79.25ZM167.083 80.25V102H169.083V80.25H167.083ZM168.083 101H145.283V103H168.083V101ZM117.683 63.55H145.583V61.55H117.683V63.55ZM146.583 62.55V32.55H144.583V62.55H146.583ZM146.583 32.55C146.583 30.5666 146.633 28.5325 146.732 26.4476L144.734 26.3524C144.634 28.4675 144.583 30.5334 144.583 32.55H146.583ZM146.732 26.4454C146.732 26.4411 146.733 26.4368 146.733 26.4325C146.733 26.4282 146.733 26.4239 146.733 26.4196C146.734 26.4153 146.734 26.411 146.734 26.4067C146.734 26.4024 146.734 26.3981 146.735 26.3938C146.735 26.3895 146.735 26.3852 146.735 26.381C146.735 26.3767 146.736 26.3724 146.736 26.3681C146.736 26.3638 146.736 26.3595 146.736 26.3552C146.736 26.3509 146.737 26.3466 146.737 26.3423C146.737 26.338 146.737 26.3337 146.737 26.3294C146.738 26.3251 146.738 26.3208 146.738 26.3165C146.738 26.3122 146.738 26.3079 146.739 26.3036C146.739 26.2993 146.739 26.295 146.739 26.2907C146.739 26.2864 146.74 26.2821 146.74 26.2778C146.74 26.2735 146.74 26.2692 146.74 26.2649C146.741 26.2606 146.741 26.2563 146.741 26.252C146.741 26.2477 146.741 26.2435 146.742 26.2392C146.742 26.2349 146.742 26.2306 146.742 26.2263C146.742 26.222 146.743 26.2177 146.743 26.2134C146.743 26.2091 146.743 26.2048 146.743 26.2005C146.743 26.1962 146.744 26.1919 146.744 26.1876C146.744 26.1833 146.744 26.179 146.744 26.1747C146.745 26.1704 146.745 26.1661 146.745 26.1618C146.745 26.1575 146.745 26.1532 146.746 26.1489C146.746 26.1446 146.746 26.1403 146.746 26.136C146.746 26.1317 146.747 26.1274 146.747 26.1231C146.747 26.1188 146.747 26.1145 146.747 26.1103C146.748 26.1059 146.748 26.1017 146.748 26.0974C146.748 26.0931 146.748 26.0888 146.749 26.0845C146.749 26.0802 146.749 26.0759 146.749 26.0716C146.749 26.0673 146.75 26.063 146.75 26.0587C146.75 26.0544 146.75 26.0501 146.75 26.0458C146.751 26.0415 146.751 26.0372 146.751 26.0329C146.751 26.0286 146.751 26.0243 146.752 26.02C146.752 26.0157 146.752 26.0114 146.752 26.0071C146.752 26.0028 146.752 25.9985 146.753 25.9942C146.753 25.9899 146.753 25.9856 146.753 25.9813C146.753 25.977 146.754 25.9727 146.754 25.9685C146.754 25.9642 146.754 25.9599 146.754 25.9556C146.755 25.9513 146.755 25.947 146.755 25.9427C146.755 25.9384 146.755 25.9341 146.756 25.9298C146.756 25.9255 146.756 25.9212 146.756 25.9169C146.756 25.9126 146.757 25.9083 146.757 25.904C146.757 25.8997 146.757 25.8954 146.757 25.8911C146.758 25.8868 146.758 25.8825 146.758 25.8782C146.758 25.8739 146.758 25.8696 146.759 25.8653C146.759 25.861 146.759 25.8567 146.759 25.8524C146.759 25.8481 146.76 25.8438 146.76 25.8395C146.76 25.8353 146.76 25.831 146.76 25.8267C146.76 25.8224 146.761 25.8181 146.761 25.8138C146.761 25.8095 146.761 25.8052 146.761 25.8009C146.762 25.7966 146.762 25.7923 146.762 25.788C146.762 25.7837 146.762 25.7794 146.763 25.7751C146.763 25.7708 146.763 25.7665 146.763 25.7622C146.763 25.7579 146.764 25.7536 146.764 25.7493C146.764 25.745 146.764 25.7407 146.764 25.7364C146.765 25.7321 146.765 25.7278 146.765 25.7235C146.765 25.7192 146.765 25.7149 146.766 25.7106C146.766 25.7063 146.766 25.702 146.766 25.6978C146.766 25.6935 146.767 25.6892 146.767 25.6849C146.767 25.6806 146.767 25.6763 146.767 25.672C146.768 25.6677 146.768 25.6634 146.768 25.6591C146.768 25.6548 146.768 25.6505 146.769 25.6462C146.769 25.6419 146.769 25.6376 146.769 25.6333C146.769 25.629 146.769 25.6247 146.77 25.6204C146.77 25.6161 146.77 25.6118 146.77 25.6075C146.77 25.6032 146.771 25.5989 146.771 25.5946C146.771 25.5903 146.771 25.586 146.771 25.5817C146.772 25.5774 146.772 25.5731 146.772 25.5688C146.772 25.5645 146.772 25.5602 146.773 25.556C146.773 25.5517 146.773 25.5474 146.773 25.5431C146.773 25.5388 146.774 25.5345 146.774 25.5302C146.774 25.5259 146.774 25.5216 146.774 25.5173C146.775 25.513 146.775 25.5087 146.775 25.5044C146.775 25.5001 146.775 25.4958 146.776 25.4915C146.776 25.4872 146.776 25.4829 146.776 25.4786C146.776 25.4743 146.777 25.47 146.777 25.4657C146.777 25.4614 146.777 25.4571 146.777 25.4528C146.777 25.4485 146.778 25.4442 146.778 25.4399C146.778 25.4356 146.778 25.4313 146.778 25.427C146.779 25.4227 146.779 25.4185 146.779 25.4142C146.779 25.4099 146.779 25.4056 146.78 25.4013C146.78 25.397 146.78 25.3927 146.78 25.3884C146.78 25.3841 146.781 25.3798 146.781 25.3755C146.781 25.3712 146.781 25.3669 146.781 25.3626C146.782 25.3583 146.782 25.354 146.782 25.3497C146.782 25.3454 146.782 25.3411 146.783 25.3368C146.783 25.3325 146.783 25.3282 146.783 25.3239C146.783 25.3196 146.784 25.3153 146.784 25.311C146.784 25.3067 146.784 25.3024 146.784 25.2981C146.785 25.2938 146.785 25.2895 146.785 25.2852C146.785 25.281 146.785 25.2767 146.785 25.2724C146.786 25.2681 146.786 25.2638 146.786 25.2595C146.786 25.2552 146.786 25.2509 146.787 25.2466C146.787 25.2423 146.787 25.238 146.787 25.2337C146.787 25.2294 146.788 25.2251 146.788 25.2208C146.788 25.2165 146.788 25.2122 146.788 25.2079C146.789 25.2036 146.789 25.1993 146.789 25.195C146.789 25.1907 146.789 25.1864 146.79 25.1821C146.79 25.1778 146.79 25.1735 146.79 25.1692C146.79 25.1649 146.791 25.1606 146.791 25.1563C146.791 25.152 146.791 25.1477 146.791 25.1435C146.792 25.1392 146.792 25.1349 146.792 25.1306C146.792 25.1263 146.792 25.122 146.793 25.1177C146.793 25.1134 146.793 25.1091 146.793 25.1048C146.793 25.1005 146.794 25.0962 146.794 25.0919C146.794 25.0876 146.794 25.0833 146.794 25.079C146.794 25.0747 146.795 25.0704 146.795 25.0661C146.795 25.0618 146.795 25.0575 146.795 25.0532C146.796 25.0489 146.796 25.0446 146.796 25.0403C146.796 25.036 146.796 25.0317 146.797 25.0274C146.797 25.0231 146.797 25.0188 146.797 25.0145C146.797 25.0103 146.798 25.006 146.798 25.0017C146.798 24.9974 146.798 24.9931 146.798 24.9888C146.799 24.9845 146.799 24.9802 146.799 24.9759C146.799 24.9716 146.799 24.9673 146.8 24.963C146.8 24.9587 146.8 24.9544 146.8 24.9501C146.8 24.9458 146.801 24.9415 146.801 24.9372C146.801 24.9329 146.801 24.9286 146.801 24.9243C146.802 24.92 146.802 24.9157 146.802 24.9114C146.802 24.9071 146.802 24.9028 146.802 24.8985C146.803 24.8942 146.803 24.8899 146.803 24.8856C146.803 24.8813 146.803 24.877 146.804 24.8727C146.804 24.8685 146.804 24.8642 146.804 24.8599C146.804 24.8556 146.805 24.8513 146.805 24.847C146.805 24.8427 146.805 24.8384 146.805 24.8341C146.806 24.8298 146.806 24.8255 146.806 24.8212C146.806 24.8169 146.806 24.8126 146.807 24.8083C146.807 24.804 146.807 24.7997 146.807 24.7954C146.807 24.7911 146.808 24.7868 146.808 24.7825C146.808 24.7782 146.808 24.7739 146.808 24.7696C146.809 24.7653 146.809 24.761 146.809 24.7567C146.809 24.7524 146.809 24.7481 146.81 24.7438C146.81 24.7395 146.81 24.7352 146.81 24.731C146.81 24.7267 146.811 24.7224 146.811 24.7181C146.811 24.7138 146.811 24.7095 146.811 24.7052C146.811 24.7009 146.812 24.6966 146.812 24.6923C146.812 24.688 146.812 24.6837 146.812 24.6794C146.813 24.6751 146.813 24.6708 146.813 24.6665C146.813 24.6622 146.813 24.6579 146.814 24.6536C146.814 24.6493 146.814 24.645 146.814 24.6407C146.814 24.6364 146.815 24.6321 146.815 24.6278C146.815 24.6235 146.815 24.6192 146.815 24.6149C146.816 24.6106 146.816 24.6063 146.816 24.602C146.816 24.5977 146.816 24.5935 146.817 24.5892C146.817 24.5849 146.817 24.5806 146.817 24.5763C146.817 24.572 146.818 24.5677 146.818 24.5634C146.818 24.5591 146.818 24.5548 146.818 24.5505C146.818 24.5462 146.819 24.5419 146.819 24.5376C146.819 24.5333 146.819 24.529 146.819 24.5247C146.82 24.5204 146.82 24.5161 146.82 24.5118C146.82 24.5075 146.82 24.5032 146.821 24.4989C146.821 24.4946 146.821 24.4903 146.821 24.486C146.821 24.4817 146.822 24.4774 146.822 24.4731C146.822 24.4688 146.822 24.4645 146.822 24.4602C146.823 24.456 146.823 24.4517 146.823 24.4474C146.823 24.4431 146.823 24.4388 146.824 24.4345C146.824 24.4302 146.824 24.4259 146.824 24.4216C146.824 24.4173 146.825 24.413 146.825 24.4087C146.825 24.4044 146.825 24.4001 146.825 24.3958C146.826 24.3915 146.826 24.3872 146.826 24.3829C146.826 24.3786 146.826 24.3743 146.827 24.37C146.827 24.3657 146.827 24.3614 146.827 24.3571C146.827 24.3528 146.827 24.3485 146.828 24.3442C146.828 24.3399 146.828 24.3356 146.828 24.3313C146.828 24.327 146.829 24.3227 146.829 24.3185C146.829 24.3142 146.829 24.3099 146.829 24.3056C146.83 24.3013 146.83 24.297 146.83 24.2927C146.83 24.2884 146.83 24.2841 146.831 24.2798C146.831 24.2755 146.831 24.2712 146.831 24.2669C146.831 24.2626 146.832 24.2583 146.832 24.254C146.832 24.2497 146.832 24.2454 146.832 24.2411C146.833 24.2368 146.833 24.2325 146.833 24.2282C146.833 24.2239 146.833 24.2196 146.834 24.2153C146.834 24.211 146.834 24.2067 146.834 24.2024C146.834 24.1981 146.835 24.1938 146.835 24.1895C146.835 24.1852 146.835 24.181 146.835 24.1767C146.835 24.1724 146.836 24.1681 146.836 24.1638C146.836 24.1595 146.836 24.1552 146.836 24.1509C146.837 24.1466 146.837 24.1423 146.837 24.138C146.837 24.1337 146.837 24.1294 146.838 24.1251C146.838 24.1208 146.838 24.1165 146.838 24.1122C146.838 24.1079 146.839 24.1036 146.839 24.0993C146.839 24.095 146.839 24.0907 146.839 24.0864C146.84 24.0821 146.84 24.0778 146.84 24.0735C146.84 24.0692 146.84 24.0649 146.841 24.0606C146.841 24.0563 146.841 24.052 146.841 24.0477C146.841 24.0434 146.842 24.0392 146.842 24.0349C146.842 24.0306 146.842 24.0263 146.842 24.022C146.843 24.0177 146.843 24.0134 146.843 24.0091C146.843 24.0048 146.843 24.0005 146.844 23.9962C146.844 23.9919 146.844 23.9876 146.844 23.9833C146.844 23.979 146.844 23.9747 146.845 23.9704C146.845 23.9661 146.845 23.9618 146.845 23.9575C146.845 23.9532 146.846 23.9489 146.846 23.9446C146.846 23.9403 146.846 23.936 146.846 23.9317C146.847 23.9274 146.847 23.9231 146.847 23.9188C146.847 23.9145 146.847 23.9102 146.848 23.906C146.848 23.9017 146.848 23.8974 146.848 23.8931C146.848 23.8888 146.849 23.8845 146.849 23.8802C146.849 23.8759 146.849 23.8716 146.849 23.8673C146.85 23.863 146.85 23.8587 146.85 23.8544C146.85 23.8501 146.85 23.8458 146.851 23.8415C146.851 23.8372 146.851 23.8329 146.851 23.8286C146.851 23.8243 146.852 23.82 146.852 23.8157C146.852 23.8114 146.852 23.8071 146.852 23.8028C146.852 23.7985 146.853 23.7942 146.853 23.7899C146.853 23.7856 146.853 23.7813 146.853 23.777C146.854 23.7727 146.854 23.7685 146.854 23.7642C146.854 23.7599 146.854 23.7556 146.855 23.7513C146.855 23.747 146.855 23.7427 146.855 23.7384C146.855 23.7341 146.856 23.7298 146.856 23.7255C146.856 23.7212 146.856 23.7169 146.856 23.7126C146.857 23.7083 146.857 23.704 146.857 23.6997C146.857 23.6954 146.857 23.6911 146.858 23.6868C146.858 23.6825 146.858 23.6782 146.858 23.6739C146.858 23.6696 146.859 23.6653 146.859 23.661C146.859 23.6567 146.859 23.6524 146.859 23.6481C146.86 23.6438 146.86 23.6395 146.86 23.6352C146.86 23.631 146.86 23.6267 146.86 23.6224C146.861 23.6181 146.861 23.6138 146.861 23.6095C146.861 23.6052 146.861 23.6009 146.862 23.5966C146.862 23.5923 146.862 23.588 146.862 23.5837C146.862 23.5794 146.863 23.5751 146.863 23.5708C146.863 23.5665 146.863 23.5622 146.863 23.5579C146.864 23.5536 146.864 23.5493 146.864 23.545C146.864 23.5407 146.864 23.5364 146.865 23.5321C146.865 23.5278 146.865 23.5235 146.865 23.5192C146.865 23.5149 146.866 23.5106 146.866 23.5063C146.866 23.502 146.866 23.4977 146.866 23.4935C146.867 23.4892 146.867 23.4849 146.867 23.4806C146.867 23.4763 146.867 23.472 146.868 23.4677C146.868 23.4634 146.868 23.4591 146.868 23.4548C146.868 23.4505 146.868 23.4462 146.869 23.4419C146.869 23.4376 146.869 23.4333 146.869 23.429C146.869 23.4247 146.87 23.4204 146.87 23.4161C146.87 23.4118 146.87 23.4075 146.87 23.4032C146.871 23.3989 146.871 23.3946 146.871 23.3903C146.871 23.386 146.871 23.3817 146.872 23.3774C146.872 23.3731 146.872 23.3688 146.872 23.3645C146.872 23.3602 146.873 23.3559 146.873 23.3517C146.873 23.3474 146.873 23.3431 146.873 23.3388C146.874 23.3345 146.874 23.3302 146.874 23.3259C146.874 23.3216 146.874 23.3173 146.875 23.313C146.875 23.3087 146.875 23.3044 146.875 23.3001C146.875 23.2958 146.876 23.2915 146.876 23.2872C146.876 23.2829 146.876 23.2786 146.876 23.2743C146.877 23.27 146.877 23.2657 146.877 23.2614C146.877 23.2571 146.877 23.2528 146.877 23.2485C146.878 23.2442 146.878 23.2399 146.878 23.2356C146.878 23.2313 146.878 23.227 146.879 23.2227C146.879 23.2184 146.879 23.2142 146.879 23.2099C146.879 23.2056 146.88 23.2013 146.88 23.197C146.88 23.1927 146.88 23.1884 146.88 23.1841C146.881 23.1798 146.881 23.1755 146.881 23.1712C146.881 23.1669 146.881 23.1626 146.882 23.1583C146.882 23.154 146.882 23.1497 146.882 23.1454C146.882 23.1411 146.883 23.1368 146.883 23.1325C146.883 23.1282 146.883 23.1239 146.883 23.1196C146.884 23.1153 146.884 23.111 146.884 23.1067C146.884 23.1024 146.884 23.0981 146.885 23.0938C146.885 23.0895 146.885 23.0852 146.885 23.081C146.885 23.0767 146.885 23.0724 146.886 23.0681C146.886 23.0638 146.886 23.0595 146.886 23.0552C146.886 23.0509 146.887 23.0466 146.887 23.0423C146.887 23.038 146.887 23.0337 146.887 23.0294C146.888 23.0251 146.888 23.0208 146.888 23.0165C146.888 23.0122 146.888 23.0079 146.889 23.0036C146.889 22.9993 146.889 22.995 146.889 22.9907C146.889 22.9864 146.89 22.9821 146.89 22.9778C146.89 22.9735 146.89 22.9692 146.89 22.9649C146.891 22.9606 146.891 22.9563 146.891 22.952C146.891 22.9477 146.891 22.9435 146.892 22.9392C146.892 22.9349 146.892 22.9306 146.892 22.9263C146.892 22.922 146.893 22.9177 146.893 22.9134C146.893 22.9091 146.893 22.9048 146.893 22.9005C146.894 22.8962 146.894 22.8919 146.894 22.8876C146.894 22.8833 146.894 22.879 146.894 22.8747C146.895 22.8704 146.895 22.8661 146.895 22.8618C146.895 22.8575 146.895 22.8532 146.896 22.8489C146.896 22.8446 146.896 22.8403 146.896 22.836C146.896 22.8317 146.897 22.8274 146.897 22.8231C146.897 22.8188 146.897 22.8145 146.897 22.8102C146.898 22.806 146.898 22.8017 146.898 22.7974C146.898 22.7931 146.898 22.7888 146.899 22.7845C146.899 22.7802 146.899 22.7759 146.899 22.7716C146.899 22.7673 146.9 22.763 146.9 22.7587C146.9 22.7544 146.9 22.7501 146.9 22.7458C146.901 22.7415 146.901 22.7372 146.901 22.7329C146.901 22.7286 146.901 22.7243 146.902 22.72C146.902 22.7157 146.902 22.7114 146.902 22.7071C146.902 22.7028 146.902 22.6985 146.903 22.6942C146.903 22.6899 146.903 22.6856 146.903 22.6813C146.903 22.677 146.904 22.6727 146.904 22.6684C146.904 22.6642 146.904 22.6599 146.904 22.6556C146.905 22.6513 146.905 22.647 146.905 22.6427C146.905 22.6384 146.905 22.6341 146.906 22.6298C146.906 22.6255 146.906 22.6212 146.906 22.6169C146.906 22.6126 146.907 22.6083 146.907 22.604C146.907 22.5997 146.907 22.5954 146.907 22.5911C146.908 22.5868 146.908 22.5825 146.908 22.5782C146.908 22.5739 146.908 22.5696 146.909 22.5653C146.909 22.561 146.909 22.5567 146.909 22.5524C146.909 22.5481 146.91 22.5438 146.91 22.5395C146.91 22.5352 146.91 22.5309 146.91 22.5267C146.91 22.5224 146.911 22.5181 146.911 22.5138C146.911 22.5095 146.911 22.5052 146.911 22.5009C146.912 22.4966 146.912 22.4923 146.912 22.488C146.912 22.4837 146.912 22.4794 146.913 22.4751C146.913 22.4708 146.913 22.4665 146.913 22.4622C146.913 22.4579 146.914 22.4536 146.914 22.4493C146.914 22.445 146.914 22.4407 146.914 22.4364C146.915 22.4321 146.915 22.4278 146.915 22.4235C146.915 22.4192 146.915 22.4149 146.916 22.4106C146.916 22.4063 146.916 22.402 146.916 22.3977C146.916 22.3935 146.917 22.3892 146.917 22.3849C146.917 22.3806 146.917 22.3763 146.917 22.372C146.918 22.3677 146.918 22.3634 146.918 22.3591C146.918 22.3548 146.918 22.3505 146.919 22.3462C146.919 22.3419 146.919 22.3376 146.919 22.3333C146.919 22.329 146.919 22.3247 146.92 22.3204C146.92 22.3161 146.92 22.3118 146.92 22.3075C146.92 22.3032 146.921 22.2989 146.921 22.2946C146.921 22.2903 146.921 22.286 146.921 22.2817C146.922 22.2774 146.922 22.2731 146.922 22.2688C146.922 22.2645 146.922 22.2602 146.923 22.256C146.923 22.2517 146.923 22.2474 146.923 22.2431C146.923 22.2388 146.924 22.2345 146.924 22.2302C146.924 22.2259 146.924 22.2216 146.924 22.2173C146.925 22.213 146.925 22.2087 146.925 22.2044C146.925 22.2001 146.925 22.1958 146.926 22.1915C146.926 22.1872 146.926 22.1829 146.926 22.1786C146.926 22.1743 146.927 22.17 146.927 22.1657C146.927 22.1614 146.927 22.1571 146.927 22.1528C146.927 22.1485 146.928 22.1442 146.928 22.1399C146.928 22.1356 146.928 22.1313 146.928 22.127C146.929 22.1227 146.929 22.1185 146.929 22.1142C146.929 22.1099 146.929 22.1056 146.93 22.1013C146.93 22.097 146.93 22.0927 146.93 22.0884C146.93 22.0841 146.931 22.0798 146.931 22.0755C146.931 22.0712 146.931 22.0669 146.931 22.0626C146.932 22.0583 146.932 22.054 146.932 22.0497C146.932 22.0454 146.932 22.0411 146.933 22.0368C146.933 22.0325 146.933 22.0282 146.933 22.0239C146.933 22.0196 146.934 22.0153 146.934 22.011C146.934 22.0067 146.934 22.0024 146.934 21.9981C146.935 21.9938 146.935 21.9895 146.935 21.9852C146.935 21.9809 146.935 21.9767 146.936 21.9724C146.936 21.9681 146.936 21.9638 146.936 21.9595C146.936 21.9552 146.936 21.9509 146.937 21.9466C146.937 21.9423 146.937 21.938 146.937 21.9337C146.937 21.9294 146.938 21.9251 146.938 21.9208C146.938 21.9165 146.938 21.9122 146.938 21.9079C146.939 21.9036 146.939 21.8993 146.939 21.895C146.939 21.8907 146.939 21.8864 146.94 21.8821C146.94 21.8778 146.94 21.8735 146.94 21.8692C146.94 21.8649 146.941 21.8606 146.941 21.8563C146.941 21.852 146.941 21.8477 146.941 21.8434C146.942 21.8392 146.942 21.8349 146.942 21.8306C146.942 21.8263 146.942 21.822 146.943 21.8177C146.943 21.8134 146.943 21.8091 146.943 21.8048C146.943 21.8005 146.943 21.7962 146.944 21.7919C146.944 21.7876 146.944 21.7833 146.944 21.779C146.944 21.7747 146.945 21.7704 146.945 21.7661C146.945 21.7618 146.945 21.7575 146.945 21.7532C146.946 21.7489 146.946 21.7446 146.946 21.7403C146.946 21.736 146.946 21.7317 146.947 21.7274C146.947 21.7231 146.947 21.7188 146.947 21.7145C146.947 21.7102 146.948 21.7059 146.948 21.7017C146.948 21.6974 146.948 21.6931 146.948 21.6888C146.949 21.6845 146.949 21.6802 146.949 21.6759C146.949 21.6716 146.949 21.6673 146.95 21.663C146.95 21.6587 146.95 21.6544 146.95 21.6501C146.95 21.6458 146.951 21.6415 146.951 21.6372C146.951 21.6329 146.951 21.6286 146.951 21.6243C146.952 21.62 146.952 21.6157 146.952 21.6114C146.952 21.6071 146.952 21.6028 146.952 21.5985C146.953 21.5942 146.953 21.5899 146.953 21.5856C146.953 21.5813 146.953 21.577 146.954 21.5727C146.954 21.5685 146.954 21.5642 146.954 21.5599C146.954 21.5556 146.955 21.5513 146.955 21.547C146.955 21.5427 146.955 21.5384 146.955 21.5341C146.956 21.5298 146.956 21.5255 146.956 21.5212C146.956 21.5169 146.956 21.5126 146.957 21.5083C146.957 21.504 146.957 21.4997 146.957 21.4954C146.957 21.4911 146.958 21.4868 146.958 21.4825C146.958 21.4782 146.958 21.4739 146.958 21.4696C146.959 21.4653 146.959 21.461 146.959 21.4567C146.959 21.4524 146.959 21.4481 146.96 21.4438C146.96 21.4395 146.96 21.4352 146.96 21.431C146.96 21.4267 146.96 21.4224 146.961 21.4181C146.961 21.4138 146.961 21.4095 146.961 21.4052C146.961 21.4009 146.962 21.3966 146.962 21.3923C146.962 21.388 146.962 21.3837 146.962 21.3794C146.963 21.3751 146.963 21.3708 146.963 21.3665C146.963 21.3622 146.963 21.3579 146.964 21.3536C146.964 21.3493 146.964 21.345 146.964 21.3407C146.964 21.3364 146.965 21.3321 146.965 21.3278C146.965 21.3235 146.965 21.3192 146.965 21.3149C146.966 21.3106 146.966 21.3063 146.966 21.302C146.966 21.2977 146.966 21.2934 146.967 21.2892C146.967 21.2849 146.967 21.2806 146.967 21.2763C146.967 21.272 146.968 21.2677 146.968 21.2634C146.968 21.2591 146.968 21.2548 146.968 21.2505C146.969 21.2462 146.969 21.2419 146.969 21.2376C146.969 21.2333 146.969 21.229 146.969 21.2247C146.97 21.2204 146.97 21.2161 146.97 21.2118C146.97 21.2075 146.97 21.2032 146.971 21.1989C146.971 21.1946 146.971 21.1903 146.971 21.186C146.971 21.1817 146.972 21.1774 146.972 21.1731C146.972 21.1688 146.972 21.1645 146.972 21.1602C146.973 21.1559 146.973 21.1517 146.973 21.1474C146.973 21.1431 146.973 21.1388 146.974 21.1345C146.974 21.1302 146.974 21.1259 146.974 21.1216C146.974 21.1173 146.975 21.113 146.975 21.1087C146.975 21.1044 146.975 21.1001 146.975 21.0958C146.976 21.0915 146.976 21.0872 146.976 21.0829C146.976 21.0786 146.976 21.0743 146.977 21.07C146.977 21.0657 146.977 21.0614 146.977 21.0571C146.977 21.0528 146.977 21.0485 146.978 21.0442C146.978 21.0399 146.978 21.0356 146.978 21.0313C146.978 21.027 146.979 21.0227 146.979 21.0184C146.979 21.0142 146.979 21.0099 146.979 21.0056C146.98 21.0013 146.98 20.997 146.98 20.9927C146.98 20.9884 146.98 20.9841 146.981 20.9798C146.981 20.9755 146.981 20.9712 146.981 20.9669C146.981 20.9626 146.982 20.9583 146.982 20.954C146.982 20.9497 146.982 20.9454 146.982 20.9411C146.983 20.9368 146.983 20.9325 146.983 20.9282C146.983 20.9239 146.983 20.9196 146.984 20.9153C146.984 20.911 146.984 20.9067 146.984 20.9024C146.984 20.8981 146.985 20.8938 146.985 20.8895C146.985 20.8852 146.985 20.8809 146.985 20.8767C146.985 20.8724 146.986 20.8681 146.986 20.8638C146.986 20.8595 146.986 20.8552 146.986 20.8509C146.987 20.8466 146.987 20.8423 146.987 20.838C146.987 20.8337 146.987 20.8294 146.988 20.8251C146.988 20.8208 146.988 20.8165 146.988 20.8122C146.988 20.8079 146.989 20.8036 146.989 20.7993C146.989 20.795 146.989 20.7907 146.989 20.7864C146.99 20.7821 146.99 20.7778 146.99 20.7735C146.99 20.7692 146.99 20.7649 146.991 20.7606C146.991 20.7563 146.991 20.752 146.991 20.7477C146.991 20.7435 146.992 20.7392 146.992 20.7349C146.992 20.7306 146.992 20.7263 146.992 20.722C146.993 20.7177 146.993 20.7134 146.993 20.7091C146.993 20.7048 146.993 20.7005 146.993 20.6962C146.994 20.6919 146.994 20.6876 146.994 20.6833C146.994 20.679 146.994 20.6747 146.995 20.6704C146.995 20.6661 146.995 20.6618 146.995 20.6575C146.995 20.6532 146.996 20.6489 146.996 20.6446C146.996 20.6403 146.996 20.636 146.996 20.6317C146.997 20.6274 146.997 20.6231 146.997 20.6188C146.997 20.6145 146.997 20.6102 146.998 20.6059C146.998 20.6017 146.998 20.5974 146.998 20.5931C146.998 20.5888 146.999 20.5845 146.999 20.5802C146.999 20.5759 146.999 20.5716 146.999 20.5673C147 20.563 147 20.5587 147 20.5544C147 20.5501 147 20.5458 147.001 20.5415C147.001 20.5372 147.001 20.5329 147.001 20.5286C147.001 20.5243 147.002 20.52 147.002 20.5157C147.002 20.5114 147.002 20.5071 147.002 20.5028C147.002 20.4985 147.003 20.4942 147.003 20.4899C147.003 20.4856 147.003 20.4813 147.003 20.477C147.004 20.4727 147.004 20.4684 147.004 20.4642C147.004 20.4599 147.004 20.4556 147.005 20.4513C147.005 20.447 147.005 20.4427 147.005 20.4384C147.005 20.4341 147.006 20.4298 147.006 20.4255C147.006 20.4212 147.006 20.4169 147.006 20.4126C147.007 20.4083 147.007 20.404 147.007 20.3997C147.007 20.3954 147.007 20.3911 147.008 20.3868C147.008 20.3825 147.008 20.3782 147.008 20.3739C147.008 20.3696 147.009 20.3653 147.009 20.361C147.009 20.3567 147.009 20.3524 147.009 20.3481C147.01 20.3438 147.01 20.3395 147.01 20.3352C147.01 20.3309 147.01 20.3267 147.01 20.3224C147.011 20.3181 147.011 20.3138 147.011 20.3095C147.011 20.3052 147.011 20.3009 147.012 20.2966C147.012 20.2923 147.012 20.288 147.012 20.2837C147.012 20.2794 147.013 20.2751 147.013 20.2708C147.013 20.2665 147.013 20.2622 147.013 20.2579C147.014 20.2536 147.014 20.2493 147.014 20.245C147.014 20.2407 147.014 20.2364 147.015 20.2321C147.015 20.2278 147.015 20.2235 147.015 20.2192C147.015 20.2149 147.016 20.2106 147.016 20.2063C147.016 20.202 147.016 20.1977 147.016 20.1934C147.017 20.1892 147.017 20.1849 147.017 20.1806C147.017 20.1763 147.017 20.172 147.018 20.1677C147.018 20.1634 147.018 20.1591 147.018 20.1548C147.018 20.1505 147.018 20.1462 147.019 20.1419C147.019 20.1376 147.019 20.1333 147.019 20.129C147.019 20.1247 147.02 20.1204 147.02 20.1161C147.02 20.1118 147.02 20.1075 147.02 20.1032C147.021 20.0989 147.021 20.0946 147.021 20.0903C147.021 20.086 147.021 20.0817 147.022 20.0774C147.022 20.0731 147.022 20.0688 147.022 20.0645C147.022 20.0602 147.023 20.056 147.023 20.0517C147.023 20.0474 147.023 20.0431 147.023 20.0388C147.024 20.0345 147.024 20.0302 147.024 20.0259C147.024 20.0216 147.024 20.0173 147.025 20.013C147.025 20.0087 147.025 20.0044 147.025 20.0001C147.025 19.9958 147.026 19.9915 147.026 19.9872C147.026 19.9829 147.026 19.9786 147.026 19.9743C147.027 19.97 147.027 19.9657 147.027 19.9614C147.027 19.9571 147.027 19.9528 147.027 19.9485C147.028 19.9442 147.028 19.9399 147.028 19.9356C147.028 19.9313 147.028 19.927 147.029 19.9227C147.029 19.9184 147.029 19.9142 147.029 19.9099C147.029 19.9056 147.03 19.9013 147.03 19.897C147.03 19.8927 147.03 19.8884 147.03 19.8841C147.031 19.8798 147.031 19.8755 147.031 19.8712C147.031 19.8669 147.031 19.8626 147.032 19.8583C147.032 19.854 147.032 19.8497 147.032 19.8454L145.034 19.7546C145.034 19.7589 145.034 19.7632 145.034 19.7675C145.033 19.7718 145.033 19.7761 145.033 19.7804C145.033 19.7847 145.033 19.789 145.032 19.7933C145.032 19.7976 145.032 19.8019 145.032 19.8061C145.032 19.8104 145.031 19.8147 145.031 19.819C145.031 19.8233 145.031 19.8276 145.031 19.8319C145.031 19.8362 145.03 19.8405 145.03 19.8448C145.03 19.8491 145.03 19.8534 145.03 19.8577C145.029 19.862 145.029 19.8663 145.029 19.8706C145.029 19.8749 145.029 19.8792 145.028 19.8835C145.028 19.8878 145.028 19.8921 145.028 19.8964C145.028 19.9007 145.027 19.905 145.027 19.9093C145.027 19.9136 145.027 19.9179 145.027 19.9222C145.026 19.9265 145.026 19.9308 145.026 19.9351C145.026 19.9394 145.026 19.9436 145.025 19.9479C145.025 19.9522 145.025 19.9565 145.025 19.9608C145.025 19.9651 145.024 19.9694 145.024 19.9737C145.024 19.978 145.024 19.9823 145.024 19.9866C145.023 19.9909 145.023 19.9952 145.023 19.9995C145.023 20.0038 145.023 20.0081 145.023 20.0124C145.022 20.0167 145.022 20.021 145.022 20.0253C145.022 20.0296 145.022 20.0339 145.021 20.0382C145.021 20.0425 145.021 20.0468 145.021 20.0511C145.021 20.0554 145.02 20.0597 145.02 20.064C145.02 20.0683 145.02 20.0726 145.02 20.0769C145.019 20.0812 145.019 20.0854 145.019 20.0897C145.019 20.094 145.019 20.0983 145.018 20.1026C145.018 20.1069 145.018 20.1112 145.018 20.1155C145.018 20.1198 145.017 20.1241 145.017 20.1284C145.017 20.1327 145.017 20.137 145.017 20.1413C145.016 20.1456 145.016 20.1499 145.016 20.1542C145.016 20.1585 145.016 20.1628 145.015 20.1671C145.015 20.1714 145.015 20.1757 145.015 20.18C145.015 20.1843 145.015 20.1886 145.014 20.1929C145.014 20.1972 145.014 20.2015 145.014 20.2058C145.014 20.2101 145.013 20.2144 145.013 20.2187C145.013 20.2229 145.013 20.2272 145.013 20.2315C145.012 20.2358 145.012 20.2401 145.012 20.2444C145.012 20.2487 145.012 20.253 145.011 20.2573C145.011 20.2616 145.011 20.2659 145.011 20.2702C145.011 20.2745 145.01 20.2788 145.01 20.2831C145.01 20.2874 145.01 20.2917 145.01 20.296C145.009 20.3003 145.009 20.3046 145.009 20.3089C145.009 20.3132 145.009 20.3175 145.008 20.3218C145.008 20.3261 145.008 20.3304 145.008 20.3347C145.008 20.339 145.007 20.3433 145.007 20.3476C145.007 20.3519 145.007 20.3562 145.007 20.3604C145.007 20.3647 145.006 20.369 145.006 20.3733C145.006 20.3776 145.006 20.3819 145.006 20.3862C145.005 20.3905 145.005 20.3948 145.005 20.3991C145.005 20.4034 145.005 20.4077 145.004 20.412C145.004 20.4163 145.004 20.4206 145.004 20.4249C145.004 20.4292 145.003 20.4335 145.003 20.4378C145.003 20.4421 145.003 20.4464 145.003 20.4507C145.002 20.455 145.002 20.4593 145.002 20.4636C145.002 20.4679 145.002 20.4722 145.001 20.4765C145.001 20.4808 145.001 20.4851 145.001 20.4894C145.001 20.4936 145 20.4979 145 20.5022C145 20.5065 145 20.5108 145 20.5151C144.999 20.5194 144.999 20.5237 144.999 20.528C144.999 20.5323 144.999 20.5366 144.998 20.5409C144.998 20.5452 144.998 20.5495 144.998 20.5538C144.998 20.5581 144.998 20.5624 144.997 20.5667C144.997 20.571 144.997 20.5753 144.997 20.5796C144.997 20.5839 144.996 20.5882 144.996 20.5925C144.996 20.5968 144.996 20.6011 144.996 20.6054C144.995 20.6097 144.995 20.614 144.995 20.6183C144.995 20.6226 144.995 20.6269 144.994 20.6311C144.994 20.6354 144.994 20.6397 144.994 20.644C144.994 20.6483 144.993 20.6526 144.993 20.6569C144.993 20.6612 144.993 20.6655 144.993 20.6698C144.992 20.6741 144.992 20.6784 144.992 20.6827C144.992 20.687 144.992 20.6913 144.991 20.6956C144.991 20.6999 144.991 20.7042 144.991 20.7085C144.991 20.7128 144.99 20.7171 144.99 20.7214C144.99 20.7257 144.99 20.73 144.99 20.7343C144.99 20.7386 144.989 20.7429 144.989 20.7472C144.989 20.7515 144.989 20.7558 144.989 20.7601C144.988 20.7644 144.988 20.7687 144.988 20.7729C144.988 20.7772 144.988 20.7815 144.987 20.7858C144.987 20.7901 144.987 20.7944 144.987 20.7987C144.987 20.803 144.986 20.8073 144.986 20.8116C144.986 20.8159 144.986 20.8202 144.986 20.8245C144.985 20.8288 144.985 20.8331 144.985 20.8374C144.985 20.8417 144.985 20.846 144.984 20.8503C144.984 20.8546 144.984 20.8589 144.984 20.8632C144.984 20.8675 144.983 20.8718 144.983 20.8761C144.983 20.8804 144.983 20.8847 144.983 20.889C144.982 20.8933 144.982 20.8976 144.982 20.9019C144.982 20.9062 144.982 20.9104 144.982 20.9147C144.981 20.919 144.981 20.9233 144.981 20.9276C144.981 20.9319 144.981 20.9362 144.98 20.9405C144.98 20.9448 144.98 20.9491 144.98 20.9534C144.98 20.9577 144.979 20.962 144.979 20.9663C144.979 20.9706 144.979 20.9749 144.979 20.9792C144.978 20.9835 144.978 20.9878 144.978 20.9921C144.978 20.9964 144.978 21.0007 144.977 21.005C144.977 21.0093 144.977 21.0136 144.977 21.0179C144.977 21.0222 144.976 21.0265 144.976 21.0308C144.976 21.0351 144.976 21.0394 144.976 21.0437C144.975 21.0479 144.975 21.0522 144.975 21.0565C144.975 21.0608 144.975 21.0651 144.974 21.0694C144.974 21.0737 144.974 21.078 144.974 21.0823C144.974 21.0866 144.973 21.0909 144.973 21.0952C144.973 21.0995 144.973 21.1038 144.973 21.1081C144.973 21.1124 144.972 21.1167 144.972 21.121C144.972 21.1253 144.972 21.1296 144.972 21.1339C144.971 21.1382 144.971 21.1425 144.971 21.1468C144.971 21.1511 144.971 21.1554 144.97 21.1597C144.97 21.164 144.97 21.1683 144.97 21.1726C144.97 21.1769 144.969 21.1812 144.969 21.1854C144.969 21.1897 144.969 21.194 144.969 21.1983C144.968 21.2026 144.968 21.2069 144.968 21.2112C144.968 21.2155 144.968 21.2198 144.967 21.2241C144.967 21.2284 144.967 21.2327 144.967 21.237C144.967 21.2413 144.966 21.2456 144.966 21.2499C144.966 21.2542 144.966 21.2585 144.966 21.2628C144.965 21.2671 144.965 21.2714 144.965 21.2757C144.965 21.28 144.965 21.2843 144.965 21.2886C144.964 21.2929 144.964 21.2972 144.964 21.3015C144.964 21.3058 144.964 21.3101 144.963 21.3144C144.963 21.3186 144.963 21.3229 144.963 21.3272C144.963 21.3315 144.962 21.3358 144.962 21.3401C144.962 21.3444 144.962 21.3487 144.962 21.353C144.961 21.3573 144.961 21.3616 144.961 21.3659C144.961 21.3702 144.961 21.3745 144.96 21.3788C144.96 21.3831 144.96 21.3874 144.96 21.3917C144.96 21.396 144.959 21.4003 144.959 21.4046C144.959 21.4089 144.959 21.4132 144.959 21.4175C144.958 21.4218 144.958 21.4261 144.958 21.4304C144.958 21.4347 144.958 21.439 144.957 21.4433C144.957 21.4476 144.957 21.4519 144.957 21.4562C144.957 21.4604 144.956 21.4647 144.956 21.469C144.956 21.4733 144.956 21.4776 144.956 21.4819C144.956 21.4862 144.955 21.4905 144.955 21.4948C144.955 21.4991 144.955 21.5034 144.955 21.5077C144.954 21.512 144.954 21.5163 144.954 21.5206C144.954 21.5249 144.954 21.5292 144.953 21.5335C144.953 21.5378 144.953 21.5421 144.953 21.5464C144.953 21.5507 144.952 21.555 144.952 21.5593C144.952 21.5636 144.952 21.5679 144.952 21.5722C144.951 21.5765 144.951 21.5808 144.951 21.5851C144.951 21.5894 144.951 21.5937 144.95 21.5979C144.95 21.6022 144.95 21.6065 144.95 21.6108C144.95 21.6151 144.949 21.6194 144.949 21.6237C144.949 21.628 144.949 21.6323 144.949 21.6366C144.949 21.6409 144.948 21.6452 144.948 21.6495C144.948 21.6538 144.948 21.6581 144.948 21.6624C144.947 21.6667 144.947 21.671 144.947 21.6753C144.947 21.6796 144.947 21.6839 144.946 21.6882C144.946 21.6925 144.946 21.6968 144.946 21.7011C144.946 21.7054 144.945 21.7097 144.945 21.714C144.945 21.7183 144.945 21.7226 144.945 21.7269C144.944 21.7312 144.944 21.7354 144.944 21.7397C144.944 21.744 144.944 21.7483 144.943 21.7526C144.943 21.7569 144.943 21.7612 144.943 21.7655C144.943 21.7698 144.942 21.7741 144.942 21.7784C144.942 21.7827 144.942 21.787 144.942 21.7913C144.941 21.7956 144.941 21.7999 144.941 21.8042C144.941 21.8085 144.941 21.8128 144.94 21.8171C144.94 21.8214 144.94 21.8257 144.94 21.83C144.94 21.8343 144.94 21.8386 144.939 21.8429C144.939 21.8472 144.939 21.8515 144.939 21.8558C144.939 21.8601 144.938 21.8644 144.938 21.8687C144.938 21.8729 144.938 21.8772 144.938 21.8815C144.937 21.8858 144.937 21.8901 144.937 21.8944C144.937 21.8987 144.937 21.903 144.936 21.9073C144.936 21.9116 144.936 21.9159 144.936 21.9202C144.936 21.9245 144.935 21.9288 144.935 21.9331C144.935 21.9374 144.935 21.9417 144.935 21.946C144.934 21.9503 144.934 21.9546 144.934 21.9589C144.934 21.9632 144.934 21.9675 144.933 21.9718C144.933 21.9761 144.933 21.9804 144.933 21.9847C144.933 21.989 144.932 21.9933 144.932 21.9976C144.932 22.0019 144.932 22.0062 144.932 22.0104C144.932 22.0147 144.931 22.019 144.931 22.0233C144.931 22.0276 144.931 22.0319 144.931 22.0362C144.93 22.0405 144.93 22.0448 144.93 22.0491C144.93 22.0534 144.93 22.0577 144.929 22.062C144.929 22.0663 144.929 22.0706 144.929 22.0749C144.929 22.0792 144.928 22.0835 144.928 22.0878C144.928 22.0921 144.928 22.0964 144.928 22.1007C144.927 22.105 144.927 22.1093 144.927 22.1136C144.927 22.1179 144.927 22.1222 144.926 22.1265C144.926 22.1308 144.926 22.1351 144.926 22.1394C144.926 22.1437 144.925 22.1479 144.925 22.1522C144.925 22.1565 144.925 22.1608 144.925 22.1651C144.924 22.1694 144.924 22.1737 144.924 22.178C144.924 22.1823 144.924 22.1866 144.923 22.1909C144.923 22.1952 144.923 22.1995 144.923 22.2038C144.923 22.2081 144.923 22.2124 144.922 22.2167C144.922 22.221 144.922 22.2253 144.922 22.2296C144.922 22.2339 144.921 22.2382 144.921 22.2425C144.921 22.2468 144.921 22.2511 144.921 22.2554C144.92 22.2597 144.92 22.264 144.92 22.2683C144.92 22.2726 144.92 22.2769 144.919 22.2812C144.919 22.2854 144.919 22.2897 144.919 22.294C144.919 22.2983 144.918 22.3026 144.918 22.3069C144.918 22.3112 144.918 22.3155 144.918 22.3198C144.917 22.3241 144.917 22.3284 144.917 22.3327C144.917 22.337 144.917 22.3413 144.916 22.3456C144.916 22.3499 144.916 22.3542 144.916 22.3585C144.916 22.3628 144.915 22.3671 144.915 22.3714C144.915 22.3757 144.915 22.38 144.915 22.3843C144.915 22.3886 144.914 22.3929 144.914 22.3972C144.914 22.4015 144.914 22.4058 144.914 22.4101C144.913 22.4144 144.913 22.4187 144.913 22.4229C144.913 22.4272 144.913 22.4315 144.912 22.4358C144.912 22.4401 144.912 22.4444 144.912 22.4487C144.912 22.453 144.911 22.4573 144.911 22.4616C144.911 22.4659 144.911 22.4702 144.911 22.4745C144.91 22.4788 144.91 22.4831 144.91 22.4874C144.91 22.4917 144.91 22.496 144.909 22.5003C144.909 22.5046 144.909 22.5089 144.909 22.5132C144.909 22.5175 144.908 22.5218 144.908 22.5261C144.908 22.5304 144.908 22.5347 144.908 22.539C144.907 22.5433 144.907 22.5476 144.907 22.5519C144.907 22.5562 144.907 22.5604 144.907 22.5647C144.906 22.569 144.906 22.5733 144.906 22.5776C144.906 22.5819 144.906 22.5862 144.905 22.5905C144.905 22.5948 144.905 22.5991 144.905 22.6034C144.905 22.6077 144.904 22.612 144.904 22.6163C144.904 22.6206 144.904 22.6249 144.904 22.6292C144.903 22.6335 144.903 22.6378 144.903 22.6421C144.903 22.6464 144.903 22.6507 144.902 22.655C144.902 22.6593 144.902 22.6636 144.902 22.6679C144.902 22.6722 144.901 22.6765 144.901 22.6808C144.901 22.6851 144.901 22.6894 144.901 22.6937C144.9 22.6979 144.9 22.7022 144.9 22.7065C144.9 22.7108 144.9 22.7151 144.899 22.7194C144.899 22.7237 144.899 22.728 144.899 22.7323C144.899 22.7366 144.898 22.7409 144.898 22.7452C144.898 22.7495 144.898 22.7538 144.898 22.7581C144.898 22.7624 144.897 22.7667 144.897 22.771C144.897 22.7753 144.897 22.7796 144.897 22.7839C144.896 22.7882 144.896 22.7925 144.896 22.7968C144.896 22.8011 144.896 22.8054 144.895 22.8097C144.895 22.814 144.895 22.8183 144.895 22.8226C144.895 22.8269 144.894 22.8312 144.894 22.8354C144.894 22.8397 144.894 22.844 144.894 22.8483C144.893 22.8526 144.893 22.8569 144.893 22.8612C144.893 22.8655 144.893 22.8698 144.892 22.8741C144.892 22.8784 144.892 22.8827 144.892 22.887C144.892 22.8913 144.891 22.8956 144.891 22.8999C144.891 22.9042 144.891 22.9085 144.891 22.9128C144.89 22.9171 144.89 22.9214 144.89 22.9257C144.89 22.93 144.89 22.9343 144.89 22.9386C144.889 22.9429 144.889 22.9472 144.889 22.9515C144.889 22.9558 144.889 22.9601 144.888 22.9644C144.888 22.9687 144.888 22.9729 144.888 22.9772C144.888 22.9815 144.887 22.9858 144.887 22.9901C144.887 22.9944 144.887 22.9987 144.887 23.003C144.886 23.0073 144.886 23.0116 144.886 23.0159C144.886 23.0202 144.886 23.0245 144.885 23.0288C144.885 23.0331 144.885 23.0374 144.885 23.0417C144.885 23.046 144.884 23.0503 144.884 23.0546C144.884 23.0589 144.884 23.0632 144.884 23.0675C144.883 23.0718 144.883 23.0761 144.883 23.0804C144.883 23.0847 144.883 23.089 144.882 23.0933C144.882 23.0976 144.882 23.1019 144.882 23.1062C144.882 23.1105 144.882 23.1147 144.881 23.119C144.881 23.1233 144.881 23.1276 144.881 23.1319C144.881 23.1362 144.88 23.1405 144.88 23.1448C144.88 23.1491 144.88 23.1534 144.88 23.1577C144.879 23.162 144.879 23.1663 144.879 23.1706C144.879 23.1749 144.879 23.1792 144.878 23.1835C144.878 23.1878 144.878 23.1921 144.878 23.1964C144.878 23.2007 144.877 23.205 144.877 23.2093C144.877 23.2136 144.877 23.2179 144.877 23.2222C144.876 23.2265 144.876 23.2308 144.876 23.2351C144.876 23.2394 144.876 23.2437 144.875 23.2479C144.875 23.2522 144.875 23.2565 144.875 23.2608C144.875 23.2651 144.874 23.2694 144.874 23.2737C144.874 23.278 144.874 23.2823 144.874 23.2866C144.873 23.2909 144.873 23.2952 144.873 23.2995C144.873 23.3038 144.873 23.3081 144.873 23.3124C144.872 23.3167 144.872 23.321 144.872 23.3253C144.872 23.3296 144.872 23.3339 144.871 23.3382C144.871 23.3425 144.871 23.3468 144.871 23.3511C144.871 23.3554 144.87 23.3597 144.87 23.364C144.87 23.3683 144.87 23.3726 144.87 23.3769C144.869 23.3812 144.869 23.3854 144.869 23.3897C144.869 23.394 144.869 23.3983 144.868 23.4026C144.868 23.4069 144.868 23.4112 144.868 23.4155C144.868 23.4198 144.867 23.4241 144.867 23.4284C144.867 23.4327 144.867 23.437 144.867 23.4413C144.866 23.4456 144.866 23.4499 144.866 23.4542C144.866 23.4585 144.866 23.4628 144.865 23.4671C144.865 23.4714 144.865 23.4757 144.865 23.48C144.865 23.4843 144.865 23.4886 144.864 23.4929C144.864 23.4972 144.864 23.5015 144.864 23.5058C144.864 23.5101 144.863 23.5144 144.863 23.5187C144.863 23.5229 144.863 23.5272 144.863 23.5315C144.862 23.5358 144.862 23.5401 144.862 23.5444C144.862 23.5487 144.862 23.553 144.861 23.5573C144.861 23.5616 144.861 23.5659 144.861 23.5702C144.861 23.5745 144.86 23.5788 144.86 23.5831C144.86 23.5874 144.86 23.5917 144.86 23.596C144.859 23.6003 144.859 23.6046 144.859 23.6089C144.859 23.6132 144.859 23.6175 144.858 23.6218C144.858 23.6261 144.858 23.6304 144.858 23.6347C144.858 23.639 144.857 23.6433 144.857 23.6476C144.857 23.6519 144.857 23.6562 144.857 23.6604C144.857 23.6647 144.856 23.669 144.856 23.6733C144.856 23.6776 144.856 23.6819 144.856 23.6862C144.855 23.6905 144.855 23.6948 144.855 23.6991C144.855 23.7034 144.855 23.7077 144.854 23.712C144.854 23.7163 144.854 23.7206 144.854 23.7249C144.854 23.7292 144.853 23.7335 144.853 23.7378C144.853 23.7421 144.853 23.7464 144.853 23.7507C144.852 23.755 144.852 23.7593 144.852 23.7636C144.852 23.7679 144.852 23.7722 144.851 23.7765C144.851 23.7808 144.851 23.7851 144.851 23.7894C144.851 23.7937 144.85 23.798 144.85 23.8022C144.85 23.8065 144.85 23.8108 144.85 23.8151C144.849 23.8194 144.849 23.8237 144.849 23.828C144.849 23.8323 144.849 23.8366 144.848 23.8409C144.848 23.8452 144.848 23.8495 144.848 23.8538C144.848 23.8581 144.848 23.8624 144.847 23.8667C144.847 23.871 144.847 23.8753 144.847 23.8796C144.847 23.8839 144.846 23.8882 144.846 23.8925C144.846 23.8968 144.846 23.9011 144.846 23.9054C144.845 23.9097 144.845 23.914 144.845 23.9183C144.845 23.9226 144.845 23.9269 144.844 23.9312C144.844 23.9354 144.844 23.9397 144.844 23.944C144.844 23.9483 144.843 23.9526 144.843 23.9569C144.843 23.9612 144.843 23.9655 144.843 23.9698C144.842 23.9741 144.842 23.9784 144.842 23.9827C144.842 23.987 144.842 23.9913 144.841 23.9956C144.841 23.9999 144.841 24.0042 144.841 24.0085C144.841 24.0128 144.84 24.0171 144.84 24.0214C144.84 24.0257 144.84 24.03 144.84 24.0343C144.84 24.0386 144.839 24.0429 144.839 24.0472C144.839 24.0515 144.839 24.0558 144.839 24.0601C144.838 24.0644 144.838 24.0687 144.838 24.0729C144.838 24.0772 144.838 24.0815 144.837 24.0858C144.837 24.0901 144.837 24.0944 144.837 24.0987C144.837 24.103 144.836 24.1073 144.836 24.1116C144.836 24.1159 144.836 24.1202 144.836 24.1245C144.835 24.1288 144.835 24.1331 144.835 24.1374C144.835 24.1417 144.835 24.146 144.834 24.1503C144.834 24.1546 144.834 24.1589 144.834 24.1632C144.834 24.1675 144.833 24.1718 144.833 24.1761C144.833 24.1804 144.833 24.1847 144.833 24.189C144.832 24.1933 144.832 24.1976 144.832 24.2019C144.832 24.2062 144.832 24.2104 144.831 24.2147C144.831 24.219 144.831 24.2233 144.831 24.2276C144.831 24.2319 144.831 24.2362 144.83 24.2405C144.83 24.2448 144.83 24.2491 144.83 24.2534C144.83 24.2577 144.829 24.262 144.829 24.2663C144.829 24.2706 144.829 24.2749 144.829 24.2792C144.828 24.2835 144.828 24.2878 144.828 24.2921C144.828 24.2964 144.828 24.3007 144.827 24.305C144.827 24.3093 144.827 24.3136 144.827 24.3179C144.827 24.3222 144.826 24.3265 144.826 24.3308C144.826 24.3351 144.826 24.3394 144.826 24.3437C144.825 24.3479 144.825 24.3522 144.825 24.3565C144.825 24.3608 144.825 24.3651 144.824 24.3694C144.824 24.3737 144.824 24.378 144.824 24.3823C144.824 24.3866 144.824 24.3909 144.823 24.3952C144.823 24.3995 144.823 24.4038 144.823 24.4081C144.823 24.4124 144.822 24.4167 144.822 24.421C144.822 24.4253 144.822 24.4296 144.822 24.4339C144.821 24.4382 144.821 24.4425 144.821 24.4468C144.821 24.4511 144.821 24.4554 144.82 24.4597C144.82 24.464 144.82 24.4683 144.82 24.4726C144.82 24.4769 144.819 24.4812 144.819 24.4855C144.819 24.4897 144.819 24.494 144.819 24.4983C144.818 24.5026 144.818 24.5069 144.818 24.5112C144.818 24.5155 144.818 24.5198 144.817 24.5241C144.817 24.5284 144.817 24.5327 144.817 24.537C144.817 24.5413 144.816 24.5456 144.816 24.5499C144.816 24.5542 144.816 24.5585 144.816 24.5628C144.815 24.5671 144.815 24.5714 144.815 24.5757C144.815 24.58 144.815 24.5843 144.815 24.5886C144.814 24.5929 144.814 24.5972 144.814 24.6015C144.814 24.6058 144.814 24.6101 144.813 24.6144C144.813 24.6187 144.813 24.623 144.813 24.6272C144.813 24.6315 144.812 24.6358 144.812 24.6401C144.812 24.6444 144.812 24.6487 144.812 24.653C144.811 24.6573 144.811 24.6616 144.811 24.6659C144.811 24.6702 144.811 24.6745 144.81 24.6788C144.81 24.6831 144.81 24.6874 144.81 24.6917C144.81 24.696 144.809 24.7003 144.809 24.7046C144.809 24.7089 144.809 24.7132 144.809 24.7175C144.808 24.7218 144.808 24.7261 144.808 24.7304C144.808 24.7347 144.808 24.739 144.807 24.7433C144.807 24.7476 144.807 24.7519 144.807 24.7562C144.807 24.7604 144.807 24.7647 144.806 24.769C144.806 24.7733 144.806 24.7776 144.806 24.7819C144.806 24.7862 144.805 24.7905 144.805 24.7948C144.805 24.7991 144.805 24.8034 144.805 24.8077C144.804 24.812 144.804 24.8163 144.804 24.8206C144.804 24.8249 144.804 24.8292 144.803 24.8335C144.803 24.8378 144.803 24.8421 144.803 24.8464C144.803 24.8507 144.802 24.855 144.802 24.8593C144.802 24.8636 144.802 24.8679 144.802 24.8722C144.801 24.8765 144.801 24.8808 144.801 24.8851C144.801 24.8894 144.801 24.8937 144.8 24.8979C144.8 24.9022 144.8 24.9065 144.8 24.9108C144.8 24.9151 144.799 24.9194 144.799 24.9237C144.799 24.928 144.799 24.9323 144.799 24.9366C144.798 24.9409 144.798 24.9452 144.798 24.9495C144.798 24.9538 144.798 24.9581 144.798 24.9624C144.797 24.9667 144.797 24.971 144.797 24.9753C144.797 24.9796 144.797 24.9839 144.796 24.9882C144.796 24.9925 144.796 24.9968 144.796 25.0011C144.796 25.0054 144.795 25.0097 144.795 25.014C144.795 25.0183 144.795 25.0226 144.795 25.0269C144.794 25.0312 144.794 25.0354 144.794 25.0397C144.794 25.044 144.794 25.0483 144.793 25.0526C144.793 25.0569 144.793 25.0612 144.793 25.0655C144.793 25.0698 144.792 25.0741 144.792 25.0784C144.792 25.0827 144.792 25.087 144.792 25.0913C144.791 25.0956 144.791 25.0999 144.791 25.1042C144.791 25.1085 144.791 25.1128 144.79 25.1171C144.79 25.1214 144.79 25.1257 144.79 25.13C144.79 25.1343 144.79 25.1386 144.789 25.1429C144.789 25.1472 144.789 25.1515 144.789 25.1558C144.789 25.1601 144.788 25.1644 144.788 25.1687C144.788 25.173 144.788 25.1772 144.788 25.1815C144.787 25.1858 144.787 25.1901 144.787 25.1944C144.787 25.1987 144.787 25.203 144.786 25.2073C144.786 25.2116 144.786 25.2159 144.786 25.2202C144.786 25.2245 144.785 25.2288 144.785 25.2331C144.785 25.2374 144.785 25.2417 144.785 25.246C144.784 25.2503 144.784 25.2546 144.784 25.2589C144.784 25.2632 144.784 25.2675 144.783 25.2718C144.783 25.2761 144.783 25.2804 144.783 25.2847C144.783 25.289 144.782 25.2933 144.782 25.2976C144.782 25.3019 144.782 25.3062 144.782 25.3105C144.782 25.3147 144.781 25.319 144.781 25.3233C144.781 25.3276 144.781 25.3319 144.781 25.3362C144.78 25.3405 144.78 25.3448 144.78 25.3491C144.78 25.3534 144.78 25.3577 144.779 25.362C144.779 25.3663 144.779 25.3706 144.779 25.3749C144.779 25.3792 144.778 25.3835 144.778 25.3878C144.778 25.3921 144.778 25.3964 144.778 25.4007C144.777 25.405 144.777 25.4093 144.777 25.4136C144.777 25.4179 144.777 25.4222 144.776 25.4265C144.776 25.4308 144.776 25.4351 144.776 25.4394C144.776 25.4437 144.775 25.448 144.775 25.4522C144.775 25.4565 144.775 25.4608 144.775 25.4651C144.774 25.4694 144.774 25.4737 144.774 25.478C144.774 25.4823 144.774 25.4866 144.773 25.4909C144.773 25.4952 144.773 25.4995 144.773 25.5038C144.773 25.5081 144.773 25.5124 144.772 25.5167C144.772 25.521 144.772 25.5253 144.772 25.5296C144.772 25.5339 144.771 25.5382 144.771 25.5425C144.771 25.5468 144.771 25.5511 144.771 25.5554C144.77 25.5597 144.77 25.564 144.77 25.5683C144.77 25.5726 144.77 25.5769 144.769 25.5812C144.769 25.5854 144.769 25.5897 144.769 25.594C144.769 25.5983 144.768 25.6026 144.768 25.6069C144.768 25.6112 144.768 25.6155 144.768 25.6198C144.767 25.6241 144.767 25.6284 144.767 25.6327C144.767 25.637 144.767 25.6413 144.766 25.6456C144.766 25.6499 144.766 25.6542 144.766 25.6585C144.766 25.6628 144.765 25.6671 144.765 25.6714C144.765 25.6757 144.765 25.68 144.765 25.6843C144.765 25.6886 144.764 25.6929 144.764 25.6972C144.764 25.7015 144.764 25.7058 144.764 25.7101C144.763 25.7144 144.763 25.7187 144.763 25.7229C144.763 25.7272 144.763 25.7315 144.762 25.7358C144.762 25.7401 144.762 25.7444 144.762 25.7487C144.762 25.753 144.761 25.7573 144.761 25.7616C144.761 25.7659 144.761 25.7702 144.761 25.7745C144.76 25.7788 144.76 25.7831 144.76 25.7874C144.76 25.7917 144.76 25.796 144.759 25.8003C144.759 25.8046 144.759 25.8089 144.759 25.8132C144.759 25.8175 144.758 25.8218 144.758 25.8261C144.758 25.8304 144.758 25.8347 144.758 25.839C144.757 25.8433 144.757 25.8476 144.757 25.8519C144.757 25.8562 144.757 25.8605 144.757 25.8647C144.756 25.869 144.756 25.8733 144.756 25.8776C144.756 25.8819 144.756 25.8862 144.755 25.8905C144.755 25.8948 144.755 25.8991 144.755 25.9034C144.755 25.9077 144.754 25.912 144.754 25.9163C144.754 25.9206 144.754 25.9249 144.754 25.9292C144.753 25.9335 144.753 25.9378 144.753 25.9421C144.753 25.9464 144.753 25.9507 144.752 25.955C144.752 25.9593 144.752 25.9636 144.752 25.9679C144.752 25.9722 144.751 25.9765 144.751 25.9808C144.751 25.9851 144.751 25.9894 144.751 25.9937C144.75 25.998 144.75 26.0023 144.75 26.0065C144.75 26.0108 144.75 26.0151 144.749 26.0194C144.749 26.0237 144.749 26.028 144.749 26.0323C144.749 26.0366 144.748 26.0409 144.748 26.0452C144.748 26.0495 144.748 26.0538 144.748 26.0581C144.748 26.0624 144.747 26.0667 144.747 26.071C144.747 26.0753 144.747 26.0796 144.747 26.0839C144.746 26.0882 144.746 26.0925 144.746 26.0968C144.746 26.1011 144.746 26.1054 144.745 26.1097C144.745 26.114 144.745 26.1183 144.745 26.1226C144.745 26.1269 144.744 26.1312 144.744 26.1355C144.744 26.1397 144.744 26.144 144.744 26.1483C144.743 26.1526 144.743 26.1569 144.743 26.1612C144.743 26.1655 144.743 26.1698 144.742 26.1741C144.742 26.1784 144.742 26.1827 144.742 26.187C144.742 26.1913 144.741 26.1956 144.741 26.1999C144.741 26.2042 144.741 26.2085 144.741 26.2128C144.74 26.2171 144.74 26.2214 144.74 26.2257C144.74 26.23 144.74 26.2343 144.74 26.2386C144.739 26.2429 144.739 26.2472 144.739 26.2515C144.739 26.2558 144.739 26.2601 144.738 26.2644C144.738 26.2687 144.738 26.2729 144.738 26.2772C144.738 26.2815 144.737 26.2858 144.737 26.2901C144.737 26.2944 144.737 26.2987 144.737 26.303C144.736 26.3073 144.736 26.3116 144.736 26.3159C144.736 26.3202 144.736 26.3245 144.735 26.3288C144.735 26.3331 144.735 26.3374 144.735 26.3417C144.735 26.346 144.734 26.3503 144.734 26.3546L146.732 26.4454ZM146.033 18.8H145.733V20.8H146.033V18.8ZM144.83 19.3701C143.847 21.4349 142.664 23.6048 141.279 25.8801L142.987 26.9199C144.402 24.5952 145.619 22.3651 146.636 20.2299L144.83 19.3701ZM141.272 25.8913C139.98 28.0784 138.74 30.0628 137.551 31.8453L139.215 32.9547C140.427 31.1372 141.687 29.1216 142.994 26.9087L141.272 25.8913ZM137.558 31.8353L120.008 57.4853L121.659 58.6147L139.209 32.9647L137.558 31.8353ZM119.985 57.52C119.495 58.3042 119.006 59.037 118.519 59.7188L120.147 60.8812C120.66 60.163 121.171 59.3958 121.681 58.58L119.985 57.52ZM118.519 59.7188C118.025 60.4115 117.479 61.1552 116.883 61.95L118.483 63.15C119.087 62.3448 119.642 61.5885 120.147 60.8812L118.519 59.7188Z" fill="#FCD835"/>
</svg>
