<svg width="173" height="105" viewBox="0 0 173 105" fill="none" xmlns="http://www.w3.org/2000/svg">
<path d="M11.55 90.6L10.77 91.2258L10.7744 91.2313L11.55 90.6ZM11.55 14.4L10.7744 13.7687L10.77 13.7742L11.55 14.4ZM72.9 14.4L72.12 15.0258L72.1244 15.0313L72.9 14.4ZM72.9 90.6L72.1244 89.9687L72.12 89.9742L72.9 90.6ZM51.3 80.4L51.9562 81.1546L51.9653 81.1467L51.9743 81.1385L51.3 80.4ZM56.25 70.5L55.2774 70.2674L55.2756 70.2752L55.2738 70.2831L56.25 70.5ZM56.25 34.65L55.2728 34.8624L55.2756 34.875L55.2786 34.8875L56.25 34.65ZM51.3 24.75L50.6257 25.4885L50.6347 25.4966L50.6438 25.5046L51.3 24.75ZM33.3 24.75L33.9562 25.5046L33.9585 25.5026L33.3 24.75ZM28.2 34.65L27.2274 34.4174L27.2256 34.4252L27.2238 34.4331L28.2 34.65ZM28.2 70.5L27.2228 70.7124L27.2256 70.725L27.2286 70.7374L28.2 70.5ZM33.3 80.4L32.6257 81.1385L32.6424 81.1537L32.6598 81.1682L33.3 80.4ZM42.3 102.5C29.0287 102.5 19.0944 98.2847 12.3256 89.9687L10.7744 91.2313C18.0056 100.115 28.5713 104.5 42.3 104.5V102.5ZM12.33 89.9742C5.63008 81.6236 2.2 69.1859 2.2 52.5H0.2C0.2 69.4141 3.66992 82.3764 10.77 91.2258L12.33 89.9742ZM2.2 52.5C2.2 35.8141 5.63008 23.3764 12.33 15.0258L10.77 13.7742C3.66992 22.6236 0.2 35.5859 0.2 52.5H2.2ZM12.3256 15.0313C19.0944 6.71529 29.0287 2.5 42.3 2.5V0.499996C28.5713 0.499996 18.0056 4.8847 10.7744 13.7687L12.3256 15.0313ZM42.3 2.5C55.5718 2.5 65.4523 6.7153 72.12 15.0258L73.68 13.7742C66.5477 4.88469 56.0282 0.499996 42.3 0.499996V2.5ZM72.1244 15.0313C78.921 23.3814 82.4 35.8167 82.4 52.5H84.4C84.4 35.5833 80.879 22.6186 73.6756 13.7687L72.1244 15.0313ZM82.4 52.5C82.4 69.1833 78.921 81.6186 72.1244 89.9687L73.6756 91.2313C80.879 82.3814 84.4 69.4167 84.4 52.5H82.4ZM72.12 89.9742C65.4523 98.2847 55.5718 102.5 42.3 102.5V104.5C56.0282 104.5 66.5477 100.115 73.68 91.2258L72.12 89.9742ZM42.3 84.4C46.1873 84.4 49.4373 83.345 51.9562 81.1546L50.6438 79.6454C48.5627 81.455 45.8127 82.4 42.3 82.4V84.4ZM51.9743 81.1385C54.4831 78.8478 56.2019 75.3263 57.2262 70.7169L55.2738 70.2831C54.2981 74.6737 52.7169 77.7522 50.6257 79.6615L51.9743 81.1385ZM57.2226 70.7326C58.348 66.0262 58.9 59.9397 58.9 52.5H56.9C56.9 59.8603 56.352 65.7738 55.2774 70.2674L57.2226 70.7326ZM58.9 52.5C58.9 45.0615 58.3482 39.0222 57.2214 34.4125L55.2786 34.8875C56.3518 39.2778 56.9 45.1385 56.9 52.5H58.9ZM57.2272 34.4376C56.2048 29.7346 54.4859 26.1951 51.9562 23.9954L50.6438 25.5046C52.7141 27.3049 54.2952 30.3654 55.2728 34.8624L57.2272 34.4376ZM51.9743 24.0115C49.4563 21.7125 46.1998 20.6 42.3 20.6V22.6C45.8002 22.6 48.5437 23.5875 50.6257 25.4885L51.9743 24.0115ZM42.3 20.6C38.4911 20.6 35.2474 21.7172 32.6415 23.9974L33.9585 25.5026C36.1526 23.5828 38.9089 22.6 42.3 22.6V20.6ZM32.6438 23.9954C30.1214 26.1888 28.351 29.719 27.2274 34.4174L29.1726 34.8826C30.249 30.381 31.8786 27.3112 33.9562 25.5046L32.6438 23.9954ZM27.2238 34.4331C26.2014 39.0338 25.7 45.0652 25.7 52.5H27.7C27.7 45.1348 28.1986 39.2662 29.1762 34.8669L27.2238 34.4331ZM25.7 52.5C25.7 59.9358 26.2016 66.0148 27.2228 70.7124L29.1772 70.2876C28.1984 65.7852 27.7 59.8642 27.7 52.5H25.7ZM27.2286 70.7374C28.3541 75.3417 30.1239 78.8542 32.6257 81.1385L33.9743 79.6615C31.8761 77.7458 30.2459 74.6583 29.1714 70.2625L27.2286 70.7374ZM32.6598 81.1682C35.2664 83.3404 38.5037 84.4 42.3 84.4V82.4C38.8963 82.4 36.1336 81.4596 33.9402 79.6318L32.6598 81.1682ZM110.054 98.55L109.579 99.43L109.588 99.4345L109.596 99.4388L110.054 98.55ZM94.1543 82.05L93.7095 81.1544L92.7642 81.6239L93.284 82.5424L94.1543 82.05ZM116.804 70.8L117.769 70.5348L117.447 69.3644L116.359 69.9044L116.804 70.8ZM122.054 80.4L121.347 81.1071L121.354 81.1143L121.362 81.1214L122.054 80.4ZM146.204 77.55L145.343 77.0413L145.34 77.0475L145.336 77.0539L146.204 77.55ZM146.354 62.1L145.478 62.5819L145.487 62.5984L145.497 62.6145L146.354 62.1ZM141.404 57.6L140.957 58.4944L140.974 58.5027L140.99 58.5104L141.404 57.6ZM126.704 56.7L126.91 57.6786L126.935 57.6734L126.959 57.6671L126.704 56.7ZM121.454 58.65L121.925 59.5324L121.935 59.5271L121.945 59.5216L121.454 58.65ZM117.254 61.8L117.073 62.7834L117.59 62.8788L117.961 62.5071L117.254 61.8ZM97.7543 58.2L96.7607 58.0866L96.6549 59.0139L97.5727 59.1834L97.7543 58.2ZM104.054 3V2H103.162L103.061 2.8866L104.054 3ZM166.454 3H167.454V2H166.454V3ZM166.454 22.95V23.95H167.454V22.95H166.454ZM122.804 22.95V21.95H121.925L121.812 22.8223L122.804 22.95ZM120.254 42.75L121.237 42.9343L121.242 42.9061L121.246 42.8777L120.254 42.75ZM119.804 45.15L118.821 44.9657L118.599 46.15H119.804V45.15ZM119.954 45.15V46.15H120.41L120.709 45.8062L119.954 45.15ZM128.354 39.9L128.038 38.9513L128.354 39.9ZM157.004 42L156.512 42.8706L157.004 42ZM167.654 52.65L168.528 52.1644L167.654 52.65ZM168.254 84L167.348 83.5771L167.344 83.5862L168.254 84ZM159.704 94.95L159.087 94.1629L159.077 94.1712L159.704 94.95ZM147.254 101.4L146.969 100.442L146.963 100.443L147.254 101.4ZM132.554 102.5C124.083 102.5 116.746 100.875 110.513 97.6612L109.596 99.4388C116.163 102.825 123.826 104.5 132.554 104.5V102.5ZM110.529 97.67C104.428 94.3772 99.2524 89.0299 95.0246 81.5576L93.284 82.5424C97.6562 90.2701 103.081 95.9228 109.579 99.43L110.529 97.67ZM94.5991 82.9456L117.249 71.6956L116.359 69.9044L93.7095 81.1544L94.5991 82.9456ZM115.84 71.0652C116.976 75.1953 118.8 78.5601 121.347 81.1071L122.761 79.6929C120.508 77.4399 118.833 74.4046 117.769 70.5348L115.84 71.0652ZM121.362 81.1214C124.113 83.7628 128.104 85 133.154 85V83C128.405 83 124.995 81.8372 122.747 79.6786L121.362 81.1214ZM133.154 85C136.37 85 139.181 84.4296 141.552 83.2444L140.657 81.4556C138.627 82.4705 136.138 83 133.154 83V85ZM141.552 83.2444C143.925 82.0577 145.773 80.3206 147.073 78.0461L145.336 77.0539C144.236 78.9794 142.684 80.4423 140.657 81.4556L141.552 83.2444ZM147.065 78.0587C148.474 75.6748 149.154 72.8408 149.154 69.6H147.154C147.154 72.5592 146.535 75.0252 145.343 77.0413L147.065 78.0587ZM149.154 69.6C149.154 66.4697 148.528 63.7795 147.212 61.5855L145.497 62.6145C146.58 64.4205 147.154 66.7303 147.154 69.6H149.154ZM147.231 61.6181C146.02 59.4176 144.202 57.7733 141.818 56.6896L140.99 58.5104C143.006 59.4267 144.488 60.7823 145.478 62.5819L147.231 61.6181ZM141.852 56.7056C139.474 55.5166 136.559 54.95 133.154 54.95V56.95C136.35 56.95 138.935 57.4834 140.957 58.4944L141.852 56.7056ZM133.154 54.95C130.687 54.95 128.449 55.2069 126.45 55.7329L126.959 57.6671C128.76 57.1931 130.822 56.95 133.154 56.95V54.95ZM126.498 55.7215C124.504 56.1412 122.658 56.8257 120.964 57.7784L121.945 59.5216C123.451 58.6743 125.104 58.0588 126.91 57.6786L126.498 55.7215ZM120.984 57.7676C119.39 58.6177 117.911 59.7288 116.547 61.0929L117.961 62.5071C119.197 61.2712 120.519 60.2823 121.925 59.5324L120.984 57.7676ZM117.436 60.8166L97.9358 57.2166L97.5727 59.1834L117.073 62.7834L117.436 60.8166ZM98.7478 58.3134L105.048 3.11339L103.061 2.8866L96.7607 58.0866L98.7478 58.3134ZM104.054 4H166.454V2H104.054V4ZM165.454 3V22.95H167.454V3H165.454ZM166.454 21.95H122.804V23.95H166.454V21.95ZM121.812 22.8223L119.262 42.6223L121.246 42.8777L123.796 23.0777L121.812 22.8223ZM119.271 42.5657L118.821 44.9657L120.787 45.3343L121.237 42.9343L119.271 42.5657ZM119.804 46.15H119.954V44.15H119.804V46.15ZM120.709 45.8062C122.566 43.6705 125.199 42.0059 128.671 40.8487L128.038 38.9513C124.31 40.1941 121.343 42.0295 119.2 44.4938L120.709 45.8062ZM128.671 40.8487C132.154 39.6876 136.045 39.1 140.354 39.1V37.1C135.864 37.1 131.755 37.7124 128.038 38.9513L128.671 40.8487ZM140.354 39.1C146.721 39.1 152.093 40.3729 156.512 42.8706L157.496 41.1294C152.715 38.4271 146.987 37.1 140.354 37.1V39.1ZM156.512 42.8706C160.956 45.3824 164.372 48.8011 166.78 53.1356L168.528 52.1644C165.937 47.4989 162.252 43.8176 157.496 41.1294L156.512 42.8706ZM166.78 53.1356C169.188 57.4691 170.404 62.4481 170.404 68.1H172.404C172.404 62.1519 171.121 56.8309 168.528 52.1644L166.78 53.1356ZM170.404 68.1C170.404 74.0865 169.374 79.2362 167.348 83.5771L169.16 84.4229C171.335 79.7638 172.404 74.3135 172.404 68.1H170.404ZM167.344 83.5862C165.408 87.8443 162.657 91.3648 159.087 94.1629L160.321 95.7371C164.151 92.7352 167.1 88.9557 169.165 84.4138L167.344 83.5862ZM159.077 94.1712C155.584 96.9848 151.552 99.0764 146.969 100.442L147.54 102.358C152.357 100.924 156.624 98.7151 160.332 95.7288L159.077 94.1712ZM146.963 100.443C142.465 101.812 137.664 102.5 132.554 102.5V104.5C137.845 104.5 142.844 103.788 147.545 102.357L146.963 100.443Z" fill="#FCD835"/>
</svg>
