<svg width="115" height="134" viewBox="0 0 115 134" fill="none" xmlns="http://www.w3.org/2000/svg">
<path d="M114.207 51.2326C114.207 46.2954 109.939 42.2812 104.69 42.2812H9.51724C4.26789 42.2812 0 46.2954 0 51.2326V104.94H2.37931V51.2326C2.37931 47.5262 5.57651 44.5191 9.51724 44.5191H104.69C108.63 44.5191 111.828 47.5262 111.828 51.2326V104.94H114.207V51.2326Z" fill="#DBDBDB"/>
<path d="M114.207 104.941H0C0 109.878 4.26789 113.892 9.51724 113.892H104.69C109.939 113.892 114.207 109.892 114.207 104.941Z" fill="#DBDBDB"/>
<path d="M85.6552 131.795H82.0268C78.4281 131.795 75.1268 129.879 73.5207 126.843L66.6207 113.892H47.5862L40.7011 126.843C39.0951 129.879 35.7938 131.795 32.1951 131.795H28.5518H85.6552Z" fill="#DBDBDB"/>
<path d="M28.5518 131.795H85.6552" stroke="#DBDBDB" stroke-width="3" stroke-miterlimit="10" stroke-linecap="round"/>
<path d="M57.1035 14.6438V2" stroke="#DBDBDB" stroke-width="3" stroke-miterlimit="10" stroke-linecap="round" stroke-linejoin="round"/>
<path d="M75.6465 16.9375L77.9663 8.79736" stroke="#DBDBDB" stroke-width="3" stroke-miterlimit="10" stroke-linecap="round" stroke-linejoin="round"/>
<path d="M38.5591 16.9375L36.2393 8.79736" stroke="#DBDBDB" stroke-width="3" stroke-miterlimit="10" stroke-linecap="round" stroke-linejoin="round"/>
<path d="M92.9268 23.666L95.1722 20.0146" stroke="#DBDBDB" stroke-width="3" stroke-miterlimit="10" stroke-linecap="round" stroke-linejoin="round"/>
<path d="M21.2797 23.666L19.0342 20.0146" stroke="#DBDBDB" stroke-width="3" stroke-miterlimit="10" stroke-linecap="round" stroke-linejoin="round"/>
<path d="M47.5859 95.9893H85.6549" stroke="#DBDBDB" stroke-width="3" stroke-miterlimit="10" stroke-dasharray="32 32"/>
<path d="M19.034 51.2324C16.4019 51.2324 14.2754 53.2325 14.2754 55.7081V82.5622C14.2754 85.0378 16.4019 87.0379 19.034 87.0379H23.7926V95.9893L33.3099 87.0379H57.103C59.7351 87.0379 61.8616 85.0378 61.8616 82.5622V55.7081C61.8616 53.2325 59.7351 51.2324 57.103 51.2324H19.034Z" fill="#FCD835"/>
<path d="M33.3102 69.1353C35.2813 69.1353 36.8792 67.1314 36.8792 64.6595C36.8792 62.1877 35.2813 60.1838 33.3102 60.1838C31.3391 60.1838 29.7412 62.1877 29.7412 64.6595C29.7412 67.1314 31.3391 69.1353 33.3102 69.1353Z" fill="white"/>
<path d="M42.8275 79.1216V76.9676C42.8275 75.1074 41.2363 73.6108 39.2585 73.6108H27.3619C25.3841 73.6108 23.793 75.1074 23.793 76.9676V79.1216H42.8275Z" fill="white"/>
<path d="M28.5518 35.5676H47.5862" stroke="#DBDBDB" stroke-width="3" stroke-miterlimit="10" stroke-dasharray="16 16"/>
<path d="M76.1377 87.0378H95.1722" stroke="#DBDBDB" stroke-width="3" stroke-miterlimit="10" stroke-dasharray="16 16"/>
<path d="M95.1723 33.3296C97.8044 33.3296 99.9309 35.3297 99.9309 37.8053V64.6594C99.9309 67.135 97.8044 69.1351 95.1723 69.1351H90.4137V78.0864L80.8965 69.1351H57.1033C54.4712 69.1351 52.3447 67.135 52.3447 64.6594V37.8053C52.3447 35.3297 54.4712 33.3296 57.1033 33.3296H95.1723Z" fill="#DBDBDB"/>
<path d="M57.1033 51.2324H52.3447V64.6595C52.3447 67.1352 54.4712 69.1353 57.1033 69.1353H61.862V55.7081C61.862 53.2325 59.7355 51.2324 57.1033 51.2324Z" fill="#FCD835"/>
<path d="M80.8961 50.1975C82.8672 50.1975 84.4651 48.1936 84.4651 45.7217C84.4651 43.2497 82.8672 41.2458 80.8961 41.2458C78.925 41.2458 77.3271 43.2497 77.3271 45.7217C77.3271 48.1936 78.925 50.1975 80.8961 50.1975Z" fill="white"/>
<path d="M90.4134 60.1836V58.0297C90.4134 56.1696 88.8222 54.6731 86.8444 54.6731H74.9479C72.9701 54.6731 71.3789 56.1696 71.3789 58.0297V60.1836H90.4134Z" fill="white"/>
<path d="M104.689 42.2812H99.9307V44.5193H104.689V42.2812Z" fill="#DBDBDB"/>
</svg>
