<svg width="152" height="142" viewBox="0 0 152 142" fill="none" xmlns="http://www.w3.org/2000/svg">
<path d="M129.777 63.8913C129.085 60.9401 127.538 58.1806 125.055 55.8427C118.379 49.5571 107.469 49.5188 100.752 55.8427C94.0354 62.1283 94.0761 72.3998 100.752 78.7621C103.235 81.0234 106.166 82.4798 109.301 83.1697L100.549 91.4099L79.3398 71.4417L77.6301 73.0514C80.6425 78.1489 79.2177 85.0093 73.1522 88.3821C69.5292 90.4134 64.8478 90.4134 61.2248 88.4204C54.0602 84.4728 53.2053 75.6576 58.6195 70.5218C62.3646 66.9958 67.9823 66.3059 72.5009 68.4522L74.292 66.7658L52.7168 46.4526L74.1292 26.2928L72.2159 24.4914C66.8018 27.1743 59.6779 25.7945 56.1363 20.1605C54.0194 16.7877 53.9787 12.3418 56.0956 8.96907C60.2885 2.22357 69.6513 1.4187 75.1062 6.51616C78.9327 10.1189 79.5841 15.5229 77.1823 19.8155L79.0956 21.6169L100.549 1.45703L107.795 8.27919C104.904 8.93075 102.177 10.3488 99.938 12.4568C93.2212 18.7807 93.2212 29.0523 99.938 35.3762C106.614 41.7001 117.524 41.7001 124.241 35.3762C126.52 33.2682 128.027 30.7003 128.719 27.9791L148.34 46.4526L129.777 63.8913Z" fill="white"/>
<path d="M100.549 92.9043L79.3398 72.936L78.9735 73.2809C81.9044 79.03 79.7062 85.9671 73.7221 89.3016C71.7682 90.4131 69.4885 90.988 67.1274 90.988C64.8071 90.988 62.5682 90.4131 60.6549 89.3782C57.0319 87.3852 54.6301 84.0125 54.1009 80.1798C53.5717 76.3471 54.9558 72.5911 57.846 69.8315C60.2885 67.5319 63.5859 66.2288 67.046 66.2288C68.8372 66.2288 70.6283 66.5737 72.2566 67.2253L72.7451 66.7654L51.1699 46.4521L72.5823 26.2922L72.0124 25.7556C70.3027 26.4839 68.4301 26.8671 66.5575 26.8671C61.8761 26.8671 57.6425 24.5675 55.2 20.6965C52.8797 16.9788 52.8389 12.1496 55.1593 8.43191C57.6018 4.52257 61.8761 2.1463 66.5982 2.1463C70.0991 2.1463 73.3965 3.44942 75.8797 5.78736C79.7469 9.42841 80.7646 14.9091 78.5257 19.6234L79.0956 20.1599L100.549 0L109.952 8.8535L108.039 9.2751C105.271 9.88833 102.747 11.2681 100.671 13.1844C97.6177 16.059 95.9487 19.8916 95.9487 23.9543C95.9487 27.9786 97.6177 31.773 100.671 34.6475C103.683 37.522 107.754 39.0934 112.028 39.0934C116.343 39.0934 120.373 37.522 123.386 34.6475C125.462 32.7311 126.927 30.3549 127.579 27.7103L128.027 25.909L149.805 46.4138L129.085 65.9222L128.637 64.0825C127.945 61.208 126.48 58.6401 124.241 56.5704C121.188 53.6959 117.158 52.1245 112.842 52.1245C108.527 52.1245 104.538 53.6959 101.485 56.5704C95.2159 62.4345 95.2159 72.0545 101.485 78.0335C103.683 80.0648 106.451 81.5212 109.464 82.1345L111.418 82.556L100.549 92.9043ZM79.2991 69.9848L100.508 89.9531L107.184 83.6675C104.497 82.8243 102.055 81.4062 99.9788 79.4899C92.8549 72.706 92.8549 61.7829 99.9788 55.114C103.398 51.8562 107.998 50.0932 112.883 50.0932C117.768 50.0932 122.368 51.8946 125.828 55.1523C127.864 57.0687 129.411 59.4066 130.306 61.9362L146.712 46.4905L129.166 29.9716C128.271 32.3095 126.846 34.4175 124.933 36.1806C121.513 39.4383 116.913 41.2397 112.028 41.2397C107.143 41.2397 102.543 39.4383 99.1239 36.1806C95.6637 32.9611 93.7505 28.6302 93.7505 24.0309C93.7505 19.4317 95.6637 15.0625 99.1239 11.8047C100.996 10.0416 103.235 8.7002 105.719 7.85701L100.549 2.91284L79.1363 23.0728L75.8797 20.0066L76.246 19.3167C78.5257 15.2924 77.7522 10.4249 74.3735 7.24378C72.2974 5.28911 69.5699 4.21595 66.6389 4.21595C62.6903 4.21595 59.108 6.17062 57.0726 9.46673C55.1593 12.5329 55.1593 16.5189 57.1133 19.6234C59.1487 22.8428 62.6903 24.7975 66.5575 24.7975C68.3487 24.7975 70.1398 24.3759 71.7274 23.571L72.4602 23.2261L75.7168 26.2922L54.3044 46.4521L75.8797 66.7654L72.7451 69.7166L72.0531 69.3716C70.5062 68.6434 68.7965 68.2601 67.0867 68.2601C64.1965 68.2601 61.469 69.3333 59.4336 71.2496C57.0319 73.5109 55.892 76.6537 56.3398 79.8348C56.7876 83.016 58.7823 85.8138 61.8354 87.5002C63.423 88.3817 65.2956 88.8417 67.2089 88.8417C69.1628 88.8417 71.0354 88.3434 72.6637 87.4619C78.4443 84.2041 79.2584 77.8035 76.7345 73.5109L76.3274 72.821L79.2991 69.9848Z" fill="#DBDBDB"/>
<path d="M75.7171 114.827L77.6304 116.629C83.0445 113.946 90.1684 115.325 93.71 120.959C95.8268 124.332 95.8675 128.778 93.7507 132.151C89.5578 138.896 80.195 139.701 74.7401 134.604C70.9136 131.001 70.2622 125.597 72.664 121.304L70.7507 119.503L49.379 139.625L28.1295 119.618L26.6233 121.036C29.4728 126.134 28.0074 132.841 22.0233 136.175C18.441 138.168 13.7189 138.206 10.1366 136.213C2.97196 132.266 2.11709 123.451 7.53125 118.315C11.3578 114.712 17.0976 114.099 21.6569 116.36L23.1631 114.942L1.58789 94.629L23.0003 74.5075L21.4127 73.0128C15.9985 75.6957 8.87462 74.3159 5.33302 68.6819C3.21621 65.3091 3.1755 60.8633 5.29232 57.4905C9.48524 50.745 18.8481 49.9402 24.3029 55.0376C28.1295 58.6403 28.7808 64.0444 26.379 68.337L27.9667 69.8317L49.379 49.6719L63.0569 62.5496H63.0162C59.8817 63.1629 56.9507 64.6576 54.4675 66.9572C47.7507 73.2811 47.7507 83.5143 54.4675 89.8765C61.1436 96.1621 72.0534 96.1621 78.8109 89.8765C79.7065 88.995 80.4799 88.1135 81.1313 87.1553C82.556 85.0857 83.1666 83.131 83.4516 81.8279L97.1295 94.7057L75.7171 114.827Z" fill="#FCD835"/>
<path d="M49.3788 141.081L28.1292 121.113L27.9664 121.266C30.7752 127.053 28.5363 133.761 22.5929 137.095C20.6389 138.168 18.4 138.743 16.0389 138.743C13.7186 138.743 11.4796 138.168 9.56637 137.133C5.94336 135.14 3.54159 131.768 3.01239 127.935C2.48319 124.102 3.86726 120.346 6.75752 117.587C9.2 115.287 12.4973 113.984 15.9575 113.984C17.8301 113.984 19.7027 114.367 21.4124 115.095L21.5752 114.942L0 94.6672L21.4124 74.5456L21.1274 74.2773C19.4177 75.0056 17.5451 75.3888 15.6726 75.3888C10.9911 75.3888 6.75752 73.0892 4.31504 69.2182C1.99469 65.5005 1.95398 60.6713 4.27434 56.9536C6.71681 53.0443 10.9911 50.668 15.7133 50.668C19.2142 50.668 22.5115 51.9711 24.9947 54.3091C28.8619 57.9501 29.8796 63.4309 27.6407 68.1451L27.9257 68.4133L49.338 48.2534L65.6619 63.6225H63.0973C60.2071 64.2357 57.4796 65.6538 55.2 67.7235C48.931 73.6258 48.931 83.2458 55.2 89.1482C58.2124 91.9844 62.2832 93.5558 66.5575 93.5558C70.8726 93.5558 74.9026 91.9844 77.9557 89.1482C78.8106 88.305 79.5434 87.4235 80.154 86.5803C81.1717 85.0855 81.9044 83.3991 82.3522 81.5978L82.8 79.7581L98.6761 94.7056L77.2637 114.865L77.8336 115.402C79.5434 114.674 81.4159 114.291 83.2885 114.291C87.9699 114.291 92.2035 116.59 94.646 120.461C96.9664 124.179 97.0071 129.008 94.6867 132.726C92.2442 136.635 87.9699 139.011 83.2478 139.011C79.7469 139.011 76.4495 137.708 73.9664 135.37C70.0991 131.729 69.0814 126.249 71.3203 121.534L70.7504 120.998L49.3788 141.081ZM28.1292 118.162L49.3788 138.168L70.7504 118.047L74.0071 121.113L73.6407 121.803C71.361 125.827 72.1345 130.694 75.5133 133.876C77.5894 135.83 80.3168 136.903 83.2478 136.903C87.1964 136.903 90.7787 134.949 92.8141 131.653C94.7274 128.587 94.7274 124.601 92.7734 121.496C90.738 118.277 87.1964 116.322 83.3292 116.322C81.538 116.322 79.7469 116.744 78.1593 117.548L77.4265 117.893L74.1699 114.827L95.5823 94.6672L84.0212 83.7824C83.5327 85.1622 82.8814 86.4653 82.0672 87.6917C81.4159 88.6499 80.5611 89.6081 79.6248 90.5663C76.1239 93.824 71.5239 95.6254 66.6389 95.6254C61.754 95.6254 57.154 93.824 53.6938 90.6046C46.5699 83.8974 46.5699 72.9359 53.6938 66.2287C55.8106 64.274 58.2531 62.8559 60.9398 62.0128L49.3788 51.1279L27.9664 71.2879L24.9947 68.49L25.3611 67.8001C27.6407 63.7758 26.8673 58.9083 23.4885 55.7272C21.4124 53.7725 18.685 52.6993 15.754 52.6993C11.8053 52.6993 8.22301 54.654 6.18761 57.9501C4.27434 61.0163 4.27434 65.0023 6.22832 68.1067C8.26372 71.3262 11.8053 73.2808 15.6726 73.2808C17.4637 73.2808 19.2549 72.8593 20.8425 72.0544L21.5752 71.7095L24.5469 74.5073L3.0938 94.6672L24.669 114.98L21.8195 117.663L21.0867 117.318C19.4991 116.514 17.708 116.092 15.9168 116.092C13.0265 116.092 10.2991 117.165 8.26371 119.081C5.86195 121.343 4.72212 124.486 5.1292 127.667C5.57699 130.848 7.57168 133.646 10.6248 135.332C12.2124 136.214 14.085 136.673 15.9982 136.673C17.9522 136.673 19.8248 136.214 21.4124 135.294C26.5823 132.419 28.4142 126.479 25.6053 121.534L25.2389 120.844L28.1292 118.162Z" fill="#DBDBDB"/>
<g opacity="0.25">
<path opacity="0.25" d="M149.437 133.569C148.053 134.795 146.262 135.408 144.512 135.447C141.866 136.213 138.853 135.6 136.859 133.569L107.875 104.594C104.455 106.28 100.832 107.392 97.0869 107.89C85.7701 110.151 73.517 106.97 65.0091 98.4999C52.0639 85.5838 52.756 65.1556 66.4746 52.9678C71.8887 48.1769 78.5241 45.3791 85.4038 44.4976C96.5577 42.4662 108.567 45.6474 116.912 54.0026C128.106 65.194 129.083 81.9427 120.29 94.169L149.763 123.642C152.531 126.478 152.409 130.924 149.437 133.569Z" fill="#DBDBDB"/>
</g>
<g opacity="0.15">
<g opacity="0.15">
<g opacity="0.43">
<g opacity="0.43">
<path opacity="0.43" d="M90.4188 107.332C106.071 103.881 115.788 89.1373 112.123 74.4007C108.458 59.6642 92.7985 50.5152 77.1464 53.9658C61.4942 57.4165 51.7768 72.1602 55.4419 86.8968C59.107 101.633 74.7667 110.782 90.4188 107.332Z" fill="#212331"/>
</g>
</g>
</g>
<g opacity="0.15">
<path opacity="0.15" d="M112.067 57.0686C123.262 68.2601 124.239 85.0089 115.446 97.2351L144.918 126.708C147.727 129.506 147.564 133.952 144.593 136.597C141.621 139.241 136.899 139.088 134.09 136.29L104.617 106.817C91.1432 114.367 73.4352 112.374 62.2405 101.221C49.2954 88.305 49.9874 67.8768 63.706 55.6889C77.4653 43.5009 99.1626 44.1142 112.067 57.0686ZM70.7485 62.7027C61.1414 71.2496 60.6529 85.5455 69.7308 94.6289C78.8086 103.674 93.9927 104.134 103.64 95.5871C113.248 87.0402 113.736 72.7443 104.658 63.6609C95.5803 54.5774 80.3556 54.1558 70.7485 62.7027Z" fill="#212331"/>
</g>
</g>
<path d="M142.558 136.904C145.53 134.259 145.693 129.813 142.884 127.016L113.167 97.3124C110.358 94.5145 105.636 94.3612 102.664 97.0057C99.6928 99.6503 99.53 104.096 102.339 106.894L132.056 136.597C134.864 139.395 139.587 139.548 142.558 136.904Z" fill="white"/>
<path d="M137.469 140.353C134.986 140.353 132.544 139.356 130.834 137.67L101.117 107.967C97.6976 104.517 97.8605 99.1131 101.524 95.8936C103.193 94.3989 105.432 93.594 107.753 93.594C110.236 93.594 112.678 94.5905 114.388 96.2769L144.105 125.98C147.524 129.43 147.361 134.834 143.698 138.091C141.988 139.51 139.79 140.353 137.469 140.353ZM107.753 96.6601C106.246 96.6601 104.862 97.1967 103.763 98.1166C101.443 100.186 101.321 103.636 103.519 105.82L133.236 135.524C134.335 136.635 135.841 137.248 137.469 137.248C138.976 137.248 140.36 136.712 141.459 135.792C143.779 133.722 143.901 130.273 141.703 128.088L111.986 98.3849C110.887 97.2351 109.381 96.6601 107.753 96.6601Z" fill="#DBDBDB"/>
<path d="M114.205 80.1905C114.64 65.0619 101.966 52.4661 85.8975 52.0571C69.829 51.648 56.4507 63.5805 56.0162 78.7091C55.5817 93.8377 68.2556 106.433 84.324 106.843C100.393 107.252 113.771 95.3191 114.205 80.1905Z" fill="#DBDBDB"/>
<path d="M85.1189 107.354C76.8552 107.354 69.2021 104.25 63.503 98.5776C52.3083 87.3861 52.8783 69.679 64.765 59.1007C70.3013 54.1949 77.5066 51.512 85.0782 51.512C93.342 51.512 100.995 54.6165 106.694 60.2889C112.108 65.7313 114.999 72.8218 114.754 80.2573C114.51 87.731 111.213 94.6299 105.432 99.7274C99.9366 104.672 92.6906 107.354 85.1189 107.354ZM85.1189 52.5851C77.8322 52.5851 70.8712 55.1914 65.5791 59.9056C54.1402 70.0623 53.5703 87.0795 64.3579 97.8877C69.8128 103.33 77.1809 106.32 85.1189 106.32C92.4057 106.32 99.3667 103.713 104.659 98.9992C110.195 94.0933 113.37 87.4244 113.615 80.2573C113.859 73.0901 111.091 66.2679 105.88 61.0554C100.425 55.613 93.057 52.5851 85.1189 52.5851Z" fill="#DBDBDB"/>
<path d="M108.566 102.907C122.285 90.7195 122.936 70.3296 110.032 57.3751C97.0866 44.459 75.4299 43.8458 61.6706 55.9954C47.952 68.1833 47.3007 88.5732 60.2051 101.528C73.1503 114.444 94.8069 115.057 108.566 102.907ZM68.6724 63.0092C78.2795 54.4623 93.5043 54.9222 102.582 63.9674C111.66 73.0125 111.172 87.3467 101.564 95.8936C91.9573 104.441 76.7326 103.981 67.6547 94.9355C58.5768 85.852 59.0653 71.5561 68.6724 63.0092Z" fill="white"/>
<path d="M85.1186 113.18C75.2673 113.18 65.7416 109.309 59.0248 102.563C52.4708 96.0093 49.0106 87.4241 49.2956 78.4173C49.5805 69.4105 53.5699 61.017 60.531 54.8464C67.2071 48.9441 75.9186 45.6863 85.0779 45.6863C94.9292 45.6863 104.455 49.5573 111.172 56.3028C124.727 69.8705 124.035 91.2568 109.625 104.02C103.03 109.922 94.2779 113.18 85.1186 113.18ZM85.1186 48.8291C76.7735 48.8291 68.8761 51.7802 62.8106 57.146C56.5009 62.7417 52.8779 70.3304 52.5929 78.5323C52.3487 86.7342 55.4425 94.5146 61.4266 100.455C67.5328 106.587 76.2036 110.075 85.1593 110.075C93.5044 110.075 101.402 107.124 107.467 101.758C120.535 90.1836 121.145 70.752 108.851 58.4108C102.704 52.3168 94.0743 48.8291 85.1186 48.8291ZM85.1186 103.56C78.0761 103.56 71.2779 100.8 66.4744 95.971C56.7859 86.2743 57.2744 70.9819 67.5735 61.8602C72.3363 57.6442 78.5646 55.3063 85.1186 55.3063C92.1611 55.3063 98.9593 58.0658 103.763 62.895C113.451 72.5917 112.963 87.884 102.664 97.0058C97.9009 101.26 91.6726 103.56 85.1186 103.56ZM85.1186 58.4491C79.4195 58.4491 73.9646 60.4804 69.8124 64.1598C60.8567 72.0934 60.4089 85.4311 68.8761 93.9013C73.1505 98.1556 78.931 100.494 85.1593 100.494C90.8584 100.494 96.3133 98.4622 100.466 94.7829C109.421 86.8492 109.869 73.5115 101.402 65.0413C97.1274 60.787 91.3469 58.4491 85.1186 58.4491Z" fill="#DBDBDB"/>
<path d="M77.384 95.0886C82.1502 95.0886 86.0141 91.4508 86.0141 86.9634C86.0141 82.4759 82.1502 78.8381 77.384 78.8381C72.6177 78.8381 68.7539 82.4759 68.7539 86.9634C68.7539 91.4508 72.6177 95.0886 77.384 95.0886Z" fill="white"/>
<path d="M95.4991 72.3608C97.6349 72.3608 99.3663 70.7307 99.3663 68.7198C99.3663 66.709 97.6349 65.0789 95.4991 65.0789C93.3633 65.0789 91.6318 66.709 91.6318 68.7198C91.6318 70.7307 93.3633 72.3608 95.4991 72.3608Z" fill="white"/>
</svg>
