<svg width="214" height="144" viewBox="0 0 214 144" fill="none" xmlns="http://www.w3.org/2000/svg">
<path d="M201.624 51.4945L171.18 14.1074L133.162 41.5774L131.825 40.3203C127.618 36.3627 121.974 34.5469 116.48 34.8728H81.7288C81.3823 34.8728 81.0358 34.9194 80.7387 35.0125C80.2437 35.1522 79.8477 35.4316 79.5012 35.7575C78.9071 36.3162 78.5606 37.0611 78.5606 37.8992C78.5606 38.5976 78.6101 39.2494 78.7091 39.9012C85.8375 36.968 94.4015 38.1785 100.391 43.4863L69.1551 72.9117C61.3832 80.2215 61.3832 92.0941 69.1551 99.4039L96.8271 125.477C104.599 132.787 117.173 132.787 124.945 125.477L159.547 92.8857C163.903 88.7419 165.834 83.2013 165.289 77.8005L201.624 51.4945Z" fill="white"/>
<path d="M110.837 131.53C105.391 131.53 100.243 129.528 96.3819 125.896L68.7099 99.823C60.7399 92.3269 60.7399 80.0818 68.7099 72.5858L99.5005 43.4863C95.9363 40.5065 91.4316 38.8769 86.6793 38.8769C84.0062 38.8769 81.3826 39.3891 78.9569 40.4134L78.2639 40.6927L78.1649 39.9478C78.0659 39.296 78.0164 38.551 78.0164 37.8526C78.0164 36.9214 78.4124 35.9903 79.1054 35.3384C79.5015 34.966 80.046 34.64 80.5905 34.5004C80.9865 34.3607 81.3825 34.3141 81.7786 34.3141H116.529C116.925 34.2676 117.371 34.2676 117.817 34.2676C123.262 34.2676 128.41 36.2696 132.271 39.9012L133.261 40.8324L171.279 13.3159L171.626 13.7815L202.417 51.6342L165.834 78.0332C166.329 83.7135 164.201 89.2075 159.894 93.2581L125.291 125.85C121.43 129.528 116.331 131.53 110.837 131.53ZM86.6298 37.7595C91.9266 37.7595 96.9264 39.6684 100.738 43.0673L101.184 43.4397L69.5019 73.2842C61.9775 80.3612 61.9775 91.9079 69.5019 98.9849L97.1739 125.058C100.837 128.503 105.639 130.366 110.787 130.366C115.935 130.366 120.787 128.457 124.4 125.058L159.003 92.4666C163.111 88.6022 165.141 83.2944 164.547 77.847L164.498 77.5211L200.684 51.3548L170.933 14.8524L132.964 42.2758L131.232 40.6462C127.767 37.2474 122.915 35.385 117.767 35.385C117.371 35.385 116.925 35.385 116.48 35.4315H81.6796C81.3826 35.4315 81.135 35.4781 80.838 35.5712C80.442 35.6643 80.0955 35.8971 79.7985 36.1765C79.3034 36.6421 79.0559 37.2474 79.0559 37.8992C79.0559 38.3182 79.0559 38.7373 79.1054 39.1097C81.5806 38.1785 84.0557 37.7595 86.6298 37.7595Z" fill="#DBDBDB"/>
<path d="M156.973 109.601C153.112 113.232 146.875 113.232 143.013 109.601L139.746 106.528C141.677 108.344 142.617 110.718 142.617 113.093C142.617 115.467 141.677 117.842 139.746 119.657C135.885 123.289 129.648 123.289 125.786 119.657L123.212 117.236C127.074 120.868 127.074 126.734 123.212 130.366C119.351 133.998 113.114 133.998 109.253 130.366L107.817 129.016C107.767 129.062 107.668 129.155 107.619 129.202C108.56 130.692 109.055 132.368 109.055 133.998C109.055 136.372 108.114 138.747 106.183 140.562C102.322 144.194 96.0848 144.194 92.2236 140.562L79.947 129.016C79.8975 128.969 79.8975 128.969 79.848 128.923L45.2456 96.2848C39.5033 90.8839 38.0182 83.0154 40.7409 76.3109C40.8894 75.8919 41.0874 75.4728 41.3349 75.0538L9.9502 45.5354L47.0772 10.5229L78.6599 40.1811C78.8579 40.088 78.8084 39.9017 79.0064 39.8552C80.046 47.1184 86.6793 52.752 94.6493 52.752H110.54L111.728 53.8694L135.637 76.3575C135.637 76.3575 135.637 76.3575 135.687 76.404L156.973 96.471C160.785 100.103 160.785 105.969 156.973 109.601Z" fill="white"/>
<path d="M99.1537 143.868C96.3816 143.868 93.7579 142.844 91.7778 140.981L79.5012 129.435C79.5012 129.435 79.4517 129.388 79.4022 129.341L44.7503 96.7034C39.008 91.3026 37.2259 83.2478 40.1466 76.1242C40.2456 75.8449 40.3941 75.519 40.5426 75.1931L9.1084 45.5348L47.0769 9.77734L78.6596 39.4356C78.7091 39.4356 78.7091 39.389 78.7586 39.389L79.5012 39.1097L79.6002 39.8546C80.5902 46.9316 87.0751 52.2394 94.649 52.2394H110.836L112.173 53.543L157.418 96.1447C161.478 99.9626 161.478 106.248 157.418 110.066C155.438 111.928 152.815 112.953 150.042 112.953C147.32 112.953 144.746 111.975 142.815 110.206C143.112 111.137 143.31 112.161 143.31 113.185C143.31 115.793 142.221 118.307 140.241 120.123C138.261 121.985 135.637 123.009 132.865 123.009C130.439 123.009 128.113 122.218 126.281 120.821C127.469 124.22 126.628 128.131 123.757 130.831C121.776 132.694 119.153 133.718 116.381 133.718C113.708 133.718 111.183 132.787 109.252 131.064C109.599 132.042 109.747 133.02 109.747 134.044C109.747 136.651 108.658 139.119 106.678 140.981C104.599 142.844 101.975 143.868 99.1537 143.868ZM10.7915 45.5348L42.0277 74.9603L41.8297 75.3327C41.5821 75.7983 41.4336 76.2174 41.2851 76.5433C38.513 83.2478 40.2456 90.837 45.6414 95.9585L80.2437 128.596L80.2932 128.643L92.6194 140.236C94.352 141.866 96.6786 142.797 99.1537 142.797C101.629 142.797 103.955 141.866 105.688 140.236C107.421 138.607 108.411 136.418 108.411 134.09C108.411 132.507 107.965 130.924 107.074 129.574L106.827 129.202L107.173 128.876C107.223 128.829 107.322 128.783 107.371 128.69L107.767 128.317L109.648 130.086C111.381 131.716 113.708 132.647 116.183 132.647C118.658 132.647 120.984 131.716 122.717 130.086C126.331 126.688 126.331 121.147 122.717 117.748L123.559 116.957L126.133 119.378C127.865 121.007 130.192 121.939 132.667 121.939C135.142 121.939 137.469 121.007 139.201 119.378C140.934 117.748 141.924 115.513 141.924 113.185C141.924 110.857 140.983 108.669 139.201 106.993L140.043 106.202L143.31 109.274C145.043 110.904 147.369 111.835 149.844 111.835C152.32 111.835 154.646 110.904 156.379 109.274C159.992 105.876 159.992 100.335 156.379 96.9362L135.093 76.8692L135.489 76.4502L135.093 76.8226L110.193 53.3568H94.55C86.6791 53.3568 79.9467 48.049 78.4616 40.9255H78.4121L78.1151 40.6461L47.0769 11.3138L10.7915 45.5348Z" fill="#DBDBDB"/>
<path d="M27.5734 69.3271L12.2275 52.1933L60.8392 13.5957L76.185 30.7761L27.5734 69.3271Z" fill="#FCD835"/>
<path d="M27.5236 70.1182L11.3857 52.0998L60.8884 12.804L77.0263 30.8223L27.5236 70.1182ZM13.0688 52.2395L27.6721 68.5352L75.3432 30.7292L60.7399 14.4335L13.0688 52.2395Z" fill="#DBDBDB"/>
<path d="M18.9103 69.188L0.841797 52.1939L54.1562 1.95654L72.2247 18.9972L18.9103 69.188Z" fill="white"/>
<path d="M18.91 69.9785L0 52.1928L0.396021 51.8204L54.1559 1.16382L73.0659 18.996L72.6699 19.3685L18.91 69.9785ZM1.68309 52.1928L18.91 68.4421L71.3828 18.996L54.1559 2.74684L1.68309 52.1928Z" fill="#DBDBDB"/>
<path d="M101.381 43.2534C99.0544 41.3445 97.8663 40.3667 96.1832 39.5287C88.7578 35.9436 81.0849 38.2716 79.1543 38.9234C79.2038 39.9011 80.0948 45.0692 84.7481 49.0267C89.0548 52.6584 93.4606 52.1928 94.5991 52.1928C100.143 52.1928 105.737 52.1928 111.282 52.1928C109.202 49.8182 105.935 46.9781 101.381 43.2534Z" fill="white"/>
<path d="M37.8693 89.0676L39.6019 87.438C42.8196 84.4116 48.0174 84.4116 51.1856 87.438C54.4032 90.4643 54.4032 95.3531 51.1856 98.3795L49.453 100.009C46.2353 103.035 41.0375 103.035 37.8693 100.009C34.6516 96.9361 34.6516 92.0474 37.8693 89.0676Z" fill="white"/>
<path d="M43.6614 102.803C41.3348 102.803 39.1071 101.965 37.4241 100.382C34.0084 97.1693 34.0084 91.9081 37.4241 88.6954L39.1567 87.0659C40.8397 85.4828 43.0178 84.6448 45.394 84.6448C47.7206 84.6448 49.9482 85.4828 51.6313 87.0659C55.047 90.2785 55.047 95.5397 51.6313 98.7523L49.8987 100.382C48.2156 101.918 46.0375 102.803 43.6614 102.803ZM45.394 85.7156C43.3644 85.7156 41.4338 86.4606 39.9982 87.8108L38.2656 89.4404C35.2955 92.234 35.2955 96.7968 38.2656 99.5904C39.7012 100.941 41.6318 101.686 43.6614 101.686C45.691 101.686 47.6216 100.941 49.0572 99.5904L50.7898 97.9608C53.7599 95.1672 53.7599 90.6044 50.7898 87.8108C49.3542 86.4606 47.4236 85.7156 45.394 85.7156Z" fill="#DBDBDB"/>
<path d="M49.9474 105.737L54.5017 101.454C57.7193 98.4273 62.9171 98.4273 66.0853 101.454C69.303 104.48 69.303 109.369 66.0853 112.395L61.531 116.678C58.3134 119.705 53.1156 119.705 49.9474 116.678C46.7298 113.606 46.7298 108.717 49.9474 105.737Z" fill="white"/>
<path d="M55.7395 119.471C53.4129 119.471 51.1853 118.586 49.5022 117.05C46.0865 113.837 46.0865 108.576 49.5022 105.363L54.0564 101.08C55.7395 99.497 57.9177 98.6589 60.2938 98.6589C62.6204 98.6589 64.848 99.497 66.5311 101.08C69.9468 104.293 69.9468 109.554 66.5311 112.766L61.9769 117.05C60.2938 118.586 58.0662 119.471 55.7395 119.471ZM60.2938 99.7298C58.2642 99.7298 56.3336 100.475 54.898 101.825L50.3437 106.108C47.3736 108.902 47.3736 113.465 50.3437 116.258C51.7793 117.609 53.7099 118.354 55.7395 118.354C57.7691 118.354 59.6998 117.609 61.1353 116.258L65.6896 111.975C68.6597 109.181 68.6597 104.619 65.6896 101.825C64.254 100.475 62.3234 99.7298 60.2938 99.7298Z" fill="#DBDBDB"/>
<path d="M56.3334 104.199L58.1155 102.523C59.0066 101.685 60.4916 101.685 61.3827 102.523L64.9469 105.876C65.8379 106.714 65.8379 108.11 64.9469 108.948L63.1648 110.624C61.2837 112.394 58.2145 112.394 56.3829 110.624C54.4523 108.855 54.4523 105.969 56.3334 104.199Z" fill="white"/>
<path d="M59.7492 112.208C58.3631 112.208 57.1255 111.696 56.1355 110.811C54.1554 108.949 54.1554 105.876 56.1355 104.013L57.9176 102.337C58.4126 101.871 59.0561 101.639 59.7492 101.639C60.4422 101.639 61.0857 101.871 61.5808 102.337L65.145 105.689C66.135 106.621 66.135 108.204 65.145 109.135L63.3629 110.811C62.3728 111.742 61.0857 112.208 59.7492 112.208ZM59.6997 102.197C59.1551 102.197 58.6601 102.384 58.2641 102.756L56.482 104.432C54.6999 106.108 54.6999 108.809 56.482 110.438C57.3235 111.23 58.4621 111.696 59.6997 111.696C60.8877 111.696 62.0263 111.23 62.9173 110.438L64.6994 108.762C65.4915 108.017 65.4915 106.807 64.6994 106.108L61.1352 102.756C60.7392 102.384 60.2442 102.197 59.6997 102.197Z" fill="#DBDBDB"/>
<path d="M41.4343 90.1851L43.2164 88.5089C44.1074 87.6708 45.5925 87.6708 46.4835 88.5089L50.0477 91.8613C50.9388 92.6994 50.9388 94.0962 50.0477 94.9343L48.2656 96.6105C46.3845 98.3798 43.3154 98.3798 41.4343 96.6105C39.5532 94.8412 39.5532 91.9544 41.4343 90.1851Z" fill="white"/>
<path d="M44.8498 98.24C43.4637 98.24 42.1766 97.7278 41.2361 96.8432C39.2559 94.9809 39.2559 91.908 41.2361 89.999L43.0182 88.3229C43.5132 87.8573 44.1567 87.6245 44.8498 87.6245C45.5428 87.6245 46.1863 87.8573 46.6814 88.3229L50.2456 91.6752C51.2356 92.6529 51.2356 94.1893 50.2456 95.1205L48.4635 96.7967C47.5229 97.7278 46.2358 98.24 44.8498 98.24ZM44.8498 88.1367C44.3052 88.1367 43.8102 88.3229 43.4142 88.6954L41.6321 90.3715C39.85 92.0476 39.85 94.7481 41.6321 96.4242C42.4736 97.2157 43.6122 97.6813 44.8498 97.6813C46.0378 97.6813 47.1764 97.2157 48.0674 96.4242L49.8495 94.7481C50.6416 94.0031 50.6416 92.7926 49.8495 92.0476L46.2853 88.6954C45.8893 88.3695 45.3943 88.1367 44.8498 88.1367Z" fill="#DBDBDB"/>
<path d="M92.0752 40.1341C91.0852 41.0653 89.7981 41.6705 88.3625 41.8568L85.0954 42.2292C83.4123 42.4155 81.8777 41.2981 81.6797 39.7151L81.0361 34.9661C81.3331 34.873 81.6797 34.8264 82.0262 34.8264H93.8573C93.8573 34.9195 93.9068 35.0126 93.9068 35.1058C94.1543 37.0612 93.4118 38.877 92.0752 40.1341Z" fill="white"/>
<path d="M84.6497 42.5552C82.9666 42.5552 81.531 41.3446 81.333 39.8081L80.6895 34.8262L80.937 34.7331C81.2835 34.64 81.6795 34.5469 82.026 34.5469H94.0552L94.1047 34.7797C94.1542 34.8728 94.1542 35.0125 94.1542 35.1056C94.4017 37.0146 93.7087 38.9235 92.2236 40.3203C91.1345 41.3446 89.7979 41.9499 88.3129 42.1361L85.0457 42.5086C84.9467 42.5552 84.7982 42.5552 84.6497 42.5552ZM81.333 35.1987L81.927 39.715C82.125 41.1118 83.4616 42.1361 84.9962 41.9965L88.2634 41.624C89.5999 41.4843 90.8375 40.879 91.8276 39.9944C93.1641 38.7373 93.8077 37.0145 93.5601 35.2453V35.1987H81.9765C81.7785 35.1056 81.5805 35.1522 81.333 35.1987Z" fill="#DBDBDB"/>
<path d="M63.3634 119.193L68.8086 114.071C71.7788 111.277 76.5805 111.277 79.5507 114.071C82.5209 116.865 82.5209 121.381 79.5507 124.174L74.1054 129.296C71.1353 132.09 66.3335 132.09 63.3634 129.296C60.3932 126.502 60.3932 121.986 63.3634 119.193Z" fill="white"/>
<path d="M68.7099 131.949C66.5318 131.949 64.4527 131.157 62.9181 129.714C59.75 126.688 59.75 121.845 62.9181 118.819L68.3634 113.698C69.898 112.254 71.9771 111.463 74.1552 111.463C76.3333 111.463 78.4124 112.254 79.947 113.698C83.1152 116.724 83.1152 121.566 79.947 124.592L74.5017 129.714C72.9671 131.111 70.888 131.949 68.7099 131.949ZM74.1552 112.534C72.2741 112.534 70.5415 113.232 69.2049 114.443L63.7597 119.564C61.037 122.125 61.037 126.315 63.7597 128.876C65.0962 130.133 66.8288 130.785 68.7099 130.785C70.591 130.785 72.3236 130.086 73.6602 128.876L79.1055 123.754C81.8281 121.194 81.8281 117.003 79.1055 114.443C77.7689 113.186 75.9868 112.534 74.1552 112.534Z" fill="#DBDBDB"/>
<path d="M69.7003 116.817L71.4824 115.141C72.3734 114.303 73.8585 114.303 74.7495 115.141L78.3137 118.54C79.2048 119.378 79.2048 120.775 78.3137 121.613L76.5316 123.289C74.6505 125.058 71.5319 125.058 69.6508 123.289C67.8192 121.52 67.8192 118.586 69.7003 116.817Z" fill="white"/>
<path d="M73.1649 124.918C71.7788 124.918 70.4918 124.406 69.5017 123.475C67.4721 121.566 67.4721 118.493 69.5017 116.584L71.2838 114.908C71.7788 114.443 72.4224 114.163 73.1154 114.163C73.8085 114.163 74.452 114.443 74.947 114.908L78.5112 118.307C79.5508 119.285 79.5508 120.821 78.5112 121.799L76.7291 123.475C75.8381 124.406 74.5015 124.918 73.1649 124.918ZM73.1154 114.769C72.5709 114.769 72.0759 114.955 71.6798 115.327L69.8977 117.003C68.1156 118.68 68.1156 121.427 69.8977 123.103C70.7393 123.894 71.9273 124.36 73.1154 124.36C74.353 124.36 75.4915 123.894 76.3331 123.103L78.1152 121.427C78.9072 120.682 78.9072 119.471 78.1152 118.726L74.551 115.327C74.2045 114.955 73.6599 114.769 73.1154 114.769Z" fill="#DBDBDB"/>
<path d="M75.3437 131.996L79.5019 128.085C82.0265 125.711 86.0857 125.711 88.6104 128.085L88.8084 128.272C91.1845 130.553 91.1845 134.185 88.8084 136.466L84.4521 140.563C81.9275 142.938 77.8683 142.938 75.3437 140.563C72.819 138.235 72.819 134.371 75.3437 131.996Z" fill="white"/>
<path d="M79.8975 142.89C78.0164 142.89 76.2343 142.192 74.9473 140.935C72.2246 138.374 72.2246 134.137 74.9473 131.576L79.1055 127.665C80.4421 126.408 82.1747 125.71 84.0558 125.71C85.9369 125.71 87.7189 126.408 89.006 127.665L89.204 127.852C91.8277 130.319 91.8277 134.37 89.204 136.837L84.8478 140.935C83.5112 142.238 81.7786 142.89 79.8975 142.89ZM84.0558 126.874C82.5212 126.874 81.0361 127.433 79.947 128.503L75.7888 132.414C73.5117 134.556 73.5117 138.048 75.7888 140.19C76.8779 141.214 78.3629 141.819 79.8975 141.819C81.4321 141.819 82.9172 141.261 84.0062 140.19L88.3625 136.093C90.5406 134.044 90.5406 130.738 88.3625 128.69L88.1645 128.503C87.0754 127.479 85.5903 126.874 84.0558 126.874Z" fill="#DBDBDB"/>
<path d="M80.69 130.366L82.1256 129.016C82.8681 128.317 84.0562 128.317 84.7492 129.016L87.6203 131.716C88.3629 132.415 88.3629 133.532 87.6203 134.184L86.1848 135.534C84.6502 136.977 82.1751 136.977 80.69 135.534C79.1554 134.137 79.1554 131.809 80.69 130.366Z" fill="white"/>
<path d="M83.4121 136.931C82.2736 136.931 81.234 136.512 80.442 135.767C78.8084 134.23 78.8084 131.716 80.442 130.179L81.8776 128.829C82.2736 128.457 82.8181 128.224 83.4121 128.224C84.0062 128.224 84.5507 128.457 84.9467 128.829L87.8179 131.53C88.6594 132.321 88.6594 133.625 87.8179 134.416L86.3823 135.767C85.5903 136.512 84.5507 136.931 83.4121 136.931ZM83.4121 128.783C83.0161 128.783 82.6201 128.922 82.3231 129.202L80.8875 130.552C79.5014 131.856 79.5014 134.044 80.8875 135.348C81.5805 135.999 82.4716 136.325 83.4121 136.325C84.3527 136.325 85.2932 135.953 85.9368 135.348L87.3724 133.997C87.9664 133.439 87.9664 132.507 87.3724 131.902L84.5012 129.202C84.2537 128.922 83.8577 128.783 83.4121 128.783Z" fill="#DBDBDB"/>
<path d="M184.992 70.0259L201.823 54.1027L156.825 11.8738L139.994 27.7504L184.992 70.0259Z" fill="#FCD835"/>
<path d="M184.992 70.8167L139.152 27.7493L156.825 11.0811L202.664 54.1484L184.992 70.8167ZM140.835 27.7493L184.992 69.2336L200.981 54.1484L156.825 12.6641L140.835 27.7493Z" fill="#DBDBDB"/>
<path d="M193.654 70.585L213.158 55.0341L164.547 0.79248L144.993 16.3433L193.654 70.585Z" fill="white"/>
<path d="M193.605 71.3286L193.209 70.9096L144.151 16.2491L164.596 0L214 55.0795L193.605 71.3286ZM145.834 16.3888L193.704 69.7922L212.317 54.9864L164.447 1.58301L145.834 16.3888Z" fill="#DBDBDB"/>
<path d="M92.0753 119.564C92.0753 121.613 90.3427 123.242 88.1646 123.242C85.9865 123.242 84.2539 121.613 84.2539 119.564C84.2539 117.515 85.9865 115.886 88.1646 115.886C90.3427 115.886 92.0753 117.515 92.0753 119.564Z" fill="#FCD835"/>
<path d="M88.1648 123.522C85.8381 123.522 83.957 121.752 83.957 119.564C83.957 117.376 85.8381 115.606 88.1648 115.606C90.4914 115.606 92.3725 117.376 92.3725 119.564C92.3725 121.752 90.4914 123.522 88.1648 123.522ZM88.1648 116.165C86.1847 116.165 84.5511 117.702 84.5511 119.564C84.5511 121.427 86.1847 122.963 88.1648 122.963C90.1449 122.963 91.7785 121.427 91.7785 119.564C91.7785 117.702 90.1449 116.165 88.1648 116.165Z" fill="#DBDBDB"/>
<path d="M138.459 87.858C138.459 90.5119 136.182 92.6536 133.36 92.6536C130.539 92.6536 128.262 90.5119 128.262 87.858C128.262 85.2042 130.539 83.0625 133.36 83.0625C136.133 83.0625 138.459 85.2042 138.459 87.858Z" fill="#FCD835"/>
<path d="M133.311 92.9788C130.341 92.9788 127.915 90.6974 127.915 87.9038C127.915 85.1103 130.341 82.8289 133.311 82.8289C136.281 82.8289 138.707 85.1103 138.707 87.9038C138.756 90.6974 136.33 92.9788 133.311 92.9788ZM133.311 83.341C130.638 83.341 128.509 85.3896 128.509 87.8573C128.509 90.3714 130.687 92.3735 133.311 92.3735C135.984 92.3735 138.113 90.3249 138.113 87.8573C138.162 85.3896 135.984 83.341 133.311 83.341Z" fill="#DBDBDB"/>
<path d="M116.331 99.637C119.147 99.637 121.43 97.4898 121.43 94.8412C121.43 92.1926 119.147 90.0454 116.331 90.0454C113.515 90.0454 111.232 92.1926 111.232 94.8412C111.232 97.4898 113.515 99.637 116.331 99.637Z" fill="#FCD835"/>
<path d="M116.331 99.916C113.361 99.916 110.936 97.6346 110.936 94.8411C110.936 92.0475 113.361 89.7661 116.331 89.7661C119.301 89.7661 121.727 92.0475 121.727 94.8411C121.727 97.6346 119.301 99.916 116.331 99.916ZM116.331 90.3248C113.658 90.3248 111.53 92.3734 111.53 94.8411C111.53 97.3087 113.708 99.3573 116.331 99.3573C119.004 99.3573 121.133 97.3087 121.133 94.8411C121.133 92.3734 118.955 90.3248 116.331 90.3248Z" fill="#DBDBDB"/>
<path d="M104.005 105.365C104.005 108.018 101.728 110.16 98.9064 110.16C96.0847 110.16 93.8076 108.018 93.8076 105.365C93.8076 102.711 96.0847 100.569 98.9064 100.569C101.728 100.569 104.005 102.711 104.005 105.365Z" fill="#FCD835"/>
<path d="M98.9065 110.485C95.9364 110.485 93.5107 108.204 93.5107 105.41C93.5107 102.617 95.9364 100.335 98.9065 100.335C101.877 100.335 104.302 102.617 104.302 105.41C104.302 108.157 101.877 110.485 98.9065 110.485ZM98.9065 100.847C96.2334 100.847 94.1048 102.896 94.1048 105.363C94.1048 107.831 96.2829 109.88 98.9065 109.88C101.53 109.88 103.708 107.831 103.708 105.363C103.708 102.896 101.53 100.847 98.9065 100.847Z" fill="#DBDBDB"/>
</svg>
