<svg width="168" height="137" viewBox="0 0 168 137" fill="none" xmlns="http://www.w3.org/2000/svg">
<path d="M149.188 18.9656H13.541V114.445H149.188V18.9656Z" fill="white"/>
<path d="M150.111 115.35H12.541V18.0605H150.111V115.35ZM14.503 113.54H148.226V19.8702H14.503V113.54Z" fill="#DBDBDB"/>
<path d="M64.1755 46.9741C68.7855 45.5106 71.2617 40.8082 69.7062 36.4709C68.1507 32.1336 63.1526 29.8039 58.5425 31.2674C53.9325 32.7309 51.4563 37.4333 53.0118 41.7706C54.5673 46.1079 59.5654 48.4376 64.1755 46.9741Z" fill="#FCD835"/>
<path d="M61.3605 47.5952C56.3978 47.5952 52.3584 43.7949 52.3584 39.126C52.3584 34.457 56.3978 30.6567 61.3605 30.6567C66.3232 30.6567 70.3625 34.457 70.3625 39.126C70.3625 43.7949 66.3232 47.5952 61.3605 47.5952ZM61.3605 31.0187C56.6286 31.0187 52.7431 34.638 52.7431 39.126C52.7431 43.6139 56.5901 47.2333 61.3605 47.2333C66.0923 47.2333 69.9778 43.6139 69.9778 39.126C69.9778 34.638 66.0923 31.0187 61.3605 31.0187Z" fill="#DBDBDB"/>
<path d="M65.0148 49.8396H57.7054C53.4737 49.8396 50.0498 53.0608 50.0498 57.0422V75.6458H72.7089V57.0422C72.6704 53.0608 69.2465 49.8396 65.0148 49.8396Z" fill="#FCD835"/>
<path d="M72.9015 75.8623H49.8193V57.0414C49.8193 52.9514 53.3586 49.6216 57.7057 49.6216H65.0151C69.3622 49.6216 72.9015 52.9514 72.9015 57.0414V75.8623ZM50.2425 75.4642H72.4783V57.0414C72.4783 53.1686 69.1314 50.0197 65.0151 50.0197H57.7057C53.5894 50.0197 50.2425 53.1686 50.2425 57.0414V75.4642Z" fill="#DBDBDB"/>
<path d="M103.021 47.2934C107.813 46.4973 111.011 42.1976 110.165 37.6896C109.319 33.1816 104.749 30.1725 99.9571 30.9686C95.1655 31.7646 91.9672 36.0643 92.8133 40.5723C93.6594 45.0803 98.2296 48.0894 103.021 47.2934Z" fill="#FCD835"/>
<path d="M101.485 47.5952C96.5228 47.5952 92.4834 43.7949 92.4834 39.126C92.4834 34.457 96.5228 30.6567 101.485 30.6567C106.448 30.6567 110.488 34.457 110.488 39.126C110.488 43.7949 106.448 47.5952 101.485 47.5952ZM101.485 31.0187C96.7536 31.0187 92.8681 34.638 92.8681 39.126C92.8681 43.6139 96.7151 47.2333 101.485 47.2333C106.217 47.2333 110.103 43.6139 110.103 39.126C110.103 34.638 106.256 31.0187 101.485 31.0187Z" fill="#DBDBDB"/>
<path d="M105.139 49.8396H97.8294C93.5977 49.8396 90.1738 53.0608 90.1738 57.0422V75.6458H112.833V57.0422C112.833 53.0608 109.409 49.8396 105.139 49.8396Z" fill="#FCD835"/>
<path d="M113.026 75.8623H89.9434V57.0414C89.9434 52.9514 93.4826 49.6216 97.8298 49.6216H105.139C109.486 49.6216 113.026 52.9514 113.026 57.0414V75.8623ZM90.405 75.4642H112.641V57.0414C112.641 53.1686 109.294 50.0197 105.178 50.0197H97.8683C93.7519 50.0197 90.405 53.1686 90.405 57.0414V75.4642Z" fill="#DBDBDB"/>
<path d="M42.8168 66.5249C49.0432 65.4444 53.1596 59.8196 52.0111 53.9617C50.8626 48.1038 44.884 44.231 38.6576 45.3115C32.4313 46.3921 28.3149 52.0168 29.4634 57.8748C30.6119 63.7327 36.5905 67.6055 42.8168 66.5249Z" fill="#EAEAEA"/>
<path d="M40.7393 67.321C34.0454 67.321 28.6211 62.2177 28.6211 55.9199C28.6211 49.6222 34.0454 44.5188 40.7393 44.5188C47.4331 44.5188 52.8574 49.6222 52.8574 55.9199C52.819 62.2177 47.3946 67.321 40.7393 67.321ZM40.7393 45.7494C34.7764 45.7494 29.9291 50.3098 29.9291 55.9199C29.9291 61.53 34.7764 66.0905 40.7393 66.0905C46.7022 66.0905 51.5494 61.53 51.5494 55.9199C51.5494 50.3098 46.7022 45.7494 40.7393 45.7494Z" fill="#DBDBDB"/>
<path d="M45.4719 69.854H35.9697C30.4684 69.854 26.0059 74.0525 26.0059 79.2282V103.442H55.5127V79.2282C55.4742 74.0525 51.0117 69.854 45.4719 69.854Z" fill="#EAEAEA"/>
<path d="M56.1278 104.093H25.3516V79.2645C25.3516 73.7631 30.1219 69.2751 35.9694 69.2751H45.51C51.3575 69.2751 56.1278 73.7631 56.1278 79.2645V104.093ZM26.6211 102.863H54.8198V79.2283C54.8198 74.3784 50.6266 70.4333 45.4715 70.4333H35.9694C30.8143 70.4333 26.6211 74.3784 26.6211 79.2283V102.863Z" fill="#DBDBDB"/>
<path d="M91.9584 59.9864C94.3377 54.4662 91.5101 48.1765 85.6427 45.938C79.7753 43.6994 73.09 46.3597 70.7106 51.8798C68.3312 57.4 71.1588 63.6897 77.0262 65.9283C82.8936 68.1669 89.579 65.5066 91.9584 59.9864Z" fill="#EAEAEA"/>
<path d="M81.3272 67.3215C74.6333 67.3215 69.209 62.2182 69.209 55.9204C69.209 49.6226 74.6333 44.5193 81.3272 44.5193C88.0211 44.5193 93.4454 49.6226 93.4454 55.9204C93.4454 62.2182 88.0211 67.3215 81.3272 67.3215ZM81.3272 45.7499C75.3643 45.7499 70.517 50.3103 70.517 55.9204C70.517 61.5305 75.3643 66.0909 81.3272 66.0909C87.2901 66.0909 92.1374 61.5305 92.1374 55.9204C92.1374 50.3103 87.3286 45.7499 81.3272 45.7499Z" fill="#DBDBDB"/>
<path d="M86.0973 69.854H76.5566C71.0553 69.854 66.5928 74.0525 66.5928 79.2282V103.442H96.0996V79.2282C96.0996 74.0525 91.637 69.854 86.0973 69.854Z" fill="#EAEAEA"/>
<path d="M96.7148 104.093H65.9385V79.2645C65.9385 73.7631 70.7088 69.2751 76.5563 69.2751H86.097C91.9445 69.2751 96.7148 73.7631 96.7148 79.2645V104.093ZM67.2465 102.863H95.4453V79.2283C95.4453 74.3784 91.252 70.4333 86.097 70.4333H76.5563C71.4013 70.4333 67.208 74.3784 67.208 79.2283V102.863H67.2465Z" fill="#DBDBDB"/>
<path d="M130.057 63.5518C134.534 59.3398 134.534 52.5108 130.057 48.2988C125.58 44.0868 118.322 44.0868 113.845 48.2988C109.368 52.5108 109.368 59.3398 113.845 63.5518C118.322 67.7638 125.58 67.7638 130.057 63.5518Z" fill="#EAEAEA"/>
<path d="M121.951 67.3213C115.257 67.3213 109.833 62.2179 109.833 55.9202C109.833 49.6224 115.257 44.519 121.951 44.519C128.645 44.519 134.069 49.6224 134.069 55.9202C134.069 62.2179 128.645 67.3213 121.951 67.3213ZM121.951 45.7496C115.988 45.7496 111.141 50.3101 111.141 55.9202C111.141 61.5302 115.988 66.0907 121.951 66.0907C127.914 66.0907 132.761 61.5302 132.761 55.9202C132.761 50.3101 127.914 45.7496 121.951 45.7496Z" fill="#DBDBDB"/>
<path d="M126.721 69.854H117.181C111.679 69.854 107.217 74.0525 107.217 79.2282V103.442H136.724V79.2282C136.685 74.0525 132.223 69.854 126.721 69.854Z" fill="#EAEAEA"/>
<path d="M137.339 104.093H106.562V79.2645C106.562 73.7631 111.333 69.2751 117.18 69.2751H126.721C132.569 69.2751 137.339 73.7631 137.339 79.2645V104.093ZM107.87 102.863H136.069V79.2283C136.069 74.3784 131.876 70.4333 126.721 70.4333H117.18C112.025 70.4333 107.832 74.3784 107.832 79.2283V102.863H107.87Z" fill="#DBDBDB"/>
<path d="M34.0853 78.7451C37.3335 71.5729 33.7868 63.2813 26.1635 60.2253C18.5402 57.1693 9.72718 60.5062 6.479 67.6784C3.23083 74.8506 6.77754 83.1422 14.4008 86.1981C22.0241 89.2541 30.8371 85.9173 34.0853 78.7451Z" fill="white"/>
<path d="M20.2738 88.2412C11.4641 88.2412 4.30859 81.5092 4.30859 73.2208C4.30859 64.9325 11.4641 58.2004 20.2738 58.2004C29.0835 58.2004 36.239 64.9325 36.239 73.2208C36.239 81.5092 29.0835 88.2412 20.2738 88.2412ZM20.2738 60.0101C12.5413 60.0101 6.23211 65.9459 6.23211 73.2208C6.23211 80.4958 12.5413 86.4315 20.2738 86.4315C28.0064 86.4315 34.3155 80.4958 34.3155 73.2208C34.3155 65.9459 28.0064 60.0101 20.2738 60.0101Z" fill="#DBDBDB"/>
<path d="M26.5063 91.4619H14.0418C6.80941 91.4619 0.961914 96.9634 0.961914 103.768V135.474H39.5862V103.768C39.5862 96.9634 33.7387 91.4619 26.5063 91.4619Z" fill="white"/>
<path d="M40.5479 136.378H0V103.768C0 96.4925 6.30915 90.5566 14.0417 90.5566H26.5061C34.2387 90.5566 40.5479 96.4925 40.5479 103.768V136.378ZM1.92352 134.569H38.5859V103.768C38.5859 97.5059 33.1615 92.3663 26.4677 92.3663H14.0417C7.34786 92.3663 1.92352 97.4697 1.92352 103.731V134.569Z" fill="#DBDBDB"/>
<path d="M64.292 86.9628C72.3636 85.2009 77.3888 77.6166 75.5161 70.0226C73.6434 62.4287 65.582 57.7008 57.5104 59.4627C49.4388 61.2246 44.4136 68.8089 46.2863 76.4029C48.159 83.9968 56.2204 88.7247 64.292 86.9628Z" fill="white"/>
<path d="M60.8989 88.2407C52.0891 88.2407 44.9336 81.5087 44.9336 73.2203C44.9336 64.932 52.0891 58.2 60.8989 58.2C69.7086 58.2 76.8641 64.932 76.8641 73.2203C76.8641 81.5087 69.7086 88.2407 60.8989 88.2407ZM60.8989 60.0096C53.1663 60.0096 46.8571 65.9454 46.8571 73.2203C46.8571 80.4953 53.1663 86.431 60.8989 86.431C68.6314 86.431 74.9406 80.4953 74.9406 73.2203C74.9406 65.9454 68.6314 60.0096 60.8989 60.0096Z" fill="#DBDBDB"/>
<path d="M67.1313 91.4619H54.6668C47.4344 91.4619 41.5869 96.9634 41.5869 103.768V135.474H80.2112V103.768C80.1727 96.9634 74.3252 91.4619 67.1313 91.4619Z" fill="white"/>
<path d="M81.1344 136.378H40.625V103.768C40.625 96.4925 46.9342 90.5566 54.6667 90.5566H67.1311C74.8637 90.5566 81.1729 96.4925 81.1729 103.768V136.378H81.1344ZM42.5485 134.569H79.2109V103.768C79.2109 97.5059 73.7865 92.3663 67.0927 92.3663H54.6282C47.9729 92.3663 42.5101 97.4697 42.5101 103.768V134.569H42.5485Z" fill="#DBDBDB"/>
<path d="M114.879 79.6197C118.631 72.669 115.683 64.1727 108.295 60.6427C100.907 57.1127 91.8766 59.8859 88.1246 66.8366C84.3726 73.7874 87.3202 82.2837 94.7081 85.8137C102.096 89.3436 111.127 86.5705 114.879 79.6197Z" fill="white"/>
<path d="M101.485 88.2415C92.675 88.2415 85.5195 81.5094 85.5195 73.2211C85.5195 64.9327 92.675 58.2007 101.485 58.2007C110.294 58.2007 117.45 64.9327 117.45 73.2211C117.45 81.5094 110.294 88.2415 101.485 88.2415ZM101.485 60.0104C93.7522 60.0104 87.4431 65.9461 87.4431 73.2211C87.4431 80.496 93.7522 86.4318 101.485 86.4318C109.217 86.4318 115.526 80.496 115.526 73.2211C115.526 65.9461 109.256 60.0104 101.485 60.0104Z" fill="#DBDBDB"/>
<path d="M107.718 91.4619H95.2538C88.0213 91.4619 82.1738 96.9634 82.1738 103.768V135.474H120.798V103.768C120.798 96.9634 114.951 91.4619 107.718 91.4619Z" fill="white"/>
<path d="M121.759 136.378H81.25V103.768C81.25 96.4925 87.5591 90.5566 95.2917 90.5566H107.718C115.45 90.5566 121.759 96.4925 121.759 103.768V136.378ZM83.1735 134.569H119.836V103.768C119.836 97.5059 114.411 92.3663 107.718 92.3663H95.2532C88.5978 92.3663 83.1351 97.4697 83.1351 103.768V134.569H83.1735Z" fill="#DBDBDB"/>
<path d="M145.557 86.9487C153.621 85.1572 158.614 77.5546 156.71 69.9677C154.806 62.3809 146.725 57.6828 138.661 59.4743C130.597 61.2657 125.603 68.8684 127.507 76.4552C129.412 84.0421 137.492 88.7402 145.557 86.9487Z" fill="white"/>
<path d="M142.11 88.241C133.3 88.241 126.145 81.5089 126.145 73.2206C126.145 64.9322 133.3 58.2002 142.11 58.2002C150.92 58.2002 158.075 64.9322 158.075 73.2206C158.075 81.5089 150.92 88.241 142.11 88.241ZM142.11 60.0099C134.377 60.0099 128.068 65.9456 128.068 73.2206C128.068 80.4955 134.377 86.4313 142.11 86.4313C149.842 86.4313 156.152 80.4955 156.152 73.2206C156.152 65.9456 149.881 60.0099 142.11 60.0099Z" fill="#DBDBDB"/>
<path d="M148.342 91.4619H135.878C128.645 91.4619 122.798 96.9634 122.798 103.768V135.474H161.422V103.768C161.422 96.9634 155.575 91.4619 148.342 91.4619Z" fill="white"/>
<path d="M162.384 136.378H121.836V103.768C121.836 96.4925 128.145 90.5566 135.878 90.5566H148.342C156.075 90.5566 162.384 96.4925 162.384 103.768V136.378ZM123.798 134.569H160.46V103.768C160.46 97.5059 155.036 92.3663 148.342 92.3663H135.878C129.222 92.3663 123.759 97.4697 123.759 103.768V134.569H123.798Z" fill="#DBDBDB"/>
<path d="M18.735 7.96338H28.7373C34.7002 7.96338 39.5475 12.5238 39.5475 18.1338V28.3043V33.9143C36.8546 30.4035 32.5074 28.3043 27.8909 28.3043H18.735C12.7721 28.3043 7.9248 23.7439 7.9248 18.1338C7.9248 12.5238 12.7721 7.96338 18.735 7.96338Z" fill="#EAEAEA"/>
<path d="M39.9706 35.0356L39.2781 34.1308C36.6621 30.7286 32.4304 28.6656 27.9293 28.6656H18.7349C12.5412 28.6656 7.54004 23.9242 7.54004 18.1332C7.54004 12.3422 12.5797 7.60083 18.7349 7.60083H28.7372C34.931 7.60083 39.9321 12.3422 39.9321 18.1332V35.0356H39.9706ZM18.7349 8.3247C12.9644 8.3247 8.30945 12.7403 8.30945 18.1332C8.30945 23.5622 13.0028 27.9417 18.7349 27.9417H27.9293C32.2765 27.9417 36.3928 29.7514 39.2012 32.864V18.1332C39.2012 12.7041 34.5078 8.3247 28.7757 8.3247H18.7349Z" fill="#DBDBDB"/>
<g opacity="0.25">
<g opacity="0.25">
<g opacity="0.25">
<path opacity="0.25" d="M152.112 3.07739H138.339C130.107 3.07739 123.451 9.33894 123.451 17.0844V31.0915V38.8008C127.183 33.9508 133.146 31.0915 139.493 31.0915H152.15C160.383 31.0915 167.038 24.8299 167.038 17.0844C167 9.33894 160.306 3.07739 152.112 3.07739Z" fill="#FCD835"/>
</g>
</g>
</g>
<path d="M150.573 0.471436H136.801C128.568 0.471436 121.913 6.73298 121.913 14.4785V28.4855V36.1948C125.645 31.3448 131.608 28.4855 137.955 28.4855H150.612C158.845 28.4855 165.5 22.224 165.5 14.4785C165.462 6.76918 158.806 0.471436 150.573 0.471436Z" fill="white"/>
<path d="M121.374 37.75V14.5137C121.374 6.51486 128.299 0 136.801 0H150.573C159.075 0 166 6.51486 166 14.5137C166 22.5125 159.075 29.0273 150.573 29.0273H137.916C131.761 29.0273 125.914 31.8504 122.297 36.5556L121.374 37.75ZM136.801 0.977229C128.876 0.977229 122.413 7.05777 122.413 14.5137V34.8545C126.26 30.5837 131.953 28.0501 137.955 28.0501H150.611C158.536 28.0501 164.999 21.9696 164.999 14.5137C164.999 7.05777 158.498 0.977229 150.573 0.977229H136.801Z" fill="#DBDBDB"/>
</svg>
