<svg width="201" height="132" viewBox="0 0 201 132" fill="none" xmlns="http://www.w3.org/2000/svg">
<g opacity="0.25">
<path opacity="0.25" d="M198.342 125.252L186.15 117.697C186.214 117.517 186.278 117.336 186.342 117.156C187.398 113.544 185.126 109.842 181.285 108.879C177.445 107.885 173.509 110.022 172.485 113.634C172.389 113.965 172.325 114.296 172.293 114.658L139.748 119.865C138.916 118.029 137.252 116.524 135.012 115.952C134.276 115.771 133.572 115.681 132.868 115.711L116.164 53.7087C117.572 52.8359 118.692 51.5116 119.172 49.8261C120.228 46.2143 117.956 42.5122 114.115 41.549C110.275 40.5558 106.339 42.6928 105.315 46.3046C105.059 47.2376 104.995 48.2007 105.155 49.1037L58.4018 76.3125C57.4737 75.0784 56.0977 74.1153 54.4336 73.6939C52.0656 73.092 49.6655 73.6638 47.9374 75.0483L24.8327 55.635C25.1848 55.0932 25.4728 54.4913 25.6648 53.8592C26.7208 50.2474 24.4487 46.5453 20.6086 45.5822C18.2406 44.9802 15.8405 45.5521 14.0804 46.9366L2.56008 36.9741L0 39.4723L11.9044 49.796C11.8404 49.9464 11.8084 50.0969 11.7444 50.2474C10.6883 53.8592 12.9604 57.5613 16.8005 58.5244C18.6246 59.006 20.4806 58.7351 22.0487 57.9827L45.7614 77.9077C45.6974 78.0582 45.6334 78.2087 45.6014 78.3892C44.5453 82.001 46.8174 85.7031 50.6575 86.6662C54.4976 87.6595 58.4338 85.5225 59.4578 81.9107C59.6818 81.1583 59.7458 80.3757 59.6818 79.6233L106.659 52.2941C107.587 53.3475 108.835 54.1602 110.339 54.5515C111.075 54.7321 111.843 54.8224 112.579 54.7923L129.284 116.704C127.844 117.577 126.692 118.932 126.212 120.617C125.156 124.229 127.428 127.931 131.268 128.894C135.108 129.887 139.044 127.75 140.068 124.139C140.164 123.838 140.196 123.537 140.26 123.236L172.869 118.029C173.701 119.834 175.365 121.249 177.541 121.821C179.877 122.423 182.245 121.851 184.006 120.497L196.294 128.111L198.342 125.252Z" fill="#DBDBDB"/>
</g>
<path d="M17.7287 50.9084L0.992188 36.4312L3.52027 33.8428L19.1688 47.387L17.7287 50.9084Z" fill="#DBDBDB"/>
<path d="M17.9529 51.8413L0.192383 36.4611L3.48849 33.0901L19.841 47.2363L17.9529 51.8413ZM1.79243 36.4009L17.5049 50.0053L18.529 47.5373L3.58449 34.595L1.79243 36.4009Z" fill="#DBDBDB"/>
<path d="M132.42 121.639L112.196 46.5746L53.6658 80.6757L17.7607 50.4874L20.2568 47.8688L54.0818 76.2814L114.564 41.0667L135.204 117.636L180.358 110.413L199.334 122.211L197.254 125.131L179.526 114.115L132.42 121.639Z" fill="#DBDBDB"/>
<path d="M197.414 125.883L179.366 114.687L131.972 122.241L131.844 121.76L111.812 47.4171L53.57 81.3377L16.9609 50.5172L20.193 47.1161L54.1141 75.6191L114.916 40.2236L115.108 40.9159L135.621 117.004L180.454 109.841L200.102 122.03L197.414 125.883ZM179.622 113.573L197.094 124.408L198.534 122.362L180.23 110.984L134.789 118.238L134.66 117.757L114.212 41.9091L54.0181 76.9434L20.289 48.5909L18.529 50.4269L53.6981 79.9833L112.516 45.7316L112.708 46.4239L132.804 121.007L179.622 113.573Z" fill="#DBDBDB"/>
<path d="M53.8168 83.8267C57.7718 83.6639 60.8376 80.5164 60.6646 76.7966C60.4916 73.0768 57.1453 70.1933 53.1903 70.3561C49.2354 70.5189 46.1695 73.6664 46.3425 77.3862C46.5155 81.106 49.8619 83.9895 53.8168 83.8267Z" fill="white"/>
<path d="M53.5059 84.7388C52.8018 84.7388 52.0658 84.6485 51.3618 84.4679C49.2817 83.9261 47.5217 82.662 46.4337 80.8862C45.3456 79.1104 45.0896 77.0638 45.6336 75.0773C46.5937 71.7665 49.8258 69.449 53.4739 69.449C54.1779 69.449 54.9139 69.5393 55.6179 69.7199C59.9381 70.8335 62.4982 75.0171 61.3141 79.0803C60.3861 82.4212 57.154 84.7388 53.5059 84.7388ZM53.5059 71.2248C50.6898 71.2248 48.2257 73.0005 47.4897 75.5589C47.0417 77.0638 47.2657 78.659 48.0977 80.0134C48.9297 81.3678 50.2738 82.361 51.8738 82.7523C52.4178 82.9028 52.9619 82.963 53.5059 82.963C56.322 82.963 58.786 81.1872 59.5221 78.6289C60.4181 75.4987 58.466 72.2782 55.1379 71.4354C54.5939 71.285 54.0499 71.2248 53.5059 71.2248Z" fill="#DBDBDB"/>
<path d="M23.2606 54.7891C26.6882 52.9262 27.8612 48.8027 25.8806 45.579C23.9 42.3552 19.5157 41.252 16.0881 43.1148C12.6605 44.9777 11.4875 49.1012 13.4681 52.3249C15.4487 55.5487 19.833 56.6519 23.2606 54.7891Z" fill="white"/>
<path d="M19.6812 56.5974C18.9772 56.5974 18.2412 56.5071 17.5371 56.3265C13.217 55.2129 10.6569 51.0293 11.841 46.966C12.801 43.6552 16.0331 41.3376 19.6812 41.3376C20.3852 41.3376 21.1213 41.4279 21.8253 41.6085C23.9053 42.1503 25.6654 43.4144 26.7534 45.1902C27.8415 46.966 28.0975 49.0127 27.5534 50.9992C26.5614 54.2799 23.3293 56.5974 19.6812 56.5974ZM19.6812 43.0833C16.8651 43.0833 14.401 44.8591 13.665 47.4175C12.769 50.5477 14.7211 53.7682 18.0492 54.6109C18.5932 54.7614 19.1372 54.8216 19.6812 54.8216C22.4973 54.8216 24.9614 53.0458 25.6974 50.4875C26.1454 48.9826 25.9214 47.3874 25.0894 46.033C24.2573 44.6785 22.9133 43.6853 21.3133 43.294C20.7692 43.1736 20.2252 43.0833 19.6812 43.0833Z" fill="#DBDBDB"/>
<path d="M113.219 51.7209C117.178 51.7209 120.387 48.7025 120.387 44.979C120.387 41.2555 117.178 38.2371 113.219 38.2371C109.26 38.2371 106.051 41.2555 106.051 44.979C106.051 48.7025 109.26 51.7209 113.219 51.7209Z" fill="white"/>
<path d="M113.219 52.594C112.515 52.594 111.779 52.5037 111.075 52.3231C106.755 51.2095 104.195 47.0257 105.379 42.9624C106.339 39.6516 109.571 37.334 113.219 37.334C113.923 37.334 114.659 37.4243 115.363 37.6049C117.443 38.1466 119.203 39.4108 120.292 41.1866C121.38 42.9624 121.636 45.0091 121.092 46.9956C120.1 50.2764 116.867 52.594 113.219 52.594ZM113.219 39.1098C110.403 39.1098 107.939 40.8856 107.203 43.444C106.307 46.5743 108.259 49.7948 111.587 50.6376C112.131 50.7881 112.675 50.8483 113.219 50.8483C116.035 50.8483 118.499 49.0725 119.235 46.5141C119.683 45.0091 119.459 43.4139 118.627 42.0595C117.795 40.705 116.451 39.7118 114.851 39.3205C114.307 39.17 113.763 39.1098 113.219 39.1098Z" fill="#DBDBDB"/>
<path d="M141.149 120.67C141.925 117.019 139.407 113.467 135.525 112.737C131.643 112.007 127.866 114.376 127.091 118.027C126.315 121.678 128.833 125.23 132.715 125.96C136.597 126.69 140.373 124.321 141.149 120.67Z" fill="white"/>
<path d="M134.116 126.997C133.412 126.997 132.676 126.907 131.972 126.726C127.652 125.612 125.092 121.429 126.276 117.365C127.236 114.054 130.468 111.737 134.116 111.737C134.82 111.737 135.556 111.827 136.26 112.008C140.58 113.121 143.14 117.305 141.956 121.368C140.996 124.679 137.764 126.997 134.116 126.997ZM134.116 113.483C131.3 113.483 128.836 115.258 128.1 117.817C127.204 120.947 129.156 124.168 132.484 125.01C133.028 125.161 133.572 125.221 134.116 125.221C136.932 125.221 139.396 123.445 140.132 120.887C141.028 117.757 139.076 114.536 135.748 113.693C135.204 113.543 134.66 113.483 134.116 113.483Z" fill="#DBDBDB"/>
<path d="M183.955 118.158C187.391 116.309 188.583 112.19 186.617 108.958C184.651 105.726 180.272 104.605 176.835 106.454C173.399 108.304 172.207 112.423 174.173 115.655C176.139 118.886 180.518 120.008 183.955 118.158Z" fill="white"/>
<path d="M180.389 119.954C179.685 119.954 178.949 119.864 178.245 119.683C173.925 118.57 171.365 114.386 172.549 110.323C173.509 107.012 176.741 104.694 180.389 104.694C181.093 104.694 181.829 104.785 182.533 104.965C184.613 105.507 186.373 106.771 187.461 108.547C188.549 110.323 188.805 112.369 188.261 114.356C187.269 117.637 184.069 119.954 180.389 119.954ZM180.389 106.44C177.573 106.44 175.109 108.216 174.373 110.774C173.477 113.904 175.429 117.125 178.757 117.968C179.301 118.118 179.845 118.178 180.389 118.178C183.205 118.178 185.669 116.403 186.405 113.844C187.301 110.714 185.349 107.493 182.021 106.651C181.509 106.5 180.933 106.44 180.389 106.44Z" fill="#DBDBDB"/>
<path d="M184.101 113.243C184.645 111.316 183.461 109.36 181.413 108.818C179.365 108.307 177.285 109.42 176.709 111.347C176.165 113.273 177.349 115.229 179.397 115.771C181.445 116.313 183.525 115.169 184.101 113.243Z" fill="#DBDBDB"/>
<path d="M180.39 116.432C180.006 116.432 179.622 116.372 179.238 116.282C176.902 115.68 175.526 113.422 176.166 111.225C176.678 109.419 178.438 108.185 180.39 108.185C180.774 108.185 181.158 108.245 181.542 108.336C183.878 108.938 185.254 111.195 184.614 113.392C184.102 115.198 182.374 116.432 180.39 116.432ZM180.39 109.239C178.918 109.239 177.638 110.172 177.254 111.496C176.774 113.121 177.798 114.807 179.558 115.258C179.846 115.319 180.134 115.379 180.422 115.379C181.894 115.379 183.174 114.446 183.558 113.121C184.038 111.496 183.014 109.811 181.254 109.359C180.966 109.269 180.678 109.239 180.39 109.239Z" fill="#DBDBDB"/>
<path d="M137.883 120.097C138.315 118.144 136.982 116.232 134.906 115.825C132.83 115.419 130.796 116.673 130.364 118.626C129.932 120.579 131.265 122.491 133.342 122.897C135.418 123.304 137.451 122.05 137.883 120.097Z" fill="#DBDBDB"/>
<path d="M134.116 123.475C133.732 123.475 133.348 123.415 132.964 123.325C131.844 123.024 130.884 122.362 130.308 121.399C129.732 120.435 129.572 119.322 129.892 118.268C130.404 116.462 132.164 115.228 134.116 115.228C134.5 115.228 134.884 115.288 135.268 115.379C136.388 115.68 137.348 116.342 137.924 117.305C138.5 118.268 138.66 119.382 138.34 120.435C137.828 122.211 136.1 123.475 134.116 123.475ZM134.116 116.282C132.644 116.282 131.364 117.215 130.98 118.539C130.756 119.322 130.852 120.164 131.3 120.857C131.748 121.579 132.42 122.091 133.284 122.301C133.572 122.362 133.86 122.422 134.148 122.422C135.62 122.422 136.9 121.489 137.284 120.164C137.508 119.382 137.412 118.539 136.964 117.847C136.516 117.124 135.844 116.613 134.98 116.402C134.692 116.312 134.404 116.282 134.116 116.282Z" fill="#DBDBDB"/>
<path d="M116.901 45.9128C117.445 43.9866 116.261 42.0302 114.212 41.4884C112.164 40.9768 110.084 42.0904 109.508 44.0167C108.932 45.9429 110.148 47.8993 112.196 48.4411C114.244 48.9828 116.357 47.8391 116.901 45.9128Z" fill="#DBDBDB"/>
<path d="M113.22 49.1023C112.836 49.1023 112.452 49.0421 112.068 48.9518C109.732 48.3498 108.356 46.0925 108.996 43.8954C109.508 42.0895 111.268 40.8555 113.22 40.8555C113.604 40.8555 113.988 40.9157 114.372 41.006C115.492 41.3069 116.452 41.9691 117.028 42.9322C117.604 43.8954 117.764 45.009 117.444 46.0624C116.932 47.8382 115.204 49.1023 113.22 49.1023ZM113.22 41.9089C111.748 41.9089 110.468 42.8419 110.084 44.1662C109.604 45.7915 110.628 47.477 112.388 47.9285C112.676 47.9887 112.964 48.0489 113.252 48.0489C114.724 48.0489 116.004 47.1158 116.388 45.7915C116.612 45.009 116.516 44.1662 116.068 43.474C115.62 42.7516 114.948 42.24 114.084 42.0293C113.796 41.939 113.508 41.9089 113.22 41.9089Z" fill="#DBDBDB"/>
<path d="M57.1864 78.0277C57.7304 76.1014 56.5464 74.145 54.4983 73.6032C52.4502 73.0915 50.3702 74.2052 49.7941 76.1315C49.2501 78.0578 50.4342 80.0143 52.4822 80.5561C54.5303 81.0978 56.6424 79.9541 57.1864 78.0277Z" fill="#DBDBDB"/>
<path d="M53.506 81.2173C53.122 81.2173 52.738 81.1571 52.354 81.0668C50.0179 80.4648 48.6419 78.2074 49.2819 76.0102C49.7939 74.2043 51.554 72.9702 53.506 72.9702C53.89 72.9702 54.274 73.0304 54.658 73.1207C56.9941 73.7227 58.3701 75.9801 57.7301 78.1773C57.2181 79.9531 55.4901 81.2173 53.506 81.2173ZM53.506 74.0237C52.034 74.0237 50.7539 74.9567 50.3699 76.2811C49.8899 77.9064 50.9139 79.5919 52.674 80.0434C52.962 80.1036 53.25 80.1638 53.538 80.1638C55.0101 80.1638 56.2901 79.2308 56.6741 77.9064C57.1541 76.2811 56.1301 74.5956 54.37 74.1441C54.082 74.0538 53.794 74.0237 53.506 74.0237Z" fill="#DBDBDB"/>
<path d="M23.3606 49.916C23.9046 47.9897 22.7206 46.0333 20.6725 45.4916C18.6244 44.9498 16.5443 46.0935 15.9683 48.0198C15.3923 49.9461 16.6083 51.9025 18.6564 52.4442C20.7045 52.9559 22.8166 51.8122 23.3606 49.916Z" fill="#DBDBDB"/>
<path d="M19.6808 53.0754C19.2968 53.0754 18.9128 53.0152 18.5288 52.9249C16.1927 52.323 14.8167 50.0656 15.4567 47.8683C15.9687 46.0624 17.7288 44.8284 19.6808 44.8284C20.0649 44.8284 20.4489 44.8886 20.8329 44.9789C21.9529 45.2799 22.913 45.942 23.489 46.9052C24.065 47.8683 24.225 48.982 23.905 50.0355C23.393 51.8414 21.6649 53.0754 19.6808 53.0754ZM19.6808 45.8818C18.2088 45.8818 16.9288 46.8149 16.5447 48.1392C16.0647 49.7646 17.0888 51.4501 18.8488 51.9016C19.1368 51.9618 19.4248 52.022 19.7128 52.022C21.1849 52.022 22.4649 51.0889 22.849 49.7646C23.073 48.982 22.977 48.1392 22.5289 47.447C22.0809 46.7246 21.4089 46.2129 20.5449 46.0022C20.2569 45.942 19.9689 45.8818 19.6808 45.8818Z" fill="#DBDBDB"/>
<path d="M170.15 53.3468C168.838 37.2141 154.918 24.2117 137.765 23.068C132.517 22.7068 127.493 23.4592 122.949 25.0544C116.516 18.0717 107.044 13.6472 96.4519 13.6472C77.0913 13.6472 61.4108 28.3953 61.4108 46.6048C61.4108 55.3634 65.0589 63.3093 70.9791 69.2085C65.6349 74.5359 62.1468 81.5187 61.5068 89.1938C60.0988 106.621 73.0912 121.429 90.4677 124.258C86.9796 127.208 82.4994 129.285 77.5393 130.157C77.3153 130.188 77.3473 130.519 77.5713 130.489C87.6836 130.097 116.516 127.298 127.365 107.915C128.901 105.176 130.277 101.715 130.981 97.4407C131.333 95.6047 131.493 93.7085 131.493 91.7521C131.493 91.5113 131.493 91.2705 131.461 91.0599C139.493 93.4075 147.301 94.2503 152.262 94.5212C152.678 94.5513 152.774 93.9794 152.358 93.8891C148.101 92.8658 144.261 90.9395 141.221 88.351C158.566 85.582 171.558 70.7436 170.15 53.3468Z" fill="#FCD835"/>
<path d="M77.5388 131.903C76.6748 131.903 75.9707 131.301 75.9067 130.488C75.8427 129.675 76.4188 128.953 77.2508 128.802C80.8989 128.17 84.259 126.846 87.1071 124.98C79.4909 123.084 72.7066 118.93 67.7785 113.061C62.0823 106.289 59.3302 97.7712 60.0343 89.1029C60.6423 81.7891 63.7784 74.7762 68.9625 69.208C63.1063 62.9476 59.9062 54.9716 59.9062 46.6043C59.9062 27.6725 76.2907 12.2622 96.4194 12.2622C106.692 12.2622 116.452 16.3255 123.364 23.4286C127.172 22.1946 131.14 21.5927 135.205 21.5927C136.069 21.5927 136.965 21.6227 137.861 21.6829C155.717 22.8869 170.246 36.4311 171.59 53.2259C172.294 61.8942 169.542 70.4119 163.845 77.184C158.917 83.0532 152.133 87.2368 144.517 89.1029C146.949 90.668 149.701 91.872 152.709 92.5943C153.605 92.805 154.181 93.5876 154.053 94.4604C153.925 95.3333 153.189 95.9352 152.261 95.9352H152.133C147.397 95.6643 140.325 94.9119 132.9 92.9254C132.868 93.9186 132.772 94.9119 132.644 95.9051H132.676L132.388 97.6508C131.748 101.564 130.468 105.236 128.612 108.576C123.78 117.215 115.012 123.626 102.628 127.629C92.6113 130.879 82.6269 131.662 77.6028 131.872L77.5388 131.903ZM96.4194 15.0312C77.8908 15.0312 62.8503 29.2075 62.8503 46.6043C62.8503 54.7007 66.1144 62.3757 72.0026 68.275L72.9626 69.208L72.0026 70.1411C66.7225 75.3782 63.5224 82.1803 62.9463 89.2835C61.6023 105.657 73.5387 120.104 90.6912 122.873L93.6673 123.355L91.4272 125.251C90.0832 126.395 88.5791 127.418 87.0111 128.291C99.9395 126.575 118.02 121.579 126.052 107.282C127.556 104.604 128.644 101.684 129.284 98.5839L129.54 97.1994C129.86 95.3935 130.052 93.5575 130.052 91.7516C130.052 91.6312 130.052 91.5108 130.052 91.3603C130.052 91.27 130.052 91.1797 130.052 91.0593L130.02 89.133L131.972 89.7049C136.453 90.9991 140.837 91.8419 144.709 92.3535C143.109 91.4807 141.637 90.4574 140.325 89.3437L138.085 87.4475L141.061 86.966C158.213 84.1969 170.118 69.7498 168.806 53.3764C167.558 37.936 154.213 25.4753 137.797 24.3617C136.997 24.3015 136.165 24.2714 135.365 24.2714C131.332 24.2714 127.364 24.9336 123.588 26.2579L122.628 26.589L121.956 25.8666C115.428 19.0042 106.18 15.0312 96.4194 15.0312Z" fill="#DBDBDB"/>
<path d="M121.203 69.9126C134.887 57.042 134.887 36.1748 121.203 23.3042C107.518 10.4336 85.3319 10.4336 71.6476 23.3042C57.9634 36.1748 57.9634 57.042 71.6476 69.9126C85.3319 82.7832 107.518 82.7832 121.203 69.9126Z" fill="#DBDBDB"/>
<path d="M96.4185 80.0134C76.8339 80.0134 60.8975 65.0246 60.8975 46.6045C60.8975 28.1844 76.8339 13.1956 96.4185 13.1956C116.003 13.1956 131.94 28.1844 131.94 46.6045C131.972 65.0246 116.003 80.0134 96.4185 80.0134ZM96.4185 14.0985C77.378 14.0985 61.8575 28.666 61.8575 46.6045C61.8575 64.5129 77.3459 79.1105 96.4185 79.1105C115.491 79.1105 130.98 64.543 130.98 46.6045C130.98 28.666 115.491 14.0985 96.4185 14.0985Z" fill="#DBDBDB"/>
<path d="M79.8466 48.6594C81.7212 46.8963 81.7212 44.0378 79.8466 42.2747C77.9721 40.5116 74.9328 40.5116 73.0583 42.2747C71.1837 44.0378 71.1837 46.8963 73.0583 48.6594C74.9328 50.4225 77.9721 50.4225 79.8466 48.6594Z" fill="#FCD835"/>
<path d="M76.4498 50.3372C73.6017 50.3372 71.2656 48.14 71.2656 45.4613C71.2656 42.7826 73.6017 40.5854 76.4498 40.5854C79.2978 40.5854 81.6339 42.7826 81.6339 45.4613C81.6339 48.14 79.2978 50.3372 76.4498 50.3372ZM76.4498 41.2777C73.9857 41.2777 72.0016 43.1438 72.0016 45.4613C72.0016 47.7788 73.9857 49.6449 76.4498 49.6449C78.9138 49.6449 80.8979 47.7788 80.8979 45.4613C80.8979 43.1438 78.9138 41.2777 76.4498 41.2777Z" fill="#DBDBDB"/>
<path d="M98.4997 46.5102C99.1126 44.0844 97.5186 41.6505 94.9394 41.074C92.3602 40.4976 89.7725 41.9968 89.1596 44.4226C88.5467 46.8484 90.1407 49.2823 92.7199 49.8587C95.2991 50.4352 97.8868 48.936 98.4997 46.5102Z" fill="#FCD835"/>
<path d="M93.8268 50.3364C90.9787 50.3364 88.6426 48.1393 88.6426 45.4606C88.6426 42.7819 90.9787 40.5847 93.8268 40.5847C96.6749 40.5847 99.0109 42.7819 99.0109 45.4606C99.0109 48.1393 96.6749 50.3364 93.8268 50.3364ZM93.8268 41.277C91.3627 41.277 89.3786 43.143 89.3786 45.4606C89.3786 47.7781 91.3627 49.6442 93.8268 49.6442C96.2908 49.6442 98.2749 47.7781 98.2749 45.4606C98.2749 43.143 96.2908 41.277 93.8268 41.277Z" fill="#DBDBDB"/>
<path d="M118.478 41.4229C119.087 38.9963 117.49 36.5646 114.91 35.9916C112.33 35.4186 109.745 36.9213 109.135 39.3479C108.526 41.7745 110.124 44.2062 112.704 44.7792C115.284 45.3522 117.869 43.8495 118.478 41.4229Z" fill="#FCD835"/>
<path d="M170.148 53.3469C168.836 37.2143 154.916 24.2119 137.763 23.0682C117.251 21.6837 100.162 36.9133 100.162 55.9354C100.162 57.8616 100.354 59.7578 100.674 61.6239C101.378 65.8978 102.754 69.3591 104.29 72.0981C114.531 90.3977 140.803 93.9192 152.228 94.5814C152.644 94.6115 152.74 94.0396 152.324 93.9493C148.068 92.926 144.227 90.9997 141.187 88.4112C158.564 85.582 171.556 70.7436 170.148 53.3469Z" fill="#FCD835"/>
<path d="M152.26 95.0022H152.196C141.124 94.3701 114.275 90.8787 103.875 72.278C102.051 69.0274 100.835 65.4458 100.195 61.6534L100.099 61.0213C99.8106 59.3057 99.6826 57.5901 99.6826 55.9046C99.6826 37.4845 115.619 22.4956 135.204 22.4956C136.068 22.4956 136.932 22.5257 137.796 22.5859C155.172 23.7597 169.285 36.9427 170.629 53.2861C171.301 61.7437 168.645 70.0207 163.109 76.6122C157.86 82.8425 150.5 87.0864 142.308 88.6515C145.188 90.9088 148.676 92.5642 152.484 93.4672C152.9 93.5575 153.156 93.9187 153.092 94.3099C153.028 94.7313 152.676 95.0022 152.26 95.0022ZM101.251 62.1049C101.891 65.5962 103.043 68.8769 104.739 71.8567C114.499 89.2835 139.172 93.1361 150.82 93.9789C147.076 92.8953 143.652 91.0894 140.868 88.7117L140.132 88.0796L141.124 87.9291C158.756 85.0698 171.045 70.2013 169.669 53.3463C168.389 37.4544 154.66 24.6025 137.732 23.4888C136.9 23.4286 136.036 23.3986 135.204 23.3986C116.163 23.3986 100.643 37.9661 100.643 55.9046C100.643 57.7406 100.803 59.6368 101.155 61.5029L101.251 62.1049Z" fill="#DBDBDB"/>
<path d="M122.511 56.9691C123.121 54.5424 121.523 52.1108 118.943 51.5378C116.363 50.9648 113.778 52.4674 113.169 54.8941C112.559 57.3207 114.157 59.7523 116.737 60.3253C119.317 60.8983 121.902 59.3957 122.511 56.9691Z" fill="white"/>
<path d="M117.828 60.7808C114.98 60.7808 112.644 58.5836 112.644 55.9049C112.644 53.2262 114.98 51.0291 117.828 51.0291C120.676 51.0291 123.012 53.2262 123.012 55.9049C123.012 58.6137 120.676 60.7808 117.828 60.7808ZM117.828 51.7514C115.364 51.7514 113.38 53.6175 113.38 55.935C113.38 58.2525 115.364 60.1186 117.828 60.1186C120.292 60.1186 122.276 58.2525 122.276 55.935C122.276 53.6175 120.26 51.7514 117.828 51.7514Z" fill="#DBDBDB"/>
<path d="M138.603 59.1223C140.478 57.3592 140.478 54.5007 138.603 52.7375C136.729 50.9744 133.69 50.9744 131.815 52.7375C129.941 54.5007 129.941 57.3592 131.815 59.1223C133.69 60.8854 136.729 60.8854 138.603 59.1223Z" fill="white"/>
<path d="M135.204 60.7808C132.356 60.7808 130.02 58.5836 130.02 55.9049C130.02 53.2262 132.356 51.0291 135.204 51.0291C138.052 51.0291 140.388 53.2262 140.388 55.9049C140.388 58.6137 138.052 60.7808 135.204 60.7808ZM135.204 51.7514C132.74 51.7514 130.756 53.6175 130.756 55.935C130.756 58.2525 132.74 60.1186 135.204 60.1186C137.668 60.1186 139.652 58.2525 139.652 55.935C139.652 53.6175 137.636 51.7514 135.204 51.7514Z" fill="#DBDBDB"/>
<path d="M155.98 59.1216C157.855 57.3585 157.855 54.4999 155.98 52.7368C154.106 50.9737 151.067 50.9737 149.192 52.7368C147.317 54.4999 147.317 57.3585 149.192 59.1216C151.067 60.8847 154.106 60.8847 155.98 59.1216Z" fill="white"/>
<path d="M152.581 60.7808C149.733 60.7808 147.396 58.5836 147.396 55.9049C147.396 53.2262 149.733 51.0291 152.581 51.0291C155.429 51.0291 157.765 53.2262 157.765 55.9049C157.765 58.6137 155.429 60.7808 152.581 60.7808ZM152.581 51.7514C150.117 51.7514 148.133 53.6175 148.133 55.935C148.133 58.2525 150.117 60.1186 152.581 60.1186C155.045 60.1186 157.029 58.2525 157.029 55.935C157.029 53.6175 155.013 51.7514 152.581 51.7514Z" fill="#DBDBDB"/>
<path d="M131.46 91.7826C131.46 72.7907 114.371 57.5309 93.8586 58.9155C76.7061 60.0592 62.7856 73.0616 61.4736 89.1942C60.0656 106.621 73.058 121.429 90.4345 124.258C86.9464 127.208 82.4662 129.285 77.5061 130.158C77.2821 130.188 77.3141 130.519 77.5381 130.489C87.6504 130.098 116.483 127.298 127.332 107.915C128.868 105.176 130.244 101.715 130.948 97.4411C131.268 95.6352 131.46 93.739 131.46 91.7826Z" fill="white"/>
<path d="M77.5387 130.97C77.1867 130.97 76.8987 130.729 76.8667 130.398C76.8347 130.067 77.0587 129.766 77.4107 129.706C81.9228 128.923 86.019 127.117 89.3471 124.529C81.1228 122.964 73.7626 118.72 68.5464 112.489C63.0103 105.898 60.3222 97.6209 61.0262 89.1633C62.3383 72.82 76.4827 59.6068 93.8592 58.4631C94.7232 58.4029 95.5873 58.3728 96.4513 58.3728C116.036 58.3728 131.972 73.3617 131.972 91.7818C131.972 93.5877 131.812 95.3936 131.492 97.2296L131.46 97.5306C130.82 101.353 129.604 104.905 127.78 108.155C123.044 116.583 114.5 122.843 102.339 126.786C92.4192 129.976 82.5629 130.789 77.5387 130.97ZM96.4193 59.3058C95.5873 59.3058 94.7232 59.3359 93.8912 59.3961C76.9947 60.5399 63.2663 73.3617 61.9543 89.2536C60.5782 106.109 72.8666 120.977 90.4991 123.836L91.4911 123.987L90.7551 124.619C87.939 126.997 84.5469 128.803 80.8028 129.886C93.4752 128.983 117.252 124.95 126.884 107.734C128.548 104.754 129.732 101.473 130.372 97.9821L130.468 97.3801C130.82 95.514 130.98 93.6178 130.98 91.7818C130.98 73.8734 115.492 59.3058 96.4193 59.3058Z" fill="#DBDBDB"/>
<path d="M82.7986 94.5986C84.447 92.6458 84.1002 89.8058 82.0239 88.2554C79.9476 86.7051 76.9281 87.0313 75.2797 88.9841C73.6312 90.9369 73.9781 93.7769 76.0544 95.3273C78.1307 96.8776 81.1502 96.5514 82.7986 94.5986Z" fill="#FCD835"/>
<path d="M79.0426 96.6582C76.1945 96.6582 73.8584 94.4611 73.8584 91.7824C73.8584 89.1036 76.1945 86.9065 79.0426 86.9065C81.8907 86.9065 84.2267 89.1036 84.2267 91.7824C84.2267 94.4912 81.8907 96.6582 79.0426 96.6582ZM79.0426 87.5987C76.5785 87.5987 74.5944 89.4648 74.5944 91.7824C74.5944 94.0999 76.5785 95.966 79.0426 95.966C81.5067 95.966 83.4907 94.0999 83.4907 91.7824C83.4907 89.4648 81.5067 87.5987 79.0426 87.5987Z" fill="#DBDBDB"/>
<path d="M101.09 92.8294C101.695 90.4017 100.094 87.9723 97.5126 87.403C94.9316 86.8337 92.3486 88.3403 91.7433 90.7679C91.1381 93.1956 92.7398 95.6251 95.3209 96.1943C97.9019 96.7636 100.485 95.2571 101.09 92.8294Z" fill="#FCD835"/>
<path d="M96.4195 96.6582C93.5714 96.6582 91.2354 94.4611 91.2354 91.7824C91.2354 89.1036 93.5714 86.9065 96.4195 86.9065C99.2676 86.9065 101.604 89.1036 101.604 91.7824C101.604 94.4912 99.2676 96.6582 96.4195 96.6582ZM96.4195 87.5987C93.9554 87.5987 91.9714 89.4648 91.9714 91.7824C91.9714 94.0999 93.9554 95.966 96.4195 95.966C98.8836 95.966 100.868 94.0999 100.868 91.7824C100.868 89.4648 98.8836 87.5987 96.4195 87.5987Z" fill="#DBDBDB"/>
<path d="M118.463 92.8434C119.072 90.4168 117.474 87.9852 114.894 87.4122C112.314 86.8392 109.729 88.3419 109.12 90.7684C108.51 93.195 110.108 95.6266 112.688 96.1996C115.268 96.7726 117.853 95.2699 118.463 92.8434Z" fill="#FCD835"/>
<path d="M113.795 96.6582C110.947 96.6582 108.611 94.4611 108.611 91.7824C108.611 89.1036 110.947 86.9065 113.795 86.9065C116.644 86.9065 118.98 89.1036 118.98 91.7824C118.98 94.4912 116.644 96.6582 113.795 96.6582ZM113.795 87.5987C111.331 87.5987 109.347 89.4648 109.347 91.7824C109.347 94.0999 111.331 95.966 113.795 95.966C116.26 95.966 118.244 94.0999 118.244 91.7824C118.244 89.4648 116.26 87.5987 113.795 87.5987Z" fill="#DBDBDB"/>
</svg>
