<svg width="258" height="83" viewBox="0 0 258 83" fill="none" xmlns="http://www.w3.org/2000/svg">
<g clip-path="url(#clip0)">
<path d="M51.8422 55.6605C52.5884 56.1453 53.7251 56.9965 54.2408 57.9779L55.1041 57.5168C54.5845 56.5275 53.5962 55.6841 52.7993 55.1206C54.2955 55.0496 56.6237 55.2703 57.5573 57.166L58.4324 56.7285C57.1628 54.151 54.0884 54.0131 52.4008 54.155C53.2681 53.1461 55.0533 51.7746 57.8034 52.9727L58.1902 52.0701C55.0768 50.7144 52.9556 52.145 51.8461 53.3313V50.1587H50.8695V53.3313C49.7562 52.1411 47.6389 50.7104 44.5255 52.0701L44.9122 52.9727C47.6624 51.7746 49.4476 53.1461 50.3148 54.155C48.6272 54.0171 45.549 54.151 44.2833 56.7285L45.1583 57.166C46.0881 55.2743 48.4163 55.0496 49.9125 55.1206C49.1155 55.6841 48.1311 56.5275 47.6116 57.5128L48.4749 57.9739C48.9905 56.9926 50.1273 56.1413 50.8734 55.6566V69.3559H42.4082V70.3412H60.3153V69.3559H51.85V55.6605H51.8422Z" fill="#DBDBDB"/>
<path d="M211.677 53.8436C212.623 52.677 214.705 50.9272 217.994 52.3578L218.381 51.4553C214.771 49.8828 212.353 51.6405 211.138 52.9963V49.2246H210.162V52.9963C208.947 51.6405 206.529 49.8828 202.919 51.4553L203.306 52.3578C206.579 50.9311 208.665 52.677 209.619 53.8436C207.759 53.6662 204.138 53.7411 202.677 56.7167L203.552 57.1541C204.665 54.888 207.505 54.6988 209.205 54.8052C208.279 55.4398 207.072 56.4329 206.451 57.6113L207.314 58.0724C207.931 56.9019 209.314 55.893 210.162 55.353V69.3637H199.813V70.349H217.721V69.3637H211.138V55.353C211.99 55.893 213.373 56.9019 213.986 58.0724L214.849 57.6113C214.232 56.4329 213.021 55.4398 212.095 54.8052C213.795 54.6949 216.635 54.888 217.748 57.1541L218.623 56.7167C217.162 53.7372 213.533 53.6623 211.677 53.8436Z" fill="#DBDBDB"/>
<path d="M19.7626 52.0976C18.7938 52.0109 17.8953 52.0582 17.2352 52.1252C18.2665 50.7931 20.6806 48.6018 24.5753 50.2965L24.9621 49.394C20.79 47.5732 18.036 49.7172 16.7078 51.2542V46.8047H15.7312V51.2542C14.4069 49.7172 11.6529 47.5732 7.4769 49.394L7.86364 50.2965C11.7388 48.6058 14.1608 50.7931 15.1999 52.1252C14.5397 52.0543 13.6412 52.0109 12.6764 52.0976C10.0395 52.3341 8.15662 53.4494 7.2347 55.3293L8.10974 55.7668C9.43012 53.0789 12.8561 52.9331 14.7702 53.0829C13.7116 53.7923 12.2467 54.9549 11.5161 56.3461L12.3795 56.8072C13.11 55.416 14.7741 54.2298 15.7351 53.6307V69.273H11.7154V58.829H10.4927V57.5797H1.22271V58.829H0V83.0039H0.976607V59.8143H2.19932V58.565H9.51996V59.8143H10.7427V70.2583H20.3916V69.273H16.7117V53.6307C17.6688 54.2298 19.3368 55.416 20.0673 56.8072L20.9306 56.3461C20.2001 54.9549 18.7313 53.7883 17.6727 53.0789C19.5868 52.9292 23.0128 53.0711 24.337 55.7668L25.2121 55.3293C24.2784 53.4494 22.3995 52.3301 19.7626 52.0976Z" fill="#DBDBDB"/>
<path d="M252.21 69.2731V57.6192C252.847 58.0448 253.746 58.7385 254.16 59.5306L255.023 59.0695C254.601 58.2655 253.832 57.5798 253.168 57.0871C254.445 57.0556 256.277 57.2999 257.027 58.8252L257.902 58.3877C256.828 56.2043 254.281 56.0151 252.781 56.1137C253.546 55.2742 255.031 54.2535 257.273 55.2309L257.66 54.3284C255.031 53.1854 253.214 54.3047 252.214 55.3176V52.7361H251.238V55.3176C250.472 54.5451 249.234 53.7096 247.523 53.8672V41.366H235.807V66.7074H234.561V54.1589H233.338V52.9253H224.069V54.1589H222.846V63.5821H220.424V28.715H211.287V32.329H209.197V37.4485H207.204V42.17H203.904V40.562H200.72V27.513H191.087V44.712H188.579V39.5137H185.993V38.4575H180.52V10.5425H168.097V18.074H165.609V27.513H164.413V69.2731H162.8V26.6065H160.613V24.5965H157.128V19.8869H147.592V38.4575H145.303V40.566H144.01V69.2731H138.518V42.17H136.029V19.8869H127.091V46.4895H122.892V24.6005H121.896V17.3685H119.208V12.852H118.193V0H110.47V12.852H108.977V24.6005H106.091V29.519H99.895V34.0395H90.8125V42.6745H89.0702V69.2731H85.6678V17.7666H84.574V15.6581H83.5544V13.8649H75.6126V20.281H74.0969V47.7821H71.3702V69.2731H68.7139V24.9276H64.7762V16.6788H48.9591V41.4291H37.7242V45.3741H33.8138V49.6975H25.583V69.7657H26.5596V50.6828H34.7905V46.3594H38.7008V42.4143H49.9357V17.6641H63.7996V25.9129H67.7373V75.4528H68.7139V70.2584H72.3468V48.7674H75.0735V21.2663H76.5892V14.8501H82.5778V16.6434H83.5974V18.7519H84.6911V70.2584H90.0469V43.6597H91.7891V35.0247H100.872V30.5043H107.067V25.5858H109.954V13.8373H111.446V0.98528H117.216V13.8373H118.232V18.3538H120.919V25.5818H121.915V47.4708H128.068V20.8682H135.053V43.1513H137.541V75.4449H138.518V70.2505H144.987V41.5434H146.28V39.4349H148.569V20.8722H156.151V25.5858H159.636V27.5957H161.824V70.2584H165.39V28.4982H166.585V19.0593H169.074V11.5278H179.543V39.4427H185.016V40.499H187.602V45.6973H192.063V28.4982H199.743V41.5512H202.927V43.1592H208.181V38.4338H210.173V33.3182H212.263V29.7042H219.447V69.7697H220.424V64.5713H223.822V55.1481H225.045V53.9145H232.362V55.1481H233.585V67.6966H236.784V42.3552H246.546V54.0603C246.304 54.1313 246.05 54.2219 245.792 54.3323L246.179 55.2348C246.304 55.1796 246.425 55.1323 246.546 55.0929V57.1423C246.152 57.4615 245.808 57.8675 245.546 58.3956L246.421 58.833C246.456 58.7582 246.503 58.6912 246.546 58.6242V70.2662H257.023V78.7633H258V69.281H252.21V69.2731ZM247.519 54.8604C249.011 54.6949 250.054 55.4555 250.66 56.1137C249.796 56.0585 248.593 56.0979 247.519 56.5551V54.8604ZM247.519 57.6665C248.37 57.1699 249.441 57.0674 250.273 57.0911C249.609 57.5798 248.839 58.2695 248.417 59.0695L249.281 59.5306C249.699 58.7385 250.593 58.0409 251.23 57.6192V69.2731H247.515V57.6665H247.519Z" fill="#DBDBDB"/>
<path d="M28.9503 27.2094C30.4817 27.2094 31.7239 28.4666 31.7239 30.0076H32.7005C32.7005 28.4627 33.9467 27.2094 35.4741 27.2094C36.5015 27.2094 37.439 27.7769 37.9234 28.6913L38.7867 28.2262C38.1304 26.9926 36.8648 26.2241 35.4741 26.2241C34.0756 26.2241 32.8568 27.0005 32.2122 28.1474C31.5677 27.0005 30.3488 26.2241 28.9503 26.2241C27.5636 26.2241 26.294 26.9926 25.6377 28.2262L26.501 28.6913C26.9854 27.7769 27.923 27.2094 28.9503 27.2094Z" fill="#DBDBDB"/>
<path d="M227.264 32.5143C228.795 32.5143 230.037 33.7716 230.037 35.3125H231.014C231.014 33.7676 232.26 32.5143 233.788 32.5143C234.815 32.5143 235.752 33.0819 236.237 33.9962L237.1 33.5311C236.444 32.2976 235.178 31.5291 233.788 31.5291C232.389 31.5291 231.17 32.3055 230.526 33.4523C229.881 32.3055 228.662 31.5291 227.264 31.5291C225.877 31.5291 224.607 32.2976 223.951 33.5311L224.815 33.9962C225.299 33.0819 226.236 32.5143 227.264 32.5143Z" fill="#DBDBDB"/>
<path d="M143.683 8.12238H144.659C144.659 6.57746 145.906 5.32418 147.433 5.32418V4.33496C146.034 4.33496 144.816 5.11136 144.171 6.25823C143.526 5.11136 142.308 4.33496 140.909 4.33496V5.32024C142.437 5.32024 143.683 6.57746 143.683 8.12238Z" fill="#DBDBDB"/>
</g>
<defs>
<clipPath id="clip0">
<rect width="258" height="83" fill="white"/>
</clipPath>
</defs>
</svg>
