<svg width="258" height="62" viewBox="0 0 258 62" fill="none" xmlns="http://www.w3.org/2000/svg">
<g clip-path="url(#clip0)">
<path d="M252.611 52.9376V48.6099H251.604V47.7627H250.003V47.0008H247.643V48.7838H245.703V48.1041H244.357V45.474H239.806V43.8617H234.329V44.4561H227.425V45.2179H224.308V21.6353H222.369V21.1674H223.382V18.4109H219.591V16.7133H217.149V8.26972H216.81V16.8808L213.568 18.0284V14.845H213.063V18.3666L211.629 19.3023V21.2528H212.429V22.1411H210.383V43.2927H204.15V50.7563H203.644V37.1284H203.026V35.2633L202.125 33.1136H200.948V31.9819L199.04 29.4941H197.976L195.224 31.8144V33.0599L192.977 36.5657V39.9039H184.44V40.8649H185.058V50.083H183.655V48.9513H183.037V42.6131H171.02V50.0229H169.673V50.6457H168.773V38.3138H165.069L164.338 37.4666H158.949V38.2601H154.398V43.5741H153.497V41.4276H149.96V35.9429H147.883L146.982 34.6974H139.854V35.8291C139.854 35.8291 138.169 35.8291 138.059 35.8291C137.949 35.8291 138.059 48.2716 138.059 48.2716H137.102V49.7985H135.206V52.9407H132.514V49.5045H132.809V47.5983L131.293 45.7743L129.692 47.6836V48.9987H128.848V47.8512H124.633V47.0135H124.429V46.4192H124.633V42.4044H124.429V41.8101H124.633V37.7954H124.429V37.2011H124.633V33.1864H124.429V32.592H124.633V28.571H124.429V27.9767H124.633V23.962H124.429V23.3676H124.633V19.3529H124.429V18.7586H124.633V14.7439H124.429V14.1496H124.633V10.1317H124.429V9.53736H124.633V5.52263H124.429V4.28344H121.438V4.75762H120.091V4.11273H118.66V3.55952H116.259V3.13908H115.628V0H114.957V3.73022L101.003 5.85139V35.2917H96.6782V34.1284C96.6782 34.1284 95.9501 32.3486 93.5052 32.3486C91.0634 32.3486 89.9398 34.669 89.9398 34.669H85.8158L83.7947 35.63V46.2927H82.5581V47.3233H82.0685L81.7735 47.0261H80.9041V47.5635H80.3988V35.2348H80.5934V33.9324H80.0034V32.8291L77.0846 29.3771H74.081V27.8818H73.7138V24.0062H73.2933V16.767L73.1552 16.5963V23.9778L72.675 25.5615V27.7965H72.1979V29.0989H69.502L66.0214 32.7185V34.4161H65.1834V40.5235H64.7346V41.5983H64.3956V51.6668H56.2544V49.631H52.1555V48.7237H50.8562V47.3739L49.2649 45.768H43.873V43.3496H42.9064V42.5435L41.8487 40.0841H40.6278V38.4276H36.711V39.6605H35.534V40.9345H34.5234V41.6141H33.8487V40.3402H33.2586V39.6637H24.1193L22.8985 41.317H21.4265V42.4202H19.9514V45.8976H19.2798V47.2569H17.086V46.4097H14.4747V45.5593H12.7078V44.8797H11.5246V46.239H8.74698V47.2569H7.99061V46.239H7.14635V47.4276H6.2205V47.8512H4.53512V49.6341L0 51.4739V61.4254H1.15497V60.2653V52.2579L4.96824 50.7026C5.40449 50.5224 5.69009 50.0988 5.69009 49.6246V49.005H6.21736C6.57828 49.005 6.89527 48.8406 7.10869 48.5814H7.14321C7.37546 48.5814 7.59202 48.5119 7.77405 48.3918C7.8431 48.4044 7.91214 48.4107 7.98747 48.4107H8.74385C9.33388 48.4107 9.81721 47.965 9.8894 47.3928H11.5214C11.9922 47.3928 12.3971 47.1115 12.5791 46.7068C12.6167 46.71 12.6607 46.7132 12.7046 46.7132H13.3574C13.4955 47.2 13.9412 47.5604 14.4685 47.5604H15.9718C16.1068 48.0472 16.5524 48.4076 17.0797 48.4076H19.2735C19.9106 48.4076 20.4253 47.886 20.4253 47.2474V46.9471C20.8239 46.7637 21.1001 46.3591 21.1001 45.8912V43.5772H21.4202C22.0354 43.5772 22.5407 43.0904 22.5721 42.474H22.8922C23.2594 42.474 23.6015 42.3001 23.818 42.0061L24.6937 40.8207H32.2041C32.3077 41.0451 32.4771 41.2316 32.6874 41.3517V41.611C32.6874 42.2527 33.2084 42.7711 33.8424 42.7711H34.5234C34.9879 42.7711 35.3897 42.4929 35.5717 42.0915C36.19 42.0725 36.6827 41.5604 36.6827 40.9313V40.8207H36.7078C37.3481 40.8207 37.8628 40.2991 37.8628 39.6605V39.5941H39.4728V40.0873C39.4728 40.729 39.9876 41.2474 40.6247 41.2474H41.0892L41.7483 42.7838V43.3496C41.7483 43.9281 42.1688 44.4055 42.718 44.4972V45.768C42.718 46.4097 43.2328 46.9313 43.8699 46.9313H48.7816L49.6981 47.8544V48.7237C49.6981 49.3654 50.2191 49.887 50.853 49.887H51.0256C51.1418 50.4023 51.6 50.7911 52.1524 50.7911H55.0963V51.6668C55.0963 52.3085 55.6173 52.8301 56.2512 52.8301H64.3925C65.0296 52.8301 65.5443 52.3085 65.5443 51.6668V42.4202C65.7546 42.2084 65.8833 41.9176 65.8833 41.5983V41.4466C66.1595 41.2316 66.3321 40.8997 66.3321 40.5235V35.5351C66.8154 35.3992 67.1763 34.9471 67.1763 34.4161V33.1895L69.9884 30.2622H72.1948C72.5275 30.2622 72.8256 30.12 73.039 29.8924C73.2242 30.278 73.6197 30.5436 74.0779 30.5436H76.5479L78.8421 33.2559V33.9324C78.8421 34.3086 79.0242 34.6437 79.2972 34.8555C79.2595 34.9724 79.2376 35.0989 79.2376 35.2317V47.5604C79.2376 48.2021 79.7586 48.7205 80.3925 48.7205H80.8978C81.196 48.7205 81.4722 48.6036 81.6762 48.4139C81.8017 48.4581 81.9273 48.4803 82.0622 48.4803H82.5518C83.1481 48.4803 83.6346 48.0282 83.6974 47.4497H83.7884C84.4255 47.4497 84.9402 46.9313 84.9402 46.2864V36.3602L86.0701 35.8228H89.9367C90.3729 35.8228 90.7715 35.5667 90.9724 35.1779C91.0069 35.1115 91.8323 33.5056 93.5052 33.5056C94.7574 33.5056 95.3223 34.1189 95.5232 34.4161V35.2854C95.5232 35.9271 96.0411 36.4456 96.6782 36.4456H101.003C101.64 36.4456 102.158 35.924 102.158 35.2854V6.8535L115.126 4.8809C115.359 4.84613 115.569 4.74497 115.729 4.5964C115.889 4.67859 116.071 4.726 116.262 4.726H117.681C117.885 5.05793 118.249 5.27605 118.663 5.27605H119.062C119.247 5.65856 119.643 5.9241 120.098 5.9241H121.444C121.824 5.9241 122.163 5.73759 122.376 5.44676H123.28V5.52579C123.28 5.77236 123.359 5.99997 123.487 6.18964V8.87667C123.359 9.06634 123.28 9.29395 123.28 9.54052V10.1348C123.28 10.3846 123.359 10.609 123.487 10.7987V13.4857C123.359 13.6722 123.28 13.903 123.28 14.1496V14.7439C123.28 14.9904 123.359 15.2181 123.487 15.4077V18.0947C123.359 18.2844 123.28 18.512 123.28 18.7586V19.3529C123.28 19.6026 123.359 19.8271 123.487 20.0168V22.7038C123.359 22.8903 123.28 23.1211 123.28 23.3676V23.962C123.28 24.2085 123.359 24.4361 123.487 24.6258V27.316C123.359 27.5025 123.28 27.7333 123.28 27.9798V28.5742C123.28 28.8207 123.359 29.0483 123.487 29.238V31.925C123.359 32.1115 123.28 32.3423 123.28 32.5889V33.1832C123.28 33.4298 123.359 33.6574 123.487 33.847V36.5372C123.359 36.7237 123.28 36.9545 123.28 37.2011V37.7954C123.28 38.042 123.359 38.2696 123.487 38.4592V41.1494C123.359 41.3359 123.28 41.5667 123.28 41.8133V42.4076C123.28 42.6542 123.359 42.8818 123.487 43.0714V45.7585C123.359 45.945 123.28 46.1758 123.28 46.4223V47.0166C123.28 47.2632 123.359 47.4908 123.487 47.6805V47.8544C123.487 48.4961 124.002 49.0177 124.639 49.0177H127.702C127.712 49.6531 128.223 50.162 128.854 50.162H129.698C130.335 50.162 130.853 49.6436 130.853 48.9987V48.1104L131.296 47.5825L131.66 48.0219V48.7332C131.478 48.9418 131.365 49.2105 131.365 49.5108V52.9471C131.365 53.5888 131.88 54.1072 132.52 54.1072H135.213C135.853 54.1072 136.368 53.5856 136.368 52.9471V50.9681H137.108C137.745 50.9681 138.263 50.4497 138.263 49.808V49.4255C138.499 49.3844 138.712 49.2706 138.882 49.0999C139.098 48.8786 139.22 48.5814 139.214 48.2716C139.183 44.6995 139.148 39.259 139.17 37.0019H139.858C140.485 37.0019 140.997 36.4993 141.013 35.8702H146.401L146.951 36.6384C147.17 36.9387 147.519 37.1157 147.886 37.1157H148.812V41.4403C148.812 42.082 149.326 42.6004 149.964 42.6004H152.349V43.5867C152.349 44.2316 152.864 44.75 153.501 44.75H154.401C155.038 44.75 155.556 44.2285 155.556 43.5867V39.4329H158.949C159.454 39.4329 159.887 39.101 160.041 38.6426H163.811L164.197 39.0883C164.416 39.3444 164.733 39.4898 165.072 39.4898H167.621V50.6583C167.621 51.3001 168.139 51.8217 168.776 51.8217H169.676C170.119 51.8217 170.502 51.5688 170.7 51.1989H171.023C171.66 51.1989 172.175 50.6773 172.175 50.0356V43.789H181.882V48.9608C181.882 49.4097 182.133 49.7985 182.5 49.9913V50.0925C182.5 50.7342 183.015 51.2527 183.655 51.2527H185.058C185.695 51.2527 186.213 50.7342 186.213 50.0925V41.0736H192.973C193.614 41.0736 194.128 40.5551 194.128 39.9134V36.9197L196.187 33.7016C196.31 33.5151 196.372 33.2938 196.372 33.0726V32.3708L198.391 30.67H198.469L199.79 32.3929V33.1263C199.79 33.768 200.311 34.2865 200.945 34.2865H201.356L201.871 35.5067V37.141C201.871 37.5868 202.119 37.9756 202.486 38.1684V50.769C202.486 51.4107 203.007 51.9323 203.641 51.9323H204.147C204.784 51.9323 205.298 51.4107 205.298 50.769V44.4655H210.38C211.017 44.4655 211.531 43.9439 211.531 43.3022V23.3013H212.426C213.063 23.3013 213.581 22.7828 213.581 22.1411V21.2528C213.581 20.7344 213.242 20.295 212.781 20.1464V19.9346L213.684 19.3434C213.775 19.2834 213.857 19.2138 213.926 19.1316C213.929 19.1285 213.939 19.1285 213.945 19.1253L217.187 17.9809C217.265 17.9525 217.338 17.9177 217.407 17.8766H218.43V18.4109C218.43 19.0558 218.951 19.5742 219.585 19.5742H222.221V20.0168C221.65 20.0863 221.207 20.5763 221.207 21.1706V21.6385C221.207 22.2802 221.725 22.7986 222.362 22.7986H223.147V45.2211C223.147 45.8628 223.665 46.3812 224.302 46.3812H227.418C227.917 46.3812 228.341 46.0619 228.501 45.6194H234.323C234.756 45.6194 235.133 45.3791 235.331 45.0251H238.642V45.474C238.642 46.1157 239.163 46.6373 239.797 46.6373H243.189V48.1041C243.189 48.7458 243.707 49.2643 244.344 49.2643H244.643C244.825 49.6657 245.226 49.9439 245.691 49.9439H247.63C248.267 49.9439 248.782 49.4223 248.782 48.7806V48.161H248.905C249.068 48.6067 249.495 48.9228 249.991 48.9228H250.48C250.603 49.3654 250.982 49.7037 251.447 49.7606V52.9344C251.447 53.339 251.66 53.7184 252.005 53.927L256.839 56.8764V60.2621H256.836V61.4223H257.991V56.2189L252.611 52.9376Z" fill="#DBDBDB"/>
</g>
<defs>
<clipPath id="clip0">
<rect width="258" height="61.4286" fill="white"/>
</clipPath>
</defs>
</svg>
