<svg width="258" height="111" viewBox="0 0 258 111" fill="none" xmlns="http://www.w3.org/2000/svg">
<g clip-path="url(#clip0)">
<path d="M257.277 35.631C257.141 35.631 257.004 35.5773 256.905 35.4623C256.715 35.2552 256.73 34.933 256.935 34.7412C257.049 34.6338 256.95 34.2119 256.897 34.0125C256.775 33.4832 256.753 33.0229 256.798 32.4246C256.798 32.4246 256.798 32.4246 256.798 32.4169C256.54 32.1638 256.266 31.9644 255.977 31.7496C255.627 31.4888 255.262 31.228 254.942 30.8828C254.456 30.3688 254.022 29.8012 253.596 29.2566C253.375 28.9804 253.163 28.6966 252.934 28.4281C252.775 28.2363 252.782 27.9525 252.942 27.7607C253.086 27.5997 253.261 27.5076 253.421 27.4462C253.201 27.3542 252.98 27.1931 252.919 26.8633C252.82 26.334 253.277 26.0118 253.452 25.8967C253.543 25.8354 253.642 25.4979 253.687 25.3598C253.725 25.2294 253.756 25.1373 253.779 25.0683C253.801 25.0069 253.817 24.9609 253.824 24.9225C253.824 24.9225 253.824 24.9225 253.817 24.9149C253.657 24.9072 253.452 24.8612 253.315 24.6617C253.109 24.3549 253.086 23.9944 253.071 23.7029C253.064 23.5264 253.056 23.327 253.003 23.2503C252.912 23.0969 252.478 23.0278 252.189 22.9818C252.06 22.9588 251.938 22.9435 251.824 22.9205C251.717 22.8974 251.497 22.8437 251.329 22.652C251.132 22.4142 251.101 22.0843 251.261 21.7698C251.367 21.5397 251.527 21.3786 251.664 21.2329C251.702 21.1945 251.74 21.1562 251.778 21.1101C251.984 20.8723 252.219 20.4811 251.908 19.7831C251.641 19.1848 251.094 18.6478 250.797 18.3793C250.584 18.1952 250.569 17.873 250.751 17.6583C250.934 17.4435 251.253 17.4205 251.466 17.6122C251.907 18.0034 252.501 18.6248 252.835 19.3612C253.239 20.2587 253.14 21.0948 252.546 21.7775C252.501 21.8312 252.455 21.8772 252.41 21.9309C252.394 21.9463 252.379 21.9616 252.364 21.9769C252.858 22.0536 253.528 22.1687 253.87 22.7057C254.068 23.0202 254.083 23.373 254.098 23.6569C254.106 23.7336 254.106 23.8256 254.113 23.9023C254.349 23.933 254.516 24.0481 254.615 24.2475C254.866 24.7461 254.912 24.9149 254.745 25.4058C254.722 25.4748 254.699 25.5515 254.669 25.6513C254.585 25.9428 254.463 26.3416 254.189 26.6178C254.41 26.6868 254.669 26.8172 254.798 27.1164C254.881 27.3158 254.882 27.5383 254.79 27.7377C254.676 27.9909 254.433 28.2057 254.136 28.313C254.22 28.4204 254.303 28.5278 254.395 28.6352C254.805 29.1645 255.231 29.7091 255.68 30.1847C255.939 30.4609 256.251 30.691 256.578 30.9288C256.897 31.1666 257.232 31.4121 257.528 31.7112C257.612 31.7956 257.703 31.903 257.764 32.0564C257.833 32.2328 257.817 32.3939 257.81 32.5013C257.772 32.9999 257.787 33.3605 257.878 33.7363C257.985 34.2043 258.167 34.9867 257.62 35.493C257.521 35.585 257.399 35.631 257.277 35.631Z" fill="#DBDBDB"/>
<path d="M257.027 109.486C256.821 109.486 256.616 109.478 256.403 109.455C256.403 109.44 256.395 109.417 256.395 109.401C256.365 109.21 256.312 108.918 256.068 108.703C255.825 108.489 255.528 108.473 255.33 108.458L255.406 106.947C255.414 106.755 255.315 106.571 255.155 106.479C254.882 106.325 254.577 106.226 254.258 106.195C254.205 103.924 254.136 101.654 254.06 99.3833C254.007 97.7648 253.961 96.1386 253.916 94.52L253.018 61.6658C252.896 57.2781 252.782 52.8904 252.661 48.5027C252.645 47.9043 252.623 47.306 252.6 46.7077C252.554 45.4574 252.509 44.161 252.516 42.8953C252.516 42.5194 253.802 41.76 254.882 41.4915C255.095 41.4378 255.254 41.2461 255.27 41.0236C255.277 40.9085 255.292 40.7705 255.308 40.6171C255.361 40.0648 255.422 39.4357 255.277 38.9832C255.178 38.661 254.92 38.4539 254.692 38.2698C254.593 38.1931 254.433 38.0627 254.418 38.009C254.509 37.8249 255.163 37.4106 255.475 37.2112C255.726 37.0501 255.939 36.912 256.091 36.797C256.266 36.6589 256.433 36.4978 256.616 36.3444C256.973 36.0222 257.346 35.6924 257.696 35.5006C257.939 35.3702 258.038 35.0557 257.901 34.8102C257.772 34.5648 257.46 34.465 257.217 34.6031C256.76 34.8486 256.342 35.2245 255.939 35.585C255.772 35.7307 255.612 35.8765 255.452 36.0069C255.353 36.0913 255.148 36.214 254.935 36.3521C254.19 36.82 253.649 37.1882 253.475 37.6331C253.185 38.3618 253.748 38.8221 254.053 39.0675C254.144 39.1443 254.281 39.2516 254.304 39.2977C254.387 39.5508 254.326 40.1338 254.288 40.525C254.288 40.5557 254.281 40.5864 254.281 40.6171C253.459 40.8932 251.505 41.6756 251.497 42.8953C251.489 44.184 251.535 45.488 251.581 46.7537C251.603 47.3521 251.626 47.9427 251.641 48.541C251.756 52.9287 251.877 57.3165 251.999 61.7042L252.896 94.5584C252.942 96.1769 252.988 97.8031 253.041 99.4217C253.117 101.8 253.185 104.178 253.239 106.548C253.239 106.632 253.246 106.878 253.459 107.062C253.657 107.231 253.878 107.215 253.969 107.215C254.106 107.208 254.243 107.223 254.372 107.261L254.311 108.535C254.304 108.65 254.296 108.834 254.395 109.026C254.6 109.447 255.034 109.478 255.27 109.493C255.308 109.493 255.353 109.501 255.384 109.493C255.391 109.524 255.399 109.555 255.399 109.586C255.437 109.8 255.498 110.169 255.863 110.368C256 110.445 256.137 110.46 256.213 110.468C256.487 110.506 256.76 110.514 257.027 110.521V109.486Z" fill="#DBDBDB"/>
<path d="M251.398 18.7552C251.215 18.7552 251.04 18.6555 250.949 18.4791C250.881 18.3487 250.797 18.2259 250.698 18.0955C250.485 17.7964 250.249 17.4512 250.196 16.9833C250.15 16.5997 250.249 16.2162 250.333 15.8403C250.394 15.5795 250.462 15.3033 250.455 15.1039C250.447 14.751 250.318 14.3752 250.188 13.9686C249.93 13.1785 249.633 12.2887 250.059 11.2685C250.15 11.046 250.272 10.8619 250.386 10.6932C250.607 10.3633 250.706 10.1946 250.645 9.91075C250.607 9.74966 250.523 9.65761 250.356 9.49652C250.166 9.31242 249.907 9.05928 249.785 8.61438C249.656 8.14645 249.755 7.64785 249.846 7.15692C249.892 6.90378 249.937 6.65831 249.945 6.46654L249.953 5.96027C249.96 5.48467 249.975 4.99374 249.953 4.52582C249.945 4.28802 249.93 4.05023 249.922 3.81243C249.877 2.72317 249.831 1.59556 249.618 0.621365C249.557 0.345215 249.724 0.0690648 249.998 0.00769817C250.272 -0.0536685 250.546 0.11509 250.607 0.39124C250.843 1.45749 250.896 2.62345 250.941 3.75874C250.949 3.99653 250.964 4.23433 250.972 4.46445C250.995 4.97073 250.987 5.477 250.979 5.96794L250.972 6.46654C250.972 6.75036 250.911 7.04952 250.858 7.34102C250.789 7.70922 250.713 8.10043 250.782 8.33823C250.827 8.50698 250.919 8.59903 251.078 8.75245C251.276 8.94422 251.55 9.20503 251.649 9.68062C251.809 10.4094 251.481 10.8926 251.238 11.2531C251.147 11.3912 251.056 11.5216 251.01 11.652C250.736 12.3194 250.934 12.9254 251.17 13.6311C251.322 14.0837 251.474 14.5593 251.489 15.0579C251.497 15.3954 251.421 15.7329 251.337 16.0628C251.268 16.3542 251.2 16.6534 251.223 16.8529C251.246 17.0676 251.375 17.2517 251.542 17.4895C251.641 17.6353 251.763 17.804 251.862 17.9881C251.991 18.2413 251.9 18.5481 251.649 18.6785C251.558 18.7322 251.474 18.7552 251.398 18.7552Z" fill="#DBDBDB"/>
<path d="M242.947 35.631C242.826 35.631 242.704 35.585 242.605 35.4929C242.057 34.9867 242.24 34.1966 242.339 33.7747C242.438 33.3528 242.453 32.9999 242.415 32.5013C242.407 32.3939 242.392 32.2328 242.461 32.0487C242.521 31.8953 242.613 31.7879 242.696 31.7035C243.001 31.3967 243.328 31.1589 243.655 30.9211C243.982 30.6756 244.294 30.4532 244.552 30.177C245.009 29.6938 245.427 29.1492 245.838 28.6275C245.921 28.5201 246.005 28.4128 246.089 28.3054C245.792 28.198 245.549 27.9832 245.435 27.73C245.343 27.5229 245.343 27.3082 245.427 27.1087C245.556 26.8019 245.815 26.6791 246.035 26.6101C245.762 26.334 245.648 25.9351 245.564 25.6589C245.526 25.5439 245.503 25.4595 245.48 25.3981C245.313 24.9072 245.359 24.7384 245.61 24.2398C245.708 24.0404 245.876 23.9253 246.112 23.8946C246.119 23.8179 246.127 23.7335 246.127 23.6568C246.142 23.373 246.157 23.0202 246.355 22.7057C246.69 22.1687 247.367 22.0536 247.861 21.9769C247.846 21.9616 247.831 21.9462 247.815 21.9309C247.77 21.8849 247.724 21.8312 247.678 21.7851C247.085 21.1024 246.986 20.2663 247.389 19.3688C247.716 18.6324 248.317 18.0111 248.758 17.6199C248.971 17.4358 249.291 17.4511 249.473 17.6659C249.656 17.8807 249.641 18.2029 249.428 18.387C249.131 18.6554 248.584 19.1847 248.317 19.7907C248.005 20.4888 248.241 20.88 248.447 21.1178C248.485 21.1561 248.523 21.2022 248.561 21.2405C248.698 21.3863 248.85 21.555 248.964 21.7775C249.116 22.0997 249.093 22.4295 248.895 22.6673C248.728 22.8591 248.507 22.9128 248.401 22.9358C248.294 22.9588 248.165 22.9818 248.036 22.9971C247.747 23.0432 247.313 23.1122 247.222 23.2656C247.169 23.35 247.161 23.5494 247.154 23.7182C247.138 24.0097 247.123 24.3702 246.91 24.6771C246.773 24.8842 246.568 24.9302 246.423 24.9302C246.416 24.9532 246.408 24.9685 246.408 24.9762C246.416 24.9685 246.439 25.0146 246.454 25.0836C246.477 25.1603 246.507 25.2447 246.545 25.3598C246.591 25.5208 246.69 25.8507 246.788 25.9121C246.963 26.0348 247.42 26.3493 247.321 26.8863C247.26 27.2161 247.032 27.3772 246.819 27.4692C246.979 27.5306 247.154 27.615 247.298 27.7837C247.465 27.9755 247.465 28.2517 247.306 28.4511C247.085 28.7196 246.865 29.0034 246.644 29.2796C246.218 29.8242 245.777 30.3918 245.298 30.9058C244.978 31.251 244.613 31.5194 244.263 31.7726C243.967 31.9874 243.685 32.1945 243.442 32.4399C243.442 32.4399 243.442 32.4399 243.442 32.4476C243.495 33.0459 243.465 33.5139 243.351 33.9971C243.29 34.2426 243.198 34.6722 243.305 34.7719C243.51 34.9636 243.525 35.2858 243.335 35.4929C243.221 35.5773 243.084 35.631 242.947 35.631Z" fill="#DBDBDB"/>
<path d="M243.077 110.514C242.788 110.514 242.499 110.498 242.217 110.46C241.936 110.429 241.738 110.168 241.776 109.892C241.807 109.608 242.065 109.409 242.339 109.447C242.833 109.509 243.335 109.509 243.837 109.447C243.837 109.432 243.845 109.417 243.845 109.401C243.875 109.21 243.929 108.918 244.172 108.703C244.416 108.489 244.712 108.473 244.91 108.458L244.834 106.947C244.826 106.755 244.925 106.571 245.085 106.479C245.359 106.318 245.671 106.226 245.982 106.195C246.036 103.924 246.104 101.661 246.173 99.3986C246.226 97.7724 246.271 96.1462 246.317 94.5276L247.253 60.3694C247.359 56.4189 247.466 52.4684 247.572 48.518C247.587 47.9196 247.61 47.3136 247.633 46.7153C247.679 45.465 247.724 44.1763 247.717 42.9106C247.717 42.5347 246.431 41.7753 245.351 41.5068C245.138 41.4531 244.978 41.2613 244.963 41.0389C244.956 40.9238 244.94 40.7858 244.925 40.6323C244.872 40.08 244.811 39.451 244.956 38.9984C245.054 38.6763 245.313 38.4692 245.541 38.2851C245.64 38.2084 245.8 38.078 245.823 38.0166C245.724 37.8402 245.07 37.4336 244.758 37.2342C244.507 37.0731 244.294 36.935 244.142 36.8199C243.967 36.6819 243.799 36.5208 243.617 36.3674C243.259 36.0452 242.887 35.7153 242.537 35.5236C242.293 35.3932 242.195 35.0787 242.331 34.8332C242.461 34.5877 242.773 34.488 243.016 34.6261C243.472 34.8715 243.891 35.2474 244.294 35.6079C244.461 35.7537 244.621 35.8994 244.781 36.0298C244.879 36.1142 245.085 36.2369 245.298 36.375C246.043 36.8429 246.583 37.2111 246.758 37.6561C247.047 38.3848 246.484 38.845 246.18 39.0905C246.089 39.1672 245.952 39.2746 245.922 39.3283C245.845 39.5738 245.899 40.1567 245.944 40.548C245.944 40.5786 245.952 40.6093 245.952 40.64C246.773 40.9162 248.728 41.6986 248.736 42.9182C248.743 44.1993 248.698 45.5033 248.652 46.769C248.629 47.3673 248.607 47.9657 248.591 48.564C248.485 52.5145 248.378 56.4649 248.272 60.4154L247.336 94.5736C247.291 96.1999 247.245 97.8261 247.192 99.4523C247.116 101.823 247.047 104.201 246.994 106.563C246.994 106.64 246.986 106.893 246.781 107.077C246.583 107.246 246.355 107.238 246.271 107.231C246.135 107.223 245.998 107.238 245.868 107.277L245.929 108.55C245.937 108.65 245.944 108.849 245.845 109.041C245.64 109.463 245.207 109.493 244.971 109.509C244.94 109.509 244.895 109.516 244.857 109.516C244.849 109.547 244.849 109.578 244.841 109.601C244.803 109.816 244.743 110.184 244.377 110.383C244.241 110.46 244.104 110.475 244.028 110.483C243.708 110.491 243.389 110.514 243.077 110.514Z" fill="#DBDBDB"/>
<path d="M248.834 18.7553C248.758 18.7553 248.675 18.7399 248.599 18.6939C248.348 18.5635 248.256 18.249 248.386 18.0035C248.485 17.8117 248.599 17.6507 248.705 17.5049C248.872 17.2671 249.002 17.0753 249.025 16.8682C249.047 16.6688 248.979 16.3696 248.91 16.0781C248.834 15.7483 248.751 15.4108 248.758 15.0733C248.774 14.5747 248.926 14.0991 249.078 13.6465C249.314 12.9408 249.511 12.3271 249.238 11.6674C249.184 11.537 249.101 11.4066 249.009 11.2685C248.774 10.908 248.439 10.4171 248.599 9.696C248.705 9.22041 248.971 8.9596 249.169 8.76783C249.336 8.60674 249.42 8.51469 249.466 8.35361C249.534 8.11581 249.458 7.73227 249.39 7.3564C249.336 7.06491 249.276 6.76574 249.276 6.48192L249.268 5.98332C249.26 5.49239 249.245 4.97844 249.276 4.47983C249.283 4.24971 249.298 4.01191 249.306 3.78179C249.352 2.6465 249.397 1.47287 249.641 0.406621C249.702 0.130471 249.975 -0.0382877 250.249 0.023079C250.523 0.0844457 250.698 0.360596 250.63 0.636746C250.409 1.61094 250.363 2.73855 250.325 3.82781C250.318 4.06561 250.302 4.30341 250.295 4.5412C250.272 5.00912 250.28 5.50006 250.295 5.97565L250.302 6.48192C250.302 6.67369 250.348 6.91916 250.401 7.1723C250.493 7.65556 250.591 8.16184 250.462 8.62976C250.34 9.07467 250.082 9.3278 249.892 9.5119C249.724 9.67299 249.641 9.75737 249.603 9.92613C249.542 10.2099 249.641 10.3787 249.861 10.7086C249.968 10.8696 250.097 11.0614 250.188 11.2839C250.614 12.3041 250.318 13.1939 250.059 13.984C249.922 14.3906 249.8 14.7664 249.793 15.1193C249.785 15.3187 249.854 15.5872 249.915 15.8557C250.006 16.2316 250.097 16.6151 250.051 16.9986C249.998 17.4742 249.762 17.8117 249.549 18.1109C249.458 18.2413 249.367 18.3717 249.298 18.4945C249.192 18.6555 249.009 18.7553 248.834 18.7553Z" fill="#DBDBDB"/>
<path d="M242.696 110.583C242.635 110.583 242.567 110.568 242.506 110.545C242.384 110.491 242.202 110.499 242.004 110.499C241.738 110.506 241.433 110.506 241.129 110.383C240.224 110.023 239.981 108.627 239.806 107.607C239.775 107.423 239.745 107.254 239.714 107.123C239.448 105.942 239.205 104.745 239.03 103.84C238.505 101.186 238.018 98.486 237.554 95.8702L237.539 95.7782C237.25 94.1443 236.946 92.3493 236.626 90.4316C236.086 87.1715 235.47 83.4818 234.717 79.5697C234.611 79.0021 234.519 78.4038 234.428 77.7747C234.23 76.4323 234.033 75.0439 233.607 73.9853C233.5 73.7245 233.63 73.4254 233.888 73.318C234.147 73.2106 234.443 73.341 234.55 73.6018C235.014 74.7831 235.227 76.2252 235.432 77.629C235.523 78.2503 235.607 78.8333 235.714 79.378C236.467 83.2977 237.083 87.0028 237.63 90.2629C237.95 92.1729 238.246 93.9602 238.536 95.5941L238.551 95.6861C239.015 98.2942 239.502 100.994 240.026 103.641C240.201 104.538 240.445 105.727 240.711 106.893C240.741 107.039 240.779 107.223 240.81 107.43C240.909 107.982 241.137 109.279 241.51 109.432C241.631 109.478 241.814 109.478 242.004 109.478C242.278 109.478 242.582 109.471 242.894 109.601C243.152 109.708 243.282 110.008 243.175 110.268C243.092 110.46 242.901 110.583 242.696 110.583Z" fill="#DBDBDB"/>
<path d="M234.101 74.591C233.888 74.591 233.69 74.4529 233.622 74.2382L233.493 73.8469C233.47 73.7702 233.439 73.6782 233.432 73.5555C233.409 73.2026 233.424 72.8497 233.439 72.5045C233.447 72.2974 233.455 72.098 233.462 71.8986C233.47 69.3058 233.5 66.7207 233.523 64.128V64.0283C233.538 62.4864 233.607 60.9523 233.675 59.4641C233.698 58.9195 233.729 58.3672 233.751 57.8226C233.797 56.7947 233.812 55.7668 233.835 54.7312C233.858 53.7647 233.873 52.7982 233.911 51.8393C233.949 50.7654 233.98 49.6838 234.002 48.6022C234.033 47.3749 234.056 46.1015 234.109 44.8512C234.132 44.3142 234.162 43.7696 234.185 43.2326C234.208 42.7877 234.231 42.3428 234.253 41.8979C234.276 41.407 234.291 40.9237 234.307 40.4328C234.307 40.3331 234.314 40.2257 234.329 40.1106C234.337 40.0109 234.345 39.9035 234.345 39.8038C234.276 39.8268 234.215 39.8575 234.147 39.8805C233.995 39.9418 233.82 39.9265 233.675 39.8345C233.538 39.7424 233.447 39.589 233.447 39.4202C233.417 38.6225 233.379 37.817 233.325 37.0269C233.242 37.0193 233.067 37.0193 232.975 37.0193C232.907 37.0193 232.839 37.0193 232.778 37.0193C232.344 37.0039 231.911 36.9809 231.477 36.9502C231.112 36.9272 230.815 36.9349 230.503 36.9425C230.108 36.9502 229.69 36.9656 229.172 36.9042C228.891 36.8735 228.693 36.6127 228.731 36.3366C228.762 36.0527 229.02 35.861 229.294 35.8916C229.743 35.9453 230.1 35.9377 230.473 35.9223C230.8 35.9147 231.135 35.907 231.546 35.93C231.971 35.9607 232.39 35.9837 232.816 35.999C232.861 35.999 232.915 35.999 232.968 35.999C233.303 35.999 233.865 35.9914 234.185 36.4363C234.314 36.6127 234.329 36.8045 234.337 36.9119C234.375 37.4948 234.405 38.0778 234.436 38.6685C234.482 38.6531 234.527 38.6378 234.565 38.6225C234.801 38.5381 235.067 38.6378 235.181 38.8679C235.402 39.2898 235.364 39.7884 235.333 40.1873C235.326 40.2794 235.318 40.3714 235.318 40.4558C235.303 40.9544 235.288 41.4453 235.265 41.9363C235.242 42.3812 235.219 42.8261 235.197 43.271C235.166 43.8079 235.143 44.3449 235.12 44.8819C235.067 46.1169 235.037 47.3826 235.014 48.6099C234.991 49.6991 234.968 50.7884 234.923 51.8623C234.885 52.8135 234.862 53.78 234.847 54.7389C234.824 55.7821 234.801 56.8177 234.763 57.8532C234.74 58.4055 234.717 58.9502 234.687 59.5025C234.618 60.9753 234.55 62.5018 234.535 64.0283V64.128C234.504 66.7131 234.482 69.3058 234.474 71.8909C234.474 72.1057 234.466 72.3204 234.451 72.5429C234.436 72.8727 234.421 73.1873 234.444 73.4864C234.444 73.4864 234.451 73.5094 234.459 73.5248L234.588 73.916C234.672 74.1845 234.527 74.4759 234.261 74.5603C234.208 74.5833 234.154 74.591 234.101 74.591Z" fill="#DBDBDB"/>
<path d="M223.118 58.1911C223.072 58.1911 223.027 58.1834 222.973 58.1757C222.471 58.0453 222.502 57.5237 222.548 56.7336C222.555 56.5725 222.563 56.4191 222.57 56.3117V55.8208C222.57 54.8236 222.578 53.88 222.525 52.8368C222.426 50.7043 222.471 48.7406 222.517 46.6541C222.54 45.5035 222.57 44.3145 222.57 43.1025C222.57 42.0363 222.593 40.6248 222.753 39.1981C222.768 39.0677 222.768 38.8682 222.761 38.6458C222.753 37.756 222.745 36.5286 223.666 36.1681C224 36.0377 224.441 36.0607 224.829 36.0837C224.974 36.0914 225.111 36.0991 225.217 36.0991C225.712 36.076 226.206 36.0607 226.7 36.0377C227.157 36.0147 227.674 36.007 228.191 35.9993C228.823 35.9917 229.484 35.9763 230.04 35.938C230.329 35.915 230.564 36.1297 230.58 36.4136C230.602 36.6974 230.389 36.9428 230.108 36.9582C229.522 36.9965 228.853 37.0119 228.207 37.0196C227.705 37.0272 227.203 37.0349 226.754 37.0579C226.252 37.0809 225.757 37.1039 225.255 37.1193C225.118 37.1269 224.951 37.1193 224.769 37.1039C224.525 37.0886 224.16 37.0733 224.023 37.1193C223.749 37.2267 223.757 38.2162 223.765 38.6381C223.765 38.8989 223.772 39.1214 223.749 39.3131C223.597 40.6862 223.574 42.0593 223.574 43.1025C223.574 44.3222 223.544 45.5188 223.521 46.6771C223.475 48.7406 223.43 50.689 223.529 52.7831C223.574 53.811 223.574 54.7392 223.574 55.7134C225.491 52.4686 230.207 46.6695 231.432 45.3578C231.622 45.1506 231.941 45.143 232.147 45.3347C232.352 45.5265 232.359 45.8487 232.169 46.0558C230.443 47.9121 224.525 55.3835 223.81 57.5007C223.803 57.516 223.795 57.5314 223.787 57.5467C223.696 57.7615 223.498 58.1911 223.118 58.1911Z" fill="#DBDBDB"/>
<path d="M198.657 110.422C198.383 110.422 198.155 110.199 198.148 109.923C198.14 109.639 198.361 109.409 198.642 109.401C198.893 109.394 199.152 109.386 199.403 109.371C199.41 109.317 199.418 109.263 199.425 109.21C199.448 109.026 199.479 108.841 199.494 108.657C199.547 108.005 199.547 107.33 199.555 106.678C199.555 106.348 199.562 106.019 199.57 105.689L201 37.9629C201.008 37.6331 201.008 37.3032 201.03 36.9734C201.046 36.6435 201.061 36.3674 201.008 36.1219L200.985 36.0299C200.947 35.8841 200.909 35.7077 200.924 35.5006L200.931 35.4392C200.939 35.2628 200.977 35.1861 201.061 35.048C202.909 31.9413 206.454 27.4462 212.919 23.5111C213.063 23.419 213.17 23.3577 213.215 23.327C213.421 23.1812 213.641 23.0432 213.923 22.9741C214.318 22.8821 214.714 22.9818 214.972 23.2349C215.353 23.6185 215.284 24.1017 215.246 24.3932C215.239 24.4546 215.231 24.5083 215.223 24.5697C215.163 25.5132 215.208 26.5104 215.246 27.4769C215.269 27.9755 215.292 28.4741 215.299 28.965L215.938 67.9942C215.999 71.7069 216.068 75.4196 216.129 79.14C216.189 82.5151 216.25 85.8903 216.311 89.2655C216.357 91.7892 216.402 94.3129 216.456 96.8366C216.935 91.6051 217.718 85.9747 218.852 79.6462C219.932 73.5786 221.323 66.5445 224.085 59.8478C225.568 56.2502 227.348 52.9671 229.226 49.4922C229.934 48.1881 230.664 46.8381 231.371 45.4727C231.5 45.2195 231.805 45.1275 232.056 45.2579C232.307 45.3883 232.398 45.6951 232.269 45.9483C231.554 47.3213 230.824 48.6714 230.116 49.9831C228.253 53.435 226.488 56.6951 225.02 60.2467C222.297 66.8513 220.92 73.8164 219.848 79.8303C218.091 89.6644 217.171 97.7878 216.95 105.359C217.011 105.459 217.034 105.581 217.018 105.696C216.988 105.95 216.775 106.141 216.516 106.141H216.174H216.167C215.916 106.141 215.703 105.957 215.665 105.704C215.581 105.136 215.581 104.553 215.588 103.993C215.588 103.763 215.588 103.533 215.581 103.311C215.535 101.401 215.497 99.4984 215.459 97.5883C215.406 94.8192 215.353 92.0423 215.299 89.2731C215.239 85.898 215.178 82.5228 215.117 79.1476C215.056 75.435 214.988 71.7223 214.927 68.0019L214.288 28.9727C214.28 28.4894 214.257 28.0062 214.242 27.5153C214.197 26.5257 214.159 25.4978 214.219 24.5006C214.227 24.4162 214.235 24.3319 214.25 24.2475C214.265 24.1554 214.288 24.002 214.265 23.9637C214.265 23.9637 214.25 23.9637 214.235 23.9637C214.219 23.9637 214.197 23.9637 214.174 23.9713C214.067 23.9943 213.938 24.0787 213.809 24.1708C213.755 24.2091 213.634 24.2858 213.459 24.3856C207.169 28.2056 203.738 32.5627 201.958 35.5466C201.958 35.5466 201.958 35.5466 201.958 35.5543V35.5926C201.958 35.631 201.974 35.7154 201.996 35.7844L202.027 35.8995C202.11 36.306 202.095 36.7049 202.072 37.0271C202.057 37.3416 202.05 37.6561 202.05 37.9706L201.707 54.2021L200.62 105.704C200.612 106.026 200.612 106.348 200.612 106.671C200.604 107.346 200.604 108.036 200.551 108.726C200.536 108.933 200.506 109.141 200.475 109.34C200.46 109.455 200.445 109.57 200.429 109.685C200.422 109.762 200.407 109.9 200.315 110.038C200.118 110.33 199.791 110.353 199.676 110.36C199.357 110.383 199.03 110.399 198.71 110.406C198.665 110.422 198.665 110.422 198.657 110.422Z" fill="#DBDBDB"/>
<path d="M198.855 110.46C198.375 110.452 197.866 110.376 197.828 109.524C197.82 109.34 197.828 109.164 197.843 108.987C197.851 108.872 197.858 108.757 197.858 108.642L197.828 45.1045V44.7746C197.835 43.7084 197.835 42.7879 197.417 41.852C197.409 41.8444 197.409 41.829 197.402 41.8214C197.371 41.8214 197.318 41.8214 197.242 41.8214C196.634 41.8597 196.025 41.806 195.439 41.76C194.877 41.714 194.352 41.6756 193.819 41.6986C193.234 41.7293 192.602 41.783 191.842 41.8751C191.72 41.8904 191.545 41.8981 191.34 41.8981C191.104 41.9057 190.64 41.9134 190.457 41.9748C190.457 42.0361 190.465 42.1435 190.48 42.2202C190.518 42.5348 190.587 43.1177 190.054 43.4629C189.758 43.6624 189.415 43.67 189.187 43.67C188.031 43.693 187.073 43.6854 186.183 43.6547C185.894 43.647 185.597 43.6163 185.3 43.5857C184.677 43.5243 184.038 43.4553 183.498 43.5933C183.216 43.6624 182.623 43.8158 182.258 43.3479C181.923 42.926 181.946 42.2049 182.007 41.3765C182.015 41.2384 182.022 41.1156 182.03 41.0236C182.037 40.2719 181.999 39.5048 181.908 38.7607L178.219 38.6303C178.204 38.6303 178.189 38.6303 178.174 38.6303C178.037 38.8528 178.037 39.1673 178.037 39.4894C178.029 40.1338 178.029 40.7705 178.029 41.4071L177.983 69.889C177.976 73.7857 177.968 77.6825 177.961 81.5716C177.953 85.2229 177.945 88.8743 177.93 92.5256C177.923 95.5402 177.907 98.5472 177.892 101.562V101.899C177.884 103.763 177.877 105.635 177.854 107.499C177.854 107.76 177.831 108.005 177.816 108.266L177.801 108.504C177.778 108.803 177.717 109.701 176.987 110.076C176.789 110.176 176.576 110.215 176.424 110.238C175.717 110.353 174.918 110.483 174.119 110.353C173.846 110.307 173.655 110.038 173.701 109.762C173.747 109.486 174.005 109.302 174.287 109.34C174.918 109.447 175.603 109.332 176.257 109.225C176.356 109.21 176.462 109.194 176.523 109.164C176.66 109.095 176.751 108.834 176.782 108.435L176.797 108.189C176.812 107.959 176.835 107.729 176.835 107.491C176.858 105.627 176.865 103.763 176.873 101.899V101.562C176.888 98.5549 176.896 95.5402 176.911 92.5256C176.926 88.8743 176.934 85.2229 176.941 81.5716C176.949 77.6748 176.957 73.7857 176.964 69.889L177.01 41.4071C177.01 40.7628 177.01 40.1184 177.017 39.4818C177.017 39.0445 177.025 38.4999 177.337 38.0473C177.451 37.8786 177.588 37.7558 177.748 37.6868C177.945 37.6024 178.128 37.6024 178.257 37.6101L182.06 37.7482C182.182 37.7558 182.463 37.7635 182.676 37.9859C182.844 38.1624 182.874 38.3772 182.889 38.4846C183.003 39.3283 183.049 40.1951 183.041 41.0466C183.041 41.154 183.034 41.2997 183.019 41.4608C183.003 41.7293 182.95 42.3967 183.026 42.6575C183.102 42.6498 183.201 42.6191 183.254 42.6115C183.969 42.435 184.7 42.5117 185.407 42.5808C185.681 42.6115 185.962 42.6345 186.221 42.6498C187.096 42.6805 188.031 42.6882 189.172 42.6652C189.271 42.6652 189.446 42.6575 189.499 42.6268C189.499 42.6038 189.484 42.4504 189.469 42.3583C189.431 42.0592 189.377 41.5529 189.78 41.2077C190.092 40.9469 190.61 40.9085 191.309 40.8932C191.469 40.8855 191.614 40.8855 191.712 40.8779C192.496 40.7781 193.15 40.7168 193.766 40.6938C194.359 40.6631 194.945 40.7168 195.515 40.7551C196.094 40.8011 196.641 40.8472 197.181 40.8165C197.387 40.8088 197.767 40.7858 198.064 41.0466C198.216 41.1847 198.292 41.3534 198.337 41.4455C198.847 42.5884 198.839 43.6624 198.839 44.7976V45.1275L198.87 108.665C198.87 108.811 198.862 108.949 198.855 109.079C198.847 109.21 198.839 109.332 198.839 109.463C198.847 109.463 198.855 109.463 198.855 109.463C199.136 109.463 199.357 109.693 199.357 109.977C199.364 110.238 199.136 110.46 198.855 110.46Z" fill="#DBDBDB"/>
<path d="M173.853 110.422C173.062 110.422 172.089 110.299 171.305 110.207C170.864 110.153 170.484 110.107 170.248 110.092C170.02 110.084 169.83 109.915 169.776 109.693C169.678 109.225 169.7 108.688 169.716 108.22C169.731 107.913 169.738 107.583 169.716 107.307C169.708 107.307 169.693 107.307 169.685 107.307C169.426 107.277 169.229 107.069 169.229 106.809L169.252 105.182C169.297 101.907 169.343 98.5165 169.175 95.3408C169.084 93.6148 169.084 91.8812 169.084 90.209C169.084 89.3115 169.084 88.4063 169.069 87.4935C169.046 85.6218 169.031 83.7425 169.023 81.8631L169.008 79.6999C168.978 74.361 168.94 69.0221 168.909 63.6832C168.871 57.232 168.833 50.7809 168.803 44.3297C168.772 38.4001 168.742 32.4783 168.704 26.5487L168.681 22.79C168.681 22.4908 168.704 22.1763 168.734 21.8388C168.803 20.995 168.879 20.0438 168.468 19.5606C168.088 19.1157 166.863 19.2691 166.133 19.3688C165.958 19.3918 165.806 19.4148 165.669 19.4225C165.395 19.4455 165.137 19.4302 164.886 19.4072L164.825 19.3995C164.041 19.3381 161.083 19.3151 160.254 19.3458C159.98 19.3611 159.736 19.1387 159.729 18.8549C159.721 18.571 159.934 18.3332 160.216 18.3256C161.083 18.2949 164.072 18.3179 164.908 18.3869L164.969 18.3946C165.182 18.4099 165.388 18.433 165.57 18.4099C165.692 18.3946 165.836 18.3793 165.996 18.3563C166.993 18.2258 168.491 18.0264 169.229 18.8932C169.913 19.691 169.822 20.8723 169.738 21.9155C169.716 22.23 169.693 22.5292 169.693 22.7823L169.716 26.541C169.746 32.4706 169.776 38.3925 169.814 44.322C169.852 50.7732 169.883 57.2244 169.921 63.6756C169.951 69.0145 169.982 74.3534 170.02 79.6923L170.035 81.8554C170.043 83.7271 170.058 85.5988 170.081 87.4705C170.096 88.391 170.096 89.2961 170.096 90.2013C170.096 91.9349 170.096 93.5765 170.18 95.2794C170.347 98.4858 170.301 101.892 170.256 105.182L170.24 106.141C170.408 106.249 170.567 106.448 170.643 106.778C170.758 107.223 170.742 107.752 170.72 108.258C170.704 108.535 170.697 108.834 170.712 109.102C170.917 109.125 171.161 109.156 171.419 109.187C172.172 109.279 173.108 109.394 173.838 109.394C174.119 109.394 174.348 109.624 174.348 109.908C174.363 110.191 174.135 110.422 173.853 110.422Z" fill="#DBDBDB"/>
<path d="M146.456 110.422C146.174 110.422 145.946 110.191 145.946 109.908C145.946 109.624 146.174 109.394 146.456 109.394C147.186 109.394 148.122 109.279 148.875 109.187C149.133 109.156 149.377 109.125 149.582 109.102C149.597 108.834 149.582 108.535 149.574 108.258C149.552 107.752 149.544 107.223 149.65 106.778C149.734 106.448 149.886 106.249 150.054 106.149L150.038 105.198C149.993 101.899 149.947 98.4935 150.114 95.2794C150.198 93.5765 150.198 91.9426 150.198 90.2013C150.198 89.2961 150.198 88.391 150.213 87.4705C150.236 85.5988 150.251 83.7271 150.259 81.8554L150.274 79.6923C150.305 74.3534 150.343 69.0145 150.373 63.6756C150.411 57.2244 150.449 50.7732 150.48 44.322C150.51 38.3925 150.548 32.4706 150.578 26.541L150.601 22.7823C150.601 22.5292 150.578 22.23 150.556 21.9155C150.472 20.8723 150.381 19.691 151.065 18.8932C151.803 18.0264 153.309 18.2258 154.298 18.3563C154.458 18.3793 154.602 18.3946 154.724 18.4099C154.906 18.4253 155.112 18.4099 155.325 18.3946L155.386 18.3869C156.215 18.3179 159.211 18.2949 160.079 18.3256C160.36 18.3332 160.581 18.571 160.565 18.8549C160.558 19.1387 160.314 19.3611 160.04 19.3458C159.219 19.3151 156.253 19.3381 155.469 19.3995L155.408 19.4072C155.157 19.4302 154.906 19.4532 154.625 19.4225C154.488 19.4072 154.336 19.3918 154.161 19.3688C153.431 19.2768 152.206 19.1157 151.826 19.5606C151.415 20.0362 151.491 20.995 151.56 21.8388C151.59 22.1763 151.613 22.4908 151.613 22.79L151.59 26.5487C151.56 32.4783 151.529 38.4001 151.491 44.3297C151.453 50.7809 151.423 57.232 151.385 63.6832C151.354 69.0221 151.324 74.361 151.286 79.6999L151.271 81.8631C151.263 83.7425 151.248 85.6141 151.225 87.4935C151.21 88.4063 151.21 89.3115 151.21 90.209C151.21 91.8812 151.21 93.6072 151.118 95.3331C150.959 98.5088 151.004 101.899 151.042 105.182L151.065 106.801C151.065 107.062 150.875 107.284 150.616 107.315C150.601 107.315 150.594 107.315 150.578 107.315C150.556 107.583 150.563 107.906 150.578 108.212C150.601 108.657 150.624 109.217 150.518 109.685C150.472 109.908 150.274 110.076 150.046 110.084C149.81 110.092 149.43 110.145 148.989 110.199C148.221 110.307 147.255 110.422 146.456 110.422Z" fill="#DBDBDB"/>
<path d="M147.277 110.798C147.216 110.798 147.148 110.782 147.087 110.759C146.547 110.529 146.379 110.552 145.702 110.644C145.55 110.667 145.315 110.698 145.071 110.614C144.562 110.437 144.288 109.877 144.364 109.156C144.394 108.834 144.242 107.929 144.113 107.622L143.094 107.361C142.926 107.315 142.789 107.192 142.736 107.024C142.622 106.671 142.637 106.287 142.751 105.934C141.846 105.351 141.884 103.503 142.021 101.501C142.044 101.194 142.059 100.941 142.059 100.772C142.074 98.9308 142.074 97.0822 142.082 95.2412C142.082 94.3974 142.067 93.5459 142.044 92.6945C142.006 90.8074 141.96 88.859 142.128 86.9567C142.135 86.8953 142.135 86.8109 142.143 86.7266C142.173 86.1896 142.211 85.7293 142.432 85.4148C142.911 84.7475 143.558 84.6017 144.128 84.4713C144.219 84.4483 144.311 84.433 144.394 84.41C144.273 84.0878 143.679 83.6812 143.223 83.3744C142.797 83.0829 142.394 82.8144 142.143 82.4999C142.021 82.3542 141.998 82.1547 142.067 81.9783C142.249 81.5411 142.211 80.9274 142.173 80.3291C142.158 80.0453 142.135 79.7614 142.143 79.5083C142.15 79.2321 142.371 79.0097 142.645 79.0097C142.766 79.002 143.238 78.9176 143.672 78.8256C143.618 78.7796 143.573 78.7412 143.527 78.7029C143.025 78.281 142.554 77.8821 142.059 77.1917C141.899 76.9769 141.709 76.7084 141.626 76.3633C141.519 75.8877 141.686 75.4121 142.044 75.1666C142.082 75.1359 142.128 75.1129 142.166 75.0976C142.15 75.0976 142.135 75.0976 142.12 75.0976C141.899 75.0899 141.709 74.9441 141.648 74.737C141.588 74.5299 141.664 74.2998 141.839 74.1694C142.15 73.9469 142.455 73.7015 142.736 73.4483C142.782 73.41 142.812 73.3793 142.835 73.3563C142.827 73.3486 142.82 73.3486 142.812 73.3486C142.706 73.2949 142.531 73.2872 142.363 73.2719C140.576 73.1722 138.766 73.0341 137.024 72.9037L135.198 72.7656C135.084 72.758 134.75 72.735 134.559 72.4204C134.438 72.221 134.461 72.0216 134.468 71.9295C134.499 71.6534 134.575 71.4079 134.643 71.1931C134.704 70.9937 134.757 70.8249 134.772 70.6638C134.476 70.5488 133.981 70.5181 133.632 70.4951C133.426 70.4797 133.228 70.472 133.069 70.449C132.955 70.4337 132.658 70.3953 132.475 70.1345C132.369 69.9888 132.354 69.8354 132.338 69.751C132.209 68.8228 132.422 68.2015 132.962 67.9023C133.023 67.864 133.099 67.841 133.168 67.8103C133.175 67.8103 133.183 67.8026 133.19 67.8026V67.7949C133.175 67.2273 133.069 66.8821 132.856 66.7057C132.612 66.5139 132.164 66.5829 131.943 66.8437C131.715 67.1122 131.707 67.5725 131.913 67.91L131.966 67.9944C132.095 68.1938 132.285 68.4853 132.232 68.8612C132.202 69.0836 132.087 69.2524 132.011 69.3675L131.966 69.4365C131.867 69.5976 131.829 69.8124 131.875 69.9965C131.913 70.1345 131.882 70.288 131.806 70.403C131.73 70.5257 131.601 70.6025 131.456 70.6255L131.198 70.6638C130.574 70.7635 130.117 70.8326 129.364 70.6485C128.558 70.449 128.589 69.7126 128.642 69.3061C128.627 69.2907 128.619 69.2831 128.611 69.2677C128.596 69.2524 128.581 69.237 128.566 69.2217C128.444 69.1603 128.353 69.0453 128.315 68.9149C128.277 68.7845 128.292 68.6387 128.36 68.516C128.437 68.3856 128.406 68.2552 128.353 68.1785C128.307 68.1171 128.216 68.0481 128.056 68.0864C127.881 68.1248 127.706 68.0711 127.577 67.9407C127.364 67.7182 127.083 67.373 127.182 66.9665C127.28 66.5523 127.668 66.4142 127.919 66.3298C127.988 66.3068 128.102 66.2684 128.132 66.2454C128.535 65.9616 128.596 65.8465 128.566 65.7238C128.558 65.6855 128.535 65.6394 128.52 65.6011C128.482 65.5013 128.437 65.3709 128.414 65.2175C128.406 65.1408 128.406 65.0564 128.414 64.9874C128.406 64.9721 128.399 64.9644 128.399 64.9567C128.155 64.4504 128.68 63.7984 128.901 63.553C128.878 63.5299 128.84 63.4993 128.802 63.4609C128.619 63.2768 128.596 62.9853 128.748 62.7782C128.809 62.7015 128.87 62.5941 128.824 62.5251C128.786 62.4714 128.764 62.41 128.748 62.341C128.672 62.3026 128.611 62.2489 128.558 62.1875C128.459 62.0571 128.459 62.0571 128.345 61.9574C128.3 61.9191 128.224 61.8347 128.193 61.781C128.109 61.6276 128.003 61.2824 127.973 61.1597C127.942 61.0139 127.965 60.8682 128.056 60.7454C128.102 60.6764 128.155 60.6074 128.193 60.5383C128.269 60.4079 128.391 60.3235 128.535 60.2929C128.604 60.2775 128.672 60.2852 128.733 60.2929C128.741 60.2545 128.756 60.2161 128.764 60.1778C128.802 60.032 128.87 59.8019 128.878 59.6792C128.855 59.6715 128.817 59.6638 128.764 59.6638C128.619 59.6562 128.482 59.5795 128.391 59.4644C128.3 59.3493 128.269 59.1959 128.3 59.0502C128.33 58.8891 128.292 58.8661 128.254 58.8354C128.071 58.7127 127.988 58.4825 128.041 58.2754C127.76 57.9609 127.79 57.539 127.805 57.3166C127.813 57.2322 127.82 57.0941 127.805 57.0558C127.638 56.9714 127.524 56.8026 127.516 56.6185C127.509 56.4344 127.592 56.2503 127.744 56.1583C127.858 56.0892 127.904 55.9742 127.919 55.8898C127.935 55.8284 127.927 55.7671 127.919 55.7287C127.691 55.8054 127.425 55.7057 127.303 55.4832C127.174 55.2378 127.25 54.9309 127.501 54.8005C127.988 54.5397 128.513 54.6855 128.779 55.1534C129.007 55.5523 128.999 56.1506 128.71 56.6032C128.855 56.8947 128.832 57.2092 128.817 57.4009C128.809 57.4623 128.809 57.539 128.809 57.5927C128.931 57.6387 129.053 57.7385 129.106 57.8612C129.167 57.9916 129.19 58.145 129.136 58.2831L129.129 58.3061C129.22 58.4442 129.281 58.5976 129.311 58.7664C129.479 58.8431 129.615 58.9505 129.714 59.0885C130.011 59.5104 129.867 60.0167 129.737 60.4693C129.676 60.6764 129.623 60.8835 129.623 61.0216C129.623 61.1903 129.547 61.3438 129.418 61.4435C129.425 61.4435 129.425 61.4435 129.433 61.4435C129.654 61.4972 129.813 61.6813 129.828 61.9037C129.836 62.0341 129.828 62.1339 129.806 62.2259C129.897 62.479 129.889 62.7629 129.783 63.0313C129.943 63.2461 129.981 63.4532 129.897 63.7754C129.889 63.8138 129.874 63.8598 129.866 63.9212C129.844 64.0439 129.783 64.1513 129.684 64.228C129.638 64.2817 129.562 64.3737 129.494 64.4658C129.57 64.5425 129.615 64.6422 129.638 64.7496C129.661 64.9337 129.593 65.1101 129.456 65.2252C129.463 65.2405 129.463 65.2559 129.471 65.2636C129.501 65.3403 129.532 65.4246 129.547 65.5014C129.76 66.3682 129.053 66.8668 128.71 67.1122C128.68 67.1352 128.642 67.1583 128.611 67.1736C128.832 67.258 129.022 67.4037 129.167 67.6032C129.387 67.9023 129.463 68.2859 129.395 68.6387C129.608 68.7308 129.73 68.9532 129.692 69.1834C129.684 69.2447 129.669 69.3061 129.661 69.3675C129.646 69.4595 129.623 69.6052 129.623 69.6896C130.11 69.8047 130.399 69.7817 130.84 69.7203C130.863 69.4442 130.947 69.1757 131.091 68.9302L131.152 68.8305C131.175 68.7998 131.213 68.7461 131.22 68.7231C131.213 68.7384 131.144 68.6464 131.106 68.585L131.038 68.47C130.597 67.7489 130.642 66.8207 131.152 66.2071C131.722 65.5244 132.802 65.394 133.464 65.9309C134.08 66.4218 134.164 67.2273 134.179 67.7949C134.179 67.9177 134.187 68.1785 134.035 68.4163C133.883 68.6464 133.662 68.7308 133.517 68.7845C133.487 68.7998 133.457 68.8075 133.426 68.8228C133.32 68.8765 133.282 69.1143 133.312 69.4672C133.434 69.4825 133.555 69.4902 133.685 69.4979C134.308 69.5362 135.092 69.5899 135.571 69.9811C135.662 70.0578 135.723 70.1652 135.746 70.2803C135.837 70.7635 135.708 71.1624 135.594 71.523C135.563 71.6073 135.541 71.6917 135.518 71.7761L137.077 71.8912C138.819 72.0216 140.622 72.1596 142.401 72.2594C142.652 72.2747 142.957 72.29 143.253 72.4435C143.672 72.6506 143.915 73.0955 143.847 73.5097C143.786 73.8702 143.535 74.1004 143.398 74.2231C143.329 74.2845 143.253 74.3458 143.185 74.4149C143.329 74.5529 143.436 74.737 143.481 74.9288C143.535 75.1589 143.489 75.3891 143.367 75.5732C143.192 75.8416 142.919 75.926 142.736 75.9797C142.69 75.9951 142.614 76.0181 142.599 76.0334C142.599 76.0411 142.584 76.0948 142.599 76.1561C142.63 76.2942 142.751 76.4553 142.865 76.6164C143.291 77.207 143.702 77.5522 144.166 77.9511C144.44 78.1812 144.721 78.419 145.041 78.7335C145.185 78.8793 145.238 79.1094 145.162 79.3012C145.01 79.6924 143.847 79.9149 143.162 80.0069C143.17 80.1066 143.177 80.1987 143.177 80.2984C143.215 80.866 143.253 81.495 143.109 82.0704C143.291 82.2238 143.542 82.3925 143.778 82.5613C144.622 83.1366 145.779 83.919 145.322 85.039C145.269 85.177 145.155 85.2768 145.018 85.3305C144.782 85.4148 144.546 85.4685 144.326 85.5146C143.786 85.6373 143.474 85.7217 143.23 86.0515C143.162 86.1666 143.139 86.6192 143.132 86.8186C143.124 86.9183 143.124 87.0104 143.116 87.0871C142.957 88.9281 142.995 90.8535 143.04 92.7098C143.056 93.5689 143.078 94.4281 143.078 95.2795C143.078 97.1282 143.078 98.9769 143.056 100.818C143.056 101.01 143.033 101.278 143.017 101.608C142.82 104.515 143.101 105.052 143.291 105.114C143.672 105.236 143.862 105.451 143.877 105.743C143.885 105.942 143.801 106.088 143.763 106.157C143.702 106.257 143.664 106.372 143.656 106.487L144.349 106.663C144.47 106.694 144.721 106.763 144.881 106.993C145.216 107.461 145.398 108.826 145.353 109.294C145.33 109.524 145.375 109.662 145.398 109.693C145.406 109.685 145.505 109.67 145.543 109.67C146.288 109.57 146.661 109.524 147.452 109.854C147.71 109.962 147.832 110.261 147.726 110.521C147.665 110.675 147.475 110.798 147.277 110.798Z" fill="#DBDBDB"/>
<path d="M108.927 110.66C108.821 110.66 108.73 110.644 108.661 110.637C108.38 110.598 108.19 110.345 108.22 110.061C108.258 109.785 108.509 109.586 108.79 109.616C108.828 109.624 108.927 109.632 108.958 109.632C108.958 109.616 108.996 109.478 108.973 109.248C108.927 108.78 109.11 107.422 109.437 106.947C109.604 106.709 109.855 106.648 109.969 106.617L110.662 106.441C110.654 106.326 110.624 106.218 110.563 106.118C110.517 106.042 110.433 105.896 110.441 105.697C110.456 105.405 110.646 105.19 111.011 105.075C111.217 105.006 111.498 104.469 111.3 101.562C111.278 101.232 111.262 100.956 111.262 100.772C111.247 98.9232 111.247 97.0822 111.24 95.2335C111.24 94.382 111.255 93.5229 111.278 92.6638C111.316 90.8074 111.361 88.882 111.202 87.041C111.194 86.9643 111.194 86.8723 111.186 86.7726C111.179 86.5808 111.156 86.1205 111.088 86.0055C110.852 85.6756 110.532 85.5913 109.992 85.4685C109.772 85.4225 109.543 85.3688 109.3 85.2844C109.163 85.2384 109.049 85.131 108.996 84.9929C108.539 83.8807 109.696 83.0906 110.54 82.5153C110.783 82.3465 111.034 82.1777 111.209 82.0243C111.065 81.449 111.103 80.82 111.141 80.2524C111.148 80.1526 111.156 80.0529 111.156 79.9609C110.464 79.8611 109.308 79.6464 109.156 79.2551C109.079 79.0634 109.125 78.8333 109.277 78.6875C109.597 78.373 109.878 78.1352 110.152 77.9051C110.624 77.5062 111.027 77.161 111.453 76.5704C111.567 76.4169 111.681 76.2482 111.711 76.1101C111.726 76.0487 111.711 75.995 111.704 75.9797C111.688 75.972 111.62 75.949 111.574 75.9337C111.392 75.88 111.126 75.7956 110.943 75.5271C110.821 75.343 110.776 75.1129 110.829 74.8828C110.875 74.691 110.981 74.5069 111.126 74.3688C111.049 74.3075 110.981 74.2461 110.913 74.1771C110.776 74.0543 110.517 73.8242 110.464 73.4637C110.395 73.0494 110.639 72.6122 111.057 72.3974C111.354 72.2517 111.658 72.2287 111.901 72.2133C113.689 72.1136 115.484 71.9755 117.226 71.8451L118.785 71.7301C118.762 71.6457 118.739 71.5613 118.709 71.4769C118.595 71.1241 118.465 70.7175 118.557 70.2342C118.58 70.1192 118.64 70.0118 118.732 69.9351C119.211 69.5362 119.994 69.4902 120.618 69.4518C120.747 69.4442 120.877 69.4365 120.991 69.4211C121.021 69.0683 120.975 68.8382 120.877 68.7768C120.846 68.7615 120.816 68.7461 120.785 68.7384C120.641 68.6847 120.42 68.5927 120.268 68.3702C120.108 68.1324 120.116 67.8793 120.124 67.7489C120.139 67.1813 120.222 66.3758 120.839 65.8849C121.508 65.3556 122.588 65.486 123.151 66.161C123.66 66.7747 123.714 67.7029 123.265 68.4239L123.196 68.539C123.158 68.5927 123.105 68.6847 123.09 68.7231C123.098 68.7078 123.128 68.7538 123.151 68.7845L123.219 68.8842C123.364 69.122 123.455 69.3981 123.47 69.6743C123.927 69.7433 124.208 69.7663 124.687 69.6513C124.687 69.5669 124.664 69.4211 124.649 69.3291C124.642 69.2677 124.626 69.2064 124.619 69.145C124.588 68.9149 124.71 68.6924 124.915 68.6004C124.847 68.2398 124.923 67.864 125.144 67.5648C125.372 67.2503 125.729 67.0662 126.117 67.0432C126.163 66.9128 126.163 66.7133 126.064 66.3912C126.011 66.2147 125.912 65.9846 125.745 65.8772L125.691 65.8465C125.516 65.7391 125.144 65.5244 125.159 65.0718C125.166 64.9567 125.197 64.8723 125.212 64.811C125.166 64.7573 125.052 64.6652 124.984 64.6115C124.839 64.4965 124.687 64.3737 124.573 64.205C124.459 64.0362 124.322 63.668 124.368 63.3765C124.375 63.2998 124.436 63.1617 124.528 63.016C124.413 62.7398 124.406 62.456 124.497 62.1875C124.467 62.0955 124.459 61.9958 124.474 61.8654C124.49 61.6429 124.649 61.4511 124.87 61.4051C124.938 61.3898 125.007 61.3744 125.075 61.3668C125.136 61.2977 125.189 61.244 125.296 61.152C125.319 61.106 125.265 60.9909 125.212 60.9602L125.121 60.9065C124.976 60.8145 124.786 60.7071 124.649 60.5C124.345 60.0627 124.482 59.5411 124.543 59.2803C124.573 59.1652 124.604 59.0272 124.68 58.8891C124.771 58.7127 124.9 58.5823 125.007 58.4749L125.075 58.4058C125.296 58.168 125.44 57.8689 125.478 57.5467C125.501 57.3472 125.554 56.9484 125.942 56.7643C125.973 56.7489 126.003 56.7336 126.034 56.7259C126.034 56.7182 126.041 56.7106 126.041 56.7029C126.056 56.6339 126.079 56.5572 126.117 56.4728C126.026 56.0816 126.102 55.652 126.338 55.3145C126.619 54.9003 127.106 54.6625 127.6 54.6548C127.882 54.6548 128.102 54.8926 128.102 55.1687C128.102 55.4526 127.874 55.675 127.593 55.675H127.585C127.426 55.675 127.266 55.7594 127.174 55.8898C127.091 56.0125 127.076 56.189 127.136 56.327C127.22 56.5111 127.182 56.7259 127.045 56.8793C127.053 56.8717 127.038 56.933 127.022 56.979C126.969 57.1708 126.878 57.516 126.505 57.6694C126.498 57.6694 126.498 57.6771 126.49 57.6771V57.6848C126.421 58.2217 126.178 58.728 125.813 59.1192L125.722 59.2113C125.661 59.2726 125.6 59.334 125.577 59.38C125.562 59.4107 125.539 59.4797 125.524 59.5411C125.456 59.8326 125.471 59.9093 125.478 59.9247C125.494 59.9477 125.585 60.0014 125.646 60.0397L125.76 60.1164C126.072 60.3235 126.292 60.6994 126.315 61.0906C126.338 61.4205 126.216 61.712 125.973 61.9191C125.821 62.0495 125.821 62.0495 125.729 62.1799C125.676 62.2489 125.615 62.3026 125.539 62.3333C125.524 62.3947 125.501 62.456 125.463 62.5174C125.417 62.5864 125.478 62.6861 125.539 62.7629C125.707 62.9853 125.668 63.3075 125.448 63.4839C125.433 63.5069 125.41 63.5376 125.387 63.5683C125.395 63.599 125.41 63.6297 125.417 63.645C125.44 63.6757 125.539 63.7601 125.615 63.8138C125.874 64.0132 126.345 64.3891 126.224 64.9874L126.269 65.0181C126.619 65.2329 126.878 65.6011 127.03 66.1073C127.258 66.8821 127.159 67.4958 126.733 67.9483C126.612 68.0787 126.429 68.1324 126.254 68.0941C126.087 68.0557 126.003 68.1248 125.958 68.1861C125.904 68.2628 125.874 68.3856 125.95 68.5237C126.018 68.6464 126.034 68.7921 125.996 68.9225C125.958 69.0529 125.866 69.168 125.745 69.2294C125.729 69.2447 125.714 69.2601 125.699 69.2754C125.691 69.2831 125.676 69.2984 125.668 69.3061C125.729 69.7126 125.76 70.449 124.954 70.6485C124.193 70.8326 123.744 70.7635 123.12 70.6638L122.862 70.6255C122.717 70.6024 122.596 70.5257 122.512 70.403C122.436 70.2803 122.405 70.1345 122.443 69.9965C122.489 69.8124 122.459 69.5976 122.352 69.4365L122.307 69.3674C122.231 69.2447 122.116 69.0836 122.086 68.8612C122.033 68.4853 122.223 68.1861 122.352 67.9944L122.405 67.91C122.611 67.5725 122.603 67.1122 122.375 66.8437C122.154 66.5829 121.706 66.5139 121.462 66.7057C121.249 66.8744 121.143 67.2196 121.128 67.7949V67.8026C121.135 67.8026 121.143 67.8103 121.15 67.8103C121.219 67.841 121.287 67.864 121.356 67.9023C121.896 68.1938 122.101 68.8151 121.979 69.751C121.972 69.8354 121.949 69.9811 121.843 70.1269C121.66 70.3877 121.356 70.4337 121.242 70.4414C121.082 70.4644 120.884 70.4797 120.679 70.4874C120.329 70.5104 119.835 70.5411 119.538 70.6561C119.553 70.8172 119.606 70.986 119.667 71.1854C119.736 71.4002 119.812 71.6457 119.842 71.9218C119.85 72.0062 119.873 72.2133 119.751 72.4128C119.568 72.7196 119.226 72.7426 119.12 72.7503L117.294 72.8884C115.545 73.0188 113.742 73.1568 111.955 73.2566C111.787 73.2642 111.612 73.2796 111.506 73.3333C111.498 73.3333 111.491 73.3409 111.483 73.3486C111.506 73.364 111.536 73.3946 111.582 73.4407C111.863 73.6938 112.168 73.9393 112.479 74.1617C112.654 74.2921 112.73 74.5146 112.67 74.7294C112.609 74.9365 112.411 75.0822 112.198 75.0899C112.183 75.0899 112.168 75.0899 112.152 75.0899C112.19 75.1129 112.236 75.1359 112.274 75.1589C112.632 75.4044 112.806 75.8877 112.692 76.3556C112.616 76.7008 112.419 76.9692 112.259 77.184C111.757 77.8744 111.285 78.2733 110.791 78.6952C110.745 78.7335 110.692 78.7796 110.646 78.8179C111.08 78.91 111.559 78.9943 111.688 79.002C111.947 79.025 112.168 79.2398 112.175 79.5006C112.183 79.7538 112.16 80.0376 112.145 80.3214C112.107 80.9121 112.069 81.5334 112.251 81.9706C112.327 82.1471 112.297 82.3465 112.175 82.4922C111.924 82.7991 111.521 83.0752 111.095 83.3667C110.639 83.6736 110.045 84.0801 109.924 84.4023C110.007 84.4253 110.099 84.4406 110.19 84.4636C110.76 84.5941 111.407 84.7321 111.886 85.4072C112.107 85.714 112.145 86.1819 112.175 86.7189C112.183 86.8033 112.183 86.88 112.19 86.949C112.358 88.8437 112.312 90.7998 112.274 92.6868C112.259 93.5382 112.236 94.3897 112.236 95.2335C112.236 97.0745 112.236 98.9232 112.259 100.764C112.259 100.941 112.282 101.194 112.297 101.501C112.434 103.518 112.472 105.374 111.567 105.942C111.688 106.295 111.688 106.678 111.582 107.024C111.529 107.192 111.392 107.323 111.224 107.361L110.205 107.622C110.076 107.921 109.924 108.834 109.954 109.156C110.03 109.877 109.756 110.437 109.247 110.614C109.156 110.652 109.034 110.66 108.927 110.66Z" fill="#DBDBDB"/>
<path d="M107.71 110.614C106.645 110.614 105.116 110.499 105.093 110.499C104.987 110.491 104.827 110.46 104.683 110.36C104.302 110.1 104.333 109.639 104.348 109.486C104.432 108.343 104.432 107.185 104.348 106.049C104.348 106.042 104.348 106.034 104.348 106.026L102.234 106.095C102.021 106.111 101.823 105.973 101.739 105.766C101.382 104.83 101.435 103.671 101.481 102.644C101.496 102.229 101.519 101.838 101.511 101.485C101.481 100.381 101.45 99.2761 101.412 98.1715L101.382 97.0976C101.366 96.5146 101.336 95.9316 101.306 95.341C101.222 93.5997 101.131 91.797 101.328 90.0558C101.336 89.956 101.344 89.8486 101.351 89.7413C101.374 89.3347 101.397 88.8284 101.671 88.4526C101.929 88.0997 102.386 87.8696 102.751 87.6855C102.834 87.6471 102.91 87.6088 102.971 87.5704C103.085 87.509 103.184 87.4707 103.26 87.4477C103.26 87.44 103.26 87.4323 103.26 87.417C103.26 87.3863 103.253 87.3556 103.207 87.2712C103.055 86.9567 102.949 86.5348 103.496 86.0669C103.747 85.8521 104.006 85.7908 104.188 85.7448C104.333 85.7141 104.386 85.6911 104.447 85.6374C104.485 85.5453 104.538 85.3459 104.561 85.1925C104.188 85.0927 103.245 85.1541 102.994 85.2538C102.789 85.3382 102.553 85.2845 102.408 85.1157C102.325 85.0237 102.081 84.7322 102.15 84.3563C102.188 84.1339 102.31 83.9805 102.447 83.8731C102.416 83.7733 102.408 83.666 102.439 83.5662C102.53 83.2364 102.713 82.9756 102.918 82.7455C102.872 82.6151 102.88 82.4616 102.949 82.3389C102.987 82.2622 103.002 82.1548 103.009 82.0244C103.017 81.9247 103.032 81.8173 103.055 81.6946C103.04 81.6946 103.025 81.6946 103.009 81.7022C102.834 81.7176 102.614 81.7406 102.325 81.6869C102.127 81.6562 101.967 81.5028 101.922 81.311C101.868 81.1192 101.937 80.9121 102.097 80.7817C102.089 80.7817 102.089 80.6743 102.097 80.6053C102.112 80.3598 102.135 79.9993 102.424 79.7001C102.72 79.4086 103.146 79.401 103.473 79.4086C103.306 79.0098 103.496 78.7336 103.565 78.6262C103.595 78.4881 103.641 78.3117 103.694 78.1276C103.747 77.9282 103.816 77.6827 103.816 77.56C103.816 77.4909 103.816 77.4449 103.816 77.4066C103.732 77.3529 103.641 77.2838 103.534 77.1764C103.428 77.0767 103.344 76.977 103.26 76.8696C103.215 76.8082 103.161 76.7545 103.108 76.6932C103.093 76.6778 102.949 76.5704 102.872 76.5244C102.774 76.4784 102.69 76.394 102.644 76.2866C102.561 76.1102 102.53 75.9261 102.523 75.765C102.348 75.8724 102.119 75.8571 101.952 75.7267C101.732 75.5502 101.701 75.228 101.876 75.0056C102.203 74.599 102.644 74.4149 103.078 74.5147C103.245 74.553 103.39 74.6757 103.443 74.8368C103.534 75.0823 103.534 75.3278 103.534 75.5195C103.534 75.5886 103.534 75.6576 103.542 75.719C103.656 75.7957 103.762 75.8954 103.854 75.9951C103.922 76.0718 103.991 76.1485 104.044 76.2176C104.105 76.2943 104.165 76.371 104.242 76.44C104.318 76.5167 104.363 76.5474 104.416 76.5781C104.804 76.8159 104.835 77.1074 104.835 77.56C104.835 77.8285 104.751 78.1199 104.675 78.4038C104.637 78.5418 104.599 78.6799 104.584 78.7796C104.576 78.8257 104.569 78.8717 104.553 78.9177C104.721 78.9791 104.911 79.0941 104.987 79.3473C105.101 79.7155 105.01 79.9609 104.903 80.1067C104.667 80.4365 104.264 80.4365 103.998 80.4289C103.945 80.4289 103.899 80.4289 103.846 80.4365C103.747 80.4442 103.625 80.4442 103.496 80.4365C103.382 80.4289 103.161 80.4289 103.093 80.4519C103.108 80.4519 103.101 80.5823 103.101 80.659C103.367 80.6437 103.694 80.682 104.089 80.9735C104.219 81.0655 104.295 81.219 104.302 81.38C104.302 81.5411 104.234 81.6946 104.105 81.7943C104.036 81.848 104.021 81.8863 103.998 82.1165C103.991 82.2162 103.975 82.3312 103.953 82.454C104.036 82.546 104.074 82.6764 104.074 82.7992C104.074 82.9449 104.006 83.083 103.899 83.175C103.808 83.2594 103.717 83.3438 103.633 83.4358C103.663 83.4665 103.686 83.4972 103.709 83.5279C103.8 83.666 103.816 83.8424 103.755 83.9958C103.74 84.0342 103.724 84.0725 103.702 84.1109C104.394 84.0648 105.192 84.1569 105.481 84.6478C105.725 85.062 105.39 86.0593 105.215 86.2587C104.934 86.5885 104.614 86.6653 104.401 86.719C104.264 86.7496 104.196 86.7726 104.127 86.8263C104.12 86.834 104.12 86.834 104.112 86.8417C104.173 86.9721 104.264 87.1792 104.242 87.463C104.211 87.9923 104.036 88.2454 103.61 88.3758C103.565 88.3912 103.504 88.4065 103.428 88.4526C103.352 88.4909 103.268 88.5369 103.169 88.583C102.926 88.7057 102.561 88.8898 102.454 89.0432C102.363 89.1736 102.34 89.5265 102.325 89.7796C102.317 89.91 102.31 90.0404 102.294 90.1632C102.104 91.8201 102.196 93.5767 102.279 95.2796C102.31 95.8779 102.34 96.4686 102.355 97.0592L102.386 98.1255C102.424 99.2301 102.454 100.342 102.485 101.447C102.492 101.838 102.477 102.245 102.454 102.682C102.416 103.51 102.378 104.362 102.545 105.052L104.302 104.991C104.424 104.983 104.66 104.976 104.88 105.106C105.276 105.336 105.306 105.796 105.322 105.965C105.405 107.131 105.405 108.312 105.329 109.486C105.976 109.532 107.915 109.624 108.258 109.578C108.493 109.509 108.744 109.609 108.858 109.839C108.988 110.092 108.881 110.399 108.63 110.522C108.547 110.598 108.174 110.614 107.71 110.614Z" fill="#DBDBDB"/>
<path d="M99.709 81.3186C98.7582 81.3186 97.6933 81.2573 96.5068 81.1422C95.769 81.0655 94.9932 81.0732 94.2402 81.0808H93.6697C93.3274 81.0808 92.9852 81.0271 92.6429 80.9734C92.2017 80.9044 91.7454 80.8277 91.3955 80.9044C91.3346 80.9274 91.2738 80.9428 91.2129 80.9504C90.9543 81.0041 90.6957 80.8354 90.6273 80.5746C90.5588 80.3138 90.7109 80.0453 90.9619 79.9609C91.0152 79.9456 91.0684 79.9302 91.1141 79.9149C91.2129 79.8765 91.3042 79.8075 91.3346 79.7615C91.2586 79.6311 91.1673 79.4623 91.1749 79.2092C91.1901 78.7566 91.4335 78.4421 91.6161 78.2119C91.8366 77.9358 91.829 77.9205 91.7682 77.8131C91.6389 77.5906 90.9543 76.9309 90.7794 76.8389C90.7337 76.8158 90.6729 76.8082 90.5816 76.8005C90.4067 76.7775 90.1481 76.7545 89.9047 76.5474C89.8666 76.5167 89.8362 76.486 89.8058 76.4477C89.6461 76.6394 89.4559 76.8389 89.2658 77.046C89.0604 77.2608 88.7333 77.6059 88.6192 77.7977C88.6953 77.9511 88.6953 78.1352 88.6116 78.2887C88.4823 78.5188 88.3302 78.6799 88.2237 78.7873C88.2617 78.8256 88.3074 78.864 88.3682 78.9253C88.4595 79.002 88.6573 79.1171 88.8322 79.2092C89.2658 79.447 89.6765 79.6771 89.821 80.0453C89.8895 80.214 89.8666 80.4058 89.7526 80.5516C89.532 80.843 89.5168 80.8584 75.9398 80.9274C74.5175 80.9351 73.3994 80.9428 73.2929 80.9428C73.0039 80.9734 72.6083 80.8737 72.5019 80.237C72.4942 80.191 72.4866 80.145 72.4714 80.0913C72.3954 79.8535 72.4106 79.608 72.4942 79.3856C72.4638 79.3549 72.4334 79.3165 72.403 79.2705C72.152 78.8333 72.2965 78.258 72.7605 77.8361C72.8365 77.767 72.9126 77.7057 72.9963 77.6443C73.1256 77.5369 73.2549 77.4372 73.3005 77.3451C73.3537 77.2454 73.369 77.0536 73.3842 76.8772C73.3918 76.8005 73.3994 76.7085 73.407 76.6241C72.8517 76.5857 72.2965 76.4553 71.7869 76.2252C71.6119 76.1485 71.4978 75.9797 71.4826 75.788C71.3305 73.341 71.2773 70.8633 71.3381 68.4086C71.3457 68.1862 71.3609 67.4958 71.939 67.2273C72.2128 67.1046 72.4714 67.1353 72.6616 67.1583C72.7224 67.1659 72.8137 67.1813 72.8441 67.1736C73.0039 66.8514 72.2737 65.1715 71.7717 64.4658C69.6267 61.4281 65.1467 59.5181 61.1155 59.9323C60.4461 59.9937 60.1419 59.6485 60.081 59.3263C60.043 59.1116 60.0658 58.7434 60.5831 58.4825C60.545 58.3598 60.5526 58.2217 60.6135 58.1067C59.9213 58.1067 59.7768 57.6541 59.7464 57.516C59.7236 57.401 59.7312 57.3089 59.7464 57.2322C59.7083 57.1785 59.6779 57.1171 59.6551 57.0481C59.541 56.7029 59.6931 56.327 60.0278 56.0892C59.8605 55.9282 59.792 55.7057 59.7692 55.6213C59.6779 55.3298 59.4726 54.6395 59.9137 54.1255C59.9213 54.1178 59.9289 54.1102 59.9365 54.0948C59.8529 53.9951 59.754 53.9184 59.6475 53.8647C59.5866 53.834 59.5182 53.811 59.4497 53.7803C59.0923 53.6346 58.5598 53.4198 58.4914 52.8215C58.4609 52.5376 58.6587 52.2845 58.9401 52.2538C59.1987 52.2231 59.4497 52.4072 59.4954 52.6681C59.5562 52.7141 59.7236 52.7831 59.83 52.8291C59.9137 52.8598 59.9974 52.8982 60.081 52.9365C60.4081 53.0899 60.6743 53.3277 60.8645 53.6346C61.009 53.8647 61.0546 54.0872 61.0014 54.3096C60.9481 54.5321 60.8036 54.6701 60.72 54.7545C60.7048 54.7699 60.6895 54.7775 60.6819 54.7929C60.6667 54.8082 60.6211 54.9003 60.7276 55.2761C60.7808 55.2838 60.8417 55.2915 60.9101 55.3222C61.1231 55.4065 61.2752 55.583 61.3361 55.8131C61.3969 56.0662 61.3285 56.3577 61.1535 56.5572C61.0166 56.7183 60.8493 56.8026 60.7276 56.864C60.72 56.864 60.72 56.8717 60.7124 56.8717C60.7428 56.9254 60.7656 57.0021 60.7732 57.0788V57.0865H61.6859C61.8837 57.0865 62.0662 57.2015 62.1423 57.3856C62.226 57.5697 62.1955 57.7768 62.0662 57.9302L61.9141 58.1067C61.8533 58.1757 61.7848 58.2524 61.724 58.3215C61.7468 58.3905 61.7544 58.4595 61.762 58.5209C61.762 58.636 61.7392 58.7587 61.6859 58.8661C65.8769 58.6743 70.3797 60.7224 72.6007 63.8751C72.6159 63.8982 74.2208 66.3605 73.7721 67.5571C73.6504 67.8793 73.407 68.0941 73.0723 68.1708C72.8669 68.2168 72.6768 68.1938 72.5247 68.1708C72.4866 68.1631 72.4258 68.1555 72.3878 68.1555C72.3725 68.1938 72.3573 68.2782 72.3573 68.4316C72.3041 70.7405 72.3421 73.0878 72.479 75.3967C73.0191 75.5885 73.6047 75.6499 74.1752 75.5885C74.4186 75.5655 74.6392 75.7113 74.7152 75.9414C74.7913 76.1715 74.6924 76.4246 74.4794 76.5474C74.4338 76.5704 74.411 76.8312 74.3958 76.9693C74.373 77.2377 74.3425 77.5446 74.198 77.8284C74.0459 78.1122 73.8101 78.304 73.62 78.4574C73.5591 78.5034 73.4983 78.5571 73.4374 78.6032C73.4222 78.6185 73.4146 78.6262 73.3994 78.6415C73.5287 78.7182 73.6428 78.8333 73.7188 78.9637C73.7949 79.0941 73.8101 79.2475 73.7645 79.3856C73.7188 79.5237 73.6123 79.6387 73.483 79.6924C73.4526 79.7078 73.4298 79.7615 73.4374 79.7845C73.4526 79.8305 73.4678 79.8765 73.4754 79.9225C73.7721 79.9225 74.4338 79.9149 75.9322 79.9072C78.9138 79.8919 85.0444 79.8612 87.8282 79.8075C87.7826 79.7768 87.7369 79.7384 87.6913 79.7001C87.349 79.4009 87.1208 79.1324 87.1056 78.7949C87.098 78.4574 87.3034 78.258 87.4555 78.1046C87.4935 78.0662 87.5392 78.0278 87.5772 77.9818C87.5696 77.9511 87.5696 77.9205 87.5696 77.8898C87.5392 77.3835 87.9955 76.9002 88.528 76.3479C88.7866 76.0795 89.2125 75.6269 89.2505 75.4581C89.3114 75.182 89.5852 74.9672 89.859 75.0285C90.3991 75.1436 90.5132 75.5578 90.5588 75.7343C90.5588 75.7496 90.5664 75.7649 90.5664 75.7726C90.5968 75.7803 90.6501 75.788 90.6881 75.788C90.8326 75.8033 91.0228 75.8263 91.2281 75.926C91.5932 76.1101 92.4299 76.9156 92.6505 77.3068C93.0612 78.0278 92.6429 78.5648 92.4147 78.8486C92.293 79.002 92.2093 79.1094 92.1941 79.2092C92.2854 79.3549 92.4147 79.5697 92.3538 79.8919C92.506 79.9149 92.6505 79.9379 92.8026 79.9609C93.1145 80.0146 93.4111 80.0606 93.6697 80.0606H94.2326C95.0084 80.0529 95.8146 80.0529 96.6057 80.1297C98.4464 80.3138 99.9904 80.3521 101.2 80.237C101.109 80.0683 101.017 79.8842 100.979 79.6694C100.88 79.0864 100.934 78.6185 101.451 78.2733C101.382 78.0585 101.321 77.8514 101.299 77.675C101.253 77.3145 101.223 77.0536 101.55 76.7852C101.588 76.7545 101.633 76.7161 101.702 76.6318C101.922 76.3633 101.922 76.2866 101.9 75.88C101.892 75.7573 101.884 75.6269 101.884 75.4658C101.884 75.182 102.105 74.9518 102.386 74.9518C102.668 74.9518 102.888 75.182 102.896 75.4581C102.896 75.5962 102.904 75.7189 102.911 75.8263C102.934 76.3019 102.957 76.7085 102.485 77.2838C102.417 77.3682 102.348 77.4372 102.295 77.4832C102.295 77.4986 102.303 77.5216 102.303 77.5369C102.318 77.6596 102.402 77.9205 102.462 78.1046C102.493 78.2043 102.523 78.2963 102.546 78.3807C102.622 78.6338 102.485 78.91 102.242 79.002C101.991 79.1018 101.953 79.1631 101.953 79.1631C101.945 79.1708 101.93 79.2322 101.976 79.493C101.991 79.5697 102.059 79.6924 102.12 79.8075C102.265 80.0683 102.44 80.3981 102.356 80.7817C102.31 80.9888 102.143 81.1499 101.93 81.1806C101.291 81.2726 100.546 81.3186 99.709 81.3186Z" fill="#DBDBDB"/>
<path d="M16.8703 90.0633C16.8626 89.9636 16.855 89.8562 16.8474 89.7488C16.8246 89.3422 16.8018 88.836 16.528 88.4601C16.2694 88.1072 15.813 87.8771 15.4479 87.693C15.3642 87.6547 15.2882 87.6163 15.2197 87.5779C15.1056 87.5166 15.0067 87.4782 14.9307 87.4552C14.9307 87.4475 14.9307 87.4399 14.9307 87.4245C14.9307 87.3939 14.9383 87.3632 14.9839 87.2788C15.1361 86.9643 15.2425 86.5424 14.6949 86.0745C14.4439 85.8597 14.1853 85.7983 14.0027 85.7523C13.8582 85.7216 13.805 85.6986 13.7441 85.6449C13.7061 85.5528 13.6529 85.3534 13.63 85.2C14.0027 85.1003 14.9459 85.1616 15.1969 85.2614C15.4023 85.3457 15.6381 85.292 15.7826 85.1233C15.8662 85.0312 16.1096 84.7397 16.0412 84.3639C16.0032 84.1414 15.8815 83.988 15.7445 83.8806C15.775 83.7809 15.7826 83.6735 15.7521 83.5738C15.6609 83.2439 15.4783 82.9755 15.273 82.7453C15.3186 82.6149 15.311 82.4692 15.2501 82.3388C15.2121 82.2621 15.1969 82.1547 15.1893 82.0243C15.1817 81.9245 15.1665 81.8172 15.1437 81.6944C15.1589 81.6944 15.1741 81.6944 15.1893 81.7021C15.3642 81.7174 15.5848 81.7404 15.8738 81.6867C16.0716 81.6561 16.2389 81.518 16.2922 81.3262C16.3454 81.1344 16.2846 80.9427 16.1248 80.8123C16.1096 80.7816 16.1096 80.6742 16.102 80.6052C16.0868 80.3597 16.064 79.9992 15.775 79.7C15.4783 79.4085 15.0524 79.4008 14.7253 79.4085C14.8927 79.0096 14.7025 78.7335 14.6188 78.6261C14.596 78.488 14.5504 78.3116 14.4971 78.1275C14.4439 77.928 14.3754 77.6826 14.3754 77.5598C14.3754 77.4908 14.3754 77.4448 14.3754 77.4064C14.4515 77.3604 14.5428 77.2837 14.6569 77.1763C14.7634 77.0766 14.847 76.9769 14.9307 76.8695C14.9763 76.8081 15.0296 76.7544 15.0524 76.716C15.098 76.6777 15.2425 76.5703 15.3186 76.5166C15.4175 76.4706 15.5011 76.3862 15.5468 76.2788C15.6305 76.1024 15.6609 75.9183 15.6761 75.7572C15.851 75.8646 16.0792 75.8492 16.2465 75.7188C16.4671 75.5424 16.4975 75.2202 16.3226 74.9978C15.9955 74.5912 15.562 74.4071 15.1208 74.5068C14.9535 74.5452 14.809 74.6679 14.7557 74.829C14.6645 75.0745 14.6645 75.32 14.6645 75.5117C14.6645 75.5808 14.6645 75.6498 14.6569 75.7112C14.5428 75.7879 14.4363 75.8876 14.3374 75.9873C14.269 76.064 14.2081 76.1331 14.1473 76.2098C14.0864 76.2865 14.0256 76.3632 13.9495 76.4322C13.8734 76.5089 13.8278 76.5396 13.7746 76.5703C13.3866 76.8081 13.3562 77.0996 13.3562 77.5522C13.3562 77.8206 13.4399 78.1121 13.5159 78.396C13.554 78.534 13.592 78.6721 13.6072 78.7718C13.6148 78.8179 13.6224 78.8639 13.6376 78.9099C13.4703 78.9713 13.2802 79.0863 13.2041 79.3395C13.09 79.7077 13.1813 79.9531 13.2878 80.0989C13.5236 80.4287 13.9191 80.4211 14.1929 80.4211C14.2461 80.4211 14.2994 80.4211 14.345 80.4287C14.4439 80.4364 14.5656 80.4364 14.6949 80.4287C14.809 80.4211 15.0296 80.4211 15.06 80.4211C15.0828 80.4517 15.0828 80.5821 15.0904 80.6589C14.8166 80.6435 14.4971 80.6819 14.1016 80.9734C13.9723 81.0654 13.8963 81.2188 13.8886 81.3799C13.8886 81.541 13.9571 81.6944 14.0864 81.7941C14.1549 81.8478 14.1701 81.8862 14.1929 82.1163C14.2005 82.2237 14.2157 82.3388 14.2461 82.4615C14.1625 82.5536 14.1244 82.6763 14.1244 82.8067C14.1244 82.9524 14.1853 83.0828 14.2918 83.1826C14.383 83.2669 14.4743 83.3513 14.558 83.4434C14.5276 83.4741 14.5047 83.5047 14.4819 83.5354C14.3907 83.6735 14.3754 83.8499 14.4363 84.0033C14.4515 84.0417 14.4667 84.0801 14.4895 84.1184C13.7974 84.0724 12.9987 84.1644 12.7097 84.6554C12.4663 85.0696 12.801 86.0668 12.9759 86.2662C13.2573 86.5961 13.5768 86.6728 13.7898 86.7265C13.9267 86.7572 13.9951 86.7802 14.0636 86.8339C14.0712 86.8415 14.0712 86.8416 14.0788 86.8492C14.018 86.9796 13.9267 87.1867 13.9495 87.4706C13.9799 87.9998 14.1549 88.253 14.5808 88.3834C14.6264 88.3987 14.6873 88.4141 14.7634 88.4601C14.8394 88.4985 14.9231 88.5445 15.022 88.5905C15.2654 88.7132 15.6305 88.8973 15.7369 89.0507C15.8282 89.1812 15.851 89.534 15.8662 89.7872C15.8738 89.9176 15.8815 90.048 15.8967 90.1707C16.0868 91.8276 15.9955 93.5842 15.9119 95.2795C15.8815 95.8778 15.851 96.4761 15.8358 97.0591L15.8054 98.0717C15.7674 99.1993 15.7369 100.327 15.7065 101.447C15.6989 101.838 15.7141 102.245 15.7369 102.682C15.775 103.51 15.813 104.362 15.6457 105.052L13.8886 104.991C13.7593 104.983 13.5312 104.975 13.3106 105.106C12.9151 105.336 12.8846 105.796 12.8694 105.965C12.7858 107.131 12.7858 108.305 12.8618 109.471C12.7477 109.471 0.402974 109.471 0.197608 109.471C0.144365 109.816 0.0911225 110.153 0.0302734 110.498C0.593127 110.491 13.1052 110.491 13.128 110.483C13.2345 110.475 13.3866 110.445 13.5312 110.345C13.9115 110.084 13.881 109.624 13.8658 109.471C13.7822 108.328 13.7822 107.169 13.8658 106.034C13.8658 106.026 13.8658 106.019 13.8658 106.011L15.9803 106.08C16.1933 106.095 16.3911 105.957 16.4747 105.75C16.8322 104.814 16.779 103.656 16.7333 102.628C16.7181 102.214 16.6953 101.823 16.7029 101.47C16.7333 100.342 16.7638 99.2223 16.8018 98.1023L16.8322 97.0898C16.8474 96.5068 16.8779 95.9238 16.9083 95.3255C16.9843 93.5996 17.068 91.7969 16.8703 90.0633Z" fill="#DBDBDB"/>
<path d="M18.4823 81.3188C17.638 81.3188 16.8926 81.2728 16.2537 81.1807C16.0407 81.15 15.8734 80.9889 15.8277 80.7818C15.7441 80.3906 15.919 80.0684 16.0635 79.8076C16.1244 79.6926 16.1928 79.5698 16.2081 79.4931C16.2537 79.2323 16.2309 79.1709 16.2309 79.1633C16.2309 79.1633 16.1928 79.1019 15.9418 79.0022C15.6908 78.9101 15.5615 78.634 15.6376 78.3809C15.6604 78.2965 15.6908 78.2044 15.7213 78.1047C15.7821 77.9206 15.8658 77.6598 15.881 77.5371C15.881 77.5141 15.8886 77.4987 15.8886 77.4757C15.8354 77.422 15.7745 77.3606 15.6984 77.2763C15.2269 76.7009 15.2497 76.2944 15.2725 75.8188C15.2801 75.7114 15.2801 75.5887 15.2877 75.4506C15.2877 75.1668 15.5159 74.9443 15.7973 74.9443C16.0788 74.9443 16.3069 75.1744 16.2993 75.4583C16.2993 75.6117 16.2917 75.7498 16.2841 75.8725C16.2613 76.2867 16.2613 76.3558 16.4819 76.6242C16.5503 76.7086 16.596 76.747 16.634 76.7776C16.9611 77.0385 16.9306 77.2993 16.885 77.6675C16.8622 77.8439 16.8013 78.0587 16.7329 78.2658C17.2501 78.611 17.3033 79.0866 17.2045 79.6619C17.1664 79.8767 17.0752 80.0684 16.9839 80.2295C18.2009 80.3369 19.7373 80.2986 21.578 80.1221C22.369 80.0454 23.1677 80.0454 23.9435 80.0531H24.5063C24.765 80.0531 25.0616 80.0071 25.3734 79.9534C25.518 79.9304 25.6701 79.9074 25.8222 79.8843C25.7614 79.5468 25.9059 79.3244 25.9743 79.217C25.9819 79.2093 25.9819 79.2093 25.9819 79.2093C25.9667 79.1173 25.8831 79.0099 25.7614 78.8488C25.5332 78.565 25.1148 78.028 25.5256 77.3069C25.7461 76.9234 26.5828 76.1103 26.9479 75.9262C27.1533 75.8265 27.3434 75.8035 27.4879 75.7881C27.526 75.7804 27.5792 75.7804 27.6096 75.7728C27.6096 75.7574 27.6173 75.7421 27.6173 75.7344C27.6629 75.558 27.7694 75.1438 28.317 75.0287C28.4539 74.998 28.5984 75.0287 28.7201 75.1131C28.8342 75.1975 28.9103 75.3279 28.9331 75.4659C28.9711 75.6347 29.3971 76.0873 29.6557 76.3558C30.1881 76.9157 30.6445 77.3913 30.6141 77.8976C30.6141 77.9283 30.6065 77.959 30.6065 77.9896C30.6445 78.0357 30.6825 78.074 30.7282 78.1124C30.8803 78.2658 31.0856 78.4729 31.078 78.8028C31.0704 79.1326 30.8346 79.4011 30.4924 79.7079C30.4543 79.7463 30.4087 79.777 30.3555 79.8153C33.1393 79.8767 39.2698 79.9074 42.2514 79.915C43.7499 79.9227 44.4116 79.9227 44.7082 79.9304C44.7158 79.8843 44.731 79.8383 44.7463 79.7923C44.7539 79.7693 44.731 79.7156 44.7006 79.7002C44.5637 79.6465 44.4648 79.5315 44.4192 79.3934C44.3736 79.2553 44.3888 79.1019 44.4648 78.9715C44.5409 78.8334 44.655 78.726 44.7919 78.6493C44.7843 78.634 44.7691 78.6263 44.7539 78.611C44.693 78.5573 44.6322 78.5113 44.5713 78.4652C44.3812 78.3118 44.1454 78.1277 43.9933 77.8362C43.8411 77.5524 43.8183 77.2456 43.7955 76.9771C43.7803 76.839 43.7575 76.5782 43.7118 76.5552C43.4989 76.4401 43.4 76.187 43.476 75.9492C43.5521 75.7191 43.7727 75.5733 44.0161 75.5963C44.5941 75.6654 45.1722 75.5963 45.7122 75.4046C45.8491 73.0956 45.8948 70.756 45.8339 68.4394C45.8339 68.286 45.8111 68.2017 45.8035 68.1633C45.7655 68.1633 45.7046 68.171 45.6666 68.1786C45.5145 68.2016 45.3243 68.2247 45.119 68.1786C44.7843 68.1019 44.5409 67.8795 44.4192 67.565C43.9704 66.3683 45.5753 63.9136 45.5905 63.883C47.8115 60.7303 52.322 58.6975 56.5053 58.8739C56.4521 58.7665 56.4293 58.6515 56.4293 58.5287C56.4293 58.4674 56.4445 58.3983 56.4673 58.3293C56.4065 58.2526 56.3456 58.1835 56.2772 58.1145L56.125 57.9381C55.9957 57.7846 55.9653 57.5699 56.049 57.3934C56.1326 57.2093 56.3076 57.0943 56.5053 57.0943H57.4181V57.0866C57.4257 57.0022 57.4561 56.9332 57.4789 56.8795C57.4713 56.8795 57.4713 56.8718 57.4637 56.8718C57.342 56.8105 57.1747 56.7184 57.0378 56.565C56.8628 56.3655 56.7944 56.0817 56.8552 55.8209C56.9085 55.5908 57.0682 55.4144 57.2812 55.33C57.3496 55.307 57.4105 55.2916 57.4637 55.284C57.5702 54.9081 57.5322 54.8237 57.5093 54.8007C57.4941 54.7854 57.4789 54.77 57.4713 54.7623C57.3876 54.678 57.2431 54.5399 57.1899 54.3174C57.1367 54.1026 57.1823 53.8725 57.3268 53.6424C57.517 53.3432 57.7908 53.0978 58.1102 52.9443C58.1863 52.906 58.2776 52.8753 58.3612 52.837C58.4677 52.7986 58.6351 52.7296 58.6959 52.6759C58.7415 52.4151 58.9849 52.231 59.2512 52.2616C59.5326 52.2923 59.7303 52.5455 59.6999 52.8293C59.6315 53.4276 59.099 53.6424 58.7415 53.7881C58.6731 53.8188 58.6046 53.8418 58.5438 53.8725C58.4297 53.9262 58.3308 54.0029 58.2547 54.095C58.2624 54.1026 58.27 54.118 58.2852 54.1257C58.7263 54.6319 58.521 55.3223 58.4297 55.6138C58.3993 55.7059 58.3384 55.9206 58.1711 56.0817C58.5058 56.3195 58.6503 56.6954 58.5438 57.0406C58.521 57.1173 58.4829 57.1787 58.4525 57.2323C58.4677 57.3091 58.4753 57.4088 58.4525 57.5162C58.4221 57.6542 58.2776 58.0992 57.5854 58.1068C57.6463 58.2219 57.6539 58.36 57.6158 58.4904C58.1254 58.7512 58.1483 59.1194 58.1102 59.3342C58.0494 59.6563 57.7451 60.0092 57.0758 59.9402C53.0446 59.5259 48.5645 61.436 46.4196 64.4736C45.9252 65.1793 45.1874 66.8593 45.37 67.2044C45.3776 67.1891 45.4688 67.1738 45.5373 67.1661C45.7275 67.1431 45.9861 67.1047 46.2599 67.2351C46.8379 67.5036 46.8532 68.194 46.8608 68.4164C46.9216 70.8634 46.8684 73.3488 46.7162 75.7958C46.701 75.9876 46.5869 76.1563 46.412 76.233C45.8948 76.4631 45.3471 76.5936 44.7919 76.6319C44.8071 76.724 44.8147 76.8083 44.8147 76.885C44.8299 77.0615 44.8451 77.2532 44.8984 77.353C44.944 77.445 45.0733 77.5447 45.2026 77.6521C45.2863 77.7135 45.3624 77.7825 45.4384 77.8439C45.9024 78.2658 46.0469 78.8411 45.7959 79.2783C45.7731 79.3244 45.7427 79.3627 45.7046 79.3934C45.7883 79.6159 45.8035 79.869 45.7275 80.0991C45.7122 80.1528 45.7046 80.1988 45.697 80.2449C45.5905 80.8892 45.195 80.9889 44.8832 80.9506C44.8071 80.9506 43.6814 80.9429 42.2591 80.9352C28.6821 80.8662 28.6669 80.8509 28.4463 80.5594C28.3398 80.4136 28.3094 80.2219 28.3779 80.0531C28.53 79.6849 28.9331 79.4548 29.3667 79.217C29.5416 79.1173 29.7394 79.0099 29.8306 78.9332C29.8915 78.8795 29.9447 78.8334 29.9752 78.7951C29.8611 78.68 29.7165 78.5189 29.5872 78.2965C29.496 78.1431 29.5036 77.959 29.5796 77.8055C29.4655 77.6138 29.1385 77.2763 28.9331 77.0538C28.743 76.8544 28.5528 76.6549 28.3931 76.4555C28.3627 76.4862 28.3322 76.5245 28.2942 76.5552C28.0508 76.7546 27.7922 76.7853 27.6173 76.8083C27.5184 76.816 27.4575 76.8237 27.4195 76.8467C27.2369 76.9387 26.5524 77.5984 26.4307 77.8209C26.3698 77.9283 26.3622 77.9359 26.5828 78.2198C26.7654 78.4499 27.0088 78.7644 27.024 79.217C27.0316 79.4778 26.9327 79.6542 26.8642 79.7616C26.9099 79.823 26.9935 79.8843 27.0848 79.9227C27.1381 79.938 27.1913 79.9534 27.2369 79.9687C27.4879 80.0531 27.6401 80.3216 27.5716 80.5824C27.5032 80.8432 27.2522 81.012 26.9859 80.9583C26.9251 80.9506 26.8642 80.9276 26.8034 80.9122C26.4535 80.8432 25.9971 80.9122 25.556 80.9813C25.2213 81.035 24.8714 81.0887 24.5292 81.0887H23.9587C23.2057 81.081 22.4299 81.081 21.6921 81.15C20.4979 81.2651 19.4254 81.3188 18.4823 81.3188Z" fill="#DBDBDB"/>
</g>
<defs>
<clipPath id="clip0">
<rect width="258" height="110.798" fill="white"/>
</clipPath>
</defs>
</svg>
