<svg width="381" height="100" viewBox="0 0 381 100" fill="none" xmlns="http://www.w3.org/2000/svg">
<path d="M380.968 98.9216H380.32V91.3481H379.285V88.9514L377.02 86.9061H375.92V48.3035H373.398V46.3223H372.201V45.3956H371.877V46.3223H367.768V48.3035H365.246V74.3156H363.627V75.2423H361.848V74.3156H360.942V72.8456H359.13V74.3156H358.225V75.2423H356.445V74.3156H355.313V75.2423H354.342V86.9061H352.401V74.0918H352.628V73.9641H351.723V72.7178H351.269V70.7685H350.492V68.5955H350.202V67.3811H349.943V68.5955H349.652V70.7685H348.875V72.7178H348.422V73.9641H347.516V74.0918H347.743V86.9061H346.19V62.2363H344.993V61.0859H344.734V61.4693H343.537V60.7024H342.729V62.2363H340.625V63.7382H338.717V61.8528H336.776V63.7382H334.608V66.103H329.27V63.8979H323.705V62.428H322.866V63.8979H321.895V66.103H320.795V42.3598H318.045V41.9124H317.462V41.2093H316.362V40.7939H313.257V42.7113H311.089V40.7939H307.951V41.2093H306.851V41.9124H306.302V42.3598H303.551V64.5691H302.678V62.9393H301.901V62.1085H300.964V60.9261H299.83V62.1085H298.537V50.5085H296.045V48.8467H293.814V50.5085H291.323V65.7834L290.675 65.8153L288.993 47.4727V21.3967L286.308 20.5339L284.885 1.71188H284.366L282.944 20.502L280.291 21.3967V47.4407L278.479 67.0616L277.832 67.0296V49.3581H276.926V43.9575H274.985V49.3581H273.626V58.2418H271.524V69.5861H269.907V39.4198H261.754V37.9818H258.68V37.2468H258.162V37.9818H257.904V39.4198H249.202V50.9239H245.578V50.2528H242.569V49.422H238.428V50.9239H237.36V56.3884H235.84V58.1778H234.772V42.4875H232.443V39.6435H230.308V34.0192H226.264V39.6435H224.161V42.4875H221.8V46.546H220.603V45.2357H214.973V46.546H213.421V69.2027H211.9V63.3867H210.865V63.0352H209.636V63.3867H208.244V63.0352H207.015V63.3867H205.591V63.0352H205.527V48.4953H204.233V47.4407H203.035V46.4181H202.325V47.4407H201.289V48.4953H196.404V81.0902H195.984V81.5696H195.078V80.547H193.654V81.5696H192.134V81.9531H193.46V83.0075H192.134V83.1355H193.46V84.5414H190.225V64.3773H187.281V63.8021H184.596V64.3773H182.105V88.8555H181.07V85.6918H180.94V85.5321H180.682V84.5414H180.552V84.4136H180.39V84.3817H180.26L178.772 84.1899V84.158L178.158 84.0621H177.673V84.0941H169.456V83.9343H169.293V82.9436H168.485V82.0489H168.356V80.1316H168.259V79.3966H167.935V78.8853H167.871V78.6616H167.837V78.5018H167.773V77.9585H167.547V77.607C167.547 76.4566 166.964 75.4021 166.027 74.9228L165.638 74.731L165.832 74.5393L165.735 74.5073V74.4114H165.315L165.282 74.0918V72.8775H165.088V72.7817H164.991V72.8775H164.83V74.4114H164.376L164.247 74.5073L164.376 74.7949L164.086 74.9228C163.179 75.3702 162.597 76.4246 162.597 77.607V77.9585H162.37V78.5018H162.306V78.6616H162.274V78.8853H162.177V79.3966H161.886V80.1954H161.789V82.1128H161.659V83.0075H160.882V83.9982H160.721V84.158H158.326V61.8209H158.036V59.9674H157.874V60.99H156.936V61.8209H155.9V60.99H155.027V60.3828H154.995V60.99H153.7V60.3828H153.473V61.8209H152.342V80.6109L151.727 79.6203C151.727 79.5882 151.727 79.5882 151.663 79.5882C151.598 79.5563 151.5 79.5243 151.403 79.4285V80.6109C151.532 80.6748 151.63 80.8346 151.695 81.0582C151.695 81.1221 151.727 81.1221 151.727 81.1221C151.727 81.1221 151.759 81.1221 151.792 81.1542C151.922 81.1861 152.083 81.282 152.278 81.5056L152.342 81.6016V84.126L151.436 84.2538V84.2859L149.947 84.4775H149.786V84.5095H149.559V84.6373H148.783V59.9674H146.259V58.4016H143.057V59.9674H141.796V76.8081H139.692V76.0092H138.592V76.8081H135.551V76.0092H130.925V76.8081H128.855V54.1834H128.111V53.1288H127.561V54.1834H124.487V53.1288H123.679V60.9581H123.064V84.7013H120.152V86.4268L120.605 86.5546L120.12 86.6825V87.5453L119.764 87.1938L119.667 87.2896V87.3856L119.796 87.5134L118.341 87.0341C118.308 87.0341 118.244 87.0021 118.179 87.0021H118.147L117.758 86.9061C117.694 86.8742 117.629 86.8742 117.564 86.8423C117.5 86.8423 117.467 86.8103 117.403 86.8103L117.305 86.7784L117.37 86.8742L116.658 86.6506L115.914 86.4588V86.4907L115.882 86.4588L115.591 86.3949H115.558V86.363L115.3 86.2991L115.267 86.331C115.267 86.331 115.203 86.2991 115.17 86.2991L114.782 86.2031C114.685 86.1711 114.556 86.1392 114.459 86.1392H113.553L113.844 86.1712C114.006 86.2031 114.135 86.2031 114.297 86.2352C114.394 86.2671 114.491 86.2671 114.588 86.2991C114.879 86.3629 115.138 86.3949 115.364 86.4588C115.72 86.5227 116.044 86.5866 116.335 86.6506H116.4C117.079 86.7784 117.758 86.97 118.567 87.1938C118.923 87.2896 119.246 87.4175 119.538 87.5134L120.152 87.705V89.3349H115.17V91.3162H113.456V88.8555L113.067 89.2389V91.3162H110.188V89.1431L109.832 88.7916V91.3162H61.5319V89.5905H46.8769V82.3045H47.2003C55.5146 82.4324 63.2466 82.656 70.1374 82.9117C72.8872 83.0075 75.5401 83.1035 78.0958 83.2313L77.1576 83.1035C76.64 83.0395 76.1224 83.0075 75.5723 83.0075H75.2489V82.9756C74.9901 82.9756 74.7312 82.9436 74.5048 82.9436C74.3754 82.9436 74.2783 82.9436 74.149 82.9436L74.2137 82.9756L73.6313 82.9436L73.2755 82.9117H73.2431H73.146C72.5961 82.8798 72.0785 82.8478 71.5608 82.8478H71.2373V82.8159C70.9785 82.8159 70.7197 82.7839 70.4609 82.7839C70.202 82.7839 69.911 82.7839 69.6521 82.752H69.6198V82.8159L69.5228 82.752H69.3286L69.2316 82.8159V82.752H69.1345C68.6169 82.7839 68.0993 82.752 67.5816 82.72V82.752L67.2258 82.72C66.967 82.72 66.7082 82.688 66.4171 82.688C66.2876 82.688 66.1259 82.688 65.9964 82.688L66.0935 82.752L65.5758 82.72V82.752L65.5435 82.72L65.2524 82.688L65.22 82.72V82.688H65.1229C64.573 82.656 64.0554 82.6241 63.5377 82.6241H63.2143V82.5921C62.9554 82.5921 62.6642 82.5921 62.4054 82.5602C62.276 82.5602 62.1467 82.5602 62.0172 82.5602L62.082 82.6241L61.5643 82.5921V82.6241L61.5319 82.5921L61.2409 82.5602H61.2085H61.1761H60.6585L60.6908 82.5282C60.5615 82.5282 60.4644 82.5282 60.335 82.5282C60.0438 82.5282 59.785 82.4963 59.4938 82.4963H59.2027C58.9115 82.4963 58.6527 82.4963 58.3615 82.4643C58.2321 82.4643 58.1028 82.4643 57.9733 82.4643L58.038 82.4963L57.5528 82.4643V82.4963L57.5204 82.4643L57.2293 82.4324L57.1969 82.4643V82.4324H57.1646H56.6793L56.7117 82.4005C56.3235 82.3685 55.9028 82.3685 55.5146 82.3685H55.1912C54.9323 82.3685 54.6411 82.3685 54.3823 82.3685C54.253 82.3685 54.0912 82.3685 53.9618 82.3685L54.0265 82.4005L53.5736 82.3685V82.4005L53.5088 82.3366L53.2178 82.3045L53.1854 82.3366V82.3045H53.153H52.7001L52.7325 82.2725C52.603 82.2725 52.4736 82.2725 52.3119 82.2725C52.0531 82.2725 51.7619 82.2725 51.5031 82.2406H51.212C50.9208 82.2406 50.662 82.2406 50.3708 82.2406C50.2738 82.2406 50.1767 82.2406 50.0797 82.2406L50.1443 82.3045L49.2062 82.2406L49.1091 82.3366V82.2406H49.0444H48.7209C48.5267 82.2406 48.3004 82.2406 48.1063 82.2086C47.7827 82.2086 47.4592 82.2086 47.1681 82.1767H46.8769V79.9717L46.9092 80.0038V79.6203L47.2327 79.6523C47.9445 79.6842 48.5591 79.7161 49.1738 79.7161H49.4973V79.7481C49.7561 79.7481 50.015 79.78 50.2738 79.78C50.4031 79.78 50.5326 79.78 50.662 79.78C50.7913 79.78 50.9532 79.78 51.0825 79.812H51.1149V79.7161L51.212 79.812H51.3737L51.5031 79.7161V79.8439L51.859 79.8759C52.0207 79.8759 52.2148 79.8759 52.3765 79.9078C52.6354 79.9078 52.8942 79.9078 53.153 79.9398V79.9078L53.5088 79.9398C53.7677 79.9398 54.0589 79.9717 54.3177 79.9717C54.6088 79.9717 54.8676 80.0038 55.1588 80.0038V79.9398L55.2234 80.0038H55.45L55.5146 79.9717V80.0357L55.9352 80.0677C56.097 80.0677 56.2264 80.0677 56.3881 80.0677C56.6793 80.0677 56.9381 80.0677 57.2293 80.0996L57.5204 80.1316C57.7792 80.1316 58.0057 80.1635 58.2645 80.1635C58.394 80.1635 58.5233 80.1635 58.6203 80.1635H58.8144C58.8792 80.1635 58.9762 80.1635 59.041 80.1635H59.1703V80.0996L59.2351 80.1635H59.4614L59.4938 80.1316V80.1635H60.0115L59.9467 80.2274C60.335 80.2593 60.7556 80.2593 61.1437 80.2593V80.2274L61.4997 80.2593C62.0172 80.2913 62.5672 80.3232 63.1172 80.3232H63.1495V80.2913L63.1819 80.3232H63.4731L63.5053 80.2913V80.3232H64.0554L63.9584 80.4192C64.3789 80.4511 64.7671 80.4831 65.1553 80.4831V80.4192L67.1611 80.547V80.4831L67.2258 80.547H67.4523L67.517 80.515V80.5789L68.0345 80.6109L69.1668 80.6748V80.6428L69.5228 80.6748C70.0727 80.7067 70.6227 80.7386 71.1402 80.7707H71.1726V80.7067L71.2373 80.7707H71.4314L71.5284 80.7067V80.7707L73.1784 80.8666L73.7284 80.8985C74.2137 80.9305 74.6989 80.9624 75.1518 80.9943L75.5077 81.0263L75.5723 80.9943V81.0263H75.7018C76.1871 81.0582 76.64 81.0902 77.0928 81.1221H77.2223V81.0902L80.2309 81.282L80.1663 81.3139L82.4955 81.4736L84.3072 81.5696L85.6012 81.6655C86.1836 81.6974 86.6689 81.7293 87.1864 81.7932H87.2512V81.7613L87.2835 81.7932L87.7364 81.8571C88.2217 81.8891 88.7393 81.921 89.2246 81.985L89.5805 82.017C90.0334 82.0489 90.4216 82.0809 90.8745 82.1128H91.0362V82.0809L91.101 82.1128L91.3922 82.1448H91.4244L93.1391 82.2725C93.3978 82.3045 93.6567 82.3045 93.9155 82.3366C94.1743 82.3685 94.4331 82.3685 94.692 82.4005L96.0184 82.4963L95.9536 82.5282C96.083 82.5282 96.2125 82.5602 96.3742 82.5921L96.633 82.6241L97.8299 82.72V82.656L97.927 82.752L98.1211 82.7839L98.1859 82.752V82.7839L98.8329 82.8478L98.7681 82.8798C98.8329 82.8798 98.93 82.8798 98.9946 82.9117V82.8798L99.6094 82.9436L100.224 83.0075V82.9436L100.289 83.0075L100.483 83.0395L100.58 82.9756V83.0395L101.065 83.1035L101.389 83.1355V83.1035L101.939 83.1674L102.586 83.2632V83.2313L102.618 83.2632L102.909 83.2952L103.459 83.3591L103.75 83.391V83.3591L104.106 83.391C104.235 83.423 104.397 83.423 104.527 83.4549L104.915 83.4868L105.885 83.6148L105.821 83.6467L106.08 83.6786L106.435 83.7425C106.5 83.7425 106.532 83.7425 106.597 83.7745L107.277 83.8705V83.7745L107.438 83.9024H107.471L107.632 83.8064V83.9024L108.118 83.9663L108.473 84.0302V83.9982L108.829 84.0621C109.056 84.0941 109.25 84.126 109.412 84.158L109.671 84.1899L109.703 84.3817V85.5641L109.315 85.5002L108.991 85.4682C108.959 85.4682 108.959 85.4682 108.927 85.4682L108.765 85.4363L108.732 85.4042L107.6 85.2764L107.244 85.2445C106.985 85.2125 106.727 85.1806 106.435 85.1486H106.403V85.1806L106.338 85.1486L106.047 85.1167L105.853 85.0848C105.594 85.0848 105.368 85.0528 105.141 85.0207L104.85 84.9888C104.786 84.9888 104.721 84.9568 104.624 84.9568L104.689 84.9888L104.042 84.9249V84.9568L104.009 84.9249H102.877L103.071 84.8291C103.006 84.8291 102.941 84.8291 102.844 84.7971L102.489 84.7652C102.23 84.7332 101.971 84.7013 101.712 84.7013H101.68V84.7332L101.615 84.7013H100.548L100.709 84.6053C100.645 84.6053 100.548 84.5734 100.483 84.5734L100.127 84.5414C99.9975 84.5414 99.8682 84.5095 99.7387 84.5095C99.6093 84.5095 99.4475 84.4775 99.3182 84.4775H99.2858V84.5414L99.2212 84.4775L99.027 84.4456L98.93 84.5095V84.4456H98.8976C98.5742 84.4456 98.3152 84.4137 98.0565 84.3817L97.7653 84.3498L97.0859 84.2859L97.1829 84.3498L96.5359 84.2859L96.5035 84.2538L93.7214 84.0302L93.7538 84.0621L92.4597 83.9663C92.1038 83.9343 91.748 83.9024 91.3598 83.8705V83.9024L89.5481 83.7745L89.2246 83.7425L87.5747 83.6467V83.6786L87.2188 83.6467C87.0571 83.6467 86.8953 83.6148 86.7659 83.6148C86.6041 83.6148 86.4424 83.5828 86.2806 83.5828H86.2482L86.4424 83.7106L85.116 83.5509H84.3396L84.4366 83.4868C84.3072 83.4868 84.1778 83.4868 84.0485 83.4549C83.8543 83.4549 83.6925 83.4549 83.4984 83.423L83.2073 83.391C82.8514 83.3591 82.5279 83.3591 82.2044 83.3271L82.2368 83.3591L81.5574 83.3271H80.4575L80.5545 83.2632C80.4897 83.2632 80.3927 83.2632 80.328 83.2632C80.0692 83.2632 79.7781 83.2313 79.5193 83.2313L79.2281 83.1993C78.9692 83.1993 78.7104 83.1674 78.4517 83.1674C78.3222 83.1674 78.2251 83.1674 78.0958 83.1674L78.2899 83.2952C88.0599 83.7106 96.3418 84.2539 102.909 84.861C104.947 85.0528 107.309 85.2764 109.476 85.5641H109.574L109.541 85.5321L110.512 85.6599C111.191 85.7557 111.87 85.8517 112.485 85.9475L112.906 86.0114L112.938 85.9795L112.712 85.9156V85.9795L112.647 85.9156L112.226 85.8198C112.162 85.8198 112.129 85.7877 112.097 85.7877C112.064 85.7877 112.032 85.7877 112 85.7877V85.8198L111.612 85.7557C111.547 85.7557 111.482 85.7238 111.417 85.7238C111.353 85.7238 111.288 85.7238 111.191 85.6918H111.159L110.868 85.628L110.835 85.6599V85.628H110.706C110.641 85.628 110.576 85.628 110.512 85.596C110.479 85.596 110.479 85.596 110.447 85.596H110.123V84.3817L110.382 84.3178C110.544 84.2859 110.706 84.2859 110.835 84.3178V84.2859L111.062 84.3498L110.997 84.2859L111.676 84.4456V84.4136L111.709 84.4456L111.935 84.5095L112.032 84.4456V84.5414L112.129 84.5734C112.194 84.5734 112.226 84.6053 112.291 84.6053C112.356 84.6053 112.453 84.6373 112.518 84.6373L112.776 84.7013V85.5321L113.359 86.1073L113.423 86.0753V84.7971H113.747C113.812 84.7971 113.876 84.7971 113.909 84.8291C113.909 84.8291 113.909 84.8291 113.941 84.8291V84.7971H114.006L113.973 84.7652L114.685 84.9249V84.893L114.75 84.9568L115.041 85.0207H115.073V85.0528L115.3 85.1167C115.397 85.1486 115.429 85.1486 115.494 85.1486H115.817V85.2445H115.882C115.979 85.2764 116.108 85.3084 116.238 85.3403V85.1167H115.882C115.817 85.1167 115.753 85.0848 115.72 85.0848H115.494V85.0207L113.973 84.7013C113.941 84.7013 113.876 84.7013 113.844 84.6693C113.812 84.6693 113.812 84.6693 113.779 84.6693L113.488 84.6373L113.456 84.3498V77.9585C113.456 77.9266 113.423 77.8627 113.423 77.8307L113.391 77.7668V74.6671H113.359V74.3795H113.326V71.3117H113.197L113.165 71.3436C113.132 71.4396 113.067 71.5035 113.003 71.5993L112.776 71.8231V71.887H112.712L112.453 72.1425V71.887H111.385L111.32 71.6632C111.288 71.5993 111.288 71.5674 111.256 71.5035V71.887H110.9C110.512 71.887 110.188 71.6632 110.091 71.3436H109.994V70.6086H110.059V67.8605H109.962V70.6086H109.994V71.3436H109.929V74.6991H109.897V79.4604H109.832V83.9982L109.444 83.9343C109.347 83.9343 109.25 83.9024 109.153 83.9024C109.056 83.8705 108.927 83.8703 108.829 83.8384L108.538 83.7745C108.409 83.7745 108.247 83.7425 108.118 83.7106C107.988 83.6786 107.859 83.6786 107.729 83.6467L106.694 83.4868C106.662 83.4868 106.597 83.4868 106.532 83.4549H106.5L106.144 83.423C105.853 83.391 105.562 83.3591 105.206 83.2952H105.174L104.915 83.2632C104.656 83.2313 104.365 83.1993 104.074 83.1674L103.783 83.1355V83.1035H103.718C103.459 83.0716 103.233 83.0395 102.941 83.0075L102.586 82.9756C102.294 82.9436 102.003 82.9117 101.68 82.8798L101.356 82.8478C101.098 82.8159 100.871 82.7839 100.58 82.752H100.548H100.515L100.224 82.72C99.9652 82.688 99.674 82.656 99.3829 82.6241L98.9622 82.5602C98.7359 82.5282 98.5418 82.4963 98.3152 82.4963L98.283 81.9531H98.2506V81.985H97.8299C97.4741 82.017 97.1183 82.0489 96.7625 82.0489H96.3418V82.017C95.986 82.017 95.6624 81.985 95.339 81.9531L93.7538 81.7932H91.101C90.6157 81.7932 90.1628 81.7613 89.6451 81.6974V81.7293L89.2893 81.6974C88.7716 81.6335 88.2865 81.5696 87.7688 81.4736L87.6393 81.4417L87.2512 81.3459C86.7335 81.2181 86.1512 81.0902 85.5042 80.9305L85.213 80.8346H85.1807L85.0837 81.3778L83.272 81.25C82.6572 81.2181 82.172 81.1861 81.622 81.1221L81.2662 81.0902C80.6516 81.0582 80.1339 81.0263 79.6163 80.9624L77.2547 80.8346V80.8027C77.0928 80.8027 76.8987 80.7707 76.737 80.7707C76.5429 80.7707 76.3812 80.7386 76.1871 80.7386C76.09 80.7386 75.993 80.7386 75.8635 80.7386C75.7664 80.7386 75.6694 80.7386 75.5723 80.7386H75.2489V80.7067L73.5989 80.6109V80.6428L69.555 80.3873L67.1934 80.2593V80.2274L65.5435 80.1316L63.5377 80.0357L61.5319 79.9398V79.9717L61.1114 79.9398C60.5615 79.9078 60.0438 79.8759 59.4938 79.8759H59.1703V79.8439H59.1056C58.5557 79.812 58.038 79.78 57.488 79.78H57.1646V79.7481H57.0998C56.5499 79.7161 56.0646 79.6842 55.5146 79.6842V79.7161L55.1588 79.6842C54.6088 79.6523 54.0265 79.6203 53.4765 79.6203H53.153V79.5882C52.603 79.5563 52.0207 79.5243 51.4707 79.5243H51.1473V79.6842C50.8561 79.6842 50.5972 79.6523 50.306 79.6523C50.015 79.6523 49.7561 79.6523 49.4973 79.6203L49.0767 79.5882C48.4297 79.5563 47.8151 79.5243 47.2003 79.5243H46.8769V64.5691H46.7152V52.266H46.6181V51.627H46.5857V43.7338L46.424 43.7657V42.8391H46.4563V35.5531C46.4563 35.5211 46.424 35.5211 46.424 35.4892L46.3916 35.4253V34.6584L46.2622 34.6903V34.3068L46.1328 34.3388V33.9873L45.971 34.0192V33.6677L45.8417 33.6996V33.7317L45.6476 33.7636V34.1152L45.4858 34.1471V34.4986L45.3564 34.5306V34.9141L45.2269 34.946V35.2016C45.0652 35.8727 44.3858 36.4479 43.5771 36.6077L41.9919 36.8953V36.1923L41.8948 36.2242V35.6491H41.8624V35.3614H41.733V35.3934L41.4742 35.4253V35.7449H41.4418V36.0964L41.3449 36.1284V36.9273L39.889 37.1509C39.0803 37.3107 38.3361 36.9273 38.1744 36.2881V36.1603L38.0449 36.1923V35.8088L37.9156 35.8407V35.4892L37.7539 35.5211V35.2016L37.5598 35.2335V35.2016L37.4303 35.2335V35.5531L37.2686 35.585V35.7449L37.1068 35.9046V40.027L37.1392 39.995V44.2771H37.2038V45.2357H37.0097V52.9691H36.9774V53.7041H36.8804V64.6329H36.9128V65.6875H36.7509V79.1728H36.4275C36.2334 79.1728 36.0393 79.1728 35.8451 79.1409L35.5216 79.1089C35.1981 79.1089 34.8746 79.077 34.5834 79.077C34.2922 79.077 33.9688 79.077 33.6776 79.045H33.354L33.4511 79.1409H33.5806L33.6776 79.045V79.1409L34.0981 79.1728C34.2922 79.1728 34.4863 79.1728 34.6482 79.2048C34.9392 79.2048 35.2628 79.2049 35.554 79.2368H35.8451C36.0393 79.2368 36.2656 79.2368 36.4922 79.2688L36.7509 79.3007V81.985H35.8774V82.0809L35.7805 81.985H35.6834L35.554 82.1448C35.8451 82.1448 36.1363 82.1448 36.4598 82.1448H36.7833V91.2842H24.2957V88.3761H17.7931V87.0341H0.420566V86.3949H18.4401V87.737H24.9427V90.645H36.0715V82.7839C24.3281 82.6241 14.008 82.5921 7.40842 82.5921H0.0970536V81.1861H1.09994L0.0970536 80.0996V79.0131H0V77.607H0.323512C0.452917 77.607 0.582321 77.607 0.776429 77.607C0.938185 77.607 1.16464 77.607 1.39109 77.6391V61.9806C1.09994 62.1404 0.80878 62.2682 0.452917 62.428L0 62.7156V61.4055L0.161755 61.3095C0.517619 61.1178 0.873483 60.9261 1.22935 60.7663L1.39109 60.7024V58.0181C1.09994 58.1778 0.80878 58.3057 0.452917 58.4655L0 58.6573V57.315L0.194107 57.2192C1.71461 56.4523 3.17042 55.7173 4.59387 55.0142C5.20855 54.6946 5.82321 54.3752 6.43788 54.0875C27.4014 43.3823 34.9716 36.9911 36.5246 35.617V35.4573L36.6539 35.4253V35.0738L36.8157 35.0418V34.7223L37.0097 34.6903V34.4986L37.1068 34.4666V33.8914L38.142 33.7317V34.3707H38.2391V34.5306L38.4332 34.4986V34.8181L38.595 34.7861V35.0738L38.7243 35.0418V35.4253L38.8538 35.3934V36.1923C38.9509 36.4799 39.3713 36.6396 39.8244 36.5757L40.7626 36.4159V35.681L40.8596 35.6491V35.1057H40.8919V34.85L41.1508 34.8181V34.5625L42.3153 34.3388V34.6584L42.5741 34.6264V34.9779H42.6065V35.2975L42.7036 35.2656V36.0964L43.5124 35.9366C44.0624 35.8407 44.5153 35.4573 44.6447 35.0738V34.4027L44.774 34.3707V33.9873L44.9035 33.9553V33.6038L45.0652 33.5718V33.2203L45.2593 33.1884V32.9648L45.3564 32.9328V32.3575L46.3916 32.1978V32.6771L46.4887 32.6452V32.9648L46.6828 32.9328V33.2842L46.8445 33.2523V33.5718L46.974 33.5399V33.9234L47.1033 33.8914V35.2975C47.1357 35.3295 47.1681 35.3934 47.2003 35.4573C47.3622 35.713 47.5563 36.0005 47.7827 36.352C48.0739 36.7993 48.4297 37.3427 48.8503 37.9498C49.8209 39.3878 51.8914 42.4236 54.8352 46.45C61.4997 55.5256 67.9374 63.0352 73.9871 68.7873C79.3898 73.9321 84.4043 77.5431 88.804 79.5563C90.551 80.3553 92.1362 80.8666 93.6244 81.1861C96.2772 80.8666 98.7681 79.9078 101.033 78.342C104.106 76.233 106.921 72.9095 109.347 68.4357V67.3492H109.412V67.1895H109.476V67.0616H109.541V66.9338H109.606V66.838H109.638V66.6142H110.447V66.9338H110.544V67.0616H110.609V67.1895H110.673V67.3492H110.738V67.7646C110.77 67.8285 110.868 67.8605 110.965 67.8605H111.126V67.573H111.159V67.3173H111.256V67.1895H112.097V67.3173H112.194V67.573H112.226V67.8605H112.388C112.485 67.8605 112.582 67.7966 112.615 67.7646V67.3173H112.679V67.1575H112.744V67.0296H112.809V66.9018H112.873V66.806H112.906V66.5823H113.714V66.7741H113.747V66.8699H113.812V66.9977H113.876V67.1575H113.941V67.3173H114.006V68.1161C115.85 73.9002 117.564 78.7893 119.117 82.6241C119.344 83.1993 119.57 83.6786 119.764 84.0941H119.861H122.449V60.3509H123.064V52.5217H125.167V53.5763H126.946V52.5217H128.79V53.5763H129.534V76.201H130.311V75.4021H136.198V76.201H137.945V75.4021H140.34V76.201H141.148V59.3602H142.411V57.7943H146.906V59.3602H149.43V75.8495H149.851V76.4886C149.883 76.5845 149.947 76.7123 149.947 76.7761C149.98 76.872 150.044 76.968 150.078 77.0318C150.11 77.0957 150.142 77.1277 150.142 77.1596C150.207 77.2875 150.207 77.3834 150.207 77.4473C150.207 77.5111 150.207 77.5431 150.239 77.575C150.466 77.671 150.627 77.8307 150.724 78.2461V77.3195H151.436V77.9585C151.468 78.0545 151.532 78.1823 151.532 78.2461C151.566 78.31 151.598 78.3739 151.63 78.438V61.2775H152.763V59.8396H154.283H155.609V60.4467H157.163V59.4242H158.618V61.2775H158.909V83.5189H160.009V83.3591H160.074V82.72H160.138V82.3685H160.85V81.8571H160.947V81.4736H161.077V80.0357H161.109V79.6203H161.077V78.7574H161.141V78.438H161.174V78.0864H161.206V77.9904H161.27C161.335 77.7668 161.497 77.7029 161.659 77.7029V77.671H161.691V77.575H161.755C161.789 77.5111 161.789 77.4792 161.821 77.4473V77.3195H161.95C162.047 76.1052 162.63 75.0506 163.567 74.4753C163.567 74.2836 163.665 74.1559 163.762 74.0599C163.794 73.9641 163.826 73.9002 163.891 73.8363V73.4848H163.923V73.1971H163.957V73.1332H164.02C164.052 73.1013 164.052 73.0693 164.086 73.0374V72.3982H164.118V72.0148H164.15V71.9509H164.247C164.279 71.887 164.344 71.855 164.376 71.8231V71.7271H164.44V70.9921H164.603L164.667 70.1613C164.635 70.0974 164.603 70.0335 164.603 69.9377C164.603 69.8738 164.635 69.7778 164.667 69.7139V69.2985H165.411V69.7139C165.444 69.7778 165.476 69.8738 165.476 69.9377C165.476 70.0016 165.444 70.0654 165.411 70.1293L165.476 70.9921H165.638V71.12L165.671 71.4075V71.7271H165.735V71.8231C165.767 71.855 165.832 71.887 165.864 71.9509H165.962V72.0148L165.994 72.2066H166.027V72.4302H166.059V73.0693C166.091 73.1013 166.091 73.1332 166.123 73.1652H166.188V73.2291H166.22V73.5167H166.252V73.8682C166.318 73.9321 166.35 73.996 166.382 74.0918C166.511 74.1878 166.576 74.3475 166.576 74.5073C167.481 75.0825 168.097 76.1691 168.193 77.3514H168.323V77.4792C168.356 77.5111 168.388 77.575 168.388 77.607H168.452V77.7029H168.485V77.7349C168.647 77.7349 168.808 77.7988 168.873 78.0224H168.937V78.1184H168.971V78.4699H169.003V78.7893H169.067V79.6523H169.035V80.0677H169.003V81.4417H169.132V81.8252H169.229V82.3366H169.941V82.688H170.037V83.3271H170.103V83.4868H177.026V82.8798C176.994 82.9117 176.961 82.9117 176.929 82.9117C176.831 82.9436 176.799 82.9756 176.734 83.0714L176.67 83.3271L176.379 83.2952C175.894 83.2313 175.99 81.6655 175.99 81.6016C175.99 81.5696 175.99 81.5056 175.958 81.4736C175.926 81.3778 175.926 81.25 175.958 81.1221C175.958 81.0902 175.99 80.9624 176.087 80.8985C176.185 80.4831 176.346 80.3232 176.573 80.1954C176.573 80.1954 176.605 80.1954 176.605 80.1635C176.605 80.1635 176.605 80.1316 176.605 80.0996C176.605 80.0038 176.638 79.8759 176.702 79.7481C176.734 79.6523 176.767 79.5882 176.831 79.5243C176.865 79.4604 176.897 79.3966 176.929 79.3327C176.929 79.3007 176.961 79.2368 176.994 79.1728C176.994 79.1409 177.026 79.1089 177.026 79.077V78.438H177.738V79.6523L177.77 79.6203C177.867 79.2049 178.029 79.045 178.255 78.9173C178.255 78.9173 178.287 78.9173 178.287 78.8853C178.287 78.8853 178.287 78.8534 178.287 78.8214C178.287 78.7254 178.319 78.5977 178.384 78.4699C178.416 78.3739 178.45 78.31 178.514 78.2461C178.546 78.1823 178.579 78.1184 178.611 78.0545C178.611 78.0224 178.643 77.9585 178.675 77.8946C178.675 77.8627 178.708 77.8307 178.708 77.7988V77.1596H179.452V77.9904C179.55 77.671 179.711 77.5431 179.904 77.4473C179.904 77.4473 179.938 77.4473 179.938 77.4153C179.938 77.4153 179.938 77.3834 179.938 77.3514C179.938 77.2556 179.97 77.1277 180.035 76.9999C180.067 76.9041 180.099 76.84 180.164 76.7761C180.196 76.7123 180.228 76.6484 180.26 76.5845C180.26 76.5525 180.294 76.4886 180.326 76.4246C180.326 76.3927 180.358 76.3607 180.358 76.3288V75.6896H181.07V83.7425H181.231V83.8705H181.491V84.126V63.7063H183.981V63.131H187.961V63.7063H190.905V83.8705H192.846V83.7425H191.519V80.8985H193.039V79.8759H195.758V80.4192H195.79V47.8242H200.674V46.7696H201.71V45.7471H203.715V46.7696H204.913V47.8242H206.207V62.3641H206.271V62.7156H206.4V62.3641H208.924V62.7156H209.022V62.3641H211.544V62.7156H212.58V68.5316H212.807V45.8749H214.358V44.5646H221.186V41.8164H223.547V38.9724H225.649V33.3482H227.785V29.9609H228.852V33.3802H230.988V39.0043H233.123V41.8484H235.452V55.7492H236.746V50.2848H237.814V48.7828H243.249V49.6136H246.257V50.2848H248.587V38.7807H257.289V37.3427H257.548V36.6077H259.359V37.3427H260.75V34.243H261.947V37.3427H262.433V38.7807H270.585V68.947H270.909V57.6027H273.012V48.7189H274.37V43.3184H277.574V48.7189H278.479V60.0313L279.644 47.4088V20.9493L282.361 20.0545L283.752 1.07275H285.5L286.922 20.0864L289.673 20.9493V47.4407L290.707 58.7211V49.8693H293.199V48.2077H296.725V49.8693H299.216V61.4693V60.287H301.642V61.4693H302.581V62.3002H302.937V41.7206H305.686V41.2732H306.236V40.5702H307.336V40.1548H310.539V36.1603H310.831V32.7091H310.96V29.5454H311.768V42.0721H312.642V29.5454H313.418V32.7091H313.58V36.1603H313.872V40.1548H317.042V40.5702H318.142V41.2732H318.725V41.7206H321.474V63.2589H322.251V61.7889H324.385V63.2589H329.95V65.4638H333.994V63.0991H336.162V61.2136H339.396V63.0991H340.011V61.5971H342.114V60.0632H344.217V60.4467H345.673V61.5971H346.87V76.6803H347.129V74.731H346.902V73.3249H347.484V72.526H347.807V72.0786H348.26V71.4396H348.034V70.385H348.26V70.1293H349.038V68.8511H348.811V67.9564H349.328V67.7646H349.199V66.8699H349.328V66.742H349.36C349.392 66.5823 349.49 66.4545 349.619 66.3266V62.8434H350.59V66.3266C350.719 66.4225 350.816 66.5823 350.848 66.742H350.882V66.8699H351.011V67.7646H350.882V67.9564H351.399V68.8511H351.172V70.1293H351.948V70.385H352.175V71.4396H351.948V72.0786H352.401V72.526H352.725V73.3249H353.308V74.731H353.081V76.6803H353.437V77.8946H353.308V78.8214H353.081V86.2671H353.728V74.6032H354.698V73.6764H357.125V74.6032H357.61V73.6764H358.515V72.2066H361.622V73.6764H362.527V74.6032H363.012V73.6764H364.631V47.6643H367.153V45.6831H368.382V44.7564H369.516V45.6831H371.262V44.7564H372.879V45.6831H374.077V47.6643H376.6V86.2671H377.312L379.964 88.6957V90.7089H381V98.9216H380.968ZM114.103 90.7089H114.523V88.7277H119.505V88.1845L119.344 88.1205C119.052 88.0246 118.729 87.9288 118.373 87.801C117.597 87.5773 116.95 87.4175 116.303 87.2577H116.238C115.914 87.1938 115.591 87.1299 115.235 87.066C114.976 87.0021 114.717 86.97 114.459 86.9061C114.361 86.9061 114.264 86.8742 114.135 86.8423H114.103V88.1525H114.135V89.4307H114.103V90.7089ZM62.1791 90.7089H109.185V86.1392C107.082 85.8837 104.85 85.6599 102.909 85.4682C94.5625 84.6693 83.5308 84.0302 70.1374 83.5828C63.3436 83.3271 55.7411 83.1355 47.5239 82.9756V88.9834H62.1791V90.7089ZM110.835 90.4532V90.5811L110.9 90.5173L110.835 90.4532ZM111.385 89.4307L111.676 89.7184L111.967 89.4307H111.385ZM113.067 88.8235H113.456V86.1392H113.197L113.326 86.0753L113.067 86.0114V86.0434L113.197 86.0753L113.067 86.2031V88.6957L113.197 88.8235H113.067ZM110.576 88.7916L112.938 88.8235L112.906 88.7916H110.576ZM109.832 88.7916H110.156L110.188 88.7596V86.0753L109.832 85.7238V88.7916ZM110.835 87.3535V87.4814L110.9 87.4175L110.835 87.3535ZM111.45 86.4268L111.676 86.6506L111.838 86.4907C111.709 86.4588 111.579 86.4588 111.45 86.4268ZM120.12 86.3949L119.667 85.4363V86.2352L119.214 86.0753C119.149 86.0434 119.085 86.0114 118.988 86.0114C118.955 86.0114 118.923 85.9795 118.891 85.9795L118.438 85.8198C118.308 85.7557 118.179 85.7238 118.017 85.7238L117.758 85.6599V85.628H117.726C117.629 85.596 117.532 85.596 117.467 85.5641C117.403 85.5321 117.338 85.5321 117.241 85.5002L116.982 85.4363V85.3723C116.917 85.3723 116.853 85.3403 116.788 85.3403C116.723 85.3403 116.658 85.3084 116.626 85.3084V85.4363L116.982 85.5002L116.917 85.4363L117.273 85.5641L117.791 85.7238L118.729 85.9475L118.632 85.9795H118.664L118.923 86.0434V86.0753H118.955C119.02 86.1073 119.117 86.1073 119.182 86.1392C119.214 86.1392 119.246 86.1712 119.279 86.1712V86.0753L119.376 86.2031L120.12 86.3949ZM346.837 86.2671H347.097V78.8214H346.87V77.8946H346.837V86.2671ZM116.755 85.7557L116.885 85.9795C116.885 86.0114 116.917 86.0114 116.917 86.0114C116.95 86.0434 116.95 86.0753 116.982 86.1392L117.014 86.2031V85.628L116.755 85.7557ZM149.818 83.8064H149.915L150.788 83.6786V80.3232C150.724 80.4831 150.659 80.5789 150.53 80.6109L150.271 80.6748L150.142 80.4192C150.078 80.2913 150.012 80.2913 149.915 80.2593C149.883 80.2593 149.851 80.2274 149.818 80.2274V83.8064ZM180.326 83.7425H180.358V80.1316C180.326 80.1635 180.294 80.1635 180.26 80.1635C180.164 80.1954 180.131 80.2274 180.067 80.3232L180.002 80.5789L179.711 80.547C179.582 80.515 179.516 80.4192 179.452 80.2593V83.6148L180.326 83.7425ZM151.468 81.6974V83.5509L151.695 83.5189V81.7932C151.663 81.7613 151.63 81.7613 151.566 81.7293C151.532 81.7293 151.5 81.6974 151.468 81.6974ZM177.705 83.423H178.255L178.708 83.4868V81.6016C178.675 81.6335 178.643 81.6335 178.611 81.6335C178.514 81.6655 178.482 81.6974 178.416 81.7932L178.353 82.0489L178.06 82.017C177.899 81.985 177.802 81.7932 177.738 81.5377V83.423H177.705ZM107.988 83.1035C108.053 83.1035 108.15 83.1355 108.215 83.1355H108.247V76.5206C108.182 76.5845 108.15 76.6484 108.085 76.7123L107.988 76.872V83.1035ZM106.824 82.9436L107.082 82.9756V77.9585L107.05 77.9904C106.985 78.0545 106.888 78.1503 106.824 78.2142V82.9436ZM86.9601 82.9117C86.9923 82.9117 86.9923 82.9117 87.0247 82.9117V82.8798L86.9601 82.9117ZM105.627 82.8159C105.724 82.8159 105.788 82.8478 105.885 82.8478V79.1728C105.788 79.2368 105.724 79.3327 105.627 79.3966V82.8159ZM83.9514 82.7839C83.9837 82.7839 84.0161 82.7839 84.0485 82.7839L83.9514 82.72V82.7839ZM82.9162 82.688C82.9484 82.688 82.9808 82.688 83.0132 82.688V82.6241L82.9162 82.688ZM104.462 82.656C104.559 82.656 104.624 82.688 104.721 82.688V80.1316C104.624 80.1954 104.559 80.2593 104.462 80.3232V82.656ZM79.9398 82.5602C80.0044 82.5602 80.0368 82.5602 80.1015 82.5602L79.9398 82.4324V82.5602ZM103.265 82.4963C103.362 82.4963 103.427 82.5282 103.524 82.5282V80.8985C103.427 80.9624 103.362 80.9943 103.265 81.0582V82.4963ZM78.8075 82.4963C78.8721 82.4963 78.9369 82.4963 79.0016 82.4963V82.3685L78.8075 82.4963ZM85.9571 82.3366V82.4324L86.1189 82.3685C86.0541 82.3366 86.0219 82.3366 85.9571 82.3366ZM75.8959 82.4005C75.9605 82.4005 76.0254 82.4005 76.09 82.4005L75.8959 82.2725V82.4005ZM102.068 82.3685C102.165 82.3685 102.23 82.4005 102.327 82.4005V81.5056C102.23 81.5375 102.165 81.5696 102.068 81.6016V82.3685ZM74.7312 82.3366C74.8283 82.3366 74.9253 82.3366 75.0224 82.3366V82.1448L74.7312 82.3366ZM176.573 81.3139V81.3459C176.573 81.4098 176.605 81.5056 176.605 81.6016C176.605 81.7932 176.605 82.0809 176.638 82.3045C176.67 82.3045 176.702 82.2725 176.702 82.2725C176.734 82.2725 176.767 82.2406 176.767 82.2406C176.767 82.2406 176.767 82.2406 176.799 82.1767C176.865 81.9531 176.961 81.8252 177.09 81.7613V80.5789C177.026 80.6748 176.929 80.7067 176.865 80.7386C176.799 80.7707 176.767 80.8027 176.702 81.0582C176.67 81.1221 176.638 81.2181 176.573 81.3139ZM84.9542 82.2406L85.0189 82.2725V82.2406H84.9542ZM100.903 82.2406C101 82.2406 101.065 82.2725 101.162 82.2725V82.017C101.065 82.0489 101 82.0809 100.903 82.1128V82.2406ZM71.8844 82.2406C71.9815 82.2406 72.0785 82.2406 72.1756 82.2406L71.8844 82.017V82.2406ZM6.632 82.017H7.40842C13.9109 82.017 23.9723 82.0489 35.4893 82.2086V82.0489H35.1011L35.1333 82.017C34.8422 82.017 34.5187 82.017 34.2276 82.017C34.0335 82.017 33.8069 82.017 33.6128 82.017H33.2894C32.9336 82.017 32.5776 82.017 32.2542 81.985C31.8983 81.985 31.5747 81.985 31.2189 81.985V82.017L31.1865 81.985H30.9277L30.8953 82.017V81.985H30.4101C29.8925 81.985 29.3426 81.985 28.7926 81.9531H28.469C27.8867 81.9531 27.3043 81.9531 26.7544 81.921L26.7868 81.9531H26.3986V82.0489L26.3015 81.9531H26.1398L26.0427 82.0489V81.9531H26.0103C25.6545 81.9531 25.3309 81.9531 24.9751 81.921C24.6517 81.921 24.2957 81.921 23.9723 81.921H21.9989L22.0311 81.9531L21.5782 81.921V81.985L21.5136 81.921H21.2871L21.2224 81.985V81.921H20.8018C20.2196 81.8891 19.6695 81.8891 19.1195 81.8891H16.7256V82.017L16.5962 81.8891H16.4991L16.3696 82.017V81.8891H11.8405V82.017L11.7111 81.8891H11.5817L11.4847 81.985V81.8891H11.0965L11.1288 81.8571H6.98786V82.017L6.85846 81.8571H6.79374L6.632 82.017ZM70.6227 82.1767C70.7197 82.1767 70.8492 82.1767 70.9462 82.1767V81.9531L70.6227 82.1767ZM81.9456 82.0809V82.1767L82.1073 82.0809H81.9456ZM67.8728 82.1128C68.0022 82.1128 68.1316 82.1128 68.261 82.1448L67.8728 81.8571V82.1128ZM80.878 81.985L81.0074 82.0809V82.017L80.878 81.985ZM66.5788 82.0489C66.7082 82.0489 66.8052 82.0489 66.9346 82.0489V81.7613L66.5788 82.0489ZM2.03813 82.017H6.632V81.8571H2.49104L2.52339 81.8891H2.03813V82.017ZM1.81167 82.017H2.00577L1.90873 81.921L1.81167 82.017ZM0.744078 82.017H1.77931V81.8891H0.744078V82.017ZM63.8613 81.985C63.9906 81.985 64.0877 81.985 64.2171 81.985L63.8613 81.6655V81.985ZM62.5025 81.9531C62.6319 81.9531 62.7937 81.9531 62.9231 81.9531V81.6335L62.5025 81.9531ZM77.934 81.7932V81.9531L78.1605 81.8252L77.934 81.7932ZM59.8497 81.8571C59.9791 81.8571 60.1409 81.8571 60.2703 81.8571L59.8497 81.4736V81.8571ZM76.8017 81.7293L76.9958 81.8571V81.7293C76.9311 81.7293 76.8665 81.7293 76.8017 81.7293ZM58.4586 81.8571C58.6203 81.8571 58.7498 81.8571 58.9115 81.8571V81.4736L58.4586 81.8571ZM55.8382 81.7613C55.9999 81.7613 56.1294 81.7613 56.2911 81.7613L55.8382 81.3459V81.7613ZM73.8901 81.5696V81.7932L74.1813 81.6016C74.0842 81.5696 73.9871 81.5696 73.8901 81.5696ZM54.4147 81.7613C54.5764 81.7613 54.7382 81.7613 54.9 81.7613V81.3459L54.4147 81.7613ZM51.8266 81.6655C51.9884 81.6655 52.1501 81.6655 52.3119 81.6655L51.8266 81.1861V81.6655ZM72.7255 81.5056L72.9843 81.6974V81.5377L72.7255 81.5056ZM50.3708 81.6335C50.565 81.6335 50.7267 81.6335 50.8884 81.6335V81.1542L50.3708 81.6335ZM47.5239 81.5696C47.6856 81.5696 47.8475 81.5696 48.0415 81.5696L47.5239 81.2181V81.5696ZM69.8786 81.3459V81.6016L70.2344 81.3459C70.105 81.3459 70.008 81.3459 69.8786 81.3459ZM68.6492 81.282L68.9404 81.5056V81.282H68.6492ZM97.6358 81.4736C97.6036 81.5056 97.5388 81.5056 97.5065 81.5377C97.5388 81.5377 97.6036 81.5377 97.6358 81.5377V81.4736ZM65.867 81.1221V81.4417L66.2876 81.1221H65.867ZM98.5094 81.1221V81.4098C98.6064 81.4098 98.6711 81.3778 98.7681 81.3778V80.9943C98.6711 81.0263 98.6064 81.0582 98.5094 81.1221ZM33.9364 81.3778C34.0335 81.3778 34.1305 81.3778 34.2276 81.3778C34.3893 81.3778 34.5511 81.3778 34.6805 81.3778L33.904 80.6109V81.3778H33.9364ZM32.06 81.3459C32.1247 81.3459 32.1895 81.3459 32.2542 81.3459C32.5129 81.3459 32.7394 81.3459 32.9982 81.3459V80.4831L32.06 81.3459ZM64.6054 81.0902L64.9288 81.3778V81.1221C64.8317 81.0902 64.7024 81.0902 64.6054 81.0902ZM29.0838 81.3139C29.4072 81.3139 29.7308 81.3139 30.0542 81.3459L29.0838 80.4192V81.3139ZM27.175 81.3139C27.4985 81.3139 27.822 81.3139 28.1455 81.3139V80.4192L27.175 81.3139ZM24.2634 81.282C24.4898 81.282 24.7163 81.282 24.9751 81.282C25.0398 81.282 25.1368 81.282 25.2016 81.282L24.2634 80.3553V81.282ZM22.3547 81.282H23.3253V80.3553L22.3547 81.282ZM61.8555 80.9305V81.282L62.276 80.9624C62.1467 80.9305 61.9849 80.9305 61.8555 80.9305ZM19.4107 81.25C19.7343 81.25 20.0577 81.25 20.4135 81.25L19.4107 80.2274V81.25ZM17.5019 81.25H18.4725V80.2593L17.5019 81.25ZM14.5581 81.25H15.5609L14.5581 80.1635V81.25ZM12.5846 81.25H13.6198V80.1635L12.5846 81.25ZM60.5291 80.8985L60.9173 81.25V80.9305C60.7879 80.8985 60.6585 80.8985 60.5291 80.8985ZM9.70536 81.2181H10.7729L9.70536 80.0677V81.2181ZM7.73194 81.2181H8.79953V80.0677L7.73194 81.2181ZM4.85267 81.2181H5.92027L4.85267 80.0357V81.2181ZM2.87926 81.2181H3.9145V80.0357L2.87926 81.2181ZM99.7065 80.515V81.1861C99.8035 81.1542 99.8682 81.1542 99.9652 81.1221V80.3873C99.8682 80.4192 99.8035 80.4831 99.7065 80.515ZM57.844 80.7707V81.1542L58.2969 80.7707H58.2645C58.135 80.7707 57.9733 80.7707 57.844 80.7707ZM87.9629 80.9943C88.3187 81.0582 88.6747 81.1221 89.0305 81.1542V81.0263C88.9335 80.9943 88.8364 80.9305 88.7393 80.8985C88.5776 80.8346 88.4482 80.7707 88.2865 80.7067L87.9629 80.547V80.9943ZM56.4528 80.6748L56.9057 81.0582V80.6748C56.744 80.6748 56.6146 80.6748 56.4528 80.6748ZM178.255 80.0677V80.0996C178.255 80.1635 178.287 80.2593 178.287 80.3553C178.287 80.547 178.287 80.8346 178.319 81.0582C178.352 81.0582 178.384 81.0263 178.384 81.0263C178.416 81.0263 178.45 80.9943 178.45 80.9943C178.45 80.9943 178.45 80.9943 178.482 80.9305C178.546 80.6748 178.675 80.547 178.804 80.4831V79.2688C178.74 79.3966 178.611 79.4285 178.546 79.4924C178.482 79.5243 178.45 79.5563 178.384 79.812C178.352 79.8759 178.319 79.9717 178.255 80.0677ZM47.8797 80.3232L48.8827 81.0582V80.3553C48.5591 80.3553 48.2356 80.3232 47.8797 80.3232ZM53.8324 80.5789V81.0263L54.3177 80.6109C54.1559 80.5789 53.9941 80.5789 53.8324 80.5789ZM52.4089 80.515L52.8942 80.9624V80.547C52.7325 80.515 52.5706 80.515 52.4089 80.515ZM49.7885 80.4192V80.9305L50.306 80.4511H50.2738C50.1121 80.4192 49.9502 80.4192 49.7885 80.4192ZM100.903 79.812V80.8027C101 80.7707 101.065 80.7386 101.162 80.7067V79.6523C101.065 79.7161 101 79.78 100.903 79.812ZM176.346 80.8027C176.379 80.8027 176.379 80.8027 176.346 80.8027V80.8027ZM85.9571 80.515C86.3453 80.6109 86.7011 80.7067 87.0247 80.7707V80.0357C86.6689 79.8439 86.313 79.6523 85.9571 79.4604V80.515ZM81.9456 80.6428C82.2044 80.6748 82.4631 80.6748 82.7543 80.7067C82.6572 80.6748 82.5602 80.6428 82.4631 80.5789C82.3014 80.515 82.1397 80.4511 81.978 80.3873C81.978 80.3873 81.978 80.3873 81.9456 80.3873V80.6428ZM31.5101 79.7481V80.5789L32.4483 79.7481C32.3836 79.7481 32.2865 79.7481 32.2218 79.7481C31.963 79.78 31.7365 79.78 31.5101 79.7481ZM34.4863 79.8759L35.1981 80.6109V79.9078C35.004 79.9078 34.8099 79.9078 34.5834 79.8759C34.5511 79.8759 34.5187 79.8759 34.4863 79.8759ZM79.9398 80.515C80.2956 80.547 80.6192 80.5789 81.0074 80.5789V79.9717C80.6516 79.812 80.2956 79.6523 79.9398 79.4924V80.515ZM26.6573 79.6203V80.547L27.6603 79.6203C27.5633 79.6203 27.4985 79.6203 27.4014 79.6203C27.1426 79.6523 26.8839 79.6523 26.6573 79.6203ZM29.6984 79.7161L30.5719 80.547V79.7481C30.3454 79.7481 30.119 79.7481 29.8601 79.7161C29.8279 79.7161 29.7631 79.7161 29.6984 79.7161ZM24.7487 79.5882L25.7192 80.515V79.5882C25.4604 79.5882 25.2339 79.5882 24.9751 79.5563C24.9104 79.5882 24.8456 79.5882 24.7487 79.5882ZM21.8047 79.4924V80.4831L22.84 79.5243C22.7429 79.5243 22.6459 79.5243 22.5488 79.5243C22.29 79.5243 22.0311 79.5243 21.8047 79.4924ZM77.934 80.4192L79.0016 80.4831V79.045C78.6458 78.8534 78.2899 78.6616 77.934 78.4699V80.4192ZM19.9284 79.4604L20.8988 80.4192V79.4604C20.64 79.4604 20.4135 79.4604 20.1872 79.4285C20.0901 79.4604 20.0254 79.4604 19.9284 79.4604ZM16.9844 79.3646V80.4192L17.9872 79.3966C17.6638 79.3966 17.3078 79.3646 16.9844 79.3646ZM15.0432 79.3327L16.0462 80.3873V79.3646C15.7226 79.3646 15.3668 79.3646 15.0432 79.3327ZM12.1317 79.2688V80.3873L13.1669 79.3007C13.0375 79.3007 12.9081 79.3007 12.8111 79.3007C12.5846 79.2688 12.3582 79.2688 12.1317 79.2688ZM7.27902 79.1728V80.3553L8.34661 79.2048C8.2172 79.2048 8.05545 79.2048 7.92604 79.2048C7.69958 79.1728 7.47312 79.1728 7.27902 79.1728ZM10.1906 79.2368L11.1935 80.3553V79.2688C10.9347 79.2688 10.7082 79.2688 10.4494 79.2688C10.3524 79.2368 10.2877 79.2368 10.1906 79.2368ZM75.9283 80.2593C76.0576 80.2593 76.1547 80.2913 76.2517 80.2913C76.4458 80.3232 76.64 80.3232 76.8017 80.3232C76.8665 80.3232 76.9311 80.3232 76.9958 80.3232V77.9585C76.64 77.7668 76.2841 77.5431 75.9283 77.3195V80.2593ZM2.42634 79.077V80.3232L3.49392 79.1089C3.29982 79.1089 3.13806 79.1089 2.97631 79.1089C2.7822 79.077 2.5881 79.077 2.42634 79.077ZM102.068 79.045V80.2913C102.165 80.2593 102.23 80.1954 102.327 80.1635V78.8534C102.23 78.9173 102.165 78.9811 102.068 79.045ZM5.30559 79.1089L6.34083 80.2913V79.1409C6.08203 79.1409 5.79087 79.1409 5.56441 79.1409C5.46735 79.1089 5.40265 79.1089 5.30559 79.1089ZM0.388214 79.077L1.39109 80.2913V79.1089C0.970536 79.077 0.614673 79.077 0.388214 79.077ZM83.9514 79.8759C84.3395 80.0357 84.6955 80.1316 85.0189 80.2593V78.9173C84.6307 78.6935 84.2748 78.4699 83.9514 78.2781V79.8759ZM73.9225 80.1635L74.9901 80.2274V76.7442C74.7636 76.5845 74.5048 76.4246 74.2783 76.2649C74.149 76.1691 74.0519 76.1052 73.9225 76.0092V80.1635ZM71.9167 80.0677L72.9843 80.1316V75.4021C72.7255 75.2103 72.499 75.0506 72.2725 74.8588C72.1432 74.7629 72.0461 74.6991 71.9167 74.6032V80.0677ZM69.8786 79.9398L70.9462 80.0038V73.9321C70.6873 73.7403 70.4609 73.5486 70.202 73.3568C70.105 73.261 69.9757 73.1971 69.8786 73.1013V79.9398ZM67.8728 79.8439L68.9404 79.9078V72.3343C68.5846 72.0467 68.2286 71.7591 67.8728 71.4716V79.8439ZM65.867 79.7161L66.9346 79.78V70.6727C66.5788 70.385 66.2229 70.0654 65.867 69.7459V79.7161ZM150.11 79.6523H150.142C150.174 79.6523 150.207 79.6842 150.239 79.6842C150.271 79.4285 150.271 79.1728 150.239 78.9811V78.9492C150.239 78.8214 150.271 78.7574 150.271 78.6935C150.271 78.6616 150.271 78.6616 150.271 78.6616C150.207 78.5977 150.174 78.5018 150.174 78.438C150.11 78.1503 150.078 78.1184 150.012 78.1184C149.947 78.0864 149.851 78.0545 149.754 77.9585V79.1409C149.883 79.2049 149.98 79.3646 150.044 79.5882C150.078 79.6203 150.078 79.6523 150.11 79.6523C150.078 79.6523 150.078 79.6523 150.11 79.6523ZM63.8613 79.6203L64.9288 79.6842V68.915L63.8613 67.9245V79.6203ZM103.265 78.1184V79.6523C103.362 79.5882 103.427 79.5563 103.524 79.4924V77.8946C103.491 77.9266 103.459 77.9585 103.427 77.9585C103.394 77.9904 103.33 78.0545 103.265 78.1184ZM179.904 78.5977V78.6296C179.904 78.6935 179.938 78.7893 179.938 78.8853C179.938 79.077 179.938 79.3646 179.97 79.5882C180.002 79.5882 180.035 79.5563 180.035 79.5563C180.067 79.5563 180.099 79.5243 180.099 79.5243C180.099 79.5243 180.099 79.5243 180.131 79.4604C180.196 79.2368 180.294 79.1089 180.423 79.045V77.8627C180.358 77.9585 180.26 77.9905 180.196 78.0224C180.131 78.0545 180.099 78.0864 180.035 78.342C180.002 78.4059 179.97 78.5018 179.904 78.5977ZM61.8555 79.5243L62.9231 79.5882V67.0296C62.5672 66.6781 62.2113 66.3585 61.8555 66.0071V79.5243ZM178.029 79.5563C178.061 79.5563 178.061 79.5563 178.029 79.5563V79.5563ZM81.9456 79.077C82.075 79.1409 82.2044 79.1728 82.3014 79.2368C82.4955 79.3007 82.6573 79.3966 82.8514 79.4604C82.8838 79.4604 82.9484 79.4924 82.9808 79.5243V77.671C82.6572 77.4473 82.3014 77.2235 81.9132 76.936V79.077H81.9456ZM59.8497 79.4285C60.2055 79.4285 60.5615 79.4604 60.9173 79.4604V65.1123C60.6585 64.8567 60.3996 64.601 60.1409 64.3134C60.0438 64.2175 59.9467 64.0898 59.8497 63.9938V79.4285ZM57.844 79.3327C58.1998 79.3327 58.5557 79.3646 58.9115 79.3646V63.0352C58.5557 62.6517 58.1998 62.3002 57.844 61.9167V79.3327ZM55.8382 79.2368C56.194 79.2368 56.5499 79.2688 56.9057 79.2688V60.8621C56.8734 60.8302 56.8734 60.8302 56.841 60.7982C56.8086 60.7663 56.7764 60.7024 56.744 60.6705C56.4528 60.3509 56.1294 60.0313 55.8382 59.6798V79.2368ZM53.8324 79.1728C54.1882 79.1728 54.544 79.2048 54.9 79.2048V58.6892C54.544 58.2738 54.1882 57.8584 53.8324 57.443V79.1728ZM30.8631 79.1089H31.1865C31.5101 79.1089 31.8659 79.1409 32.2218 79.1409C32.5776 79.1409 32.9012 79.1728 33.257 79.1728H33.2894V79.077C32.9336 79.077 32.5776 79.045 32.2542 79.045C31.8983 79.045 31.5424 79.045 31.1865 79.0131H30.8631V78.9811C30.5071 78.9811 30.1837 78.9492 29.8279 78.9492C29.4719 78.9492 29.1484 78.9492 28.7926 78.9173H28.469L28.5985 79.045H28.7278L28.8249 78.9492V79.045H28.8897C29.2131 79.077 29.5689 79.077 29.8925 79.077C30.2161 79.077 30.5395 79.077 30.8631 79.1089ZM51.8266 79.077C52.1825 79.077 52.5384 79.1089 52.8942 79.1089V56.3564C52.6677 56.0688 52.4089 55.7811 52.1825 55.4936C52.0531 55.3657 51.956 55.206 51.8266 55.0781V79.077ZM49.8209 78.9811C50.015 78.9811 50.1767 78.9811 50.3708 79.0131C50.5326 79.0131 50.7267 79.0131 50.8884 79.045V53.9598C50.5326 53.5443 50.1767 53.0968 49.8209 52.6495V78.9811ZM26.0103 78.9811H26.3339C26.6897 79.0131 27.0132 79.0131 27.3691 79.0131C27.5633 79.0131 27.7896 79.0131 28.0162 79.045L27.9838 79.0131L28.4044 79.045V78.9492C28.0486 78.9492 27.6926 78.9173 27.3691 78.9173C27.0132 78.9173 26.6573 78.9173 26.3015 78.8853H25.9779C25.6221 78.8853 25.2987 78.8534 24.9427 78.8534C24.6193 78.8534 24.2634 78.8534 23.9399 78.8214V78.9492C24.2634 78.9492 24.6193 78.9811 24.9751 78.9811C25.3309 78.9492 25.6869 78.9492 26.0103 78.9811ZM47.5563 78.9173C48.0092 78.9173 48.4297 78.9492 48.8827 78.9492V51.4352C48.3326 50.7321 47.7827 50.0291 47.2651 49.3581V50.892L47.6856 50.8281V51.7867L47.3945 51.8506V63.0671L47.8797 63.0032V64.1217L47.5563 64.1536V78.9173ZM23.6811 78.9173H23.9075L24.0045 78.8534H23.6811C23.3253 78.8534 22.9693 78.8214 22.6135 78.8214C22.2576 78.8214 21.8694 78.7893 21.5136 78.7893H21.19V78.7254C20.8666 78.7254 20.5106 78.6935 20.1872 78.6935C19.8313 78.6935 19.5078 78.6935 19.1519 78.6616V78.7893H19.1843C19.5078 78.7893 19.8636 78.8214 20.2196 78.8214C20.543 78.8214 20.8666 78.8213 21.19 78.8534H21.5136C21.8694 78.8853 22.193 78.8853 22.5812 78.8853C22.7752 78.8853 22.9693 78.8853 23.1634 78.8853L23.1311 78.8534L23.6487 78.8853V78.8214L23.6811 78.9173ZM104.462 77.0638V78.7893C104.559 78.7255 104.624 78.6616 104.721 78.5657V76.8081C104.689 76.84 104.689 76.84 104.656 76.872C104.591 76.936 104.527 76.9999 104.462 77.0638ZM18.8608 78.7893H18.9902L19.0873 78.6935H18.7637C18.4079 78.6935 18.052 78.6616 17.6961 78.6616C17.3402 78.6616 17.0168 78.6616 16.6608 78.6296H16.3374C15.9814 78.6296 15.6256 78.5977 15.2698 78.5977C14.9139 78.5977 14.5904 78.5977 14.2345 78.5657V78.6935H14.6228L14.5904 78.7254C15.1403 78.7254 15.6904 78.7574 16.2726 78.7893H16.305V78.7254H16.6286C17.2108 78.7254 17.7609 78.7574 18.3431 78.7574L18.3108 78.7254L18.7313 78.7574V78.6616L18.8608 78.7893ZM79.9398 78.1503L80.1985 78.2781C80.4897 78.4059 80.7486 78.5338 81.0074 78.6616V76.2329L79.9398 75.4341V78.1503ZM14.008 78.6616H14.1699L14.2345 78.5657H13.9109L14.008 78.6616ZM11.8405 78.6296C12.1641 78.6296 12.4876 78.6296 12.8111 78.6296C13.1669 78.6296 13.5228 78.6616 13.9109 78.6616V78.5657C13.1669 78.5338 12.4876 78.5338 11.8082 78.5338H11.4847V78.5018C11.1288 78.5018 10.7406 78.5018 10.3847 78.4699C10.0612 78.4699 9.73771 78.4699 9.4142 78.4699V78.5657H9.80241L9.77006 78.5977C9.99652 78.5977 10.2553 78.5977 10.4818 78.5977C10.8377 78.5977 11.1612 78.6296 11.5494 78.6296H11.8405ZM9.22009 78.5657H9.28479L9.38185 78.4699H9.15539L9.22009 78.5657ZM6.98786 78.5338C7.27902 78.5338 7.60253 78.5338 7.92604 78.5338C8.28191 78.5338 8.67011 78.5657 9.05833 78.5657V78.438C8.70247 78.438 8.31425 78.438 7.95839 78.4059C7.60253 78.4059 7.27902 78.4059 6.9555 78.4059H6.632C6.24378 78.4059 5.85557 78.4059 5.49971 78.3739C5.17619 78.3739 4.85267 78.3739 4.56152 78.3739V78.4699H4.91738C5.14383 78.4699 5.33795 78.4699 5.56441 78.4699C5.92027 78.4699 6.27613 78.5018 6.66434 78.5018H6.98786V78.5338ZM109.218 78.5338H109.25V75.2103C109.25 75.2423 109.218 75.2423 109.218 75.2742V78.5338ZM33.9364 78.438C34.1629 78.438 34.357 78.438 34.5834 78.4699C34.7775 78.4699 35.004 78.4699 35.1981 78.5018V42.3917C34.8422 42.6793 34.3893 42.9988 33.9364 43.3503V78.438ZM0.647024 78.438C0.938185 78.438 1.29405 78.438 1.74697 78.4699H1.77931V78.438H2.10283C2.36164 78.438 2.68515 78.438 2.97631 78.438C3.36452 78.438 3.75274 78.4699 4.20566 78.4699V78.3739C3.75274 78.3739 3.33218 78.3739 2.97631 78.342C2.6528 78.342 2.36164 78.342 2.10283 78.342H1.71461C1.3264 78.342 1.00289 78.342 0.744078 78.31C0.711726 78.31 0.679374 78.31 0.647024 78.31V78.438ZM4.33506 78.4699H4.43211L4.52917 78.3739H4.27036L4.33506 78.4699ZM31.5101 78.3739C31.7689 78.3739 31.9954 78.3739 32.2542 78.4059C32.5129 78.4059 32.7394 78.4059 32.9982 78.438V44.0534C32.5453 44.373 32.06 44.7245 31.5101 45.1079V78.3739ZM29.0838 78.2781C29.3426 78.2781 29.5689 78.2781 29.8279 78.31C30.0866 78.31 30.313 78.31 30.5719 78.342V45.7471C30.119 46.0666 29.6013 46.3861 29.0838 46.7377V78.2781ZM26.6573 78.2142C26.9163 78.2142 27.1426 78.2142 27.4014 78.2461C27.6603 78.2461 27.8867 78.2461 28.1455 78.2781V47.3128C27.8544 47.5046 27.5633 47.6643 27.2721 47.8561C27.078 47.9839 26.8515 48.1118 26.6573 48.2716V78.2142ZM24.231 78.1503C24.4898 78.1503 24.7163 78.1503 24.9751 78.1823C25.2016 78.1823 25.4604 78.1823 25.6869 78.2142V48.8467C25.5898 48.9107 25.4928 48.9746 25.3957 49.0066C25.0075 49.2623 24.5869 49.4859 24.1986 49.7416L24.231 78.1503ZM21.8047 78.1184C22.0635 78.1184 22.3223 78.1184 22.5812 78.1503C22.84 78.1503 23.0664 78.1503 23.3253 78.1823L23.2929 50.3167C22.8076 50.6043 22.3223 50.892 21.8047 51.1795V78.1184ZM179.679 78.0864C179.711 78.0864 179.711 78.0864 179.679 78.0864V78.0864ZM19.4107 78.0224C19.6695 78.0224 19.9284 78.0224 20.1548 78.0545C20.4135 78.0545 20.64 78.0545 20.8988 78.0864V51.7548C20.7695 51.8186 20.64 51.9145 20.5106 51.9785C20.1548 52.1702 19.7989 52.3939 19.4107 52.6175V78.0224ZM16.9844 77.9585C17.2432 77.9585 17.4697 77.9585 17.7285 77.9904C17.955 77.9904 18.2137 77.9905 18.4725 78.0224V53.1609C18.246 53.2886 18.0196 53.4164 17.7931 53.5443C17.5343 53.7041 17.2756 53.8318 16.9844 53.9917V77.9585ZM14.5581 77.8946C14.8169 77.8946 15.0432 77.8946 15.3022 77.9266C15.5609 77.9266 15.7874 77.9266 16.0462 77.9585V54.5029C15.5609 54.7906 15.0756 55.0461 14.5581 55.3338V77.8946ZM12.1317 77.8946C12.617 77.8946 13.1022 77.8946 13.6198 77.9266V55.8131C13.1346 56.0688 12.6493 56.3564 12.1317 56.612V77.8946ZM9.70536 77.8307C9.93182 77.8307 10.1583 77.8307 10.4171 77.8307C10.6759 77.8307 10.9347 77.8307 11.1935 77.8307V57.0914C11.0318 57.1873 10.87 57.2511 10.7082 57.347C10.3847 57.5068 10.0612 57.6985 9.70536 57.8584V77.8307ZM168 77.7988H168.097V77.7029H168V77.7988ZM162.111 77.7988H162.145V77.7029H162.111V77.7988ZM7.27902 77.7668C7.50548 77.7668 7.73194 77.7668 7.99074 77.7668C8.24955 77.7668 8.50837 77.7668 8.76717 77.7668V58.3377C8.57307 58.4335 8.37895 58.5293 8.18485 58.6253C7.89369 58.785 7.60253 58.9128 7.27902 59.0727V77.7668ZM4.85267 77.7349C5.07913 77.7349 5.27325 77.7349 5.49971 77.7349C5.75851 77.7349 6.04967 77.7349 6.34083 77.7349V59.552C6.14673 59.6478 5.95262 59.7436 5.75851 59.8716C5.46735 60.0313 5.17619 60.1911 4.85267 60.3189V77.7349ZM105.627 75.8814V77.7668C105.724 77.671 105.788 77.575 105.885 77.5111V75.6257C105.788 75.6896 105.724 75.7856 105.627 75.8814ZM2.42634 77.7029C2.5881 77.7029 2.7822 77.7029 2.97631 77.7029C3.26746 77.7029 3.55864 77.7029 3.9145 77.7349V60.8302L2.42634 61.5652V77.7029ZM77.934 77.0957C78.031 77.1596 78.1281 77.1916 78.2251 77.2556C78.4841 77.4153 78.7428 77.5431 79.0016 77.671V74.7629C78.6458 74.4753 78.2899 74.1878 77.934 73.9002V77.0957ZM75.9283 75.8814C76.2517 76.1052 76.6077 76.3288 76.9958 76.5525V73.1013C76.64 72.8136 76.2841 72.4941 75.9606 72.1745C75.9606 72.1745 75.9605 72.1745 75.9283 72.1425V75.8814ZM106.824 74.4434V76.4246C106.921 76.3288 106.985 76.201 107.082 76.1052V74.1238C106.985 74.2198 106.921 74.3475 106.824 74.4434ZM73.9225 74.5713C74.2783 74.7949 74.6341 75.0506 74.9901 75.3063V71.3756L73.9225 70.385V74.5713ZM107.988 72.8775V74.8268C108.085 74.6991 108.15 74.5713 108.247 74.4434V72.4941C108.15 72.622 108.085 72.7498 107.988 72.8775ZM71.9167 73.1013C72.2725 73.3568 72.6285 73.6125 72.9843 73.8682V69.4582C72.6285 69.1068 72.2725 68.7873 71.9167 68.4357V73.1013ZM109.185 71.3117V72.8775C109.218 72.8136 109.25 72.7498 109.282 72.6859V71.2798H109.185V71.3117ZM69.8786 71.5355C70.2344 71.8231 70.5903 72.1106 70.9462 72.3663V67.5089C70.5903 67.1575 70.2344 66.7741 69.8786 66.4225V71.5355ZM67.8728 69.8738C68.2286 70.1613 68.5846 70.4809 68.9404 70.7685V65.4318C68.6816 65.1442 68.4227 64.8886 68.164 64.601C68.0669 64.5052 67.9698 64.3773 67.8728 64.2814V69.8738ZM113.294 70.6086V67.9884L113.326 68.0842V67.8924H113.197C113.067 68.212 112.712 68.4357 112.356 68.4357H110.932C110.641 68.4357 110.382 68.3399 110.221 68.1481L110.576 69.2346V69.0109H112.453V68.6593L113.003 69.2027C113.067 69.2666 113.197 69.3943 113.229 69.5542L113.262 69.6181V70.6406H113.294V70.6086ZM110.673 69.5542L110.868 70.1613C110.868 70.1932 110.868 70.1932 110.9 70.2252V69.5542H110.673ZM65.867 68.1161C66.2229 68.4357 66.5788 68.7553 66.9346 69.0748V63.2909C66.6758 63.0032 66.4171 62.7156 66.1581 62.428C66.0611 62.3321 65.964 62.2043 65.867 62.1085V68.1161ZM63.8613 66.2627C64.1847 66.5823 64.5083 66.9018 64.8641 67.2214C64.8965 67.2534 64.8965 67.2534 64.9288 67.2853V61.0859C64.573 60.7024 64.2171 60.287 63.8936 59.9035L63.8613 59.8716V66.2627ZM349.943 66.9018L350.17 67.1255V67.0616C350.17 66.9977 350.17 66.9338 350.202 66.9018C350.202 66.8699 350.17 66.838 350.104 66.806L350.072 66.7741L350.04 66.806C350.007 66.838 349.975 66.8699 349.943 66.9018ZM61.8555 64.3134C62.2113 64.6649 62.5672 65.0484 62.9231 65.3999V58.7531C62.5672 58.3057 62.2113 57.8903 61.8555 57.4749V64.3134ZM36.1686 53.3845V64.2495H36.2334V53.3845H36.1686ZM59.8497 62.2682C60.2055 62.6517 60.5615 63.0032 60.9173 63.3867V56.3245C60.6908 56.0368 60.4644 55.7492 60.2055 55.4616C60.0762 55.3018 59.9467 55.1421 59.8497 55.0142V62.2682ZM57.844 60.0952C58.1998 60.4786 58.5557 60.8941 58.9115 61.2775V53.7999C58.5557 53.3525 58.1998 52.9052 57.844 52.4259V60.0952ZM2.42634 57.4749V60.1911L3.9145 59.4561V56.7399L2.42634 57.4749ZM55.8382 57.8903C56.194 58.3057 56.5499 58.6892 56.9057 59.1046V51.2116C56.5499 50.7321 56.194 50.2528 55.8382 49.8055V57.8903ZM4.85267 56.2606V58.9767C5.33795 58.7211 5.85557 58.4655 6.34083 58.2418V55.4936C6.14673 55.5895 5.95262 55.6853 5.72617 55.8131C5.43501 55.973 5.14383 56.1327 4.85267 56.2606ZM7.27902 55.0461V57.7624C7.47312 57.6666 7.66724 57.5707 7.86134 57.443C8.1525 57.2831 8.44366 57.1234 8.76717 56.9954V54.3113C8.57307 54.4071 8.37895 54.503 8.1525 54.6307C7.86134 54.7586 7.57018 54.8864 7.27902 55.0461ZM53.8324 55.5895C54.1882 56.0049 54.544 56.4203 54.9 56.8357V48.5911C54.6735 48.2716 54.4471 47.9839 54.2206 47.6643C54.0912 47.4727 53.9618 47.313 53.8324 47.1211V55.5895ZM9.70536 53.7999V56.5161L9.77006 56.4842C10.2553 56.2285 10.7406 56.0049 11.1935 55.7492V53.0329C11.0318 53.1288 10.87 53.1928 10.7082 53.2886C10.3847 53.4484 10.0289 53.6402 9.70536 53.7999ZM12.1317 52.5217V55.206C12.6493 54.9503 13.1346 54.6627 13.6198 54.4071V51.7228C13.1346 51.9784 12.6493 52.266 12.1317 52.5217ZM51.8266 53.1928C52.1177 53.5443 52.3765 53.8638 52.6677 54.2153C52.7325 54.3113 52.7971 54.3752 52.8942 54.471V45.8429C52.5384 45.3316 52.1825 44.8203 51.8266 44.341V53.1928ZM14.5581 51.2435V53.9277C14.7198 53.8318 14.8815 53.736 15.0432 53.6402C15.3668 53.4484 15.7226 53.2886 16.0462 53.0968V50.4125C15.5609 50.7002 15.0756 50.9878 14.5581 51.2435ZM16.9844 49.9013V52.5856C17.2432 52.4259 17.5019 52.298 17.7609 52.1382C18.0196 52.0105 18.246 51.8506 18.4725 51.7228V49.0704C18.246 49.1982 18.0196 49.3261 17.7931 49.4539C17.5343 49.6136 17.2432 49.7416 16.9844 49.9013ZM36.1686 45.076V52.4578L36.3627 52.4259V45.0441L36.1686 45.076ZM49.8209 50.7321C50.1121 51.0836 50.4031 51.4671 50.6943 51.8186C50.7591 51.9145 50.8237 51.9785 50.8884 52.0743V43.0628C50.6943 42.7752 50.4679 42.4875 50.2738 42.1999C50.1121 41.9763 49.9502 41.7525 49.8209 41.5289V50.7321ZM19.4107 48.5592V51.2435C19.6048 51.1475 19.7665 51.0198 19.9606 50.9239C20.2842 50.7321 20.6077 50.5724 20.8988 50.3806V47.7284C20.7695 47.7923 20.64 47.8881 20.5106 47.952C20.1548 48.1438 19.7989 48.3354 19.4107 48.5592ZM21.8047 47.1531V49.8374C21.9341 49.7735 22.0635 49.6777 22.193 49.6136C22.5812 49.39 22.937 49.1663 23.2929 48.9427V46.2903C22.8076 46.546 22.3223 46.8335 21.8047 47.1531ZM47.2651 47.4407C47.6856 48.0478 48.1709 48.655 48.6562 49.2623C48.7209 49.3581 48.8179 49.4539 48.8827 49.5498V40.1548C48.2356 39.1961 47.621 38.3013 47.1357 37.5663V42.3917L47.5239 42.3278V43.3184L47.2651 43.3503V47.4407ZM24.231 45.715V48.3674C24.5222 48.1757 24.8134 48.0159 25.1046 47.8242C25.3309 47.6963 25.5251 47.5685 25.7192 47.4407V44.8203C25.6221 44.8842 25.5251 44.9481 25.428 45.0121C25.0398 45.2038 24.6517 45.4595 24.231 45.715ZM21.1577 46.8016C21.0283 46.8655 20.9312 46.9295 20.8018 47.0253C20.8988 46.9614 20.9636 46.9295 21.0607 46.8654L21.1577 46.8016ZM26.6573 44.2132V46.8335C26.7544 46.7696 26.8515 46.7057 26.9163 46.6738C27.3367 46.4181 27.725 46.1625 28.1455 45.9068V43.2864C27.8544 43.4782 27.5955 43.638 27.3043 43.8298C27.078 43.9575 26.8839 44.0853 26.6573 44.2132ZM29.0838 42.6474V45.2677C29.6013 44.9161 30.119 44.5646 30.5719 44.2771V41.6567C30.119 41.9763 29.6013 42.3278 29.0838 42.6474ZM36.1686 41.6886V44.1173L36.4922 44.0534V41.401C36.3951 41.497 36.298 41.5928 36.1686 41.6886ZM31.5101 41.0495V43.606C32.06 43.2225 32.5453 42.871 32.9982 42.5195V39.995C32.5453 40.3466 32.06 40.6981 31.5101 41.0495ZM33.9364 39.292V41.8484C34.357 41.5289 34.7775 41.2093 35.1981 40.8578V38.3332C34.8422 38.6209 34.3893 38.9404 33.9364 39.292ZM31.2189 40.4743C31.9306 39.995 32.5776 39.5156 33.1277 39.1321L33.2894 39.0043C32.6746 39.4517 31.9954 39.9311 31.2189 40.4743ZM36.1363 37.5984V40.0589C36.2656 39.9631 36.3627 39.8671 36.4598 39.7713V37.3107C36.3627 37.4066 36.2656 37.5024 36.1363 37.5984ZM44.9035 91.3481H42.7036L44.9035 89.175V91.3481ZM42.2183 91.3481H40.9243L38.4009 88.8555H44.7416L42.2183 91.3481ZM41.183 90.7089H41.9595L43.1889 89.4946H39.9537L41.183 90.7089ZM40.4066 91.3481H38.595V89.5905L40.4066 91.3481ZM44.9035 88.472L41.83 85.4363L44.9035 82.4005V88.472ZM42.736 85.4363L44.2565 86.9381V83.9343L42.736 85.4363ZM38.595 88.1205V82.7839L41.3125 85.4363L38.595 88.1205ZM39.242 84.3178V86.5866L40.4066 85.4363L39.242 84.3178ZM43.9976 88.0566H39.145L41.5713 85.6599L43.9976 88.0566ZM40.6978 87.4175H42.4448L41.5713 86.5546L40.6978 87.4175ZM41.5389 85.1806L38.5626 82.1767L39.3713 82.2086C40.0831 82.2086 40.8272 82.2406 41.5389 82.2406C42.2831 82.2406 42.9947 82.2406 43.7388 82.2725L44.4829 82.3045L41.5389 85.1806ZM40.1155 82.8478L41.5389 84.2538L42.9301 82.8798C42.4448 82.8798 41.9919 82.8798 41.5066 82.8478C41.0537 82.8798 40.6007 82.8798 40.1155 82.8478ZM112.841 84.4136H112.518C112.323 84.4136 112.162 84.3817 112.032 84.3498V84.3817L111.256 84.2218V84.2538L110.868 84.158C110.738 84.126 110.641 84.0941 110.512 84.0941H110.188V81.3459L110.221 81.282C110.318 81.0263 110.576 80.8027 110.9 80.7707L111.288 80.7067V80.7707H111.741V80.7386H112.356C112.453 80.7386 112.55 80.7386 112.679 80.8027L112.873 80.8985V84.4136H112.841ZM44.0624 82.2086L43.3183 82.1767H42.736L42.7682 82.1448C41.8624 82.1128 40.9567 82.1128 40.0185 82.1128H38.595V79.3646L41.2478 79.4604V79.4285L44.9358 79.5563V82.1767L44.0624 82.2086ZM40.7626 81.4736C41.3772 81.4736 42.0242 81.5056 42.6389 81.5056L41.733 80.4831L40.7626 81.4736ZM42.7036 80.1316L43.6741 81.2181L44.2565 80.8666V80.1954L42.7036 80.1316ZM39.242 80.5789L39.8244 81.1221L40.8272 80.0677L39.242 80.0038V80.5789ZM112.291 80.1954H110.9V80.1635C110.609 80.1635 110.318 79.9718 110.221 79.6842L110.188 79.6203V79.4604H110.123V76.8081L110.156 76.7442C110.253 76.4566 110.544 76.2329 110.9 76.1691L111.256 76.1052V76.1691H112.323C112.356 76.1691 112.388 76.1691 112.42 76.1691V75.5618H111.288V75.5938H110.965C110.609 75.5938 110.285 75.3702 110.188 75.0506L110.156 74.9867V74.6991H110.123V74.4114H110.091V73.0693L110.123 73.0054C110.221 72.6859 110.512 72.4941 110.868 72.4621V72.4302H112.453V72.1425L112.744 72.4302H112.809V72.4941L113.003 72.6859C113.067 72.7498 113.197 72.8775 113.197 73.0693V74.6032H113.132V74.8268C113.132 74.9228 113.1 74.9867 113.067 75.0186C113.067 75.0186 113.1 74.9867 113.1 74.9228H112.809V75.7856L112.615 75.3063L112.647 75.4979H112.485L113.003 76.5206C113.003 76.5525 113.035 76.5845 113.035 76.5845L113.1 76.6484V79.3646H112.776V80.0677H112.453C112.42 80.1954 112.356 80.1954 112.291 80.1954ZM44.9035 79.4604H44.5799C42.6712 79.3966 40.7948 79.3327 38.9509 79.2688H38.6273V70.8643L38.6597 70.8004C38.8538 70.1932 39.4361 69.7778 40.0831 69.682L43.3506 69.3943C44.03 69.3305 44.677 69.7139 44.8711 70.3211L44.9035 70.385V79.4604ZM39.2743 78.6296C40.9243 78.6935 42.5741 78.7574 44.2565 78.7893V70.4489C44.127 70.1613 43.7712 69.9696 43.4154 70.0016L40.1478 70.2892C39.7596 70.3211 39.4037 70.5767 39.2743 70.9282V78.6296ZM39.9214 67.1255C39.3067 67.1255 38.7891 66.7741 38.595 66.2307L38.5626 66.1668V65.336H38.4009V64.3453H38.4332V59.1366C38.6273 58.4974 39.242 57.9861 39.9214 57.9223L43.3183 57.5068C44.0946 57.4109 44.7094 57.7943 44.9358 58.4335L44.9681 58.4974V64.8248H44.8387V65.6556L44.8064 65.7195C44.6123 66.3266 43.9976 66.806 43.3183 66.838L40.0507 67.1575C40.0507 67.1255 39.9861 67.1255 39.9214 67.1255ZM39.242 66.071C39.3713 66.3585 39.6949 66.5184 40.0507 66.4864L43.3183 66.1668C43.7064 66.1349 44.0946 65.8792 44.2241 65.5277V64.4413L43.8683 64.4732V63.3867L44.3535 63.3228V58.6253C44.2241 58.3057 43.8683 58.1459 43.4476 58.1778L40.0507 58.5934C39.6303 58.6253 39.242 58.9448 39.1126 59.3282V63.866L39.5655 63.8021V64.8886L39.242 64.9206V66.071ZM39.889 55.4936C39.242 55.4936 38.6597 55.1421 38.498 54.5668V54.471V53.3845H38.4009V52.7774H38.3685V49.9013L38.4009 49.8374C38.595 49.2302 39.242 48.7509 39.9537 48.6231L43.5447 48.1118C44.2887 47.9839 44.9681 48.3035 45.2269 48.9107L45.2593 48.9746V51.8506H45.1623V52.5536H45.0652V53.768C44.8711 54.4071 44.2565 54.8864 43.5447 55.0142L40.1478 55.4616C40.0185 55.4936 39.9537 55.4936 39.889 55.4936ZM39.145 54.4391C39.242 54.7267 39.6303 54.8864 40.0185 54.8545L43.4154 54.4071C43.8683 54.3432 44.2565 54.0556 44.3858 53.6402V52.266L44.127 52.2979V51.3074L44.5799 51.2435V49.1024C44.4182 48.8148 44.0624 48.687 43.6417 48.7509L40.0507 49.2623C39.5979 49.3261 39.1772 49.6457 39.0479 49.9971V52.0105L39.4361 51.9464V52.9052L39.1772 52.9371V54.4391H39.145ZM39.6949 46.1625C39.0802 46.1625 38.5302 45.843 38.3361 45.3316L38.3038 45.2677V44.98L38.142 45.0121V44.373H38.1744V41.0814C38.3361 40.4104 38.9833 39.8671 39.792 39.7074L40.7302 39.5477L40.6978 39.5156L43.48 39.0363C44.2887 38.8766 45.0652 39.26 45.2269 39.9311V40.027V42.9668H45.2917V43.8617L45.1299 43.8936V44.2771L45.0976 44.341C45.0652 44.4688 44.9682 44.5967 44.9035 44.6925L44.6447 45.076L44.4182 45.2357C44.1594 45.4275 43.8359 45.5553 43.5124 45.5873L39.9214 46.1305C39.889 46.1305 39.792 46.1625 39.6949 46.1625ZM38.9833 45.1399C39.1126 45.4275 39.4684 45.5553 39.889 45.4914L43.48 44.9481C43.5771 44.9481 43.7064 44.9161 43.8035 44.8842C42.5094 43.1267 41.3449 41.4649 40.536 40.2506L39.9214 40.3466C39.4037 40.4424 38.9509 40.7939 38.8214 41.1774V43.6699L39.1772 43.606V44.5967L38.9509 44.6286V45.1399H38.9833ZM44.5475 43.7338C44.5475 43.7657 44.5475 43.7657 44.5475 43.7338V43.7338ZM41.8624 39.995C41.9919 40.1867 42.1212 40.3785 42.2831 40.6021C42.4771 40.8578 42.6712 41.1455 42.8653 41.4649C43.1242 41.8164 43.4154 42.2318 43.7388 42.6793C43.9005 42.9349 44.0946 43.1906 44.2887 43.4463V42.8391L44.6447 42.7752V40.1548C44.5477 39.8671 44.1594 39.6435 43.6417 39.7393L41.8624 39.995Z" fill="#DBDBDB"/>
</svg>
